<?xml version="1.0" standalone="no"?>
<!DOCTYPE svg PUBLIC "-//W3C//DTD SVG 1.1//EN" "http://www.w3.org/Graphics/SVG/1.1/DTD/svg11.dtd" >
<svg xmlns="http://www.w3.org/2000/svg" xmlns:xlink="http://www.w3.org/1999/xlink" version="1.1">
<metadata>
Created by FontForge 20170731 at Tue Dec  8 17:01:18 2020
 By Aleksey,,,
Dead Skull (c) Dm Studio. 2019 . All Rights Reserved
</metadata>
<defs>
<font id="DeadSkull" horiz-adv-x="439" >
  <font-face 
    font-family="Dead Skull"
    font-weight="400"
    font-stretch="normal"
    units-per-em="1000"
    panose-1="2 0 5 0 0 0 0 0 0 0"
    ascent="800"
    descent="-200"
    x-height="536"
    cap-height="960"
    bbox="-216 -412 1001 1162"
    underline-thickness="50"
    underline-position="-150"
    unicode-range="U+001D-2026"
  />
<missing-glyph horiz-adv-x="500" 
 />
    <glyph glyph-name=".notdef" horiz-adv-x="500" 
 />
    <glyph glyph-name=".null" horiz-adv-x="0" 
 />
    <glyph glyph-name=".null" horiz-adv-x="0" 
 />
    <glyph glyph-name="nonmarkingreturn" horiz-adv-x="508" 
 />
    <glyph glyph-name="space" unicode=" " horiz-adv-x="351" 
 />
    <glyph glyph-name="space" unicode="&#xa0;" horiz-adv-x="351" 
 />
    <glyph glyph-name="exclam" unicode="!" horiz-adv-x="193" 
d="M154 141q-16 0 -26 25l-19 -15h-8q-21 0 -21 31q4 25 24 25h7q5 79 7 176q0 184 -67 321q-16 -5 -27 -5q-19 0 -24 27v7q0 22 31 26l12 -2q8 26 27 26q31 -4 31 -26q0 -14 -17 -34q73 -136 73 -357q0 -29 -5 -164q-2 -5 -2 -8q29 -3 29 -26q-4 -27 -25 -27zM121 -49
q-45 0 -68 55q-2 10 -2 27q0 31 36 60q0 31 22 31l2 -4v-20h5l-3 20l5 2h5q5 0 7 -19h3q0 8 -3 17l5 2h7q4 0 17 -31q34 -28 34 -58v-12q0 -55 -72 -70zM147 -8q19 0 22 24q0 38 -22 38q-21 -8 -21 -31q0 -21 16 -31h5zM94 -3q11 0 17 24q-3 26 -22 26q-14 -6 -14 -21v-8
q0 -21 19 -21z" />
    <glyph glyph-name="quotedbl" unicode="&#x22;" horiz-adv-x="242" 
d="M161 682l-5 7q55 41 56 51q-13 -2 -26 -2q-41 0 -51 54q10 53 56 53q51 -10 51 -51v-8q0 -69 -81 -104zM28 679h-2q-6 0 -6 8q46 32 57 51q-19 -5 -26 -5q-51 11 -51 48v16q13 43 43 43h16q46 -10 46 -46v-20q0 -55 -77 -95z" />
    <glyph glyph-name="numbersign" unicode="#" horiz-adv-x="456" 
d="M237 28h-4q-14 0 -28 23q-11 -16 -25 -16q-20 9 -20 30q6 27 25 27q4 -2 6 -2v2q7 115 7 194q0 23 -7 23q-58 9 -129 23q0 -12 -12 -19h-7q-18 0 -18 21q0 8 18 23q-7 2 -7 13v12q2 5 16 11q23 -5 23 -23v-6q62 -14 119 -23q0 50 -9 50q-96 14 -149 25q0 -9 -13 -18h-12
q-3 0 -11 11v14q0 3 16 18q-7 9 -7 21q8 16 18 16q21 -5 21 -21v-9q105 -23 137 -23q-23 96 -51 148q-2 0 -4 7q-13 -7 -23 -7q-25 8 -25 28v6q0 19 25 26l18 -3q0 24 30 28q25 -8 25 -25v-7q0 -10 -14 -25q40 -86 57 -180q27 0 76 4q0 78 -60 212q-14 -4 -27 -4
q-18 0 -23 25v6q0 21 30 28q3 -2 14 -2q7 25 25 25h4q25 -4 25 -25v-7q0 -13 -16 -25q45 -78 64 -219v-2q7 0 43 13l-2 12q0 27 21 27q17 0 20 -23l-2 -16q11 0 16 -23q-4 -20 -14 -20v-2q28 -1 28 -25q-3 -3 -3 -14q14 -8 14 -21q0 -25 -21 -25q-9 0 -20 16
q-54 -23 -73 -23q0 -101 -5 -175q24 0 28 -30q-6 -23 -23 -23q-12 0 -30 23q-9 -13 -23 -13h-6q-16 9 -16 29q5 25 25 25h7q4 77 6 158l-50 -3l-20 3v-85q0 -63 -5 -143q28 -3 28 -25t-21 -26zM344 345q36 12 59 21l-2 20q6 16 14 16v3q-17 0 -27 16q-24 -12 -48 -19l2 -57
h2zM248 336l57 2q-2 27 -2 55q-62 -4 -75 -4l5 -51z" />
    <glyph glyph-name="dollar" unicode="$" horiz-adv-x="425" 
d="M245 -22q-15 0 -17 7l-12 -2q-9 3 -9 7v9q0 4 9 10h12q7 27 7 55q-82 0 -187 135q-9 -7 -22 -7q-15 0 -26 36q4 19 19 19h19q0 35 27 41q24 0 31 -36q-3 -13 -14 -24q78 -121 149 -121v3q-14 55 -27 55q-17 0 -17 12q0 11 27 15q0 3 7 7q17 0 17 -17q-5 -8 -5 -12
q19 -56 19 -65q51 0 92 67q7 22 7 36v12q0 71 -101 118q0 -12 -17 -12h-5q-20 0 -29 31q0 22 22 22h12l-2 17l2 17q-9 -5 -26 -5v-22q0 -20 -27 -24q-29 10 -29 31v10q5 15 5 22q-113 88 -113 197q0 106 113 141q24 0 24 22q0 3 12 36q-4 0 -7 12q5 11 10 12h9q5 -4 27 -12
l4 -7v-5q0 -4 -9 -9h-10l-5 2q-12 -30 -12 -46q107 0 183 -146q8 5 14 5q25 0 29 -37q-4 -21 -19 -21q-7 2 -24 2q-6 -31 -29 -31q-22 0 -26 34v2q5 29 19 29q-64 120 -149 120h-10v-22q0 -24 10 -48q5 3 7 3q15 -6 15 -17q-4 -10 -8 -10h-12l-4 3q0 -4 -10 -10h-5
q-4 0 -9 10q0 9 4 17q-9 28 -9 69h-3q-74 -28 -74 -98q0 -80 101 -171q6 12 21 12q29 -9 29 -36v-5q4 0 15 5q27 0 33 -36q-3 -11 -9 -19q115 -62 115 -164q0 -91 -96 -137q-20 -7 -41 -7v-14q0 -29 -10 -46l8 -14q-5 -11 -10 -12z" />
    <glyph glyph-name="percent" unicode="%" horiz-adv-x="392" 
d="M64 20q-26 0 -26 29v12h-25q-4 0 -13 13v13q0 17 21 28h12q9 0 18 -7q201 246 236 400q10 46 13 71q-23 0 -33 21v15q0 24 33 28q23 -3 23 -15h5q14 10 23 10q24 0 31 -30q0 -25 -41 -36q-4 -115 -126 -313q-49 -73 -138 -187q13 -6 13 -26q-5 -26 -26 -26zM92 515h-10
q-49 9 -49 49q0 44 57 51q51 -11 51 -51q-8 -49 -49 -49zM344 49h-11q-48 7 -48 48q0 43 53 52q54 -10 54 -52q-7 -48 -48 -48z" />
    <glyph glyph-name="ampersand" unicode="&#x26;" horiz-adv-x="480" 
d="M430 15h-12q-20 0 -25 28q10 23 10 27q-25 23 -63 78q-94 -95 -170 -95h-22q-93 0 -143 110q-5 23 -5 52q0 90 113 151v2q-8 10 -8 25q6 30 30 30h5q19 0 23 -25v-22q11 0 27 -5q-65 109 -97 207h-5q0 -3 -8 -15q15 -9 15 -22v-8q0 -17 -22 -25q-25 10 -25 30
q-9 -5 -15 -5q-14 0 -18 10v13q3 25 23 25l12 -3q0 5 25 50q0 35 -19 35t-26 30v3q5 27 25 27q15 0 30 -10q0 13 23 18h7q21 0 28 -30l-3 -18h3q31 15 60 15h15q89 0 132 -92l5 -30q0 -69 -85 -135q5 -9 5 -15v-8q-5 -25 -25 -25h-7q-15 6 -15 35q-28 4 -28 18q7 30 30 30
q2 0 15 -10q65 62 65 117q0 67 -92 80q-44 0 -95 -40v-2q37 -153 212 -403q5 0 5 7q-12 12 -12 30q6 30 32 30q25 0 25 -42l18 2q22 0 22 -20q0 -32 -30 -37q-11 0 -20 7q-10 -11 -10 -17l65 -78q12 10 23 10q27 -8 27 -30v-5q0 -20 -25 -20h-12l2 -12q-5 -28 -15 -28z
M175 98q71 0 138 85q-85 117 -113 173h-2q-9 -38 -38 -38q-15 6 -17 15q-90 -42 -90 -110q0 -81 92 -123q17 -2 30 -2z" />
    <glyph glyph-name="quotesingle" unicode="'" horiz-adv-x="114" 
d="M33 677q-7 0 -11 9q0 2 49 38l13 19q-20 -6 -27 -6q-48 0 -57 60q0 48 60 57q54 -12 54 -52v-21q0 -55 -81 -104z" />
    <glyph glyph-name="parenleft" unicode="(" horiz-adv-x="188" 
d="M146 15q-19 0 -38 47q-51 23 -83 121q-25 82 -25 186q0 210 92 301q23 15 25 15l-3 11q9 32 32 32h4q23 -5 23 -23v-9q0 -8 -9 -20v-2q18 -18 18 -29v-5q-6 -22 -23 -22q-12 0 -29 13h-2q-51 0 -72 -210l-2 -59q0 -199 72 -269q20 30 35 30h5q18 0 22 -25q0 -20 -24 -34
q4 -20 4 -29q0 -14 -22 -20z" />
    <glyph glyph-name="parenright" unicode=")" horiz-adv-x="182" 
d="M41 42q-22 0 -22 24l5 23q-24 11 -24 29q0 28 26 28q15 0 32 -31q29 16 50 87q22 83 22 176q0 184 -59 255l-15 5q-12 -13 -24 -13h-4q-12 0 -22 15v11q0 13 18 23q-9 23 -9 29v10q10 18 24 18q27 0 32 -37l-2 -7q106 -53 113 -305q0 -205 -89 -286q-21 -9 -28 -39
q-12 -15 -24 -15z" />
    <glyph glyph-name="asterisk" unicode="*" horiz-adv-x="151" 
d="M128 712q-12 0 -51 15l-50 -12q-5 56 -22 86q-3 0 -5 8q45 9 47 14q20 28 27 32q32 -39 47 -39q20 -5 30 -5v-2l-23 -50v-47z" />
    <glyph glyph-name="plus" unicode="+" horiz-adv-x="436" 
d="M231 78q-21 4 -21 19h-2q-8 -7 -23 -7q-14 5 -14 18q0 21 25 21l5 -2q28 121 28 141q-62 0 -192 25q0 -18 -23 -18q-14 8 -14 20t18 21q-6 12 -6 19v9q5 11 20 11q19 -6 19 -23v-7q117 -25 182 -25v37q0 75 -28 125h-16q-20 3 -20 20q7 21 25 21q6 0 14 -4q8 16 23 16
q19 0 25 -19q0 -6 -16 -27q26 -59 26 -132v-37q55 0 117 30l-2 16q5 21 23 21q21 -3 21 -25l-5 -12q11 -5 16 -16q0 -32 -18 -32q-12 0 -23 16q-70 -30 -134 -30q0 -35 -30 -153q21 -3 21 -20q-7 -17 -21 -17z" />
    <glyph glyph-name="comma" unicode="," horiz-adv-x="100" 
d="M29 -101q-6 0 -10 7q0 3 43 34l12 16q-18 -4 -24 -4q-42 0 -50 52q0 42 52 50q48 -10 48 -45v-19q0 -48 -71 -91z" />
    <glyph glyph-name="hyphen" unicode="-" horiz-adv-x="446" 
d="M246 237q-66 0 -208 28q0 -9 -14 -19h-12q-12 6 -12 19v7q0 3 17 19q-8 12 -8 24q9 14 22 14q19 -6 19 -22v-9q130 -28 196 -28q70 0 146 30q-2 10 -2 19q0 13 14 22h7q18 0 21 -24l-2 -17q12 0 16 -23q-3 -24 -21 -24q-9 0 -24 17q-71 -33 -155 -33z" />
    <glyph glyph-name="hyphen" unicode="&#xad;" horiz-adv-x="446" 
d="M246 237q-66 0 -208 28q0 -9 -14 -19h-12q-12 6 -12 19v7q0 3 17 19q-8 12 -8 24q9 14 22 14q19 -6 19 -22v-9q130 -28 196 -28q70 0 146 30q-2 10 -2 19q0 13 14 22h7q18 0 21 -24l-2 -17q12 0 16 -23q-3 -24 -21 -24q-9 0 -24 17q-71 -33 -155 -33z" />
    <glyph glyph-name="period" unicode="." horiz-adv-x="148" 
d="M60 -106q-22 0 -22 33q-38 30 -38 63q0 18 3 27q24 58 70 58q75 -15 75 -73v-12q0 -32 -35 -61q-14 -32 -17 -32h-8l-5 2l3 18h-3q-3 -20 -8 -20h-5l-5 2l3 20h-5v-20zM101 -33q19 0 22 30q0 36 -22 36h-5q-18 -11 -18 -33q0 -24 23 -33zM40 -25q20 0 23 27q-7 26 -18 26
q-20 0 -20 -23v-8q0 -16 15 -22z" />
    <glyph glyph-name="slash" unicode="/" horiz-adv-x="338" 
d="M57 82q-23 0 -23 28v9h-16q-18 0 -18 18v4q0 22 29 28l16 -10q218 266 218 418q-27 6 -27 27q4 29 25 29h7q9 0 22 -13q10 9 23 9q25 -4 25 -25q0 -23 -34 -34q-20 -147 -143 -320l-91 -120q9 -12 9 -25q-4 -23 -22 -23z" />
    <glyph glyph-name="zero" unicode="0" horiz-adv-x="389" 
d="M242 -5h-5q-25 11 -25 30v7q0 4 7 20q-21 16 -21 30h-2q0 -16 -26 -32q5 -16 5 -30q-3 -21 -21 -21q-23 0 -41 49q-49 31 -69 85q-44 95 -44 228v30q0 198 88 304q18 17 34 23l-2 12q8 34 30 34h14q18 -10 18 -27q-2 -15 -12 -28v-2q21 -20 21 -37q-8 -21 -23 -21
q-16 0 -37 14q-31 0 -60 -120q-11 -56 -16 -168q0 -194 65 -283l14 -12q14 35 41 35q21 -7 21 -28h2q3 21 21 21q16 0 34 -21q76 79 76 279v43q0 177 -60 256q-7 2 -13 2q-11 -25 -30 -25h-10q-18 0 -23 25v5q6 25 21 25l-7 28q6 25 23 25h5q18 0 30 -32q44 -12 87 -108
q37 -117 37 -233q0 -214 -90 -311q-25 -16 -25 -27q0 -37 -32 -44z" />
    <glyph glyph-name="one" unicode="1" horiz-adv-x="203" 
d="M175 -2q-15 0 -30 30q-18 -19 -30 -19h-4q-21 14 -21 33q0 34 37 34q7 113 7 226q0 222 -76 380q-12 -6 -30 -6q-22 0 -28 36q8 35 35 35q10 -2 16 -2q0 29 37 32q25 -12 25 -28v-9q0 -16 -16 -34q81 -171 81 -438q0 -64 -7 -206q32 -7 32 -32q-7 -32 -28 -32z" />
    <glyph glyph-name="two" unicode="2" horiz-adv-x="456" 
d="M251 21q-57 0 -160 25q-11 -25 -29 -25q-28 0 -28 43q-28 0 -34 16v12q8 27 30 27q15 -7 18 -7q75 85 116 199q82 193 82 332q-7 82 -55 82t-102 -127q7 -9 7 -16v-7q-6 -34 -32 -34h-7q-17 0 -25 32q-32 0 -32 41q0 24 34 29q8 0 21 -9q72 139 141 139q66 0 91 -109
q3 -18 3 -55q0 -187 -144 -449q-31 -44 -55 -73v-2q98 -25 160 -25q78 0 148 41q-2 11 -2 23q5 27 27 27q16 -7 16 -23l-2 -23q18 -9 18 -25q-5 -25 -23 -25q-8 0 -20 9h-3q-72 -43 -159 -43z" />
    <glyph glyph-name="three" unicode="3" horiz-adv-x="349" 
d="M188 14q-99 0 -149 140q-4 32 -16 32q-23 7 -23 25t21 25q9 -2 16 -7q16 14 27 14q21 0 23 -27v-3q-7 -27 -23 -27v-2q28 -98 76 -124q21 -12 34 -12h10q82 0 112 152q5 25 5 57v30q0 138 -69 211q-16 11 -30 11h-7q-13 0 -21 -20q-11 -7 -23 -7q-18 0 -18 18q0 6 7 28
q-10 4 -16 14q5 27 27 27q13 -4 19 -9q89 56 89 117v7q0 48 -73 66h-9q-50 0 -101 -64q9 -14 9 -23q-6 -23 -23 -23h-7q-14 8 -14 28h-18q-4 0 -9 9v7q0 19 23 25q7 -5 13 -5q62 76 120 76h16q75 0 105 -78q3 -9 3 -32q0 -62 -78 -122q77 0 121 -156q12 -62 12 -112
q0 -163 -94 -243q-39 -23 -67 -23z" />
    <glyph glyph-name="four" unicode="4" horiz-adv-x="436" 
d="M337 35q-19 0 -29 31q-16 -16 -34 -16q-18 8 -18 30v6q6 30 27 30l11 -3v3q27 222 27 294q-46 -7 -74 -7q-64 0 -186 27q0 -5 -12 -11h-11q-20 3 -20 20l2 11q-20 11 -20 25q3 20 20 20h9l7 -4q8 7 17 7q7 0 14 -5q139 100 173 202v9q-17 0 -22 36q0 26 36 34l16 -7
q0 28 36 32q24 -12 24 -27v-11q0 -13 -20 -34q52 -140 52 -272q13 7 18 7l-2 11v11q10 16 22 16q20 0 20 -18l-2 -18q18 -9 18 -23q-9 -18 -22 -18q-9 0 -23 9q-29 -11 -29 -13q0 -117 -27 -321q29 -12 29 -32q-7 -31 -27 -31zM245 435q45 0 76 9q0 115 -45 251h-2
q-36 -117 -191 -229q-9 -3 -9 -7q106 -24 171 -24z" />
    <glyph glyph-name="five" unicode="5" horiz-adv-x="370" 
d="M189 22h-17q-77 0 -128 116l-14 45q-30 8 -30 28q3 23 21 23l19 -5q9 12 21 12q21 0 25 -26q-8 -30 -23 -30q38 -133 114 -133q79 0 109 149q4 46 5 49q0 137 -79 224q-25 14 -37 14h-12q-11 0 -19 -19q-8 -7 -16 -7h-12q-3 0 -11 12v9l7 23q-10 4 -10 14h-4l-7 -25
q7 -9 7 -16q0 -21 -19 -21h-4q-11 14 -24 14q-21 3 -21 21q5 16 19 16l16 -3q42 105 42 187q0 25 -12 25q-34 7 -39 10q-6 -12 -19 -12q-21 3 -21 21q6 14 14 14l-2 12q0 16 16 23q12 0 21 -14v-14l-2 -5q31 -7 37 -7q-5 12 -5 17q-2 0 -6 -3q-20 0 -24 26q5 14 19 14
q4 0 14 -5q9 14 18 14q17 -7 17 -21q0 -5 -10 -18q4 -33 17 -33q40 -5 67 -5q62 0 114 24l-2 11q0 17 23 21q10 0 14 -9v-16l-2 -5q11 -4 16 -14q0 -21 -18 -21q-10 0 -19 7q-55 -26 -123 -26q-29 0 -77 7l2 -14q0 -67 -28 -158q8 5 19 5q12 0 28 -19l23 2q108 0 154 -195
q4 -31 4 -77q0 -129 -86 -212q-37 -21 -60 -21z" />
    <glyph glyph-name="six" unicode="6" horiz-adv-x="437" 
d="M205 0h-7q-130 0 -186 249q-12 64 -12 114v29q0 195 107 334q50 50 98 50l34 -5q20 32 38 32q24 0 29 -32q0 -10 -17 -28q12 -22 12 -41q-3 -21 -22 -21h-7q-23 0 -33 36q-9 4 -19 4h-10q-63 0 -119 -150q-34 -104 -34 -203v-26q0 -182 93 -277q32 -22 58 -22
q98 0 152 208q-31 16 -31 38q0 46 29 46q12 0 33 -22q0 6 20 10h2q24 -4 24 -31q0 -36 -41 -41q-15 -92 -47 -148q-65 -103 -144 -103zM138 141h-4q-19 0 -19 19q0 11 2 22q-7 16 -7 43q0 82 117 157q36 19 69 19q25 0 43 -9q8 5 17 5q24 -4 24 -22v-7q-4 -9 -17 -9v-15
q0 -3 -7 -7h-5q-17 0 -26 29q-10 2 -19 2q-69 0 -151 -112q-17 -37 -17 -55l3 -14q36 0 36 -24q-2 -15 -15 -15q-4 0 -14 5q-5 -11 -10 -12z" />
    <glyph glyph-name="seven" unicode="7" horiz-adv-x="479" 
d="M249 -17h-7q-24 0 -29 33q0 23 34 42q-5 43 -5 96q0 210 148 569h-3q-70 -24 -135 -24h-17q-70 0 -187 26q0 -3 -14 -12h-12q-22 3 -22 22q0 14 17 22l-2 17q3 24 24 24q21 -3 21 -22l-2 -17q113 -29 182 -29q130 10 130 34q21 39 41 39q17 -5 17 -20l-2 -19
q11 -5 12 -10l17 3q24 0 24 -29q-8 -39 -34 -39q-10 3 -17 3q-140 -326 -140 -530q0 -44 5 -95l5 3h9q34 0 34 -37q-5 -38 -39 -38q-10 0 -24 12q-9 -24 -29 -24z" />
    <glyph glyph-name="eight" unicode="8" horiz-adv-x="363" 
d="M224 3q-19 0 -27 23q0 6 7 17q-10 0 -18 18h-2q0 -8 -23 -20q5 -8 5 -15q0 -20 -22 -20q-21 0 -38 35q-100 41 -106 227q0 157 93 224h3v5q-61 44 -61 146q8 129 81 161q6 0 12 18q9 7 26 7q10 -3 15 -12v-10l-5 -8q10 -5 10 -12q12 7 12 15l-2 5q3 10 13 15h10
q11 0 22 -15q88 -40 88 -167q0 -89 -55 -143q49 -22 83 -106q18 -62 18 -111q0 -196 -106 -239q0 -38 -33 -38zM179 512q34 13 45 13l10 -5q38 43 38 128q-10 129 -50 129h-3q0 -13 -25 -13q-18 2 -18 13q-14 -11 -20 -11q-23 8 -28 8q-47 -29 -47 -136q0 -81 35 -118
q14 15 35 15q6 0 28 -23zM123 66q20 23 43 23q18 -7 18 -18h2q0 13 18 13q17 0 33 -13q70 50 70 187v27q0 134 -60 179h-8q0 -12 -30 -20q-28 3 -28 23q0 9 10 20l-12 7q-6 -5 -10 -5q10 -10 10 -20v-5q-9 -15 -25 -15q-19 4 -26 10h-2q-56 0 -71 -184v-17q0 -141 68 -192z
" />
    <glyph glyph-name="nine" unicode="9" horiz-adv-x="350" 
d="M131 -14h-14q-20 0 -27 26v12q0 16 31 38q-4 53 -4 90q0 137 62 336q-34 -8 -34 -14q-6 -12 -21 -12q-22 5 -22 21l5 15q-5 0 -5 7q-19 0 -19 -9.5t-9 -14.5h-7q-19 0 -27 31q-40 33 -40 86v23q0 105 90 172q17 7 41 12q0 12 21 14q13 0 22 -14v-10q0 -7 -10 -7
q7 -10 7 -17q6 5 15 5v12q0 4 9 9h7q16 0 24 -21q17 -11 17 -17q15 19 28 19h7q22 -12 22 -40q12 10 26 10q24 0 24 -29q-7 -38 -33 -38q-8 2 -17 2q-138 -323 -138 -528q0 -19 5 -83h14q33 -4 33 -29v-12q0 -28 -38 -33q-9 0 -21 9q-18 -19 -24 -21zM140 507q33 0 74 83
q19 55 19 93q0 67 -21 67q-8 -5 -14 -5h-8q-21 4 -21 17q-10 -5 -14 -5q-13 4 -24 14h-2q-59 0 -91 -162v-16q0 -48 24 -67q1 7 24 7q16 0 16 -12l15 3q8 -3 23 -17z" />
    <glyph glyph-name="colon" unicode=":" horiz-adv-x="100" 
d="M48 388h-7q-41 7 -41 39v6q0 36 48 40q44 -10 44 -42q-9 -43 -44 -43zM54 82q-34 0 -45 37v9q8 39 37 39h13q41 -8 41 -41q0 -35 -46 -44z" />
    <glyph glyph-name="semicolon" unicode=";" horiz-adv-x="108" 
d="M49 432h-4q-45 9 -45 45q8 43 43 43h9q42 -8 42 -43q0 -36 -45 -45zM34 47q-3 4 -3 9q41 27 50 42v3q-9 -5 -25 -5q-43 12 -43 40v16q0 29 45 40q50 -7 50 -47q0 -68 -74 -98z" />
    <glyph glyph-name="semicolon" unicode="&#x37e;" horiz-adv-x="108" 
d="M49 432h-4q-45 9 -45 45q8 43 43 43h9q42 -8 42 -43q0 -36 -45 -45zM34 47q-3 4 -3 9q41 27 50 42v3q-9 -5 -25 -5q-43 12 -43 40v16q0 29 45 40q50 -7 50 -47q0 -68 -74 -98z" />
    <glyph glyph-name="less" unicode="&#x3c;" horiz-adv-x="391" 
d="M341 59q-20 0 -20 18q0 12 11 24q-60 72 -107 90q-48 29 -180 63q-7 -18 -20 -18q-21 3 -21 20q0 8 16 21q-9 3 -9 15t7 21q-18 9 -18 22q0 15 20 18q10 0 23 -18q128 34 195 72q44 25 90 81q-11 11 -11 20v4q0 13 11 18h9q20 0 22 -26h12q15 -8 15 -23v-4q0 -16 -15 -16
q-5 0 -21 4q-58 -67 -98 -85q-68 -40 -200 -76v-12l-3 -4q147 -40 216 -83q50 -30 90 -81q8 4 27 4q9 -3 9 -15v-12q-5 -10 -16 -15h-11q-3 -27 -23 -27z" />
    <glyph glyph-name="equal" unicode="=" horiz-adv-x="465" 
d="M19 280h-5q-14 9 -14 19q0 9 17 26q-7 12 -7 19q0 19 19 19q21 -3 21 -21v-7q84 -17 179 -22q94 0 165 41l-3 19q0 13 22 21q24 -6 24 -28l-5 -12q15 0 19 -24q0 -16 -14 -24h-7q-10 0 -24 14q-73 -38 -163 -38h-33q-66 0 -169 19q-5 -21 -22 -21zM41 160h-5
q-13 0 -19 12v10q0 11 16 24q-6 0 -9 24q2 8 14 14q26 0 26 -21v-8q123 -21 179 -21q83 0 168 38l-3 12q0 31 22 31q21 -7 21 -26l-2 -15q16 -7 16 -21v-5q0 -21 -19 -21h-7q-7 2 -16 14q-79 -38 -160 -38h-39q-66 0 -169 19q0 -11 -14 -22z" />
    <glyph glyph-name="greater" unicode="&#x3e;" horiz-adv-x="379" 
d="M48 53q-22 7 -22 26q-26 3 -26 22v11q0 2 11 10q10 0 24 -4q70 95 261 148q29 9 35 9q-2 9 -2 17q-228 60 -290 157q-11 -6 -22 -6q-13 4 -13 17v5q0 17 27 23q6 24 23 24q18 0 18 -17q0 -14 -11 -26q63 -70 111 -89q45 -24 168 -59q0 14 20 17q19 0 19 -17
q0 -12 -17 -20q6 -11 6 -17v-9q0 -1 -8 -11q15 -8 15 -22q-4 -10 -13 -15h-7q-11 0 -22 17q-143 -39 -209 -82q-67 -57 -67 -68q6 0 11 -20v-8q-8 -13 -20 -13z" />
    <glyph glyph-name="question" unicode="?" horiz-adv-x="432" 
d="M151 131q-19 6 -19 33v11q-26 0 -34 17q5 40 31 40h11l11 -9q225 203 225 379q0 38 -26 81q-39 34 -81 34q-110 0 -188 -143h3q17 -11 17 -31q-9 -34 -22 -34h-9q-23 0 -28 34q-8 0 -22 -6q-18 6 -20 14v17q4 28 25 28h11l6 -3q90 177 238 177h6q113 0 143 -121
q3 -19 3 -31q0 -159 -202 -386q-40 -37 -48 -40q9 -14 9 -28q0 -31 -40 -33zM140 -94q-69 0 -81 93q0 42 45 70v11q5 25 14 25q11 0 11 -5v-20h6v20q0 5 5 5h6q5 0 5 -25h3q0 25 6 25h5q7 0 20 -39q22 0 39 -62v-14q-11 -84 -84 -84zM171 -49q28 8 28 39q0 21 -20 34h-5
q-25 0 -25 -39q0 -24 22 -34zM107 -40q22 0 22 30q0 18 -20 28q-22 -6 -22 -28q4 -30 14 -30h6z" />
    <glyph glyph-name="at" unicode="@" horiz-adv-x="498" 
d="M298 31h-7q-18 0 -23 25q-183 0 -252 134q-16 42 -16 80v21q0 186 171 256q44 14 92 14q147 0 218 -138q17 -54 17 -82q0 -83 -66 -148q-11 0 -16 -17q-8 -4 -12 -4q-14 2 -14 7q0 8 2 16q-7 0 -14 12v7q6 12 19 12q2 0 14 -10q56 45 56 110v7q0 97 -96 172
q-52 26 -96 26h-19q-117 0 -195 -118q-33 -57 -33 -136q0 -132 141 -178q48 -12 101 -12q0 15 19 16q23 -3 23 -21l-12 -14q10 -12 10 -26q0 -3 -12 -11zM317 132h-7q-6 0 -7 9l-12 -2q-9 0 -14 16q0 3 9 17q-23 -5 -47 -5q-68 0 -82 59q-2 9 -2 16q0 70 91 110q36 5 43 5
q13 -2 19 -2q-10 61 -59 61q-59 -9 -59 -26q0 -10 -12 -10q-11 4 -11 17v5q4 5 4 7q-3 0 -9 11v12q0 4 9 9q17 0 21 -16q37 19 69 19q44 0 63 -54q8 -42 12 -42h2l9 7h12q4 0 10 -10v-7q-7 -22 -15 -26h-11l-10 7q0 -40 -7 -98q8 5 19 5q4 0 9 -10l-2 -16q10 -1 10 -7
q0 -19 -19 -19q-9 0 -19 9l-5 -7v-12q10 0 10 -14q0 -12 -12 -18zM242 193q58 6 58 11q10 69 10 125l-12 2h-12q-77 0 -103 -77v-24q0 -32 59 -37z" />
    <glyph glyph-name="A" unicode="A" horiz-adv-x="638" 
d="M518 -31q-34 0 -46 54q0 33 37 52q-43 96 -78 184q-46 6 -110 6q-75 0 -75 -11.5t-118 -186.5q14 -14 17 -31q-10 -44 -44 -44h-4q-28 0 -35 42q-48 5 -48 39q0 28 46 39q12 0 27 -10q59 81 97 149q-18 0 -112 -39l3 -19q0 -23 -36 -33q-18 0 -25 27l5 18q-19 9 -19 27
q6 33 33 33q8 0 29 -12q58 31 151 50q93 183 93 348q-45 13 -45 41v6q6 33 29 33q14 0 39 -14q4 10 27 16l13 -2v17q-19 0 -31 45q6 40 37 40q13 0 39 -23h2q19 12 33 12h9q23 0 29 -31v-2q-13 -54 -52 -54h-8q-11 -62 -11 -124q0 -146 60 -312l27 -5q0 17 33 23
q31 -4 31 -25v-6q0 -13 -10 -25q6 -14 6 -23q-3 -26 -23 -26h-6q-31 8 -31 29v10l-10 2v-2q20 -53 68 -160q15 9 37 9q35 0 40 -44q-10 -37 -42 -37q-23 0 -31 4q-18 -54 -47 -54zM416 305v2q-56 177 -56 298h-2q0 -122 -83 -296q94 0 141 -4z" />
    <glyph glyph-name="B" unicode="B" horiz-adv-x="432" 
d="M167 -90q-18 0 -37 28q-14 -6 -28 -6q-35 5 -35 32q13 46 48 46h9q8 53 8 61h-8q0 -26 -50 -33q-39 7 -39 37q0 18 26 35q-11 19 -11 34q0 21 32 24h7q41 -7 41 -39q5 0 9 -2q11 78 11 156q0 177 -68 321l-21 -2q-36 0 -46 48q0 24 35 30l24 -4q12 37 32 37q37 0 44 -50
q0 -19 -20 -39q57 -132 57 -187q3 0 11 -76q180 61 180 209q0 112 -111 176q-44 17 -76 17q-93 -9 -93 -33q0 -31 -44 -41q-37 6 -37 31v6q0 12 11 28q-28 13 -28 37q8 31 39 31h13q41 -9 41 -22q48 17 91 17h27q127 0 201 -141q20 -55 20 -95v-20q0 -124 -119 -210
q-39 -26 -76 -37v-3q110 0 147 -80q7 -23 7 -35v-17q0 -67 -74 -111q-32 -15 -67 -15h-24q-24 0 -42 5q-6 -21 -6 -66q24 -17 24 -43q-8 -39 -35 -39zM232 105q71 0 96 59q2 8 2 17q0 74 -96 85q-12 0 -34 -2q0 -54 -9 -154q28 -5 41 -5z" />
    <glyph glyph-name="C" unicode="C" horiz-adv-x="443" 
d="M403 -6q-22 6 -40 31q-41 -12 -107 -17q-183 0 -242 209q-14 66 -14 125q0 219 126 394q77 88 161 88q36 0 88 -24v2q16 27 38 27q25 0 30 -36q0 -19 -28 -33q5 -9 5 -26q0 -24 -29 -29q-40 9 -40 38v7q-15 7 -43 10q-100 0 -182 -188q-50 -123 -50 -239v-24
q0 -187 130 -230q19 -5 48 -5q90 7 97 24q0 48 33 48h7q23 0 29 -36q-7 -29 -7 -36q23 -18 23 -42q-4 -38 -33 -38z" />
    <glyph glyph-name="D" unicode="D" horiz-adv-x="482" 
d="M170 -55q-10 0 -31 17q-11 -6 -17 -6h-12q-24 0 -31 35v4q11 43 41 43l13 -2v9q-9 0 -56 8q-19 -27 -44 -27q-27 7 -27 33q0 22 25 44v2q-6 10 -8 29q6 31 27 31h6q33 -6 33 -31v-15q22 -14 54 -14q23 168 23 279v29q0 166 -50 317q-29 0 -29 -25q-14 -23 -31 -23
q-33 0 -33 23q0 13 4 27q-27 10 -27 29v6q0 20 31 27q4 -2 10 -2v2q-24 16 -24 42v6q6 35 35 35q19 0 33 -6q13 45 37 45h11q29 0 41 -49v-17q0 -21 -23 -41q0 -2 8 -19l5 2h31q164 0 254 -211q33 -98 33 -186q0 -213 -149 -317q-66 -37 -138 -37h-13q-4 0 -6 -17
q29 -6 29 -27v-4q-7 -48 -35 -48zM68 767q27 8 27 15q-2 6 -4 6q-13 -4 -19 -4q-9 0 -18 2q9 -10 14 -19zM193 96q156 0 215 176q19 58 19 114v40q0 152 -110 265q-62 47 -139 47q41 -130 41 -285q0 -154 -31 -357h5z" />
    <glyph glyph-name="E" unicode="E" horiz-adv-x="727" 
d="M213 -137q-19 0 -39 30q-18 -9 -38 -12q-34 5 -34 34q0 23 20 46q-27 2 -27 22q0 12 2 23q-20 11 -20 25v7q0 18 27 24h7q23 -4 23 -13q6 0 70 23q13 61 29 174h-2q-55 -32 -88 -54q4 -9 4 -37q-8 -29 -27 -29q-32 0 -32 52q-25 8 -25 27v11q0 24 39 30q7 0 18 -9
q69 46 118 66q4 54 4 108q0 159 -40 288q-32 -3 -102 -34q4 -8 4 -14v-9q0 -34 -47 -43h-5q-23 0 -27 30q0 10 11 36q-36 14 -36 38q8 32 38 32h12q14 0 32 -20q62 22 104 34l-3 11l-24 -2q-47 0 -55 45q0 29 41 39q13 0 38 -10q0 27 41 46h7q34 0 45 -57q0 -31 -31 -45
q6 -15 6 -21l5 3h61q130 0 328 -61q14 31 39 31h9q34 -9 34 -31v-9q0 -16 -32 -34l5 -25q-5 -34 -30 -34q-45 9 -45 45l2 16q-186 56 -312 56l-48 -2q32 -123 32 -253q0 -59 -7 -134h2q48 14 97 14q44 0 87 -12q12 25 34 25q21 0 27 -29q0 -9 -14 -34q12 -13 12 -34
q0 -13 -14 -21h-11q-34 10 -34 46q2 0 2 2q-36 11 -72 11h-23q-52 0 -100 -22q-6 -60 -31 -191l59 5q109 0 249 -54q0 11 38 20h2q34 -5 34 -27q0 -18 -22 -32l2 -18q-6 -34 -29 -34q-33 0 -37 47q0 13 -47 21q-99 32 -184 32q-38 0 -77 -5q-13 -51 -13 -70q31 -17 31 -45
q-8 -55 -47 -55zM181 -26q2 4 11 45h-2q-38 -9 -38 -20q0 -15 -7 -25l11 2h14z" />
    <glyph glyph-name="F" unicode="F" horiz-adv-x="632" 
d="M236 -107q-22 0 -41 37q-18 -10 -42 -10q-39 6 -39 39q0 32 48 43q12 0 24 -2q27 177 27 334q-61 0 -145 -33q4 -7 4 -13v-8q0 -24 -37 -31q-16 0 -21 27l5 25q-19 9 -19 24v5q0 22 33 27q27 -3 27 -21q58 25 151 37q0 128 -52 292q-1 0 -51 -37q8 -26 8 -33
q-8 -42 -33 -42h-4q-27 0 -27 38l2 20q-35 8 -35 33q0 30 41 40q11 0 29 -19q20 21 54 41l-23 52q-19 -4 -27 -4q-38 0 -56 46q0 47 40 47q21 -2 33 -2q15 48 41 48h13q29 0 41 -60q0 -26 -25 -50q13 -24 21 -45q120 53 279 53q41 0 94 -2q0 30 24 33h2q32 -8 32 -31v-12
q0 -11 -17 -29q8 -21 10 -37q-3 -36 -35 -36q-29 0 -37 40q4 15 4 18l-110 5q-133 0 -230 -44v-2q50 -151 50 -323q73 0 199 -35q10 16 31 16q20 0 27 -31q-9 -29 -25 -29v-25q0 -21 -29 -26q-20 0 -25 31l2 20q-140 40 -180 40q0 -93 -31 -340q39 -19 39 -54
q-8 -45 -39 -45z" />
    <glyph glyph-name="G" unicode="G" horiz-adv-x="642" 
d="M333 -5q-137 0 -203 188q-10 25 -20 104h-2q-15 -11 -15 -17q13 -23 13 -37q-6 -35 -29 -35h-5q-37 0 -37 68q-35 16 -35 45q0 44 29 44q25 0 43 -29q27 15 34 16v21q0 228 120 400q65 76 136 76q17 0 56 -10q25 29 48 29q33 -6 33 -33q0 -13 -25 -31q11 -22 11 -37
q0 -27 -23 -27h-9q-34 0 -39 43q-21 8 -35 8h-13q-70 0 -142 -163q-52 -152 -52 -238q107 58 213 58q70 0 166 -25q0 22 39 31q35 -10 35 -46q0 -17 -18 -41q4 -19 4 -27q0 -23 -29 -23l4 -8q14 8 31 8q18 0 25 -27v-10q0 -28 -50 -35h-6q-52 -158 -155 -216
q-55 -24 -98 -24zM340 38q119 0 205 199v4q-34 15 -34 44v10q0 26 38 33h6v2q-8 12 -8 25v8q-62 25 -125 25h-16q-106 0 -236 -62q5 -211 118 -275q19 -9 52 -13z" />
    <glyph glyph-name="H" unicode="H" horiz-adv-x="609" 
d="M242 -8q-40 0 -47 47q0 31 29 54q-34 174 -48 311q-16 0 -87 -25v-4q0 -44 -31 -44q-39 9 -39 33q0 10 4 17q-23 13 -23 29v4q0 23 31 27h2q37 -7 37 -25q83 31 104 31q0 5 -2 8l-2 91q0 209 72 375q-33 18 -33 48q8 45 39 45h7q23 0 51 -39h3q16 8 31 8q30 0 39 -41
q0 -34 -48 -46q-11 0 -22 2q-79 -180 -79 -391v-54l10 2h42q64 0 138 -14q-4 48 -4 89q0 154 52 273q-27 13 -27 38v6q10 45 33 45h8q19 0 42 -35q26 17 41 17q33 0 33 -38q-8 -47 -41 -47h-8q-10 0 -21 6q-58 -141 -58 -300v-56q0 -15 25 -15q1 -1 47 -14q13 23 32 23h4
q31 -8 31 -36v-6q0 -18 -25 -27l2 -10v-17q0 -24 -31 -29q-28 0 -31 36l4 20q-48 15 -54 15q13 -107 39 -247l15 2q44 0 52 -51q-10 -33 -33 -33q-24 0 -38 6q-16 -35 -39 -35q-33 9 -33 47q0 44 37 50q-35 162 -50 275q-85 21 -161 21q-16 0 -31 -2q12 -158 43 -307
q7 1 13 3q42 0 50 -56v-5q-7 -39 -40 -39q-18 4 -27 4q-11 -20 -29 -20z" />
    <glyph glyph-name="I" unicode="I" horiz-adv-x="172" 
d="M62 -7h-10q-28 0 -38 52q0 29 27 49v2q-41 255 -41 417q0 206 62 370q-25 14 -25 35v7q6 35 29 35h6q17 0 34 -33q12 16 35 16q31 -3 31 -29v-6q-9 -46 -46 -46l-14 3q-58 -155 -58 -344q0 -146 43 -410q13 0 17 2q45 -7 45 -42q3 0 3 -12q0 -33 -36 -43h-8q-11 0 -27 8
q0 -20 -29 -31z" />
    <glyph glyph-name="J" unicode="J" horiz-adv-x="493" 
d="M174 9h-4q-73 0 -102 122q-10 43 -16 124l-15 -2q-30 0 -37 39v3q8 43 39 43h9q6 0 16 -6q12 29 33 29q38 -13 38 -37v-15q0 -17 -27 -35v-42q0 -167 76 -167q109 0 164 354q16 111 16 211v37q0 62 -10 133q-84 -21 -132 -21q-66 0 -127 29q-8 -12 -20 -12h-7
q-22 0 -29 31q4 15 19 25q-4 9 -6 22q0 24 31 29q33 -7 33 -31v-14q70 -29 120 -29q39 0 106 16q-7 19 -9 19l-12 -2q-29 8 -29 33v10q0 19 27 25q16 -2 31 -10q13 39 43 39q21 0 27 -37v-6q0 -25 -29 -33v-2q5 -17 7 -17q3 0 22 8l-2 13q6 27 35 27q25 -6 25 -23
q-4 -16 -4 -23q14 0 19 -21v-8q0 -17 -21 -23q-24 5 -33 15q-3 -2 -31 -11q16 -76 16 -178v-22q0 -302 -113 -516q-61 -93 -137 -93z" />
    <glyph glyph-name="K" unicode="K" horiz-adv-x="511" 
d="M122 6q-14 1 -31 19q-13 -5 -27 -5q-30 0 -39 42q0 29 41 35l17 -2q52 253 52 431q-4 -2 -7 -2q0 -52 -37 -52q-23 0 -27 31q0 6 4 16q-31 15 -31 40q14 35 38 35h10q12 0 25 -17q19 13 23 13q0 95 -56 252q-3 0 -7 15q-13 -4 -27 -4q-35 0 -43 45q10 33 29 33h8
q12 0 23 -8q10 31 33 31q24 0 31 -35q0 -15 -14 -31q46 -103 66 -269q168 102 224 261q0 2 -2 2q-12 0 -17 18q11 38 39 38q19 0 23 -27q7 4 13 4h8q17 0 21 -27q0 -23 -44 -27q-17 -74 -126 -199q-73 -67 -135 -107l2 -48q0 -178 -45 -420q29 -19 29 -42v-4q0 -30 -44 -35z
M414 18q-20 0 -27 33q0 28 35 38v37q0 222 -136 418h-2q0 -7 -23 -10q-29 8 -29 29v4q0 27 39 27q0 33 23 33h4q35 -6 35 -35q0 -8 -10 -21q153 -230 153 -441v-37h4q29 0 31 -33q-7 -38 -29 -38h-6q-9 0 -25 13h-2q-20 -17 -35 -17z" />
    <glyph glyph-name="L" unicode="L" horiz-adv-x="489" 
d="M164 -43q-19 0 -29 31h-2q-21 -8 -29 -8h-11q-31 0 -31 37q13 43 39 43q13 0 25 -2q0 4 4 15h-2q-36 -8 -64 -17v-8q0 -20 -31 -23q-27 0 -27 19q0 8 13 27q-19 11 -19 23q7 29 37 29q23 -7 23 -17q16 8 83 21q52 224 52 383q0 158 -54 306l-4 -2h-19q-28 0 -39 44v4
q6 35 35 35q14 0 33 -12h2q17 39 44 39q35 -11 35 -50q-9 -39 -33 -39q53 -147 53 -317q0 -161 -49 -387q90 0 238 -37q12 20 27 20q25 -2 25 -20v-7q0 -13 -17 -24q8 -17 10 -36q-5 -27 -24 -27h-7q-23 0 -29 34v8q-132 37 -219 37h-17q-6 -20 -6 -37q21 -14 21 -37
q-10 -48 -37 -48z" />
    <glyph glyph-name="M" unicode="M" horiz-adv-x="617" 
d="M505 -117h-8q-25 0 -33 39q0 37 31 61q-68 271 -68 459q0 142 35 259h-15q-51 -89 -124 -172q0 -4 31 -33q2 6 17 6q14 -9 14 -20v-11q-6 -12 -23 -12v-6q0 -17 -16 -17q-23 0 -25 29l4 8l-29 27l-31 -33q4 -7 4 -12q-6 -23 -23 -23q-18 0 -18 16v7q-25 0 -25 20
q7 23 23 23l10 -6q3 0 35 35q-76 89 -128 178h-10q-7 0 -15 6v-2q39 -118 39 -252q0 -150 -51 -383q29 -17 29 -52q-9 -35 -31 -35h-5q-19 0 -33 33q-13 -6 -31 -6q-35 4 -35 33v8q8 39 37 39q12 0 19 -4q45 209 45 342v31q0 135 -43 255q-13 -5 -19 -5q-29 0 -35 46
q6 35 27 35q16 0 31 -10q12 27 31 27q28 0 33 -40q-10 -29 -20 -29q6 -14 6 -16h2q0 23 16 23q12 0 19 -4q10 16 23 16q18 0 21 -27q0 -21 -15 -21q43 -77 120 -159q69 79 106 141q4 6 4 14q-3 0 -10 11v14q3 23 22 23q5 0 23 -17q7 5 14 5q8 0 17 -9l2 11q-23 12 -23 37
q8 39 36 39q17 0 39 -29q18 13 31 13q22 0 31 -36q-10 -49 -48 -49h-4q-18 4 -25 4q-37 -123 -37 -253q0 -182 75 -472q12 6 20 6q36 0 46 -51q0 -34 -43 -42l-34 6q-14 -37 -35 -37z" />
    <glyph glyph-name="N" unicode="N" horiz-adv-x="518" 
d="M393 -144q-35 0 -43 43v4q0 40 35 60q-76 302 -76 514q0 177 55 329q-26 18 -26 39q10 44 35 44h6q22 0 39 -31q21 14 35 14q24 0 34 -33v-10q0 -40 -54 -50q-24 6 -29 6q-40 -131 -40 -258v-48q0 -179 81 -493h2q12 6 21 6q50 -10 50 -58q0 -35 -48 -43q-22 2 -35 8
q-18 -43 -42 -43zM97 11q-10 0 -33 33q-15 -6 -27 -6q-37 6 -37 37q8 46 39 46q16 -4 19 -4q46 208 46 372v19h-3q-4 -31 -24 -31q-13 0 -29 21q-4 0 -17 -5q-19 0 -23 27q6 25 23 25h8l4 -2l50 64q-10 68 -33 137l-19 -6q-35 7 -35 39v8q6 36 29 36q13 -2 25 -11h4
q11 25 29 25q33 -5 33 -33v-4q0 -17 -18 -31v-2q31 -83 31 -102q77 86 147 143q-4 7 -4 12q7 27 24 27h7q18 0 18 -24q-2 0 -2 -3q25 0 27 -29q-10 -22 -25 -22q-5 0 -16 10q-114 -100 -166 -164q8 -62 8 -140q0 -144 -49 -375q29 -19 29 -48q-7 -39 -40 -39zM101 520v15
l-2 14q-10 -7 -10 -18q10 -2 10 -11h2z" />
    <glyph glyph-name="O" unicode="O" horiz-adv-x="472" 
d="M188 -11h-6q-22 0 -43 58q-57 27 -93 118q-46 116 -46 269q0 260 112 381l37 27l-2 13q10 39 35 39h11q21 0 26 -31q0 -10 -14 -37q25 -20 25 -35v-7q-6 -24 -29 -24q-17 0 -37 16q-47 0 -81 -153q-17 -101 -17 -195q6 -276 96 -346q2 0 2 3q19 37 45 37q25 0 29 -33
q0 -22 -33 -40q6 -18 6 -25v-12q-3 -23 -23 -23zM296 -15h-6q-23 0 -31 35q0 11 10 29q-27 19 -27 40q0 23 29 27h2q21 -8 33 -25q43 24 73 128q25 103 25 215v19q0 223 -69 319q-13 11 -24 14q-11 -35 -36 -35h-10q-22 0 -27 29v8q0 17 25 29q-8 20 -8 34q0 27 33 27
q20 0 33 -38q61 -25 103 -124q48 -129 48 -280q0 -260 -114 -374q-22 -15 -27 -15q0 -62 -35 -62z" />
    <glyph glyph-name="P" unicode="P" horiz-adv-x="491" 
d="M168 -20q-19 0 -44 27q-15 -11 -27 -11h-6q-24 0 -33 42q6 41 41 41l11 2q0 -2 2 -2q41 239 41 309q-38 10 -43 10q-18 -19 -44 -19q-19 0 -27 17v12q0 15 23 25q-8 24 -8 27q0 18 27 23q28 0 43 -37l33 -5v69q0 178 -51 310q-12 -1 -21 -29q-12 -10 -21 -10
q-25 0 -25 19q0 11 2 22q-24 6 -24 23q0 23 31 27q18 0 33 -10h4q4 0 4 6q-8 16 -10 23q-10 -6 -27 -6q-34 0 -52 45v15q11 33 37 33q17 -2 29 -9q14 46 46 46q41 -8 41 -41v-13q0 -17 -27 -52q11 -21 11 -24h2q52 12 87 12h18q157 0 228 -137q19 -47 19 -104
q0 -167 -139 -250q-54 -27 -130 -27l-19 2q0 -54 -39 -310h6q26 0 37 -48v-4q-8 -39 -39 -39zM209 437q152 0 205 122q13 49 13 79q0 155 -147 201q-32 6 -63 8q-36 -2 -62 -8q52 -148 52 -342v-56l-2 -4h4z" />
    <glyph glyph-name="Q" unicode="Q" horiz-adv-x="571" 
d="M182 -61q-23 0 -43 58q-56 26 -98 125q-41 118 -41 248v23q0 252 110 372q27 24 39 25l-2 17q0 33 43 39q27 -8 27 -27v-8q0 -14 -14 -33q27 -21 27 -42q0 -20 -33 -26q-10 0 -35 18q-42 0 -77 -139q-19 -97 -19 -196q0 -286 96 -361q20 42 45 42q29 -6 29 -27v-12
q0 -20 -33 -34q8 -19 8 -35q0 -24 -29 -27zM526 -191h-4q-29 5 -29 39v4q-85 61 -149 154q-13 -7 -13 -21q-7 -50 -37 -50q-35 8 -35 31v9q0 11 8 22v2q-27 24 -27 42q9 25 25 25h6q17 0 33 -25q10 3 15 12q-10 23 -25 73q-27 7 -27 27q0 24 19 24q10 0 20 -6q9 21 27 21
q23 -8 23 -35q-7 -17 -14 -17q5 -30 12 -37q50 119 50 294q0 212 -62 317q-18 22 -33 22q0 -27 -40 -35q-33 4 -33 33q0 21 25 36q-6 13 -6 29q0 31 29 31q23 0 37 -40q25 -4 66 -56q83 -129 83 -337v-21q0 -216 -89 -339q33 -65 141 -152h4q0 11 14 11h7q24 -6 24 -25v-10
q-11 -19 -24 -19v-12q-3 -21 -21 -21z" />
    <glyph glyph-name="R" unicode="R" horiz-adv-x="646" 
d="M170 -6q-23 0 -44 27q-16 -11 -29 -13q-30 0 -37 44q0 38 56 43q39 255 39 300l-45 11q-11 -25 -33 -25q-26 0 -34 37q1 14 21 31q-8 14 -8 27q7 19 23 19h6q28 0 39 -35q21 -5 35 -5v58q0 176 -49 321q-15 -3 -21 -22q0 -13 -29 -19q-19 4 -19 19v18l2 4q-26 8 -26 31
q0 22 31 27q14 0 33 -10q4 2 6 2q0 13 -8 19q-8 -4 -17 -4h-10q-52 14 -52 51q8 40 37 40h6q19 -5 25 -5q17 44 48 44q30 0 39 -44v-10q0 -21 -27 -50q0 -6 9 -20q43 12 90 12q169 0 243 -137q23 -47 23 -113q0 -154 -127 -243q33 -94 112 -182q78 -78 106 -97h2q8 18 27 18
q33 -9 33 -33v-10q-7 -27 -25 -27l2 -16q0 -22 -33 -32h-6q-31 11 -31 44q2 8 2 16q-68 55 -131 129q-78 98 -101 170q-48 -17 -99 -17q-12 2 -19 2q-17 -170 -39 -304q35 0 43 -52q-7 -39 -39 -39zM215 451q53 0 89 15q0 23 -10 23q-23 0 -33 37v2q6 25 25 25q6 0 29 -6
q12 22 33 22t25 -29v-4q0 -21 -25 -39q2 -4 2 -8q79 58 79 161q0 137 -116 191q-41 18 -95 18q-27 0 -61 -6q52 -147 52 -358q0 -23 -2 -44h8z" />
    <glyph glyph-name="S" unicode="S" horiz-adv-x="590" 
d="M257 415h-4q-34 0 -44 48q0 15 15 31v2q-111 71 -154 198q-10 35 -10 73q0 140 147 188q30 9 58 9h17q139 0 246 -189q4 -7 4 -10q15 8 23 8q27 0 35 -41q0 -35 -25 -35l-31 8q-12 -48 -37 -48q-36 0 -41 48q0 26 26 37v4q-90 164 -209 164q-82 0 -136 -75
q-15 -31 -17 -66q0 -111 143 -238q12 16 25 16h4q32 0 41 -45q0 -22 -29 -25h-18v-29q-6 -33 -29 -33zM348 5q-144 0 -282 188h-2q-6 -12 -27 -12q-26 0 -37 48q0 22 27 24q13 0 27 -2v11q4 45 31 45h8q27 0 35 -39v-10q0 -11 -18 -29q111 -168 219 -168h17q79 0 132 89
q13 27 13 52v16q0 92 -135 162q-3 2 -8 2q0 -14 -29 -19q-30 0 -42 50q7 23 48 23l-2 27q5 35 29 35h6q40 -7 40 -40v-6q0 -14 -13 -27q162 -83 162 -217v-8q0 -118 -127 -183q-45 -12 -72 -12z" />
    <glyph glyph-name="T" unicode="T" horiz-adv-x="459" 
d="M340 -78q-26 0 -42 27h-2q-19 -12 -31 -12q-30 0 -35 47q7 38 47 38q10 0 13 27q39 242 39 395q0 186 -58 340l-25 -2h-24q-85 0 -160 31q-13 -13 -27 -15h-10q-25 6 -25 23v8q0 14 21 25q-9 14 -9 31q7 29 27 29q33 0 44 -35q0 -4 -6 -21q84 -31 142 -31v2q-22 0 -33 46
q5 31 27 31q20 0 35 -9q18 40 48 40q31 -5 31 -31t-31 -52q10 -19 10 -25q42 0 205 50q-4 15 -4 21q6 39 40 39q24 -5 24 -29q0 -19 -4 -33q25 -8 25 -25v-6q0 -20 -33 -25q-15 0 -33 23q-87 -31 -203 -54q56 -154 56 -350q0 -157 -44 -427h3q41 -11 41 -51q-8 -40 -39 -40z
" />
    <glyph glyph-name="U" unicode="U" horiz-adv-x="476" 
d="M234 0h-4q-165 0 -211 279q-15 94 -15 199q0 139 21 286q-18 0 -25 39q9 50 37 50h4q20 0 36 -37q21 12 33 12h6q22 0 29 -33q0 -31 -44 -42h-16q-7 0 -21 -186q-2 -47 -2 -143q0 -277 114 -350q26 -16 68 -16q150 0 178 319l5 93q0 196 -48 352q-2 0 -10 18
q-15 -8 -29 -8q-38 6 -38 37q8 36 31 36h9q18 -5 22 -5q18 58 44 58h8q33 -10 33 -45q0 -27 -27 -54q18 -22 36 -106q18 -119 18 -221v-42q0 -332 -138 -457q-48 -33 -104 -33z" />
    <glyph glyph-name="V" unicode="V" horiz-adv-x="599" 
d="M373 -10q-25 0 -36 22q-27 -19 -44 -19q-34 0 -45 45q8 46 45 46h12q0 269 -79 539q-48 132 -111 228q-28 41 -33 41q-15 -10 -32 -10q-50 10 -50 48q7 39 38 39q10 0 32 -5q12 48 38 48q36 0 48 -50q0 -27 -26 -41q74 -104 120 -214q41 -90 79 -265q32 -197 32 -262l5 3
l24 -3q137 251 137 423q0 44 -3 68l-5 -3q-31 0 -38 44v4q6 29 29 29l31 -12q14 19 29 19h5q19 0 24 -31q0 -27 -29 -46q2 -32 2 -62q0 -199 -144 -462q17 -8 17 -26q-10 -36 -34 -36h-9q-20 0 -20 21v12h-19l3 -4v-27q43 -29 43 -53v-7q-9 -41 -36 -41z" />
    <glyph glyph-name="W" unicode="W" horiz-adv-x="828" 
d="M275 -16h-5q-14 0 -28 18q-18 -13 -28 -13h-7q-28 0 -36 41q8 38 48 38v59q-30 7 -30 31q11 30 30 30q0 240 -97 459q-17 36 -53 89q-12 -7 -28 -7q-32 0 -41 43q9 31 31 31q18 0 28 -5q12 38 33 38q32 0 41 -46q-2 -14 -23 -36q65 -89 109 -229q49 -193 49 -293h2
q146 230 146 415q0 4 -31 21q-10 17 -10 30q0 33 36 33q2 0 25 -15q13 18 28 18h5q20 0 23 -26v-5q0 -28 -33 -48q0 -5 3 -5q0 -67 -23 -163q10 5 15 5q11 -5 18 -16q0 -35 -21 -35q11 -85 85 -194q11 -13 12 -13q31 203 72 334q62 180 132 291q46 66 74 99q-23 22 -23 41v5
q11 54 51 54q39 -10 39 -54q17 2 35 3q36 -6 36 -33v-11q0 -37 -48 -45h-8q-16 0 -33 12q-147 -173 -220 -451q-48 -240 -48 -298q16 0 20 -23q0 -18 -20 -18l3 -5q0 -18 -11 -18q0 -16 -2 -31q58 -4 58 -53q0 -35 -51 -46q-14 0 -43 23h-3q0 -13 -28 -21h-5q-34 0 -40 44
q0 35 48 61l10 92q-92 110 -115 211q-5 28 -10 28q-34 -108 -140 -270v-3q13 -14 13 -28q-2 -11 -18 -28v-28q33 -23 33 -51q-9 -33 -31 -33z" />
    <glyph glyph-name="X" unicode="X" horiz-adv-x="483" 
d="M108 -74q-37 0 -37 37v14l-11 -3h-16q-32 0 -35 40q0 30 46 40h11q18 0 40 -20q132 152 187 350q-35 94 -86 183q-47 82 -134 175h-5q-13 -9 -28 -9q-31 0 -40 42v4q0 29 48 29l-2 17q0 40 36 40q35 0 48 -64q0 -12 -13 -26q136 -148 196 -302q7 0 29 141q6 25 24 156h-9
q-25 0 -31 36v4q7 37 38 37h6q12 0 36 -24q0 5 26 16q29 0 29 -42q-12 -38 -38 -38h-11q0 -102 -64 -370q51 -130 97 -379h9q24 0 29 -36q-8 -41 -36 -41q-11 0 -35 15q-12 -15 -31 -15q-26 0 -33 41q0 36 42 40q-28 156 -68 291q-3 0 -42 -101q-52 -116 -135 -196
q-3 0 -8 -9q6 0 11 -29v-4q-7 -40 -40 -40z" />
    <glyph glyph-name="Y" unicode="Y" horiz-adv-x="395" 
d="M117 -70q-28 0 -35 44v7q-15 -5 -20 -5h-16q-26 0 -32 39q0 36 55 46q20 0 41 -16q62 76 116 219q0 4 7 25q-49 50 -110 185q-77 234 -77 295q-6 32 -12 32q-34 13 -34 46v4q6 28 25 28q13 0 32 -16q18 16 37 16t27 -28q-12 -48 -36 -48q0 -36 54 -233q40 -110 89 -185
q21 -30 23 -30q48 215 48 476h-13q-25 0 -32 38q8 42 34 42h11q13 0 35 -21q16 18 36 18q17 0 25 -36q-7 -48 -45 -48v-60q0 -235 -58 -459l7 -5q17 12 25 12h10q24 0 27 -32q0 -34 -43 -34q0 -46 -28 -46q-23 5 -23 16h-4q-34 -114 -114 -203q13 -21 13 -35v-9
q0 -30 -45 -39z" />
    <glyph glyph-name="Z" unicode="Z" horiz-adv-x="528" 
d="M103 -35h-5q-35 0 -35 54q-15 0 -19 -2q-44 5 -44 39q0 40 54 47q25 0 49 -23l11 16q-14 5 -14 9q-10 -2 -21 -2q-17 0 -21 23q0 10 19 21q4 31 28 31q23 -10 23 -26l-4 -19q8 -7 18 -7q90 117 131 220q38 87 80 264q30 156 30 168q-28 -5 -77 -5q-122 0 -217 51
q0 -9 -33 -9q-19 0 -26 26q0 17 24 28l-3 4v17q0 13 14 21h10q27 0 35 -54q92 -47 194 -47q88 0 88 14v28q-37 7 -37 38v9q0 28 44 37q16 0 40 -28q12 14 30 14q25 0 28 -32q0 -16 -7 -28q24 -2 24 -21l-3 -14q17 -11 17 -24q-5 -21 -21 -21h-7q-17 0 -28 10q-35 -3 -35 -17
q0 -68 -70 -327q-70 -204 -131 -287q0 -7 -42 -60v-3q70 -23 149 -23q38 0 108 7v9q8 31 28 31q25 0 25 -21q0 -18 -4 -26q11 -6 16 -23q0 -23 -35 -26q-11 0 -28 16q-50 -4 -114 -4q-91 0 -176 32q0 -2 -28 -28q10 -16 10 -28v-11q0 -30 -42 -38zM444 827l18 2v12h-14
q-4 -1 -4 -5v-9z" />
    <glyph glyph-name="bracketleft" unicode="[" horiz-adv-x="175" 
d="M77 60q-16 8 -16 21q-8 -8 -15 -8h-6q-9 7 -9 23q4 22 19 22l4 -2v7q-29 -4 -29 -9q0 -14 -12 -14l-5 8l2 17q-6 2 -6 16q0 3 8 7q5 0 9 -11l37 7q15 126 15 204q-6 135 -19 140l-37 7q0 -7 -7 -11h-2q-8 3 -8 13q4 12 8 12q-4 6 -4 11q1 12 11 12l6 -8v-9l31 -6
q-2 3 -2 9l-14 -2q-17 0 -17 23v4q0 13 16 21q7 0 15 -2q2 18 17 18q11 0 17 -14v-13q0 -7 -11 -23q7 -25 9 -25h8q58 5 58 29q1 13 7 13h4q6 0 8 -15l-2 -6q3 0 8 -13q-4 -14 -8 -14h-4l-8 6q-30 -19 -59 -19h-10q14 -62 14 -144q0 -71 -14 -196h12q31 0 59 -19l8 6h6
q6 -2 6 -12l-10 -36h-8q-5 0 -7 15q2 4 2 8q-29 19 -60 19h-11v-25q13 -5 13 -21q-4 -21 -17 -21z" />
    <glyph glyph-name="backslash" unicode="\" horiz-adv-x="267" 
d="M228 43q-25 0 -25 17q0 11 8 22q-152 196 -178 327q0 39 -16 39q-17 6 -17 23q6 21 21 21q7 0 17 -8q12 12 21 12q22 -4 22 -21v-12q-11 -15 -23 -15q5 -82 78 -211q63 -91 96 -131q2 6 12 6q19 0 23 -25q-2 -15 -16 -15h-11v-6q0 -16 -12 -23z" />
    <glyph glyph-name="bracketright" unicode="]" horiz-adv-x="175" 
d="M94 40q-13 8 -13 23q0 13 15 19l-2 25q-41 0 -71 -19l2 -11q-4 -12 -8 -12h-5q-6 0 -8 25q-4 0 -4 10t8 13h4q5 0 5 -8q28 22 75 22q-15 104 -15 199q0 73 13 140h-13q-23 0 -58 19q0 -6 -9 -7l-6 7v14l6 7l-2 8q4 13 7 13h4q7 0 10 -25q25 -17 53 -17h10q4 0 10 27
q-12 11 -12 21v8q0 12 14 19h3q14 0 20 -19q6 4 11 4q17 -7 17 -21v-4q0 -23 -17 -23h-8l-3 2l-4 -10l30 6v9q0 3 6 6h6q4 0 6 -9l-2 -12q6 -10 6 -15q-5 -10 -10 -10q-8 4 -8 12q-40 -8 -40 -10q-15 -67 -15 -142q0 -89 17 -201q27 -4 36 -4q0 6 8 10q3 0 8 -8v-10
q-4 -7 -6 -7q2 -9 2 -18q0 -2 -6 -5h-4q-5 0 -9 17q-4 0 -27 6v-8l7 2q16 -6 16 -27q-4 -19 -16 -19q-3 0 -15 9q-4 -21 -19 -21z" />
    <glyph glyph-name="asciicircum" unicode="^" horiz-adv-x="226" 
d="M198 543q-12 2 -12 12l2 6q-43 29 -67 119h-4q-27 -79 -77 -110h-2v-11q-2 -6 -11 -6q-11 0 -17 13q-8 0 -10 12q3 10 13 10q6 0 12 -4q46 25 73 103q-3 0 -6 6v8q2 5 12 5q9 -1 9 -5l10 2l7 -4q1 4 4 4h10q4 -1 8 -10q0 -2 -8 -11q19 -81 54 -104l5 -4q8 4 14 4
q8 -4 9 -8q0 -13 -13 -17q-5 -10 -15 -10z" />
    <glyph glyph-name="underscore" unicode="_" horiz-adv-x="362" 
d="M15 -64q-15 6 -15 17q4 18 13 18v3q-5 7 -5 14q0 17 17 17q15 -5 15 -19v-6h2q95 -15 146 -15q76 0 128 32l-1 16q4 15 17 15h6q13 -9 13 -21l-4 -10q15 -7 15 -19q0 -16 -15 -21q-10 0 -19 14q-62 -33 -148 -33q-41 0 -149 15v-2q-5 -15 -16 -15z" />
    <glyph glyph-name="grave" unicode="`" horiz-adv-x="82" 
d="M61 551q-20 0 -51 45q-6 14 -10 36q5 42 42 42q36 0 40 -44q-10 -36 -34 -36q-13 0 -25 2q9 -16 42 -37v-4q0 -4 -4 -4z" />
    <glyph glyph-name="a" unicode="a" 
d="M327 -74q-18 0 -25 25q-11 -10 -25 -10q-22 9 -22 33q4 29 25 29h6l4 -2l2 14q-61 -14 -106 -14h-20q-129 0 -164 116q-2 21 -2 31q0 127 137 209q59 31 130 31q23 0 50 -4v2q-20 133 -122 133q-52 0 -123 -36q-3 -37 -24 -37q-25 9 -25 25v8q0 9 12 23q-23 15 -23 31v10
q0 20 27 23q23 0 29 -35q87 39 143 39q97 0 133 -107q10 -36 18 -89l19 -5q0 11 27 19q19 0 31 -21v-12q-6 -10 -15 -10q5 -14 5 -17q0 -21 -31 -25q-27 3 -27 21h-7q0 -90 -18 -244q5 0 10 24q10 13 27 13q25 -7 25 -17v-10q0 -10 -8 -23q22 -8 22 -16v-7q0 -22 -33 -29h-6
q-21 0 -29 19q-16 0 -16 -12q-3 -3 -5 -29q21 -9 21 -25v-6q-6 -36 -27 -36zM174 49q47 0 126 18v2q23 149 23 232v37q-31 5 -58 5q-128 0 -199 -121q-16 -33 -16 -70v-10q0 -60 60 -83q30 -10 64 -10z" />
    <glyph glyph-name="b" unicode="b" horiz-adv-x="477" 
d="M165 -193h-4q-16 0 -33 33v4h-2q-20 -23 -31 -23h-5q-21 0 -26 44q0 43 43 43v19q-18 -2 -35 -2q-10 -37 -35 -37q-23 0 -29 33q1 9 14 23v2q-19 7 -19 20q0 24 36 31h10q21 0 21 -22h39q4 93 6 221q-2 38 -2 64h-4v-4q0 -29 -29 -29q-35 7 -35 29v4q6 23 16 23
q-16 13 -16 23v6q0 22 31 31q17 0 35 -27q-14 180 -47 290q-24 75 -42 106q-8 -6 -27 -11q-30 0 -35 48v6q0 29 35 42l21 -7q10 46 37 46q29 0 37 -46q0 -18 -22 -49q36 -84 60 -187q29 -160 29 -225h2q55 12 116 12q147 0 186 -108q6 -21 8 -51q0 -114 -153 -199
q-50 -27 -124 -46q-35 -3 -35 -8q0 -21 -2 -41q30 0 37 -40v-4q-6 -37 -27 -37zM159 -21q56 0 157 52q102 74 102 151v12q0 81 -106 104q-13 2 -31 2q-58 0 -120 -21l2 -110q0 -92 -4 -190z" />
    <glyph glyph-name="c" unicode="c" horiz-adv-x="375" 
d="M176 23q-119 0 -162 98q-14 39 -14 87q0 157 124 294q60 56 123 56q26 0 66 -17q8 10 25 10q31 0 31 -22q0 -16 -23 -21q2 -13 2 -27q-8 -12 -17 -12q-23 0 -29 31q-21 12 -41 12h-10q-75 0 -152 -132q-49 -95 -49 -174q0 -102 83 -133q21 -6 43 -6h19q44 0 107 23
q0 27 38 33q16 -5 18 -13v-12q0 -6 -8 -21q16 0 25 -27q-6 -20 -21 -20h-12q-10 0 -31 16q-87 -23 -135 -23z" />
    <glyph glyph-name="d" unicode="d" horiz-adv-x="413" 
d="M263 -72q-25 15 -25 39q6 41 37 41v21l-2 21q-196 0 -261 116q-12 30 -12 58q0 81 83 138q71 44 188 44q0 154 58 369q33 86 33 91q-20 19 -20 51q6 40 37 40q24 0 37 -46q10 6 23 6q33 -14 33 -47q-8 -46 -33 -46h-6q-24 6 -27 6q-85 -202 -85 -426l12 -2q12 29 36 29
q19 0 22 -27q0 -10 -16 -25q9 0 14 -19q-12 -35 -39 -35q-17 6 -17 21v12h-12l-4 2q0 -130 4 -267q39 0 39 14.5t23 18.5q27 0 27 -18v-4q-5 -21 -19 -21v-2q15 -6 15 -17q-9 -35 -33 -35q-25 5 -25 29l-25 -4q2 -13 2 -27l13 2q21 0 28 -39v-4q0 -38 -26 -44q-15 0 -36 25
q-13 -39 -41 -39zM273 87q0 2 -2 6q-2 157 -4 187q2 14 2 82h-8q-176 0 -215 -115q-3 -11 -3 -25q0 -86 123 -125q42 -10 107 -10z" />
    <glyph glyph-name="e" unicode="e" horiz-adv-x="453" 
d="M418 13h-6q-24 0 -35 40q-29 -6 -68 -9q-172 0 -232 176q-9 22 -9 36q-18 -27 -33 -27q-13 0 -18 12v11q0 13 12 26v3q-17 0 -29 18v17q9 14 23 14q20 -4 37 -20v18q0 224 159 290q34 10 65 10q81 0 132 -68q29 -43 29 -95v-8q0 -115 -79 -187q-50 -37 -115 -37h-19
q-48 0 -112 16q15 -67 66 -118q52 -39 117 -39q80 0 80 25q11 17 27 21h10q26 0 33 -38q-11 -29 -33 -29q19 -21 19 -37q-4 -21 -21 -21zM228 281q128 0 159 120q4 22 4 47q0 95 -70 131q-22 6 -33 6h-13q-91 0 -145 -131q-18 -66 -18 -126v-25q0 -14 29 -14q26 -8 66 -8h21
z" />
    <glyph glyph-name="f" unicode="f" horiz-adv-x="387" 
d="M195 -113h-7q-19 0 -22 29q0 13 14 23q-35 85 -54 221q-12 116 -12 147q-21 0 -71 19q-2 -8 -18 -8q-17 0 -25 14v11l14 14q-4 7 -4 15q3 18 19 18q25 -3 25 -21v-8q21 -8 58 -16v33q0 327 132 327q77 0 149 -149l11 2q21 0 29 -31v-4q0 -12 -11 -17h-24q0 -17 -27 -25
q-17 0 -21 27v6q0 8 10 19q-56 126 -109 126h-11q-62 0 -78 -169q-3 -39 -3 -149q55 0 150 31l-3 10q5 16 21 16h4q19 0 19 -22l-2 -11q14 -6 14 -18v-6q-11 -17 -24 -17q-7 1 -17 10q-98 -31 -159 -31q16 -222 47 -310q9 -46 29 -46q13 0 19 -29q-6 -21 -23 -21q-5 0 -23 7
q0 -7 -16 -17z" />
    <glyph glyph-name="g" unicode="g" horiz-adv-x="470" 
d="M263 -284q-89 0 -172 164q-7 -4 -12 -4q-20 0 -27 29q2 21 18 21q9 0 19 -5q5 34 27 34q25 -7 25 -29q-3 -23 -15 -23q51 -107 116 -139q17 -6 31 -6q69 0 83 201q2 16 4 95q-46 -13 -89 -13h-33q-124 0 -201 106q-37 56 -37 128q0 143 147 212q53 16 101 16q26 0 54 -2
q0 5 -8 21l-14 -6q-23 6 -23 31q0 11 10 16q13 0 25 -2q6 31 27 31q23 -7 23 -25v-12q-2 -5 -15 -17q16 -45 19 -45t10 -2v6q0 19 23 19h4q13 0 23 -15q0 -13 -13 -27q17 -16 17 -27v-6q-9 -16 -23 -16h-4q-23 5 -23 16h-2v-2q44 -210 44 -335q15 0 18 20q12 11 25 11
q18 0 25 -23q0 -15 -23 -27q13 -14 13 -23q0 -18 -25 -18h-8q-19 0 -19 22q-6 0 -6 -4v-35q0 -241 -89 -298q-22 -13 -50 -13zM263 79q60 4 95 12q0 181 -43 375q-31 4 -69 4q-123 0 -182 -124q-14 -39 -14 -77q0 -132 136 -180q36 -8 77 -10zM358 445v9h-2v-9h2z" />
    <glyph glyph-name="h" unicode="h" horiz-adv-x="411" 
d="M344 -129h-6q-9 0 -17 29l-21 -2q-24 2 -24 23q0 31 27 31q6 0 14 -6q46 54 46 169q0 130 -60 212q-33 33 -65 33h-8q-35 0 -70 -29q0 -48 -7 -240q29 0 36 -42q0 -32 -29 -39q-17 0 -38 37q-14 -23 -29 -23q-24 0 -29 44q7 43 29 43l13 -2l6 182q-2 0 -25 -26
q8 -10 8 -19q-9 -23 -33 -23q-18 0 -20 21l2 16q-38 5 -38 25q7 29 27 29q27 0 27 -12h4q0 7 50 54q0 362 -87 559h-2q-14 -9 -21 -9h-8q-26 0 -31 46v6q9 42 37 42q14 -7 17 -7q10 46 37 46q25 0 33 -39q0 -30 -20 -56q91 -215 91 -561q41 20 80 20q122 0 160 -211
q4 -32 4 -56v-35q0 -101 -44 -180q13 -4 13 -17q0 -26 -29 -33z" />
    <glyph glyph-name="i" unicode="i" horiz-adv-x="155" 
d="M23 520q-10 0 -16 16q-20 0 -35 35v12q0 30 33 41l10 1q31 0 43 -38q0 -7 1 -8q0 -13 -11 -32q0 -20 -6 -20h-2q-3 0 -5 11h-2l4 -12q-5 -3 -8 -3l-4 13h-2l3 -14zM32 569q11 0 11 15q-4 22 -17 22q-11 -3 -11 -16q4 -21 17 -21zM-1 562q9 0 9 12q-3 18 -13 18
q-9 -2 -9 -12q2 -18 13 -18zM96 -27q-11 0 -21 21q-14 -4 -21 -4q-29 3 -29 23v6q0 21 29 25l17 -5q27 125 27 205q0 96 -42 189q-15 -4 -23 -4q-19 0 -27 29q2 25 25 25l21 -5q8 25 27 25q23 -10 23 -27q0 -9 -11 -29q44 -85 44 -205q0 -75 -27 -213h2q14 -10 14 -23v-8
q-6 -25 -28 -25z" />
    <glyph glyph-name="j" unicode="j" horiz-adv-x="194" 
d="M34 -402h-10q-86 0 -172 166q-3 0 -12 -4q-23 6 -23 29q0 18 17 18l16 -4q5 29 25 29q25 -5 25 -25t-13 -20q80 -147 149 -147q57 0 75 136q10 67 10 156q0 234 -53 443l-15 29q-7 -4 -12 -4q-20 0 -23 29q0 11 10 16q12 0 23 -2q0 24 25 29q27 -10 27 -29q0 -8 -13 -19
q75 -205 75 -488q0 -265 -89 -327q-26 -11 -42 -11zM37 485l-3 2l3 14h-2l-3 -13q-4 0 -8 3l3 12h-2q-2 -11 -5 -11h-2q-6 0 -6 20q-11 19 -11 32q1 1 1 8q12 38 43 38l10 -1q33 -11 33 -41v-12q-15 -35 -35 -35q-6 -16 -16 -16zM28 534q13 0 17 21q0 13 -11 16
q-13 0 -17 -22q0 -15 11 -15zM61 527q11 0 14 18q0 10 -9 12q-11 0 -14 -18q0 -12 9 -12z" />
    <glyph glyph-name="k" unicode="k" horiz-adv-x="424" 
d="M134 -30q-18 0 -31 40q-20 -25 -31 -25q-23 10 -23 37v8q0 42 27 42h8q7 141 9 261q-12 0 -17 -27q-11 -15 -23 -15h-8q-17 1 -17 17q5 10 5 23q-23 6 -23 20q0 19 31 25q13 0 21 -16l31 16q0 286 -79 501h-2q-9 -10 -23 -10q-26 0 -31 50q8 43 31 43q11 0 19 -6
q0 38 31 45q28 0 33 -43q-2 -25 -19 -48v-2q79 -233 79 -486q1 -17 4 -17q119 74 157 178q-16 8 -16 21v6q6 25 23 25q14 0 27 -21q11 2 16 2q15 0 19 -25q-5 -29 -23 -29l-12 3q-35 -100 -168 -191q7 0 25 -6q0 14 20 18q19 -4 19 -29q-3 -20 -19 -20q60 -181 166 -242
q13 12 21 12q27 -4 27 -23q0 -18 -23 -23v-8q0 -16 -10 -21h-17q-21 3 -21 19l2 17q-103 55 -167 232q-8 31 -27 31q-11 7 -11 35q-9 -4 -10 -9q0 -150 -6 -302q24 0 31 -37v-4q0 -33 -25 -42z" />
    <glyph glyph-name="l" unicode="l" horiz-adv-x="138" 
d="M93 9h-6q-18 1 -28 40q-19 -21 -30 -21l-7 1q-15 13 -15 36q0 38 24 48l14 -1q21 164 31 282q7 91 7 172q0 206 -45 354l-2 1q-9 -9 -21 -9q-24 0 -28 42l1 16q10 35 30 35q6 0 20 -4q9 30 26 40l12 -1q24 -2 26 -46q-2 -20 -23 -48q46 -159 46 -375q0 -107 -12 -225
q-9 -124 -26 -256q24 -2 28 -37l-1 -13q-1 -20 -21 -31z" />
    <glyph glyph-name="m" unicode="m" horiz-adv-x="650" 
d="M549 -133q-17 7 -17 31l-19 -2q-24 3 -24 24q4 36 33 36q5 -5 14 -5q64 135 64 307v14q0 170 -72 224q-17 10 -42 10q-57 0 -120 -56q44 -90 44 -203v-14q0 -117 -48 -203h2q11 -4 11 -23q-14 -27 -33 -27q-14 0 -19 34l-4 -3h-15q-24 3 -24 23q5 29 26 29h9q7 0 14 -6
q46 52 46 174q0 100 -40 188q-2 0 -10 -10q8 -9 8 -17q0 -22 -33 -29q-18 0 -18 23l2 13q-38 3 -38 22v7q5 24 25 24h9q18 -3 18 -12h2q0 5 11 15q-32 41 -73 41h-6q-55 0 -114 -60q25 -76 25 -160q0 -83 -29 -225q19 -12 19 -33q-8 -27 -27 -27q-15 0 -27 20q-15 -4 -25 -4
q-27 6 -27 25q0 31 29 31q9 0 19 -4q29 128 29 215q0 57 -17 129q-5 0 -8 -8q8 -4 8 -15q0 -24 -31 -29h-4q-17 0 -17 25l2 10q-37 0 -37 23v6q0 18 27 25q15 0 27 -12q6 10 16 20q-11 27 -14 27q-1 -6 -19 -6q-29 8 -29 29v6q0 19 25 21q5 0 21 -4q0 14 27 27q23 0 27 -33
q0 -9 -13 -23q5 -13 9 -13q66 60 137 60q53 0 101 -49q68 64 136 64q116 0 160 -164q12 -54 12 -128q0 -168 -79 -346q13 -7 13 -20q-9 -29 -35 -29z" />
    <glyph glyph-name="n" unicode="n" horiz-adv-x="410" 
d="M311 -127q-21 0 -21 31q-9 0 -17 -2q-27 5 -27 22v4q7 34 29 34q9 0 19 -7q66 145 66 321q0 191 -83 238q-20 7 -35 7q-48 0 -105 -46v-2q25 -75 25 -157v-17q0 -94 -29 -221q18 -9 18 -25v-7q0 -22 -25 -28q-18 0 -27 20l-24 -4q-29 6 -29 25v6q5 25 24 25q13 0 25 -2
q27 131 27 209q0 76 -18 147h-3q-10 -7 -20 -23q8 -8 8 -16q0 -23 -33 -29q-19 0 -19 20v17q-37 0 -37 23q4 31 31 31q10 0 25 -13q15 22 29 38q-6 10 -6 14l-17 -4h-8q-27 7 -27 31v10q9 15 21 15q16 0 24 -4q12 27 29 27q25 -7 25 -29v-6q0 -9 -10 -21v-4q63 47 118 47
q128 0 168 -188q8 -47 8 -104q0 -174 -81 -354q13 0 13 -20q0 -21 -31 -29z" />
    <glyph glyph-name="o" unicode="o" horiz-adv-x="408" 
d="M255 26h-4q-16 0 -27 19v8q0 6 6 17q-21 12 -21 25h-4q0 -16 -27 -25v-2q6 -12 6 -21q0 -15 -27 -19q-17 0 -39 40q-118 52 -118 269q0 157 99 238q23 12 29 12l-2 11q0 20 36 27h4q16 0 24 -21q0 -10 -12 -25q16 -10 21 -21q0 -24 -21 -24h-12q-4 0 -27 10
q-50 0 -77 -151q-4 -38 -4 -77q0 -167 81 -223h2q15 27 41 27q23 -4 23 -23h4q0 18 25 18q10 0 31 -16q83 55 83 221v19q0 143 -60 203q-6 6 -21 6q0 -16 -37 -21q-25 4 -25 21v4q5 21 21 21q-7 11 -7 21q0 18 27 20q18 0 34 -27q44 -13 76 -62q52 -83 52 -205
q-7 -205 -120 -252q0 -42 -33 -42z" />
    <glyph glyph-name="p" unicode="p" horiz-adv-x="462" 
d="M193 -386q-17 0 -34 40h-2q-15 -25 -31 -25q-23 0 -27 45q5 42 36 42q4 -2 6 -2q8 258 8 283q-2 21 -2 66h-33v-14q-10 -14 -23 -14h-10q-12 0 -17 10v10q0 6 6 17q-29 5 -29 29q9 20 25 20h6q14 0 23 -18l13 -2h37q0 164 -62 362q-19 -5 -19 -21q0 -27 -29 -27
q-17 0 -23 21q3 12 13 27q-21 9 -21 23q8 21 29 21h4q19 -4 19 -19q10 6 14 6l-8 27q-14 -10 -31 -10q-26 0 -31 45v9q8 39 37 39q5 0 17 -6q0 38 37 45q25 0 33 -39v-8q0 -16 -20 -48q12 -27 12 -33q61 23 118 23q128 0 199 -116q29 -54 29 -104v-21q0 -113 -118 -188
q-86 -43 -151 -43q2 -31 2 -62q0 -120 -7 -307q34 -10 34 -37v-11q-6 -35 -29 -35zM193 103q81 11 136 43q85 62 85 151v5q0 124 -124 186q-39 14 -77 14q-41 0 -85 -18q62 -214 62 -379q3 0 3 -2z" />
    <glyph glyph-name="q" unicode="q" horiz-adv-x="462" 
d="M267 -412q-18 0 -27 31q0 50 33 50q-6 187 -6 311q0 32 2 60q-87 0 -184 64q-85 76 -85 168v20q0 106 101 182q61 38 129 38q52 0 116 -23l12 37q-20 22 -20 44v8q6 39 37 39q23 0 33 -45q11 6 21 6q33 -11 33 -39v-9q-5 -45 -31 -45q-17 0 -31 10l-9 -27q4 0 15 -6
q3 19 18 19h5q21 0 29 -21q0 -15 -21 -23q10 -14 12 -27q-5 -20 -22 -20h-5q-27 0 -27 39q-2 0 -16 8q-62 -196 -62 -362h41q9 0 19 16q7 5 18 5q25 -5 25 -25q0 -18 -29 -25q7 -10 7 -17v-10q-6 -10 -17 -10h-10q-13 0 -23 14v15h-33q0 -33 -2 -60q0 -43 8 -290q7 0 14 2
q27 -11 27 -46q-6 -41 -27 -41q-15 0 -31 25h-2q-15 -40 -35 -40zM269 77q2 4 2 6q0 146 56 356q4 0 4 21q-49 17 -87 17q-127 0 -186 -137q-10 -33 -10 -66q0 -138 169 -189q6 0 52 -8z" />
    <glyph glyph-name="r" unicode="r" horiz-adv-x="427" 
d="M116 0h-4q-11 0 -27 21q-15 -4 -23 -4q-31 7 -31 29q7 29 27 29q17 0 25 -4q29 131 29 215v23q0 49 -13 105h-2q-20 -42 -20 -49q13 0 16 -21q0 -21 -27 -31q-14 0 -20 27q-7 -4 -23 -8q-23 3 -23 20v7q7 26 27 26q10 -4 14 -4q0 18 42 81q0 6 -17 46q-10 -7 -20 -7
q-29 0 -34 36q4 22 23 22q13 0 27 -4q0 14 21 27h8q25 -6 25 -25v-10q0 -12 -12 -21q12 -23 12 -27q59 52 120 52h6q70 0 139 -85q5 11 21 11q25 -11 25 -36q-2 -12 -32 -14v-13q-2 -26 -24 -26q-27 8 -27 26q0 9 8 25q-38 77 -112 77q-55 0 -110 -54q23 -80 23 -166
q0 -100 -31 -234q21 -10 21 -33q-7 -29 -27 -29z" />
    <glyph glyph-name="s" unicode="s" horiz-adv-x="350" 
d="M211 9h-10q-78 0 -164 110q-2 -7 -12 -7q-22 0 -25 29q0 15 14 15h17v6q0 27 23 27q23 -7 23 -23v-12q-8 -13 -11 -13q65 -99 135 -99q60 0 87 70l2 19q0 58 -83 99q-5 -10 -17 -10q-26 0 -26 31q4 13 26 13v24l-10 -2h-10v-16q0 -17 -23 -21q-25 10 -25 31q3 9 8 17v2
q-95 70 -95 151v14q0 75 85 106q24 6 42 6q91 0 153 -118q7 4 18 4q17 -10 17 -29q0 -11 -10 -16l-25 2q-6 -27 -23 -27q-23 6 -23 23v10q0 10 15 21q-53 95 -118 95h-4q-90 -11 -90 -81q0 -67 83 -138q9 8 11 8h8q19 0 25 -31l12 2q25 -5 25 -25q0 -11 -6 -19
q93 -51 93 -124v-12q0 -77 -89 -110q-14 -2 -23 -2z" />
    <glyph glyph-name="t" unicode="t" horiz-adv-x="192" 
d="M119 4h-8q-23 21 -23 38q-15 -23 -27 -23h-6q-16 12 -16 45q0 34 25 42q3 -2 8 -2q6 188 6 294q0 145 -14 254q-80 0 -222 36q-12 -17 -25 -17h-4q-29 5 -29 27q0 14 21 23q-2 12 -2 25q5 24 24 24q27 -3 27 -22l-2 -25q144 -33 207 -33q0 41 -51 225q-15 -10 -23 -10
q-29 0 -29 50q0 28 23 43h8q9 -2 14 -2q0 32 27 44q25 0 31 -40q0 -28 -16 -56q31 -90 56 -248q0 -4 2 -4q63 0 145 35q-4 8 -4 21q0 20 31 27q19 0 22 -25q-2 -14 -6 -21q25 -9 25 -27q-7 -23 -23 -23h-10q-7 0 -21 11q-84 -35 -157 -35q14 -132 14 -290q0 -118 -6 -280
q23 0 29 -37q0 -37 -21 -44z" />
    <glyph glyph-name="u" unicode="u" horiz-adv-x="356" 
d="M178 27q-110 0 -159 171q-15 68 -15 135q0 87 23 209q-27 0 -27 27q6 33 25 33q12 0 29 -21q19 17 33 17q23 -7 23 -25v-10q-7 -27 -27 -27h-13q-29 -115 -29 -211q0 -178 96 -236q21 -13 43 -13h8q82 0 123 129q8 46 8 80q0 90 -39 199q-34 0 -34 25v4q4 31 23 31
q10 0 27 -16h2q14 22 29 22h4q21 0 25 -29q0 -33 -33 -33q33 -100 33 -196q-5 -196 -126 -255q-22 -10 -52 -10z" />
    <glyph glyph-name="v" unicode="v" horiz-adv-x="482" 
d="M215 36h-10q-18 0 -23 26q0 19 35 46q0 51 -49 215q-20 59 -77 137q-27 32 -35 37q-6 -14 -21 -14h-6q-29 8 -29 29q0 29 37 29q0 37 23 37q25 0 29 -33q0 -9 -4 -17q70 -72 103 -155q50 -131 50 -166h4q28 165 122 294q32 34 34 34q-5 6 -5 12v10q7 27 25 27h11
q16 -8 16 -37h4q33 -4 33 -29q0 -23 -35 -29q-9 0 -23 15q-88 -95 -115 -193q-44 -139 -44 -209q33 0 33 -37q0 -20 -33 -27q-11 0 -23 10h-2q-16 -12 -25 -12z" />
    <glyph glyph-name="w" unicode="w" horiz-adv-x="596" 
d="M182 41q-11 0 -25 15h-2q-10 -8 -27 -8q-19 0 -22 26q0 27 37 32l2 12q0 260 -87 377q-6 7 -6 10q-12 -10 -27 -10q-25 12 -25 29v4q0 22 39 25q4 29 25 29q23 -9 23 -29t-6 -21q101 -138 101 -412q102 134 102 228v29q-21 3 -21 20v9q0 18 17 25q7 0 22 -13q0 6 19 11
q19 0 19 -29q0 -15 -21 -25q0 -23 -2 -33q8 -87 78 -191q17 -21 17 -25h2q0 268 99 408q-6 11 -6 19q3 31 31 31q19 -9 19 -31h12q27 -3 27 -25q-8 -29 -27 -29h-6q-7 0 -18 8q-94 -121 -94 -360v-31q7 -13 25 -13q13 -13 15 -26q-7 -27 -27 -27q-13 2 -27 10
q-7 -17 -25 -17q-21 8 -21 29q0 7 4 23q-73 98 -93 168q-3 0 -22 -52q-29 -55 -77 -120q2 -9 2 -19q-4 -31 -23 -31z" />
    <glyph glyph-name="x" unicode="x" horiz-adv-x="393" 
d="M313 4h-7q-17 0 -22 25v6q0 31 33 31v2q-33 112 -71 195h-2q-48 -67 -143 -168l-8 -6q4 -8 4 -25q0 -24 -37 -31q-19 0 -21 25v12q-32 0 -39 36q10 26 29 26h8q10 0 27 -16q114 117 160 188q-41 81 -139 160q-12 -21 -29 -21q-33 10 -33 31q0 27 35 31q-2 7 -2 15
q0 29 21 29h6q23 0 29 -36l-2 -14q87 -66 136 -151h2q52 114 52 161h-4q-31 4 -31 31q4 33 27 33q18 0 29 -18h4q19 12 31 12q15 0 21 -27q0 -22 -33 -35q-9 -90 -75 -201q40 -72 87 -223q37 -7 37 -36q0 -31 -27 -31q-6 0 -18 9h-2q-18 -19 -33 -19z" />
    <glyph glyph-name="y" unicode="y" horiz-adv-x="381" 
d="M238 -394q-95 0 -180 174q-7 -4 -12 -4h-9q-16 12 -16 25v6q1 17 16 17q13 -4 17 -4q6 29 23 29h6q17 0 25 -27q-2 -10 -15 -23q86 -149 153 -149q89 0 89 300q0 105 -12 222h-2q-5 -49 -60 -110q-39 -31 -77 -31h-12q-82 0 -135 134q-23 75 -23 162q0 73 11 155
q-25 2 -25 23q0 20 17 31h6q9 0 25 -16q13 13 29 16q22 -7 22 -27q-4 -31 -29 -31h-6q-16 -96 -16 -159q0 -181 99 -236q16 -7 37 -9q73 0 108 112q6 39 6 64q0 85 -43 189q-33 3 -33 29q0 20 18 29q7 0 23 -11q7 25 23 25h4q23 0 31 -35q0 -6 -12 -27q20 -42 49 -199
q23 -171 23 -290q0 -354 -143 -354z" />
    <glyph glyph-name="z" unicode="z" horiz-adv-x="389" 
d="M72 22q-18 0 -20 25v12q-31 0 -38 29q0 26 32 33q5 0 22 -8l13 2q4 -2 6 -2q149 158 180 240q35 81 35 108q-2 0 -10 10q-50 -29 -106 -29q-57 0 -145 31q-10 -10 -18 -10h-9q-14 9 -14 21q0 15 19 24q-7 14 -7 25t9 15q29 0 29 -21v-16q84 -32 134 -32q42 0 93 25
q-4 8 -4 17q5 31 27 31q14 0 31 -19q18 13 33 13q13 0 19 -25q0 -23 -33 -37q0 -77 -89 -224q-48 -68 -114 -141h2q49 15 85 15h17q48 0 99 -29q6 14 19 14q20 -11 20 -33q-6 -14 -14 -19l2 -20q0 -14 -11 -19h-6q-20 4 -20 21v14l2 4q-52 29 -98 29q-53 0 -134 -29
q0 -45 -38 -45z" />
    <glyph glyph-name="braceleft" unicode="{" horiz-adv-x="215" 
d="M171 30q-20 0 -36 48q-34 11 -62 83q-28 90 -30 173q-8 12 -43 30v2q37 35 37 48q0 172 75 277q24 20 30 20v16q0 24 34 30q21 0 25 -30q0 -7 -11 -25q20 -18 20 -36q-10 -21 -27 -21q-10 0 -28 14q-53 0 -73 -208q0 -33 -20 -78q20 -31 29 -135q25 -103 60 -128h4
q15 30 37 30q23 -4 23 -23v-14q-1 -5 -25 -25q4 -8 4 -27q0 -18 -23 -21z" />
    <glyph glyph-name="bar" unicode="|" horiz-adv-x="106" 
d="M26 33q-19 9 -19 24v16q4 10 19 20q-26 210 -26 329q0 131 34 257q-11 0 -17 34q8 28 19 28h12q10 0 19 -26l8 5h7q24 -5 24 -24v-17q0 -13 -17 -24q-11 0 -22 2q-33 -100 -33 -240q0 -108 26 -308h15q16 -10 16 -31q0 -25 -21 -29q-4 1 -20 12q-8 -28 -24 -28z" />
    <glyph glyph-name="braceright" unicode="}" horiz-adv-x="223" 
d="M47 17h-10q-3 0 -14 14v17q3 14 3 21q-26 14 -26 30q4 29 23 29h7q21 0 33 -31h3q42 41 56 103q12 59 21 134l16 33q-18 24 -28 157q-30 138 -68 138q-13 -14 -26 -14h-7q-23 5 -23 23q0 17 21 33q-12 18 -12 31q5 25 24 25h7q30 -7 30 -30v-16q30 -10 59 -64
q40 -94 40 -147q4 -13 11 -108q36 -30 36 -38q-45 -17 -45 -40q0 -83 -42 -196q-24 -43 -54 -59q-14 -45 -35 -45z" />
    <glyph glyph-name="asciitilde" unicode="~" horiz-adv-x="530" 
d="M388 246q-36 0 -209 58l-39 5q-42 0 -82 -26q5 -8 5 -14q0 -14 -23 -18q-17 0 -17 16v9q-23 3 -23 21q0 15 21 19q15 0 19 -10q52 28 88 28q62 0 219 -56q23 -2 41 -2q51 0 86 42q-4 0 -4 5v11q8 14 21 14h7q3 0 9 -9v-16q17 0 23 -12v-14q-8 -14 -21 -14q-8 0 -18 9
q-41 -46 -103 -46z" />
    <glyph glyph-name="exclamdown" unicode="&#xa1;" horiz-adv-x="196" 
d="M86 672l-3 5v19h-5l3 -19q-8 -5 -12 -5q-3 22 -8 22l3 -20q-5 -2 -8 -2q-9 0 -22 34q-34 25 -34 66q0 52 56 74h25q41 0 61 -57q2 -3 2 -17q0 -41 -36 -68q0 -32 -22 -32zM49 743q20 8 20 32q-4 31 -27 31q-18 -8 -18 -29q0 -34 25 -34zM100 750q20 0 20 22v7
q0 22 -20 22q-14 -6 -14 -22v-9q0 -14 12 -20h2zM132 4h-12q-20 0 -27 29q5 16 17 32q-73 138 -73 362q2 128 7 174q-29 3 -29 27q5 27 24 27q17 0 27 -25q18 15 27 15q19 0 22 -25q0 -31 -22 -31h-10q-7 -156 -7 -179q0 -197 71 -326q16 5 22 5q27 -4 27 -27v-14
q-11 -20 -27 -20l-17 3q0 -16 -20 -27z" />
    <glyph glyph-name="brokenbar" unicode="&#xa6;" horiz-adv-x="106" 
d="M26 33q-19 9 -19 24v16q4 10 19 20q-26 210 -26 329q0 131 34 257q-11 0 -17 34q8 28 19 28h12q10 0 19 -26l8 5h7q24 -5 24 -24v-17q0 -13 -17 -24q-11 0 -22 2q-33 -100 -33 -240q0 -108 26 -308h15q16 -10 16 -31q0 -25 -21 -29q-4 1 -20 12q-8 -28 -24 -28z" />
    <glyph glyph-name="dieresis" unicode="&#xa8;" horiz-adv-x="213" 
d="M172 645q-44 9 -44 44v6q7 42 39 42h7q35 0 39 -48q-9 -44 -41 -44zM44 646q-35 0 -44 46q0 35 37 46h9q39 -9 39 -37v-13q-8 -42 -41 -42z" />
    <glyph glyph-name="acute" unicode="&#xb4;" horiz-adv-x="82" 
d="M21 551q-4 0 -4 4v4q33 21 42 37q-12 -2 -24 -2q-25 0 -35 36q4 44 40 44q37 0 42 -42q-3 -22 -9 -36q-32 -45 -52 -45z" />
    <glyph glyph-name="periodcentered" unicode="&#xb7;" horiz-adv-x="148" 
d="M60 -106q-22 0 -22 33q-38 30 -38 63q0 18 3 27q24 58 70 58q75 -15 75 -73v-12q0 -32 -35 -61q-14 -32 -17 -32h-8l-5 2l3 18h-3q-3 -20 -8 -20h-5l-5 2l3 20h-5v-20zM101 -33q19 0 22 30q0 36 -22 36h-5q-18 -11 -18 -33q0 -24 23 -33zM40 -25q20 0 23 27q-7 26 -18 26
q-20 0 -20 -23v-8q0 -16 15 -22z" />
    <glyph glyph-name="periodcentered" unicode="&#x2219;" horiz-adv-x="148" 
d="M60 -106q-22 0 -22 33q-38 30 -38 63q0 18 3 27q24 58 70 58q75 -15 75 -73v-12q0 -32 -35 -61q-14 -32 -17 -32h-8l-5 2l3 18h-3q-3 -20 -8 -20h-5l-5 2l3 20h-5v-20zM101 -33q19 0 22 30q0 36 -22 36h-5q-18 -11 -18 -33q0 -24 23 -33zM40 -25q20 0 23 27q-7 26 -18 26
q-20 0 -20 -23v-8q0 -16 15 -22z" />
    <glyph glyph-name="questiondown" unicode="&#xbf;" horiz-adv-x="432" 
d="M151 -346h-5q-114 0 -143 121q-3 19 -3 31q0 159 202 387q40 36 48 39q-9 14 -9 28q0 31 39 34q20 -7 20 -34v-11q26 0 34 -17q-5 -39 -31 -39h-11l-12 8q-224 -203 -224 -378q0 -39 25 -82q40 -33 82 -33q110 0 187 143h-2q-17 10 -17 30q9 34 22 34h9q22 0 28 -34
q8 0 22 6q18 -6 20 -14v-17q-4 -28 -25 -28h-12l-5 3q-90 -177 -239 -177zM314 319q-11 0 -11 5v20h-6v-20q-1 -5 -5 -5h-6q-6 0 -6 25h-2q0 -25 -6 -25h-6q-6 0 -19 39q-22 0 -40 62v14q12 84 85 84q69 0 81 -93q0 -42 -45 -70v-11q-6 -25 -14 -25zM258 400q25 0 25 39
q0 25 -22 34q-28 -8 -28 -39q0 -21 19 -34h6zM322 406q23 6 23 28q-4 31 -14 31h-6q-22 0 -22 -31q0 -18 19 -28z" />
    <glyph glyph-name="Agrave" unicode="&#xc0;" horiz-adv-x="638" 
d="M518 -31q-34 0 -46 54q0 33 37 52q-43 96 -78 184q-46 6 -110 6q-75 0 -75 -11.5t-118 -186.5q14 -14 17 -31q-10 -44 -44 -44h-4q-28 0 -35 42q-48 5 -48 39q0 28 46 39q12 0 27 -10q59 81 97 149q-18 0 -112 -39l3 -19q0 -23 -36 -33q-18 0 -25 27l5 18q-19 9 -19 27
q6 33 33 33q8 0 29 -12q58 31 151 50q93 183 93 348q-45 13 -45 41v6q6 33 29 33q14 0 39 -14q4 10 27 16l13 -2v17q-19 0 -31 45q6 40 37 40q13 0 39 -23h2q19 12 33 12h9q23 0 29 -31v-2q-13 -54 -52 -54h-8q-11 -62 -11 -124q0 -146 60 -312l27 -5q0 17 33 23
q31 -4 31 -25v-6q0 -13 -10 -25q6 -14 6 -23q-3 -26 -23 -26h-6q-31 8 -31 29v10l-10 2v-2q20 -53 68 -160q15 9 37 9q35 0 40 -44q-10 -37 -42 -37q-23 0 -31 4q-18 -54 -47 -54zM416 305v2q-56 177 -56 298h-2q0 -122 -83 -296q94 0 141 -4zM324 822q-20 0 -51 45
q-6 14 -10 36q5 42 42 42q36 0 40 -44q-10 -36 -34 -36q-13 0 -25 2q9 -16 42 -37v-4q0 -4 -4 -4z" />
    <glyph glyph-name="Aacute" unicode="&#xc1;" horiz-adv-x="638" 
d="M518 -31q-34 0 -46 54q0 33 37 52q-43 96 -78 184q-46 6 -110 6q-75 0 -75 -11.5t-118 -186.5q14 -14 17 -31q-10 -44 -44 -44h-4q-28 0 -35 42q-48 5 -48 39q0 28 46 39q12 0 27 -10q59 81 97 149q-18 0 -112 -39l3 -19q0 -23 -36 -33q-18 0 -25 27l5 18q-19 9 -19 27
q6 33 33 33q8 0 29 -12q58 31 151 50q93 183 93 348q-45 13 -45 41v6q6 33 29 33q14 0 39 -14q4 10 27 16l13 -2v17q-19 0 -31 45q6 40 37 40q13 0 39 -23h2q19 12 33 12h9q23 0 29 -31v-2q-13 -54 -52 -54h-8q-11 -62 -11 -124q0 -146 60 -312l27 -5q0 17 33 23
q31 -4 31 -25v-6q0 -13 -10 -25q6 -14 6 -23q-3 -26 -23 -26h-6q-31 8 -31 29v10l-10 2v-2q20 -53 68 -160q15 9 37 9q35 0 40 -44q-10 -37 -42 -37q-23 0 -31 4q-18 -54 -47 -54zM416 305v2q-56 177 -56 298h-2q0 -122 -83 -296q94 0 141 -4zM280 822q-4 0 -4 4v4
q33 21 42 37q-12 -2 -24 -2q-25 0 -35 36q4 44 40 44q37 0 42 -42q-3 -22 -9 -36q-32 -45 -52 -45z" />
    <glyph glyph-name="Acircumflex" unicode="&#xc2;" horiz-adv-x="638" 
d="M518 -31q-34 0 -46 54q0 33 37 52q-43 96 -78 184q-46 6 -110 6q-75 0 -75 -11.5t-118 -186.5q14 -14 17 -31q-10 -44 -44 -44h-4q-28 0 -35 42q-48 5 -48 39q0 28 46 39q12 0 27 -10q59 81 97 149q-18 0 -112 -39l3 -19q0 -23 -36 -33q-18 0 -25 27l5 18q-19 9 -19 27
q6 33 33 33q8 0 29 -12q58 31 151 50q93 183 93 348q-45 13 -45 41v6q6 33 29 33q14 0 39 -14q4 10 27 16l13 -2v17q-19 0 -31 45q6 40 37 40q13 0 39 -23h2q19 12 33 12h9q23 0 29 -31v-2q-13 -54 -52 -54h-8q-11 -62 -11 -124q0 -146 60 -312l27 -5q0 17 33 23
q31 -4 31 -25v-6q0 -13 -10 -25q6 -14 6 -23q-3 -26 -23 -26h-6q-31 8 -31 29v10l-10 2v-2q20 -53 68 -160q15 9 37 9q35 0 40 -44q-10 -37 -42 -37q-23 0 -31 4q-18 -54 -47 -54zM416 305v2q-56 177 -56 298h-2q0 -122 -83 -296q94 0 141 -4zM441 844q-12 2 -12 12l2 6
q-43 29 -67 119h-4q-27 -79 -77 -110h-2v-11q-2 -6 -11 -6q-11 0 -17 13q-8 0 -10 12q3 10 13 10q6 0 12 -4q46 25 73 103q-3 0 -6 6v8q2 5 12 5q9 -1 9 -5l10 2l7 -4q1 4 4 4h10q4 -1 8 -10q0 -2 -8 -11q19 -81 54 -104l5 -4q8 4 14 4q8 -4 9 -8q0 -13 -13 -17
q-5 -10 -15 -10z" />
    <glyph glyph-name="Atilde" unicode="&#xc3;" horiz-adv-x="638" 
d="M518 -31q-34 0 -46 54q0 33 37 52q-43 96 -78 184q-46 6 -110 6q-75 0 -75 -11.5t-118 -186.5q14 -14 17 -31q-10 -44 -44 -44h-4q-28 0 -35 42q-48 5 -48 39q0 28 46 39q12 0 27 -10q59 81 97 149q-18 0 -112 -39l3 -19q0 -23 -36 -33q-18 0 -25 27l5 18q-19 9 -19 27
q6 33 33 33q8 0 29 -12q58 31 151 50q93 183 93 348q-45 13 -45 41v6q6 33 29 33q14 0 39 -14q4 10 27 16l13 -2v17q-19 0 -31 45q6 40 37 40q13 0 39 -23h2q19 12 33 12h9q23 0 29 -31v-2q-13 -54 -52 -54h-8q-11 -62 -11 -124q0 -146 60 -312l27 -5q0 17 33 23
q31 -4 31 -25v-6q0 -13 -10 -25q6 -14 6 -23q-3 -26 -23 -26h-6q-31 8 -31 29v10l-10 2v-2q20 -53 68 -160q15 9 37 9q35 0 40 -44q-10 -37 -42 -37q-23 0 -31 4q-18 -54 -47 -54zM416 305v2q-56 177 -56 298h-2q0 -122 -83 -296q94 0 141 -4zM421 869q-36 0 -209 58l-39 5
q-42 0 -82 -26q5 -8 5 -14q0 -14 -23 -18q-17 0 -17 16v9q-23 3 -23 21q0 15 21 19q15 0 19 -10q52 28 88 28q62 0 219 -56q23 -2 41 -2q51 0 86 42q-4 0 -4 5v11q8 14 21 14h7q3 0 9 -9v-16q17 0 23 -12v-14q-8 -14 -21 -14q-8 0 -18 9q-41 -46 -103 -46z" />
    <glyph glyph-name="Adieresis" unicode="&#xc4;" horiz-adv-x="638" 
d="M518 -31q-34 0 -46 54q0 33 37 52q-43 96 -78 184q-46 6 -110 6q-75 0 -75 -11.5t-118 -186.5q14 -14 17 -31q-10 -44 -44 -44h-4q-28 0 -35 42q-48 5 -48 39q0 28 46 39q12 0 27 -10q59 81 97 149q-18 0 -112 -39l3 -19q0 -23 -36 -33q-18 0 -25 27l5 18q-19 9 -19 27
q6 33 33 33q8 0 29 -12q58 31 151 50q93 183 93 348q-45 13 -45 41v6q6 33 29 33q14 0 39 -14q4 10 27 16l13 -2v17q-19 0 -31 45q6 40 37 40q13 0 39 -23h2q19 12 33 12h9q23 0 29 -31v-2q-13 -54 -52 -54h-8q-11 -62 -11 -124q0 -146 60 -312l27 -5q0 17 33 23
q31 -4 31 -25v-6q0 -13 -10 -25q6 -14 6 -23q-3 -26 -23 -26h-6q-31 8 -31 29v10l-10 2v-2q20 -53 68 -160q15 9 37 9q35 0 40 -44q-10 -37 -42 -37q-23 0 -31 4q-18 -54 -47 -54zM416 305v2q-56 177 -56 298h-2q0 -122 -83 -296q94 0 141 -4zM399 868q-44 9 -44 44v6
q7 42 39 42h7q35 0 39 -48q-9 -44 -41 -44zM271 869q-35 0 -44 46q0 35 37 46h9q39 -9 39 -37v-13q-8 -42 -41 -42z" />
    <glyph glyph-name="Aring" unicode="&#xc5;" horiz-adv-x="638" 
d="M518 -31q-34 0 -46 54q0 33 37 52q-43 96 -78 184q-46 6 -110 6q-75 0 -75 -11.5t-118 -186.5q14 -14 17 -31q-10 -44 -44 -44h-4q-28 0 -35 42q-48 5 -48 39q0 28 46 39q12 0 27 -10q59 81 97 149q-18 0 -112 -39l3 -19q0 -23 -36 -33q-18 0 -25 27l5 18q-19 9 -19 27
q6 33 33 33q8 0 29 -12q58 31 151 50q93 183 93 348q-45 13 -45 41v6q6 33 29 33q14 0 39 -14q4 10 27 16l13 -2v17q-19 0 -31 45q6 40 37 40q13 0 39 -23h2q19 12 33 12h9q23 0 29 -31v-2q-13 -54 -52 -54h-8q-11 -62 -11 -124q0 -146 60 -312l27 -5q0 17 33 23
q31 -4 31 -25v-6q0 -13 -10 -25q6 -14 6 -23q-3 -26 -23 -26h-6q-31 8 -31 29v10l-10 2v-2q20 -53 68 -160q15 9 37 9q35 0 40 -44q-10 -37 -42 -37q-23 0 -31 4q-18 -54 -47 -54zM416 305v2q-56 177 -56 298h-2q0 -122 -83 -296q94 0 141 -4zM346 896q-22 0 -22 33
q-38 30 -38 63q0 18 3 27q24 58 70 58q75 -15 75 -73v-12q0 -32 -35 -61q-14 -32 -17 -32h-8l-5 2l3 18h-3q-3 -20 -8 -20h-5l-5 2l3 20h-5v-20zM387 969q19 0 22 30q0 36 -22 36h-5q-18 -11 -18 -33q0 -24 23 -33zM326 977q20 0 23 27q-7 26 -18 26q-20 0 -20 -23v-8
q0 -16 15 -22z" />
    <glyph glyph-name="AE" unicode="&#xc6;" horiz-adv-x="1001" 
d="M416 305v2q-56 177 -56 298h-2q0 -122 -83 -296q94 0 141 -4zM455 -26q2 4 11 45h-2q-39 -9 -39 -20q0 -15 -6 -25l11 2h14zM504 222l1 9q-2 5 -2 10v4l-7 -4zM495 296l9 4q2 5 8 9q4 51 4 102q0 159 -41 288q-20 -2 -56 -15q-3 -37 -3 -73q0 -146 60 -312zM487 -137
q-20 0 -39 30q-18 -9 -38 -12q-34 5 -34 34q0 23 20 46q-27 2 -27 22q0 12 2 23q-20 11 -20 25v7q0 18 27 24h7q22 -4 22 -13q7 0 71 23l10 50q-21 46 -39 91l-33 -21q5 -9 5 -37q-8 -29 -27 -29q-32 0 -32 52q-25 8 -25 27v11q0 24 39 30q7 0 18 -9l34 22q-45 6 -108 6
q-74 0 -74 -11.5t-118 -186.5q13 -14 16 -31q-9 -44 -43 -44h-4q-28 0 -35 42q-48 5 -48 39q0 28 46 39q12 0 26 -10q60 81 98 149q-19 0 -112 -39q2 -10 2 -19q0 -23 -35 -33q-18 0 -25 27l4 18q-18 9 -18 27q5 33 33 33q8 0 29 -12q58 31 151 50q82 161 92 308q-5 7 -6 18
q0 7 6 22q-45 13 -45 41v6q6 33 29 33h4q8 4 19 4h12q8 0 18 -7q5 3 14 5l12 -2v17q-19 0 -31 45q7 40 37 40q6 0 15 -5q11 9 30 14q13 0 38 -10q0 27 41 46h7q34 0 45 -57q0 -31 -32 -45q7 -15 7 -21l5 3h61q129 0 328 -61q14 31 39 31h9q34 -9 34 -31v-9q0 -16 -32 -34
l5 -25q-5 -34 -30 -34q-45 9 -45 45l2 16q-186 56 -312 56l-48 -2q32 -123 32 -253q0 -59 -7 -134h2q48 14 96 14q45 0 88 -12q12 25 34 25q20 0 27 -29q0 -9 -14 -34q11 -13 11 -34q0 -13 -13 -21h-11q-34 10 -34 46q2 0 2 2q-36 11 -73 11h-22q-50 0 -96 -20l-3.5 -7
t-1.5 -6q5 -12 5 -20q-3 -17 -12 -23l-12 -74l22 -50q15 9 37 9t32 -19q93 -9 205 -52q0 11 39 20h2q34 -5 34 -27q0 -18 -23 -32l3 -18q-7 -34 -30 -34q-32 0 -36 47q0 13 -47 21q-79 25 -148 31q-12 -18 -33 -18q-23 0 -31 4q-18 -54 -48 -54q-8 0 -14 3l-1 -9
q32 -17 32 -45q-8 -55 -47 -55z" />
    <glyph glyph-name="Egrave" unicode="&#xc8;" horiz-adv-x="727" 
d="M213 -137q-19 0 -39 30q-18 -9 -38 -12q-34 5 -34 34q0 23 20 46q-27 2 -27 22q0 12 2 23q-20 11 -20 25v7q0 18 27 24h7q23 -4 23 -13q6 0 70 23q13 61 29 174h-2q-55 -32 -88 -54q4 -9 4 -37q-8 -29 -27 -29q-32 0 -32 52q-25 8 -25 27v11q0 24 39 30q7 0 18 -9
q69 46 118 66q4 54 4 108q0 159 -40 288q-32 -3 -102 -34q4 -8 4 -14v-9q0 -34 -47 -43h-5q-23 0 -27 30q0 10 11 36q-36 14 -36 38q8 32 38 32h12q14 0 32 -20q62 22 104 34l-3 11l-24 -2q-47 0 -55 45q0 29 41 39q13 0 38 -10q0 27 41 46h7q34 0 45 -57q0 -31 -31 -45
q6 -15 6 -21l5 3h61q130 0 328 -61q14 31 39 31h9q34 -9 34 -31v-9q0 -16 -32 -34l5 -25q-5 -34 -30 -34q-45 9 -45 45l2 16q-186 56 -312 56l-48 -2q32 -123 32 -253q0 -59 -7 -134h2q48 14 97 14q44 0 87 -12q12 25 34 25q21 0 27 -29q0 -9 -14 -34q12 -13 12 -34
q0 -13 -14 -21h-11q-34 10 -34 46q2 0 2 2q-36 11 -72 11h-23q-52 0 -100 -22q-6 -60 -31 -191l59 5q109 0 249 -54q0 11 38 20h2q34 -5 34 -27q0 -18 -22 -32l2 -18q-6 -34 -29 -34q-33 0 -37 47q0 13 -47 21q-99 32 -184 32q-38 0 -77 -5q-13 -51 -13 -70q31 -17 31 -45
q-8 -55 -47 -55zM181 -26q2 4 11 45h-2q-38 -9 -38 -20q0 -15 -7 -25l11 2h14zM421 825q-20 0 -51 45q-6 14 -10 36q5 42 42 42q36 0 40 -44q-10 -36 -34 -36q-13 0 -25 2q9 -16 42 -37v-4q0 -4 -4 -4z" />
    <glyph glyph-name="Eacute" unicode="&#xc9;" horiz-adv-x="727" 
d="M213 -137q-19 0 -39 30q-18 -9 -38 -12q-34 5 -34 34q0 23 20 46q-27 2 -27 22q0 12 2 23q-20 11 -20 25v7q0 18 27 24h7q23 -4 23 -13q6 0 70 23q13 61 29 174h-2q-55 -32 -88 -54q4 -9 4 -37q-8 -29 -27 -29q-32 0 -32 52q-25 8 -25 27v11q0 24 39 30q7 0 18 -9
q69 46 118 66q4 54 4 108q0 159 -40 288q-32 -3 -102 -34q4 -8 4 -14v-9q0 -34 -47 -43h-5q-23 0 -27 30q0 10 11 36q-36 14 -36 38q8 32 38 32h12q14 0 32 -20q62 22 104 34l-3 11l-24 -2q-47 0 -55 45q0 29 41 39q13 0 38 -10q0 27 41 46h7q34 0 45 -57q0 -31 -31 -45
q6 -15 6 -21l5 3h61q130 0 328 -61q14 31 39 31h9q34 -9 34 -31v-9q0 -16 -32 -34l5 -25q-5 -34 -30 -34q-45 9 -45 45l2 16q-186 56 -312 56l-48 -2q32 -123 32 -253q0 -59 -7 -134h2q48 14 97 14q44 0 87 -12q12 25 34 25q21 0 27 -29q0 -9 -14 -34q12 -13 12 -34
q0 -13 -14 -21h-11q-34 10 -34 46q2 0 2 2q-36 11 -72 11h-23q-52 0 -100 -22q-6 -60 -31 -191l59 5q109 0 249 -54q0 11 38 20h2q34 -5 34 -27q0 -18 -22 -32l2 -18q-6 -34 -29 -34q-33 0 -37 47q0 13 -47 21q-99 32 -184 32q-38 0 -77 -5q-13 -51 -13 -70q31 -17 31 -45
q-8 -55 -47 -55zM181 -26q2 4 11 45h-2q-38 -9 -38 -20q0 -15 -7 -25l11 2h14zM386 815q-4 0 -4 4v4q33 21 42 37q-12 -2 -24 -2q-25 0 -35 36q4 44 40 44q37 0 42 -42q-3 -22 -9 -36q-32 -45 -52 -45z" />
    <glyph glyph-name="Ecircumflex" unicode="&#xca;" horiz-adv-x="727" 
d="M213 -137q-19 0 -39 30q-18 -9 -38 -12q-34 5 -34 34q0 23 20 46q-27 2 -27 22q0 12 2 23q-20 11 -20 25v7q0 18 27 24h7q23 -4 23 -13q6 0 70 23q13 61 29 174h-2q-55 -32 -88 -54q4 -9 4 -37q-8 -29 -27 -29q-32 0 -32 52q-25 8 -25 27v11q0 24 39 30q7 0 18 -9
q69 46 118 66q4 54 4 108q0 159 -40 288q-32 -3 -102 -34q4 -8 4 -14v-9q0 -34 -47 -43h-5q-23 0 -27 30q0 10 11 36q-36 14 -36 38q8 32 38 32h12q14 0 32 -20q62 22 104 34l-3 11l-24 -2q-47 0 -55 45q0 29 41 39q13 0 38 -10q0 27 41 46h7q34 0 45 -57q0 -31 -31 -45
q6 -15 6 -21l5 3h61q130 0 328 -61q14 31 39 31h9q34 -9 34 -31v-9q0 -16 -32 -34l5 -25q-5 -34 -30 -34q-45 9 -45 45l2 16q-186 56 -312 56l-48 -2q32 -123 32 -253q0 -59 -7 -134h2q48 14 97 14q44 0 87 -12q12 25 34 25q21 0 27 -29q0 -9 -14 -34q12 -13 12 -34
q0 -13 -14 -21h-11q-34 10 -34 46q2 0 2 2q-36 11 -72 11h-23q-52 0 -100 -22q-6 -60 -31 -191l59 5q109 0 249 -54q0 11 38 20h2q34 -5 34 -27q0 -18 -22 -32l2 -18q-6 -34 -29 -34q-33 0 -37 47q0 13 -47 21q-99 32 -184 32q-38 0 -77 -5q-13 -51 -13 -70q31 -17 31 -45
q-8 -55 -47 -55zM181 -26q2 4 11 45h-2q-38 -9 -38 -20q0 -15 -7 -25l11 2h14zM510 859q-12 2 -12 12l2 6q-43 29 -67 119h-4q-27 -79 -77 -110h-2v-11q-2 -6 -11 -6q-11 0 -17 13q-8 0 -10 12q3 10 13 10q6 0 12 -4q46 25 73 103q-3 0 -6 6v8q2 5 12 5q9 -1 9 -5l10 2l7 -4
q1 4 4 4h10q4 -1 8 -10q0 -2 -8 -11q19 -81 54 -104l5 -4q8 4 14 4q8 -4 9 -8q0 -13 -13 -17q-5 -10 -15 -10z" />
    <glyph glyph-name="Edieresis" unicode="&#xcb;" horiz-adv-x="727" 
d="M213 -137q-19 0 -39 30q-18 -9 -38 -12q-34 5 -34 34q0 23 20 46q-27 2 -27 22q0 12 2 23q-20 11 -20 25v7q0 18 27 24h7q23 -4 23 -13q6 0 70 23q13 61 29 174h-2q-55 -32 -88 -54q4 -9 4 -37q-8 -29 -27 -29q-32 0 -32 52q-25 8 -25 27v11q0 24 39 30q7 0 18 -9
q69 46 118 66q4 54 4 108q0 159 -40 288q-32 -3 -102 -34q4 -8 4 -14v-9q0 -34 -47 -43h-5q-23 0 -27 30q0 10 11 36q-36 14 -36 38q8 32 38 32h12q14 0 32 -20q62 22 104 34l-3 11l-24 -2q-47 0 -55 45q0 29 41 39q13 0 38 -10q0 27 41 46h7q34 0 45 -57q0 -31 -31 -45
q6 -15 6 -21l5 3h61q130 0 328 -61q14 31 39 31h9q34 -9 34 -31v-9q0 -16 -32 -34l5 -25q-5 -34 -30 -34q-45 9 -45 45l2 16q-186 56 -312 56l-48 -2q32 -123 32 -253q0 -59 -7 -134h2q48 14 97 14q44 0 87 -12q12 25 34 25q21 0 27 -29q0 -9 -14 -34q12 -13 12 -34
q0 -13 -14 -21h-11q-34 10 -34 46q2 0 2 2q-36 11 -72 11h-23q-52 0 -100 -22q-6 -60 -31 -191l59 5q109 0 249 -54q0 11 38 20h2q34 -5 34 -27q0 -18 -22 -32l2 -18q-6 -34 -29 -34q-33 0 -37 47q0 13 -47 21q-99 32 -184 32q-38 0 -77 -5q-13 -51 -13 -70q31 -17 31 -45
q-8 -55 -47 -55zM181 -26q2 4 11 45h-2q-38 -9 -38 -20q0 -15 -7 -25l11 2h14zM496 851q-44 9 -44 44v6q7 42 39 42h7q35 0 39 -48q-9 -44 -41 -44zM368 852q-35 0 -44 46q0 35 37 46h9q39 -9 39 -37v-13q-8 -42 -41 -42z" />
    <glyph glyph-name="Igrave" unicode="&#xcc;" horiz-adv-x="172" 
d="M62 -7h-10q-28 0 -38 52q0 29 27 49v2q-41 255 -41 417q0 206 62 370q-25 14 -25 35v7q6 35 29 35h6q17 0 34 -33q12 16 35 16q31 -3 31 -29v-6q-9 -46 -46 -46l-14 3q-58 -155 -58 -344q0 -146 43 -410q13 0 17 2q45 -7 45 -42q3 0 3 -12q0 -33 -36 -43h-8q-11 0 -27 8
q0 -20 -29 -31zM124 1003q-20 0 -51 45q-6 14 -10 36q5 42 42 42q36 0 40 -44q-10 -36 -34 -36q-13 0 -25 2q9 -16 42 -37v-4q0 -4 -4 -4z" />
    <glyph glyph-name="Iacute" unicode="&#xcd;" horiz-adv-x="172" 
d="M62 -7h-10q-28 0 -38 52q0 29 27 49v2q-41 255 -41 417q0 206 62 370q-25 14 -25 35v7q6 35 29 35h6q17 0 34 -33q12 16 35 16q31 -3 31 -29v-6q-9 -46 -46 -46l-14 3q-58 -155 -58 -344q0 -146 43 -410q13 0 17 2q45 -7 45 -42q3 0 3 -12q0 -33 -36 -43h-8q-11 0 -27 8
q0 -20 -29 -31zM85 996q-4 0 -4 4v4q33 21 42 37q-12 -2 -24 -2q-25 0 -35 36q4 44 40 44q37 0 42 -42q-3 -22 -9 -36q-32 -45 -52 -45z" />
    <glyph glyph-name="Icircumflex" unicode="&#xce;" horiz-adv-x="172" 
d="M62 -7h-10q-28 0 -38 52q0 29 27 49v2q-41 255 -41 417q0 206 62 370q-25 14 -25 35v7q6 35 29 35h6q17 0 34 -33q12 16 35 16q31 -3 31 -29v-6q-9 -46 -46 -46l-14 3q-58 -155 -58 -344q0 -146 43 -410q13 0 17 2q45 -7 45 -42q3 0 3 -12q0 -33 -36 -43h-8q-11 0 -27 8
q0 -20 -29 -31zM164 966q-12 2 -12 12l2 6q-43 29 -67 119h-4q-27 -79 -77 -110h-2v-11q-2 -6 -11 -6q-11 0 -17 13q-8 0 -10 12q3 10 13 10q6 0 12 -4q46 25 73 103q-3 0 -6 6v8q2 5 12 5q9 -1 9 -5l10 2l7 -4q1 4 4 4h10q4 -1 8 -10q0 -2 -8 -11q19 -81 54 -104l5 -4
q8 4 14 4q8 -4 9 -8q0 -13 -13 -17q-5 -10 -15 -10z" />
    <glyph glyph-name="Idieresis" unicode="&#xcf;" horiz-adv-x="172" 
d="M62 -7h-10q-28 0 -38 52q0 29 27 49v2q-41 255 -41 417q0 206 62 370q-25 14 -25 35v7q6 35 29 35h6q17 0 34 -33q12 16 35 16q31 -3 31 -29v-6q-9 -46 -46 -46l-14 3q-58 -155 -58 -344q0 -146 43 -410q13 0 17 2q45 -7 45 -42q3 0 3 -12q0 -33 -36 -43h-8q-11 0 -27 8
q0 -20 -29 -31zM147 970q-44 9 -44 44v6q7 42 39 42h7q35 0 39 -48q-9 -44 -41 -44zM19 971q-35 0 -44 46q0 35 37 46h9q39 -9 39 -37v-13q-8 -42 -41 -42z" />
    <glyph glyph-name="Eth" unicode="&#xd0;" horiz-adv-x="523" 
d="M68 767q27 8 27 15q-2 6 -4 6q-13 -4 -19 -4q-9 0 -18 2q8 -10 14 -19zM192 96q157 0 216 176q18 58 18 114v40q0 152 -109 265q-62 47 -139 47q41 -130 41 -285v-38q56 6 97 31q-2 11 -2 15q5 16 18 16h5q14 -10 14 -21l-4 -10q15 -7 15 -19q0 -16 -15 -21q-10 0 -19 13
q-48 -25 -110 -30q-5 -131 -30 -293h4zM170 -55q-10 0 -31 17q-11 -6 -17 -6h-12q-24 0 -31 35v4q11 43 41 43l12 -2v9q-8 0 -55 8q-19 -27 -44 -27q-27 7 -27 33q0 22 25 44v2q-6 10 -8 29q5 31 27 31h6q33 -6 33 -31v-15q22 -14 54 -14q23 168 23 279v3q-43 2 -135 15v-2
q-5 -15 -16 -15q-15 6 -15 17q4 17 13 17v4q-5 7 -5 14q0 17 17 17q15 -5 15 -19v-6h2q76 -12 124 -14q0 165 -50 315q-29 0 -29 -25q-14 -23 -31 -23q-33 0 -33 23q0 13 4 27q-27 10 -27 29v6q0 20 31 27q4 -2 10 -2v2q-25 16 -25 42v6q7 35 36 35q19 0 33 -6q13 45 37 45
h10q30 0 42 -49v-17q0 -21 -23 -41q0 -2 8 -19l4 2h32q164 0 254 -211q33 -98 33 -186q0 -213 -149 -317q-66 -37 -138 -37h-13q-4 0 -6 -17q29 -6 29 -27v-4q-7 -48 -35 -48z" />
    <glyph glyph-name="Ntilde" unicode="&#xd1;" horiz-adv-x="518" 
d="M393 -144q-35 0 -43 43v4q0 40 35 60q-76 302 -76 514q0 177 55 329q-26 18 -26 39q10 44 35 44h6q22 0 39 -31q21 14 35 14q24 0 34 -33v-10q0 -40 -54 -50q-24 6 -29 6q-40 -131 -40 -258v-48q0 -179 81 -493h2q12 6 21 6q50 -10 50 -58q0 -35 -48 -43q-22 2 -35 8
q-18 -43 -42 -43zM97 11q-10 0 -33 33q-15 -6 -27 -6q-37 6 -37 37q8 46 39 46q16 -4 19 -4q46 208 46 372v19h-3q-4 -31 -24 -31q-13 0 -29 21q-4 0 -17 -5q-19 0 -23 27q6 25 23 25h8l4 -2l50 64q-10 68 -33 137l-19 -6q-35 7 -35 39v8q6 36 29 36q13 -2 25 -11h4
q11 25 29 25q33 -5 33 -33v-4q0 -17 -18 -31v-2q31 -83 31 -102q77 86 147 143q-4 7 -4 12q7 27 24 27h7q18 0 18 -24q-2 0 -2 -3q25 0 27 -29q-10 -22 -25 -22q-5 0 -16 10q-114 -100 -166 -164q8 -62 8 -140q0 -144 -49 -375q29 -19 29 -48q-7 -39 -40 -39zM101 520v15
l-2 14q-10 -7 -10 -18q10 -2 10 -11h2zM361 925q-36 0 -209 58l-39 5q-42 0 -82 -26q5 -8 5 -14q0 -14 -23 -18q-17 0 -17 16v9q-23 3 -23 21q0 15 21 19q15 0 19 -10q52 28 88 28q62 0 219 -56q23 -2 41 -2q51 0 86 42q-4 0 -4 5v11q8 14 21 14h7q3 0 9 -9v-16q17 0 23 -12
v-14q-8 -14 -21 -14q-8 0 -18 9q-41 -46 -103 -46z" />
    <glyph glyph-name="Ograve" unicode="&#xd2;" horiz-adv-x="472" 
d="M188 -11h-6q-22 0 -43 58q-57 27 -93 118q-46 116 -46 269q0 260 112 381l37 27l-2 13q10 39 35 39h11q21 0 26 -31q0 -10 -14 -37q25 -20 25 -35v-7q-6 -24 -29 -24q-17 0 -37 16q-47 0 -81 -153q-17 -101 -17 -195q6 -276 96 -346q2 0 2 3q19 37 45 37q25 0 29 -33
q0 -22 -33 -40q6 -18 6 -25v-12q-3 -23 -23 -23zM296 -15h-6q-23 0 -31 35q0 11 10 29q-27 19 -27 40q0 23 29 27h2q21 -8 33 -25q43 24 73 128q25 103 25 215v19q0 223 -69 319q-13 11 -24 14q-11 -35 -36 -35h-10q-22 0 -27 29v8q0 17 25 29q-8 20 -8 34q0 27 33 27
q20 0 33 -38q61 -25 103 -124q48 -129 48 -280q0 -260 -114 -374q-22 -15 -27 -15q0 -62 -35 -62zM247 927q-20 0 -51 45q-6 14 -10 36q5 42 42 42q36 0 40 -44q-10 -36 -34 -36q-13 0 -25 2q9 -16 42 -37v-4q0 -4 -4 -4z" />
    <glyph glyph-name="Oacute" unicode="&#xd3;" horiz-adv-x="472" 
d="M188 -11h-6q-22 0 -43 58q-57 27 -93 118q-46 116 -46 269q0 260 112 381l37 27l-2 13q10 39 35 39h11q21 0 26 -31q0 -10 -14 -37q25 -20 25 -35v-7q-6 -24 -29 -24q-17 0 -37 16q-47 0 -81 -153q-17 -101 -17 -195q6 -276 96 -346q2 0 2 3q19 37 45 37q25 0 29 -33
q0 -22 -33 -40q6 -18 6 -25v-12q-3 -23 -23 -23zM296 -15h-6q-23 0 -31 35q0 11 10 29q-27 19 -27 40q0 23 29 27h2q21 -8 33 -25q43 24 73 128q25 103 25 215v19q0 223 -69 319q-13 11 -24 14q-11 -35 -36 -35h-10q-22 0 -27 29v8q0 17 25 29q-8 20 -8 34q0 27 33 27
q20 0 33 -38q61 -25 103 -124q48 -129 48 -280q0 -260 -114 -374q-22 -15 -27 -15q0 -62 -35 -62zM236 925q-4 0 -4 4v4q33 21 42 37q-12 -2 -24 -2q-25 0 -35 36q4 44 40 44q37 0 42 -42q-3 -22 -9 -36q-32 -45 -52 -45z" />
    <glyph glyph-name="Ocircumflex" unicode="&#xd4;" horiz-adv-x="472" 
d="M188 -11h-6q-22 0 -43 58q-57 27 -93 118q-46 116 -46 269q0 260 112 381l37 27l-2 13q10 39 35 39h11q21 0 26 -31q0 -10 -14 -37q25 -20 25 -35v-7q-6 -24 -29 -24q-17 0 -37 16q-47 0 -81 -153q-17 -101 -17 -195q6 -276 96 -346q2 0 2 3q19 37 45 37q25 0 29 -33
q0 -22 -33 -40q6 -18 6 -25v-12q-3 -23 -23 -23zM296 -15h-6q-23 0 -31 35q0 11 10 29q-27 19 -27 40q0 23 29 27h2q21 -8 33 -25q43 24 73 128q25 103 25 215v19q0 223 -69 319q-13 11 -24 14q-11 -35 -36 -35h-10q-22 0 -27 29v8q0 17 25 29q-8 20 -8 34q0 27 33 27
q20 0 33 -38q61 -25 103 -124q48 -129 48 -280q0 -260 -114 -374q-22 -15 -27 -15q0 -62 -35 -62zM316 907q-12 2 -12 12l2 6q-43 29 -67 119h-4q-27 -79 -77 -110h-2v-11q-2 -6 -11 -6q-11 0 -17 13q-8 0 -10 12q3 10 13 10q6 0 12 -4q46 25 73 103q-3 0 -6 6v8q2 5 12 5
q9 -1 9 -5l10 2l7 -4q1 4 4 4h10q4 -1 8 -10q0 -2 -8 -11q19 -81 54 -104l5 -4q8 4 14 4q8 -4 9 -8q0 -13 -13 -17q-5 -10 -15 -10z" />
    <glyph glyph-name="Otilde" unicode="&#xd5;" horiz-adv-x="472" 
d="M188 -11h-6q-22 0 -43 58q-57 27 -93 118q-46 116 -46 269q0 260 112 381l37 27l-2 13q10 39 35 39h11q21 0 26 -31q0 -10 -14 -37q25 -20 25 -35v-7q-6 -24 -29 -24q-17 0 -37 16q-47 0 -81 -153q-17 -101 -17 -195q6 -276 96 -346q2 0 2 3q19 37 45 37q25 0 29 -33
q0 -22 -33 -40q6 -18 6 -25v-12q-3 -23 -23 -23zM296 -15h-6q-23 0 -31 35q0 11 10 29q-27 19 -27 40q0 23 29 27h2q21 -8 33 -25q43 24 73 128q25 103 25 215v19q0 223 -69 319q-13 11 -24 14q-11 -35 -36 -35h-10q-22 0 -27 29v8q0 17 25 29q-8 20 -8 34q0 27 33 27
q20 0 33 -38q61 -25 103 -124q48 -129 48 -280q0 -260 -114 -374q-22 -15 -27 -15q0 -62 -35 -62zM339 906q-36 0 -209 58l-39 5q-42 0 -82 -26q5 -8 5 -14q0 -14 -23 -18q-17 0 -17 16v9q-23 3 -23 21q0 15 21 19q15 0 19 -10q52 28 88 28q62 0 219 -56q23 -2 41 -2
q51 0 86 42q-4 0 -4 5v11q8 14 21 14h7q3 0 9 -9v-16q17 0 23 -12v-14q-8 -14 -21 -14q-8 0 -18 9q-41 -46 -103 -46z" />
    <glyph glyph-name="Odieresis" unicode="&#xd6;" horiz-adv-x="472" 
d="M188 -11h-6q-22 0 -43 58q-57 27 -93 118q-46 116 -46 269q0 260 112 381l37 27l-2 13q10 39 35 39h11q21 0 26 -31q0 -10 -14 -37q25 -20 25 -35v-7q-6 -24 -29 -24q-17 0 -37 16q-47 0 -81 -153q-17 -101 -17 -195q6 -276 96 -346q2 0 2 3q19 37 45 37q25 0 29 -33
q0 -22 -33 -40q6 -18 6 -25v-12q-3 -23 -23 -23zM296 -15h-6q-23 0 -31 35q0 11 10 29q-27 19 -27 40q0 23 29 27h2q21 -8 33 -25q43 24 73 128q25 103 25 215v19q0 223 -69 319q-13 11 -24 14q-11 -35 -36 -35h-10q-22 0 -27 29v8q0 17 25 29q-8 20 -8 34q0 27 33 27
q20 0 33 -38q61 -25 103 -124q48 -129 48 -280q0 -260 -114 -374q-22 -15 -27 -15q0 -62 -35 -62zM300 934q-44 9 -44 44v6q7 42 39 42h7q35 0 39 -48q-9 -44 -41 -44zM172 935q-35 0 -44 46q0 35 37 46h9q39 -9 39 -37v-13q-8 -42 -41 -42z" />
    <glyph glyph-name="Oslash" unicode="&#xd8;" horiz-adv-x="500" 
d="M93 -94q-32 0 -32 51v17h-22q-26 0 -26 34v9q0 40 42 51l22 -17l18 29q-28 32 -50 85q-45 116 -45 269q0 260 112 381l37 27l-2 13q10 39 35 39h10q22 0 27 -31q0 -10 -14 -37q25 -20 25 -35v-7q-7 -24 -29 -24q-17 0 -38 16q-46 0 -80 -153q-17 -101 -17 -195
q4 -211 57 -301q202 338 249 570q-15 44 -37 75q-13 11 -25 14q-10 -35 -35 -35h-10q-22 0 -27 29v8q0 17 25 29q-8 20 -8 34q0 27 33 27q20 0 33 -38q35 -14 64 -54q2 23 2 45q-39 12 -39 51q6 55 36 55h9q13 0 32 -25q14 17 33 17q35 -7 35 -47q0 -42 -48 -63
q-6 -55 -18 -112q45 -126 45 -271q0 -260 -114 -374q-23 -15 -27 -15q0 -62 -35 -62h-6q-24 0 -31 35q0 11 10 29q-27 19 -27 40q0 23 29 27h2q20 -8 33 -25q42 24 73 128q25 103 25 215q0 92 -7 151q-53 -174 -155 -365l-67 -117q16 19 34 19q25 0 29 -33q0 -22 -33 -40
q6 -18 6 -25v-12q-3 -23 -23 -23h-6q-21 0 -42 54l-27 -48q13 -22 13 -46q-7 -43 -33 -43z" />
    <glyph glyph-name="Ugrave" unicode="&#xd9;" horiz-adv-x="476" 
d="M234 0h-4q-165 0 -211 279q-15 94 -15 199q0 139 21 286q-18 0 -25 39q9 50 37 50h4q20 0 36 -37q21 12 33 12h6q22 0 29 -33q0 -31 -44 -42h-16q-7 0 -21 -186q-2 -47 -2 -143q0 -277 114 -350q26 -16 68 -16q150 0 178 319l5 93q0 196 -48 352q-2 0 -10 18
q-15 -8 -29 -8q-38 6 -38 37q8 36 31 36h9q18 -5 22 -5q18 58 44 58h8q33 -10 33 -45q0 -27 -27 -54q18 -22 36 -106q18 -119 18 -221v-42q0 -332 -138 -457q-48 -33 -104 -33zM224 891q-20 0 -51 45q-6 14 -10 36q5 42 42 42q36 0 40 -44q-10 -36 -34 -36q-13 0 -25 2
q9 -16 42 -37v-4q0 -4 -4 -4z" />
    <glyph glyph-name="Uacute" unicode="&#xda;" horiz-adv-x="476" 
d="M234 0h-4q-165 0 -211 279q-15 94 -15 199q0 139 21 286q-18 0 -25 39q9 50 37 50h4q20 0 36 -37q21 12 33 12h6q22 0 29 -33q0 -31 -44 -42h-16q-7 0 -21 -186q-2 -47 -2 -143q0 -277 114 -350q26 -16 68 -16q150 0 178 319l5 93q0 196 -48 352q-2 0 -10 18
q-15 -8 -29 -8q-38 6 -38 37q8 36 31 36h9q18 -5 22 -5q18 58 44 58h8q33 -10 33 -45q0 -27 -27 -54q18 -22 36 -106q18 -119 18 -221v-42q0 -332 -138 -457q-48 -33 -104 -33zM187 876q-4 0 -4 4v4q33 21 42 37q-12 -2 -24 -2q-25 0 -35 36q4 44 40 44q37 0 42 -42
q-3 -22 -9 -36q-32 -45 -52 -45z" />
    <glyph glyph-name="Ucircumflex" unicode="&#xdb;" horiz-adv-x="476" 
d="M234 0h-4q-165 0 -211 279q-15 94 -15 199q0 139 21 286q-18 0 -25 39q9 50 37 50h4q20 0 36 -37q21 12 33 12h6q22 0 29 -33q0 -31 -44 -42h-16q-7 0 -21 -186q-2 -47 -2 -143q0 -277 114 -350q26 -16 68 -16q150 0 178 319l5 93q0 196 -48 352q-2 0 -10 18
q-15 -8 -29 -8q-38 6 -38 37q8 36 31 36h9q18 -5 22 -5q18 58 44 58h8q33 -10 33 -45q0 -27 -27 -54q18 -22 36 -106q18 -119 18 -221v-42q0 -332 -138 -457q-48 -33 -104 -33zM286 912q-12 2 -12 12l2 6q-43 29 -67 119h-4q-27 -79 -77 -110h-2v-11q-2 -6 -11 -6
q-11 0 -17 13q-8 0 -10 12q3 10 13 10q6 0 12 -4q46 25 73 103q-3 0 -6 6v8q2 5 12 5q9 -1 9 -5l10 2l7 -4q1 4 4 4h10q4 -1 8 -10q0 -2 -8 -11q19 -81 54 -104l5 -4q8 4 14 4q8 -4 9 -8q0 -13 -13 -17q-5 -10 -15 -10z" />
    <glyph glyph-name="Udieresis" unicode="&#xdc;" horiz-adv-x="476" 
d="M234 0h-4q-165 0 -211 279q-15 94 -15 199q0 139 21 286q-18 0 -25 39q9 50 37 50h4q20 0 36 -37q21 12 33 12h6q22 0 29 -33q0 -31 -44 -42h-16q-7 0 -21 -186q-2 -47 -2 -143q0 -277 114 -350q26 -16 68 -16q150 0 178 319l5 93q0 196 -48 352q-2 0 -10 18
q-15 -8 -29 -8q-38 6 -38 37q8 36 31 36h9q18 -5 22 -5q18 58 44 58h8q33 -10 33 -45q0 -27 -27 -54q18 -22 36 -106q18 -119 18 -221v-42q0 -332 -138 -457q-48 -33 -104 -33zM273 929q-44 9 -44 44v6q7 42 39 42h7q35 0 39 -48q-9 -44 -41 -44zM145 930q-35 0 -44 46
q0 35 37 46h9q39 -9 39 -37v-13q-8 -42 -41 -42z" />
    <glyph glyph-name="Yacute" unicode="&#xdd;" horiz-adv-x="395" 
d="M117 -70q-28 0 -35 44v7q-15 -5 -20 -5h-16q-26 0 -32 39q0 36 55 46q20 0 41 -16q62 76 116 219q0 4 7 25q-49 50 -110 185q-77 234 -77 295q-6 32 -12 32q-34 13 -34 46v4q6 28 25 28q13 0 32 -16q18 16 37 16t27 -28q-12 -48 -36 -48q0 -36 54 -233q40 -110 89 -185
q21 -30 23 -30q48 215 48 476h-13q-25 0 -32 38q8 42 34 42h11q13 0 35 -21q16 18 36 18q17 0 25 -36q-7 -48 -45 -48v-60q0 -235 -58 -459l7 -5q17 12 25 12h10q24 0 27 -32q0 -34 -43 -34q0 -46 -28 -46q-23 5 -23 16h-4q-34 -114 -114 -203q13 -21 13 -35v-9
q0 -30 -45 -39zM174 918q-4 0 -4 4v4q33 21 42 37q-12 -2 -24 -2q-25 0 -35 36q4 44 40 44q37 0 42 -42q-3 -22 -9 -36q-32 -45 -52 -45z" />
    <glyph glyph-name="agrave" unicode="&#xe0;" 
d="M327 -74q-18 0 -25 25q-11 -10 -25 -10q-22 9 -22 33q4 29 25 29h6l4 -2l2 14q-61 -14 -106 -14h-20q-129 0 -164 116q-2 21 -2 31q0 127 137 209q59 31 130 31q23 0 50 -4v2q-20 133 -122 133q-52 0 -123 -36q-3 -37 -24 -37q-25 9 -25 25v8q0 9 12 23q-23 15 -23 31v10
q0 20 27 23q23 0 29 -35q87 39 143 39q97 0 133 -107q10 -36 18 -89l19 -5q0 11 27 19q19 0 31 -21v-12q-6 -10 -15 -10q5 -14 5 -17q0 -21 -31 -25q-27 3 -27 21h-7q0 -90 -18 -244q5 0 10 24q10 13 27 13q25 -7 25 -17v-10q0 -10 -8 -23q22 -8 22 -16v-7q0 -22 -33 -29h-6
q-21 0 -29 19q-16 0 -16 -12q-3 -3 -5 -29q21 -9 21 -25v-6q-6 -36 -27 -36zM174 49q47 0 126 18v2q23 149 23 232v37q-31 5 -58 5q-128 0 -199 -121q-16 -33 -16 -70v-10q0 -60 60 -83q30 -10 64 -10zM276 585q-20 0 -51 45q-6 14 -10 36q5 42 42 42q36 0 40 -44
q-10 -36 -34 -36q-13 0 -25 2q9 -16 42 -37v-4q0 -4 -4 -4z" />
    <glyph glyph-name="aacute" unicode="&#xe1;" 
d="M327 -74q-18 0 -25 25q-11 -10 -25 -10q-22 9 -22 33q4 29 25 29h6l4 -2l2 14q-61 -14 -106 -14h-20q-129 0 -164 116q-2 21 -2 31q0 127 137 209q59 31 130 31q23 0 50 -4v2q-20 133 -122 133q-52 0 -123 -36q-3 -37 -24 -37q-25 9 -25 25v8q0 9 12 23q-23 15 -23 31v10
q0 20 27 23q23 0 29 -35q87 39 143 39q97 0 133 -107q10 -36 18 -89l19 -5q0 11 27 19q19 0 31 -21v-12q-6 -10 -15 -10q5 -14 5 -17q0 -21 -31 -25q-27 3 -27 21h-7q0 -90 -18 -244q5 0 10 24q10 13 27 13q25 -7 25 -17v-10q0 -10 -8 -23q22 -8 22 -16v-7q0 -22 -33 -29h-6
q-21 0 -29 19q-16 0 -16 -12q-3 -3 -5 -29q21 -9 21 -25v-6q-6 -36 -27 -36zM174 49q47 0 126 18v2q23 149 23 232v37q-31 5 -58 5q-128 0 -199 -121q-16 -33 -16 -70v-10q0 -60 60 -83q30 -10 64 -10zM256 600q-4 0 -4 4v4q33 21 42 37q-12 -2 -24 -2q-25 0 -35 36
q4 44 40 44q37 0 42 -42q-3 -22 -9 -36q-32 -45 -52 -45z" />
    <glyph glyph-name="acircumflex" unicode="&#xe2;" 
d="M327 -74q-18 0 -25 25q-11 -10 -25 -10q-22 9 -22 33q4 29 25 29h6l4 -2l2 14q-61 -14 -106 -14h-20q-129 0 -164 116q-2 21 -2 31q0 127 137 209q59 31 130 31q23 0 50 -4v2q-20 133 -122 133q-52 0 -123 -36q-3 -37 -24 -37q-25 9 -25 25v8q0 9 12 23q-23 15 -23 31v10
q0 20 27 23q23 0 29 -35q87 39 143 39q97 0 133 -107q10 -36 18 -89l19 -5q0 11 27 19q19 0 31 -21v-12q-6 -10 -15 -10q5 -14 5 -17q0 -21 -31 -25q-27 3 -27 21h-7q0 -90 -18 -244q5 0 10 24q10 13 27 13q25 -7 25 -17v-10q0 -10 -8 -23q22 -8 22 -16v-7q0 -22 -33 -29h-6
q-21 0 -29 19q-16 0 -16 -12q-3 -3 -5 -29q21 -9 21 -25v-6q-6 -36 -27 -36zM174 49q47 0 126 18v2q23 149 23 232v37q-31 5 -58 5q-128 0 -199 -121q-16 -33 -16 -70v-10q0 -60 60 -83q30 -10 64 -10zM348 616q-12 2 -12 12l2 6q-43 29 -67 119h-4q-27 -79 -77 -110h-2v-11
q-2 -6 -11 -6q-11 0 -17 13q-8 0 -10 12q3 10 13 10q6 0 12 -4q46 25 73 103q-3 0 -6 6v8q2 5 12 5q9 -1 9 -5l10 2l7 -4q1 4 4 4h10q4 -1 8 -10q0 -2 -8 -11q19 -81 54 -104l5 -4q8 4 14 4q8 -4 9 -8q0 -13 -13 -17q-5 -10 -15 -10z" />
    <glyph glyph-name="atilde" unicode="&#xe3;" 
d="M327 -74q-18 0 -25 25q-11 -10 -25 -10q-22 9 -22 33q4 29 25 29h6l4 -2l2 14q-61 -14 -106 -14h-20q-129 0 -164 116q-2 21 -2 31q0 127 137 209q59 31 130 31q23 0 50 -4v2q-20 133 -122 133q-52 0 -123 -36q-3 -37 -24 -37q-25 9 -25 25v8q0 9 12 23q-23 15 -23 31v10
q0 20 27 23q23 0 29 -35q87 39 143 39q97 0 133 -107q10 -36 18 -89l19 -5q0 11 27 19q19 0 31 -21v-12q-6 -10 -15 -10q5 -14 5 -17q0 -21 -31 -25q-27 3 -27 21h-7q0 -90 -18 -244q5 0 10 24q10 13 27 13q25 -7 25 -17v-10q0 -10 -8 -23q22 -8 22 -16v-7q0 -22 -33 -29h-6
q-21 0 -29 19q-16 0 -16 -12q-3 -3 -5 -29q21 -9 21 -25v-6q-6 -36 -27 -36zM174 49q47 0 126 18v2q23 149 23 232v37q-31 5 -58 5q-128 0 -199 -121q-16 -33 -16 -70v-10q0 -60 60 -83q30 -10 64 -10zM366 593q-36 0 -209 58l-39 5q-42 0 -82 -26q5 -8 5 -14q0 -14 -23 -18
q-17 0 -17 16v9q-23 3 -23 21q0 15 21 19q15 0 19 -10q52 28 88 28q62 0 219 -56q23 -2 41 -2q51 0 86 42q-4 0 -4 5v11q8 14 21 14h7q3 0 9 -9v-16q17 0 23 -12v-14q-8 -14 -21 -14q-8 0 -18 9q-41 -46 -103 -46z" />
    <glyph glyph-name="adieresis" unicode="&#xe4;" 
d="M327 -74q-18 0 -25 25q-11 -10 -25 -10q-22 9 -22 33q4 29 25 29h6l4 -2l2 14q-61 -14 -106 -14h-20q-129 0 -164 116q-2 21 -2 31q0 127 137 209q59 31 130 31q23 0 50 -4v2q-20 133 -122 133q-52 0 -123 -36q-3 -37 -24 -37q-25 9 -25 25v8q0 9 12 23q-23 15 -23 31v10
q0 20 27 23q23 0 29 -35q87 39 143 39q97 0 133 -107q10 -36 18 -89l19 -5q0 11 27 19q19 0 31 -21v-12q-6 -10 -15 -10q5 -14 5 -17q0 -21 -31 -25q-27 3 -27 21h-7q0 -90 -18 -244q5 0 10 24q10 13 27 13q25 -7 25 -17v-10q0 -10 -8 -23q22 -8 22 -16v-7q0 -22 -33 -29h-6
q-21 0 -29 19q-16 0 -16 -12q-3 -3 -5 -29q21 -9 21 -25v-6q-6 -36 -27 -36zM174 49q47 0 126 18v2q23 149 23 232v37q-31 5 -58 5q-128 0 -199 -121q-16 -33 -16 -70v-10q0 -60 60 -83q30 -10 64 -10zM322 611q-44 9 -44 44v6q7 42 39 42h7q35 0 39 -48q-9 -44 -41 -44z
M194 612q-35 0 -44 46q0 35 37 46h9q39 -9 39 -37v-13q-8 -42 -41 -42z" />
    <glyph glyph-name="aring" unicode="&#xe5;" 
d="M327 -74q-18 0 -25 25q-11 -10 -25 -10q-22 9 -22 33q4 29 25 29h6l4 -2l2 14q-61 -14 -106 -14h-20q-129 0 -164 116q-2 21 -2 31q0 127 137 209q59 31 130 31q23 0 50 -4v2q-20 133 -122 133q-52 0 -123 -36q-3 -37 -24 -37q-25 9 -25 25v8q0 9 12 23q-23 15 -23 31v10
q0 20 27 23q23 0 29 -35q87 39 143 39q97 0 133 -107q10 -36 18 -89l19 -5q0 11 27 19q19 0 31 -21v-12q-6 -10 -15 -10q5 -14 5 -17q0 -21 -31 -25q-27 3 -27 21h-7q0 -90 -18 -244q5 0 10 24q10 13 27 13q25 -7 25 -17v-10q0 -10 -8 -23q22 -8 22 -16v-7q0 -22 -33 -29h-6
q-21 0 -29 19q-16 0 -16 -12q-3 -3 -5 -29q21 -9 21 -25v-6q-6 -36 -27 -36zM174 49q47 0 126 18v2q23 149 23 232v37q-31 5 -58 5q-128 0 -199 -121q-16 -33 -16 -70v-10q0 -60 60 -83q30 -10 64 -10zM243 614q-22 0 -22 33q-38 30 -38 63q0 18 3 27q24 58 70 58
q75 -15 75 -73v-12q0 -32 -35 -61q-14 -32 -17 -32h-8l-5 2l3 18h-3q-3 -20 -8 -20h-5l-5 2l3 20h-5v-20zM284 687q19 0 22 30q0 36 -22 36h-5q-18 -11 -18 -33q0 -24 23 -33zM223 695q20 0 23 27q-7 26 -18 26q-20 0 -20 -23v-8q0 -16 15 -22z" />
    <glyph glyph-name="ae" unicode="&#xe6;" horiz-adv-x="734" 
d="M508 281q129 0 160 120q4 22 4 47q0 95 -70 131q-22 6 -46 6q-92 0 -145 -131q-10 -36 -15 -70l12 4q19 0 31 -21v-12q-6 -10 -14 -10q4 -14 4 -17q0 -21 -31 -25l-6 1v-1q0 -14 29 -14q27 -8 67 -8h20zM174 49q47 0 127 18v2q14 93 19 161l-4 -1q-14 0 -19 12v11
q0 13 13 26v3q-18 0 -29 18v17q9 14 22 14q10 -2 20 -7v15q-30 5 -58 5q-128 0 -198 -121q-17 -33 -17 -70v-10q0 -60 60 -83q30 -10 64 -10zM328 -74q-18 0 -25 25q-12 -10 -25 -10q-23 9 -23 33q5 29 25 29h6l4 -2l2 14q-61 -14 -105 -14h-21q-128 0 -163 116q-3 21 -3 31
q0 127 137 209q60 31 131 31q22 0 49 -4v2q-20 133 -122 133q-52 0 -122 -36q-3 -37 -25 -37q-25 9 -25 25v8q0 9 13 23q-23 15 -23 31v10q0 20 27 23q23 0 29 -35q87 39 143 39q108 0 140 -136q30 135 148 184q33 10 64 10q82 0 133 -68q29 -43 29 -95v-8q0 -115 -79 -187
q-51 -37 -116 -37h-18q-48 0 -112 16q15 -67 66 -118q52 -39 117 -39q80 0 80 25q12 21 37 21t33 -38q-11 -29 -33 -29q19 -21 19 -37q-4 -21 -21 -21h-6q-24 0 -35 40q-30 -6 -69 -9q-168 0 -229 168q-5 -59 -14 -132q5 0 11 24q9 13 26 13q25 -7 25 -17v-10q0 -10 -8 -23
q23 -8 23 -16v-7q0 -22 -33 -29h-7q-20 0 -28 19q-17 0 -17 -12q-2 -3 -4 -29q21 -9 21 -25v-6q-7 -36 -27 -36z" />
    <glyph glyph-name="egrave" unicode="&#xe8;" horiz-adv-x="453" 
d="M418 13h-6q-24 0 -35 40q-29 -6 -68 -9q-172 0 -232 176q-9 22 -9 36q-18 -27 -33 -27q-13 0 -18 12v11q0 13 12 26v3q-17 0 -29 18v17q9 14 23 14q20 -4 37 -20v18q0 224 159 290q34 10 65 10q81 0 132 -68q29 -43 29 -95v-8q0 -115 -79 -187q-50 -37 -115 -37h-19
q-48 0 -112 16q15 -67 66 -118q52 -39 117 -39q80 0 80 25q11 17 27 21h10q26 0 33 -38q-11 -29 -33 -29q19 -21 19 -37q-4 -21 -21 -21zM228 281q128 0 159 120q4 22 4 47q0 95 -70 131q-22 6 -33 6h-13q-91 0 -145 -131q-18 -66 -18 -126v-25q0 -14 29 -14q26 -8 66 -8h21
zM289 657q-20 0 -51 45q-6 14 -10 36q5 42 42 42q36 0 40 -44q-10 -36 -34 -36q-13 0 -25 2q9 -16 42 -37v-4q0 -4 -4 -4z" />
    <glyph glyph-name="eacute" unicode="&#xe9;" horiz-adv-x="453" 
d="M418 13h-6q-24 0 -35 40q-29 -6 -68 -9q-172 0 -232 176q-9 22 -9 36q-18 -27 -33 -27q-13 0 -18 12v11q0 13 12 26v3q-17 0 -29 18v17q9 14 23 14q20 -4 37 -20v18q0 224 159 290q34 10 65 10q81 0 132 -68q29 -43 29 -95v-8q0 -115 -79 -187q-50 -37 -115 -37h-19
q-48 0 -112 16q15 -67 66 -118q52 -39 117 -39q80 0 80 25q11 17 27 21h10q26 0 33 -38q-11 -29 -33 -29q19 -21 19 -37q-4 -21 -21 -21zM228 281q128 0 159 120q4 22 4 47q0 95 -70 131q-22 6 -33 6h-13q-91 0 -145 -131q-18 -66 -18 -126v-25q0 -14 29 -14q26 -8 66 -8h21
zM277 649q-4 0 -4 4v4q33 21 42 37q-12 -2 -24 -2q-25 0 -35 36q4 44 40 44q37 0 42 -42q-3 -22 -9 -36q-32 -45 -52 -45z" />
    <glyph glyph-name="ecircumflex" unicode="&#xea;" horiz-adv-x="453" 
d="M418 13h-6q-24 0 -35 40q-29 -6 -68 -9q-172 0 -232 176q-9 22 -9 36q-18 -27 -33 -27q-13 0 -18 12v11q0 13 12 26v3q-17 0 -29 18v17q9 14 23 14q20 -4 37 -20v18q0 224 159 290q34 10 65 10q81 0 132 -68q29 -43 29 -95v-8q0 -115 -79 -187q-50 -37 -115 -37h-19
q-48 0 -112 16q15 -67 66 -118q52 -39 117 -39q80 0 80 25q11 17 27 21h10q26 0 33 -38q-11 -29 -33 -29q19 -21 19 -37q-4 -21 -21 -21zM228 281q128 0 159 120q4 22 4 47q0 95 -70 131q-22 6 -33 6h-13q-91 0 -145 -131q-18 -66 -18 -126v-25q0 -14 29 -14q26 -8 66 -8h21
zM395 627q-12 2 -12 12l2 6q-43 29 -67 119h-4q-27 -79 -77 -110h-2v-11q-2 -6 -11 -6q-11 0 -17 13q-8 0 -10 12q3 10 13 10q6 0 12 -4q46 25 73 103q-3 0 -6 6v8q2 5 12 5q9 -1 9 -5l10 2l7 -4q1 4 4 4h10q4 -1 8 -10q0 -2 -8 -11q19 -81 54 -104l5 -4q8 4 14 4q8 -4 9 -8
q0 -13 -13 -17q-5 -10 -15 -10z" />
    <glyph glyph-name="edieresis" unicode="&#xeb;" horiz-adv-x="453" 
d="M418 13h-6q-24 0 -35 40q-29 -6 -68 -9q-172 0 -232 176q-9 22 -9 36q-18 -27 -33 -27q-13 0 -18 12v11q0 13 12 26v3q-17 0 -29 18v17q9 14 23 14q20 -4 37 -20v18q0 224 159 290q34 10 65 10q81 0 132 -68q29 -43 29 -95v-8q0 -115 -79 -187q-50 -37 -115 -37h-19
q-48 0 -112 16q15 -67 66 -118q52 -39 117 -39q80 0 80 25q11 17 27 21h10q26 0 33 -38q-11 -29 -33 -29q19 -21 19 -37q-4 -21 -21 -21zM228 281q128 0 159 120q4 22 4 47q0 95 -70 131q-22 6 -33 6h-13q-91 0 -145 -131q-18 -66 -18 -126v-25q0 -14 29 -14q26 -8 66 -8h21
zM349 649q-44 9 -44 44v6q7 42 39 42h7q35 0 39 -48q-9 -44 -41 -44zM221 650q-35 0 -44 46q0 35 37 46h9q39 -9 39 -37v-13q-8 -42 -41 -42z" />
    <glyph glyph-name="igrave" unicode="&#xec;" horiz-adv-x="129" 
d="M90 -27q-11 0 -21 21q-14 -4 -21 -4q-29 3 -29 23v6q0 21 29 25l17 -5q27 125 27 205q0 96 -42 189q-15 -4 -23 -4q-19 0 -27 29q2 25 25 25l21 -5q8 25 27 25q23 -10 23 -27q0 -9 -11 -29q44 -85 44 -205q0 -75 -27 -213h2q14 -10 14 -23v-8q-6 -25 -28 -25zM140 512
q-20 0 -51 45q-6 14 -10 36q5 42 42 42q36 0 40 -44q-10 -36 -34 -36q-13 0 -25 2q9 -16 42 -37v-4q0 -4 -4 -4z" />
    <glyph glyph-name="iacute" unicode="&#xed;" horiz-adv-x="129" 
d="M90 -27q-11 0 -21 21q-14 -4 -21 -4q-29 3 -29 23v6q0 21 29 25l17 -5q27 125 27 205q0 96 -42 189q-15 -4 -23 -4q-19 0 -27 29q2 25 25 25l21 -5q8 25 27 25q23 -10 23 -27q0 -9 -11 -29q44 -85 44 -205q0 -75 -27 -213h2q14 -10 14 -23v-8q-6 -25 -28 -25zM113 517
q-4 0 -4 4v4q33 21 42 37q-12 -2 -24 -2q-25 0 -35 36q4 44 40 44q37 0 42 -42q-3 -22 -9 -36q-32 -45 -52 -45z" />
    <glyph glyph-name="icircumflex" unicode="&#xee;" horiz-adv-x="129" 
d="M90 -27q-11 0 -21 21q-14 -4 -21 -4q-29 3 -29 23v6q0 21 29 25l17 -5q27 125 27 205q0 96 -42 189q-15 -4 -23 -4q-19 0 -27 29q2 25 25 25l21 -5q8 25 27 25q23 -10 23 -27q0 -9 -11 -29q44 -85 44 -205q0 -75 -27 -213h2q14 -10 14 -23v-8q-6 -25 -28 -25zM222 527
q-12 2 -12 12l2 6q-43 29 -67 119h-4q-27 -79 -77 -110h-2v-11q-2 -6 -11 -6q-11 0 -17 13q-8 0 -10 12q3 10 13 10q6 0 12 -4q46 25 73 103q-3 0 -6 6v8q2 5 12 5q9 -1 9 -5l10 2l7 -4q1 4 4 4h10q4 -1 8 -10q0 -2 -8 -11q19 -81 54 -104l5 -4q8 4 14 4q8 -4 9 -8
q0 -13 -13 -17q-5 -10 -15 -10z" />
    <glyph glyph-name="idieresis" unicode="&#xef;" horiz-adv-x="129" 
d="M90 -27q-11 0 -21 21q-14 -4 -21 -4q-29 3 -29 23v6q0 21 29 25l17 -5q27 125 27 205q0 96 -42 189q-15 -4 -23 -4q-19 0 -27 29q2 25 25 25l21 -5q8 25 27 25q23 -10 23 -27q0 -9 -11 -29q44 -85 44 -205q0 -75 -27 -213h2q14 -10 14 -23v-8q-6 -25 -28 -25zM186 536
q-44 9 -44 44v6q7 42 39 42h7q35 0 39 -48q-9 -44 -41 -44zM58 537q-35 0 -44 46q0 35 37 46h9q39 -9 39 -37v-13q-8 -42 -41 -42z" />
    <glyph glyph-name="ntilde" unicode="&#xf1;" horiz-adv-x="410" 
d="M311 -127q-21 0 -21 31q-9 0 -17 -2q-27 5 -27 22v4q7 34 29 34q9 0 19 -7q66 145 66 321q0 191 -83 238q-20 7 -35 7q-48 0 -105 -46v-2q25 -75 25 -157v-17q0 -94 -29 -221q18 -9 18 -25v-7q0 -22 -25 -28q-18 0 -27 20l-24 -4q-29 6 -29 25v6q5 25 24 25q13 0 25 -2
q27 131 27 209q0 76 -18 147h-3q-10 -7 -20 -23q8 -8 8 -16q0 -23 -33 -29q-19 0 -19 20v17q-37 0 -37 23q4 31 31 31q10 0 25 -13q15 22 29 38q-6 10 -6 14l-17 -4h-8q-27 7 -27 31v10q9 15 21 15q16 0 24 -4q12 27 29 27q25 -7 25 -29v-6q0 -9 -10 -21v-4q63 47 118 47
q128 0 168 -188q8 -47 8 -104q0 -174 -81 -354q13 0 13 -20q0 -21 -31 -29zM342 595q-36 0 -209 58l-39 5q-42 0 -82 -26q5 -8 5 -14q0 -14 -23 -18q-17 0 -17 16v9q-23 3 -23 21q0 15 21 19q15 0 19 -10q52 28 88 28q62 0 219 -56q23 -2 41 -2q51 0 86 42q-4 0 -4 5v11
q8 14 21 14h7q3 0 9 -9v-16q17 0 23 -12v-14q-8 -14 -21 -14q-8 0 -18 9q-41 -46 -103 -46z" />
    <glyph glyph-name="ograve" unicode="&#xf2;" horiz-adv-x="408" 
d="M255 26h-4q-16 0 -27 19v8q0 6 6 17q-21 12 -21 25h-4q0 -16 -27 -25v-2q6 -12 6 -21q0 -15 -27 -19q-17 0 -39 40q-118 52 -118 269q0 157 99 238q23 12 29 12l-2 11q0 20 36 27h4q16 0 24 -21q0 -10 -12 -25q16 -10 21 -21q0 -24 -21 -24h-12q-4 0 -27 10
q-50 0 -77 -151q-4 -38 -4 -77q0 -167 81 -223h2q15 27 41 27q23 -4 23 -23h4q0 18 25 18q10 0 31 -16q83 55 83 221v19q0 143 -60 203q-6 6 -21 6q0 -16 -37 -21q-25 4 -25 21v4q5 21 21 21q-7 11 -7 21q0 18 27 20q18 0 34 -27q44 -13 76 -62q52 -83 52 -205
q-7 -205 -120 -252q0 -42 -33 -42zM309 645q-20 0 -51 45q-6 14 -10 36q5 42 42 42q36 0 40 -44q-10 -36 -34 -36q-13 0 -25 2q9 -16 42 -37v-4q0 -4 -4 -4z" />
    <glyph glyph-name="oacute" unicode="&#xf3;" horiz-adv-x="408" 
d="M255 26h-4q-16 0 -27 19v8q0 6 6 17q-21 12 -21 25h-4q0 -16 -27 -25v-2q6 -12 6 -21q0 -15 -27 -19q-17 0 -39 40q-118 52 -118 269q0 157 99 238q23 12 29 12l-2 11q0 20 36 27h4q16 0 24 -21q0 -10 -12 -25q16 -10 21 -21q0 -24 -21 -24h-12q-4 0 -27 10
q-50 0 -77 -151q-4 -38 -4 -77q0 -167 81 -223h2q15 27 41 27q23 -4 23 -23h4q0 18 25 18q10 0 31 -16q83 55 83 221v19q0 143 -60 203q-6 6 -21 6q0 -16 -37 -21q-25 4 -25 21v4q5 21 21 21q-7 11 -7 21q0 18 27 20q18 0 34 -27q44 -13 76 -62q52 -83 52 -205
q-7 -205 -120 -252q0 -42 -33 -42zM277 645q-4 0 -4 4v4q33 21 42 37q-12 -2 -24 -2q-25 0 -35 36q4 44 40 44q37 0 42 -42q-3 -22 -9 -36q-32 -45 -52 -45z" />
    <glyph glyph-name="ocircumflex" unicode="&#xf4;" horiz-adv-x="408" 
d="M255 26h-4q-16 0 -27 19v8q0 6 6 17q-21 12 -21 25h-4q0 -16 -27 -25v-2q6 -12 6 -21q0 -15 -27 -19q-17 0 -39 40q-118 52 -118 269q0 157 99 238q23 12 29 12l-2 11q0 20 36 27h4q16 0 24 -21q0 -10 -12 -25q16 -10 21 -21q0 -24 -21 -24h-12q-4 0 -27 10
q-50 0 -77 -151q-4 -38 -4 -77q0 -167 81 -223h2q15 27 41 27q23 -4 23 -23h4q0 18 25 18q10 0 31 -16q83 55 83 221v19q0 143 -60 203q-6 6 -21 6q0 -16 -37 -21q-25 4 -25 21v4q5 21 21 21q-7 11 -7 21q0 18 27 20q18 0 34 -27q44 -13 76 -62q52 -83 52 -205
q-7 -205 -120 -252q0 -42 -33 -42zM369 631q-12 2 -12 12l2 6q-43 29 -67 119h-4q-27 -79 -77 -110h-2v-11q-2 -6 -11 -6q-11 0 -17 13q-8 0 -10 12q3 10 13 10q6 0 12 -4q46 25 73 103q-3 0 -6 6v8q2 5 12 5q9 -1 9 -5l10 2l7 -4q1 4 4 4h10q4 -1 8 -10q0 -2 -8 -11
q19 -81 54 -104l5 -4q8 4 14 4q8 -4 9 -8q0 -13 -13 -17q-5 -10 -15 -10z" />
    <glyph glyph-name="otilde" unicode="&#xf5;" horiz-adv-x="408" 
d="M255 26h-4q-16 0 -27 19v8q0 6 6 17q-21 12 -21 25h-4q0 -16 -27 -25v-2q6 -12 6 -21q0 -15 -27 -19q-17 0 -39 40q-118 52 -118 269q0 157 99 238q23 12 29 12l-2 11q0 20 36 27h4q16 0 24 -21q0 -10 -12 -25q16 -10 21 -21q0 -24 -21 -24h-12q-4 0 -27 10
q-50 0 -77 -151q-4 -38 -4 -77q0 -167 81 -223h2q15 27 41 27q23 -4 23 -23h4q0 18 25 18q10 0 31 -16q83 55 83 221v19q0 143 -60 203q-6 6 -21 6q0 -16 -37 -21q-25 4 -25 21v4q5 21 21 21q-7 11 -7 21q0 18 27 20q18 0 34 -27q44 -13 76 -62q52 -83 52 -205
q-7 -205 -120 -252q0 -42 -33 -42zM387 639q-36 0 -209 58l-39 5q-42 0 -82 -26q5 -8 5 -14q0 -14 -23 -18q-17 0 -17 16v9q-23 3 -23 21q0 15 21 19q15 0 19 -10q52 28 88 28q62 0 219 -56q23 -2 41 -2q51 0 86 42q-4 0 -4 5v11q8 14 21 14h7q3 0 9 -9v-16q17 0 23 -12v-14
q-8 -14 -21 -14q-8 0 -18 9q-41 -46 -103 -46z" />
    <glyph glyph-name="odieresis" unicode="&#xf6;" horiz-adv-x="408" 
d="M255 26h-4q-16 0 -27 19v8q0 6 6 17q-21 12 -21 25h-4q0 -16 -27 -25v-2q6 -12 6 -21q0 -15 -27 -19q-17 0 -39 40q-118 52 -118 269q0 157 99 238q23 12 29 12l-2 11q0 20 36 27h4q16 0 24 -21q0 -10 -12 -25q16 -10 21 -21q0 -24 -21 -24h-12q-4 0 -27 10
q-50 0 -77 -151q-4 -38 -4 -77q0 -167 81 -223h2q15 27 41 27q23 -4 23 -23h4q0 18 25 18q10 0 31 -16q83 55 83 221v19q0 143 -60 203q-6 6 -21 6q0 -16 -37 -21q-25 4 -25 21v4q5 21 21 21q-7 11 -7 21q0 18 27 20q18 0 34 -27q44 -13 76 -62q52 -83 52 -205
q-7 -205 -120 -252q0 -42 -33 -42zM343 645q-44 9 -44 44v6q7 42 39 42h7q35 0 39 -48q-9 -44 -41 -44zM215 646q-35 0 -44 46q0 35 37 46h9q39 -9 39 -37v-13q-8 -42 -41 -42z" />
    <glyph glyph-name="oslash" unicode="&#xf8;" 
d="M70 -20q-28 0 -28 35v11h-20q-23 0 -23 23v5q0 27 37 35l20 -12l17 21q-73 68 -73 239q0 157 100 238q22 12 28 12l-2 11q0 20 36 27h4q16 0 25 -21q0 -10 -13 -25q16 -10 21 -21q0 -24 -21 -24h-12q-4 0 -27 10q-49 0 -77 -151q-4 -38 -4 -77q0 -121 42 -183
q172 220 215 373q-12 21 -27 36q-6 6 -21 6q0 -16 -37 -21q-25 4 -25 21v4q5 21 21 21q-6 11 -6 21q0 18 27 20q17 0 33 -27q25 -7 46 -26q3 21 3 40q-34 8 -34 34q5 37 32 37h8q11 0 29 -17q12 12 28 12q31 -5 31 -32q0 -28 -42 -42q-5 -40 -17 -82q44 -79 44 -191
q-7 -205 -120 -252q0 -42 -33 -42h-4q-16 0 -27 19v8q0 6 6 17q-21 12 -21 25h-4q0 -16 -27 -25v-2q6 -12 6 -21q0 -15 -27 -19q-17 0 -39 40l-7 3l-24 -31q12 -15 12 -31q-6 -29 -29 -29zM141 93q15 27 41 27q23 -4 23 -23h4q0 18 25 18q10 0 31 -16q83 55 83 221
q0 74 -9 117q-46 -117 -138 -246l-70 -92l8 -6h2z" />
    <glyph glyph-name="ugrave" unicode="&#xf9;" horiz-adv-x="356" 
d="M178 27q-110 0 -159 171q-15 68 -15 135q0 87 23 209q-27 0 -27 27q6 33 25 33q12 0 29 -21q19 17 33 17q23 -7 23 -25v-10q-7 -27 -27 -27h-13q-29 -115 -29 -211q0 -178 96 -236q21 -13 43 -13h8q82 0 123 129q8 46 8 80q0 90 -39 199q-34 0 -34 25v4q4 31 23 31
q10 0 27 -16h2q14 22 29 22h4q21 0 25 -29q0 -33 -33 -33q33 -100 33 -196q-5 -196 -126 -255q-22 -10 -52 -10zM309 590q-20 0 -51 45q-6 14 -10 36q5 42 42 42q36 0 40 -44q-10 -36 -34 -36q-13 0 -25 2q9 -16 42 -37v-4q0 -4 -4 -4z" />
    <glyph glyph-name="uacute" unicode="&#xfa;" horiz-adv-x="356" 
d="M178 27q-110 0 -159 171q-15 68 -15 135q0 87 23 209q-27 0 -27 27q6 33 25 33q12 0 29 -21q19 17 33 17q23 -7 23 -25v-10q-7 -27 -27 -27h-13q-29 -115 -29 -211q0 -178 96 -236q21 -13 43 -13h8q82 0 123 129q8 46 8 80q0 90 -39 199q-34 0 -34 25v4q4 31 23 31
q10 0 27 -16h2q14 22 29 22h4q21 0 25 -29q0 -33 -33 -33q33 -100 33 -196q-5 -196 -126 -255q-22 -10 -52 -10zM252 551q-4 0 -4 4v4q33 21 42 37q-12 -2 -24 -2q-25 0 -35 36q4 44 40 44q37 0 42 -42q-3 -22 -9 -36q-32 -45 -52 -45z" />
    <glyph glyph-name="ucircumflex" unicode="&#xfb;" horiz-adv-x="356" 
d="M178 27q-110 0 -159 171q-15 68 -15 135q0 87 23 209q-27 0 -27 27q6 33 25 33q12 0 29 -21q19 17 33 17q23 -7 23 -25v-10q-7 -27 -27 -27h-13q-29 -115 -29 -211q0 -178 96 -236q21 -13 43 -13h8q82 0 123 129q8 46 8 80q0 90 -39 199q-34 0 -34 25v4q4 31 23 31
q10 0 27 -16h2q14 22 29 22h4q21 0 25 -29q0 -33 -33 -33q33 -100 33 -196q-5 -196 -126 -255q-22 -10 -52 -10zM344 631q-12 2 -12 12l2 6q-43 29 -67 119h-4q-27 -79 -77 -110h-2v-11q-2 -6 -11 -6q-11 0 -17 13q-8 0 -10 12q3 10 13 10q6 0 12 -4q46 25 73 103q-3 0 -6 6
v8q2 5 12 5q9 -1 9 -5l10 2l7 -4q1 4 4 4h10q4 -1 8 -10q0 -2 -8 -11q19 -81 54 -104l5 -4q8 4 14 4q8 -4 9 -8q0 -13 -13 -17q-5 -10 -15 -10z" />
    <glyph glyph-name="udieresis" unicode="&#xfc;" horiz-adv-x="356" 
d="M178 27q-110 0 -159 171q-15 68 -15 135q0 87 23 209q-27 0 -27 27q6 33 25 33q12 0 29 -21q19 17 33 17q23 -7 23 -25v-10q-7 -27 -27 -27h-13q-29 -115 -29 -211q0 -178 96 -236q21 -13 43 -13h8q82 0 123 129q8 46 8 80q0 90 -39 199q-34 0 -34 25v4q4 31 23 31
q10 0 27 -16h2q14 22 29 22h4q21 0 25 -29q0 -33 -33 -33q33 -100 33 -196q-5 -196 -126 -255q-22 -10 -52 -10zM318 645q-44 9 -44 44v6q7 42 39 42h7q35 0 39 -48q-9 -44 -41 -44zM190 646q-35 0 -44 46q0 35 37 46h9q39 -9 39 -37v-13q-8 -42 -41 -42z" />
    <glyph glyph-name="yacute" unicode="&#xfd;" horiz-adv-x="381" 
d="M238 -394q-95 0 -180 174q-7 -4 -12 -4h-9q-16 12 -16 25v6q1 17 16 17q13 -4 17 -4q6 29 23 29h6q17 0 25 -27q-2 -10 -15 -23q86 -149 153 -149q89 0 89 300q0 105 -12 222h-2q-5 -49 -60 -110q-39 -31 -77 -31h-12q-82 0 -135 134q-23 75 -23 162q0 73 11 155
q-25 2 -25 23q0 20 17 31h6q9 0 25 -16q13 13 29 16q22 -7 22 -27q-4 -31 -29 -31h-6q-16 -96 -16 -159q0 -181 99 -236q16 -7 37 -9q73 0 108 112q6 39 6 64q0 85 -43 189q-33 3 -33 29q0 20 18 29q7 0 23 -11q7 25 23 25h4q23 0 31 -35q0 -6 -12 -27q20 -42 49 -199
q23 -171 23 -290q0 -354 -143 -354zM219 556q-4 0 -4 4v4q33 21 42 37q-12 -2 -24 -2q-25 0 -35 36q4 44 40 44q37 0 42 -42q-3 -22 -9 -36q-32 -45 -52 -45z" />
    <glyph glyph-name="ydieresis" unicode="&#xff;" horiz-adv-x="381" 
d="M238 -394q-95 0 -180 174q-7 -4 -12 -4h-9q-16 12 -16 25v6q1 17 16 17q13 -4 17 -4q6 29 23 29h6q17 0 25 -27q-2 -10 -15 -23q86 -149 153 -149q89 0 89 300q0 105 -12 222h-2q-5 -49 -60 -110q-39 -31 -77 -31h-12q-82 0 -135 134q-23 75 -23 162q0 73 11 155
q-25 2 -25 23q0 20 17 31h6q9 0 25 -16q13 13 29 16q22 -7 22 -27q-4 -31 -29 -31h-6q-16 -96 -16 -159q0 -181 99 -236q16 -7 37 -9q73 0 108 112q6 39 6 64q0 85 -43 189q-33 3 -33 29q0 20 18 29q7 0 23 -11q7 25 23 25h4q23 0 31 -35q0 -6 -12 -27q20 -42 49 -199
q23 -171 23 -290q0 -354 -143 -354zM302 560q-44 9 -44 44v6q7 42 39 42h7q35 0 39 -48q-9 -44 -41 -44zM174 561q-35 0 -44 46q0 35 37 46h9q39 -9 39 -37v-13q-8 -42 -41 -42z" />
    <glyph glyph-name="dotlessi" unicode="&#x131;" horiz-adv-x="129" 
d="M90 -27q-11 0 -21 21q-14 -4 -21 -4q-29 3 -29 23v6q0 21 29 25l17 -5q27 125 27 205q0 96 -42 189q-15 -4 -23 -4q-19 0 -27 29q2 25 25 25l21 -5q8 25 27 25q23 -10 23 -27q0 -9 -11 -29q44 -85 44 -205q0 -75 -27 -213h2q14 -10 14 -23v-8q-6 -25 -28 -25z" />
    <glyph glyph-name="OE" unicode="&#x152;" horiz-adv-x="835" 
d="M321 -137q-19 0 -38 30q-18 -9 -39 -12q-34 5 -34 34q0 23 21 46q-27 2 -27 22l1 13q-6 -7 -17 -7h-6q-22 0 -43 58q-57 27 -94 118q-45 116 -45 269q0 260 112 381l37 27l-2 13q10 39 35 39h10q22 0 27 -31q0 -10 -14 -37l11 -9q7 18 37 25h3l-1 9q0 27 33 27
q12 0 22 -14q9 7 23 14h6q34 0 46 -57q0 -15 -7 -25q13 -17 25 -38h22q130 0 329 -61q13 31 38 31h9q34 -9 34 -31v-9q0 -16 -31 -34l4 -25q-5 -34 -29 -34q-46 9 -46 45l3 16q-185 55 -311 56q47 -127 47 -276q0 -53 -5 -100l32 1q44 0 87 -12q13 25 34 25t27 -29
q0 -9 -13 -34q11 -13 11 -34q0 -13 -13 -21h-12q-34 10 -34 46q3 0 3 2q-36 11 -73 11q-39 0 -55 -2q-22 -133 -87 -210l47 4q109 0 249 -54q0 11 39 20h2q34 -5 34 -27q0 -18 -23 -32l2 -18q-6 -34 -29 -34q-33 0 -36 47q0 13 -48 21q-98 32 -183 32q-38 0 -77 -5
q-14 -51 -14 -70q32 -17 32 -45q-8 -55 -48 -55zM290 -26l3 11h-3q-18 0 -27 20q-3 -3 -3 -6q0 -15 -7 -25l12 2q13 0 25 -2zM242 49q3 0 20 5q-20 17 -20 35q0 23 29 27h2q20 -8 33 -25q6 3 12 9q11 56 24 146h-3q-54 -32 -88 -54q5 -9 5 -37q-8 -29 -28 -29q-31 0 -31 52
q-25 8 -25 27v11q0 24 38 30q8 0 18 -9q69 46 118 66q5 54 5 108q0 159 -41 288q-31 -3 -102 -34q5 -8 5 -14v-9q0 -34 -48 -43h-4q-23 0 -28 30q0 10 12 36q-37 14 -37 38q9 32 39 32h11q15 0 32 -20q62 22 104 34l-1 8q-8 -6 -18 -6h-10q-13 0 -20 10q-12 4 -19 13
q-8 -14 -25 -14t-38 16q-46 0 -80 -153q-17 -101 -17 -195q5 -276 95 -346q2 0 2 3q20 37 46 37q25 0 29 -33q0 -15 -15 -28q19 -4 19 -12z" />
    <glyph glyph-name="oe" unicode="&#x153;" horiz-adv-x="771" 
d="M545 281q129 0 160 120q4 22 4 47q0 95 -71 131q-22 6 -33 6h-12q-92 0 -145 -131q-19 -66 -19 -126v-25q0 -14 29 -14q26 -8 66 -8h21zM736 13h-7q-23 0 -35 40q-29 -6 -68 -9q-170 0 -231 172q-26 -114 -107 -148q0 -42 -33 -42h-4q-16 0 -27 19v8q0 6 6 17
q-21 12 -21 25h-4q0 -16 -27 -25v-2q6 -12 6 -21q0 -15 -27 -19q-17 0 -39 40q-118 52 -118 269q0 157 100 238q22 12 28 12l-2 11q0 20 36 27h4q16 0 25 -21q0 -10 -13 -25q16 -10 21 -21q0 -24 -21 -24h-12q-4 0 -27 10q-49 0 -77 -151q-4 -38 -4 -77q0 -167 81 -223h2
q15 27 41 27q23 -4 23 -23h4q0 18 25 18q10 0 31 -16q59 39 76 133q-5 3 -7 9v11q0 13 12 26v3q-17 0 -29 18v17q9 14 23 14l8 -2v11q0 143 -60 203q-6 6 -21 6q0 -16 -37 -21q-25 4 -25 21v4q5 21 21 21q-6 11 -6 21q0 18 27 20q17 0 33 -27q44 -13 76 -62q22 -36 35 -78
q33 125 146 171q33 10 64 10q81 0 133 -68q29 -43 29 -95v-8q0 -115 -79 -187q-51 -37 -116 -37h-19q-47 0 -112 16q15 -67 67 -118q51 -39 117 -39q79 0 79 25q11 17 27 21h11q25 0 33 -38q-11 -29 -33 -29q18 -21 18 -37q-4 -21 -20 -21z" />
    <glyph glyph-name="Scaron" unicode="&#x160;" horiz-adv-x="590" 
d="M257 415h-4q-34 0 -44 48q0 15 15 31v2q-111 71 -154 198q-10 35 -10 73q0 140 147 188q30 9 58 9h17q139 0 246 -189q4 -7 4 -10q15 8 23 8q27 0 35 -41q0 -35 -25 -35l-31 8q-12 -48 -37 -48q-36 0 -41 48q0 26 26 37v4q-90 164 -209 164q-82 0 -136 -75
q-15 -31 -17 -66q0 -111 143 -238q12 16 25 16h4q32 0 41 -45q0 -22 -29 -25h-18v-29q-6 -33 -29 -33zM348 5q-144 0 -282 188h-2q-6 -12 -27 -12q-26 0 -37 48q0 22 27 24q13 0 27 -2v11q4 45 31 45h8q27 0 35 -39v-10q0 -11 -18 -29q111 -168 219 -168h17q79 0 132 89
q13 27 13 52v16q0 92 -135 162q-3 2 -8 2q0 -14 -29 -19q-30 0 -42 50q7 23 48 23l-2 27q5 35 29 35h6q40 -7 40 -40v-6q0 -14 -13 -27q162 -83 162 -217v-8q0 -118 -127 -183q-45 -12 -72 -12zM296 999q-10 0 -12 6v8q3 6 6 6q-27 78 -73 103q-6 -4 -12 -4q-10 0 -13 10
q2 11 10 11q6 14 17 14q9 0 11 -6v-11h2q50 -31 77 -110h4q24 89 67 119l-2 6q0 10 12 11q10 0 15 -9q13 -4 13 -17q-1 -4 -9 -8q-6 0 -14 4l-5 -4q-35 -23 -54 -104q8 -9 8 -11q-4 -9 -8 -10h-10q-3 0 -4 4l-7 -4l-10 2q0 -4 -9 -6z" />
    <glyph glyph-name="scaron" unicode="&#x161;" horiz-adv-x="350" 
d="M211 9h-10q-78 0 -164 110q-2 -7 -12 -7q-22 0 -25 29q0 15 14 15h17v6q0 27 23 27q23 -7 23 -23v-12q-8 -13 -11 -13q65 -99 135 -99q60 0 87 70l2 19q0 58 -83 99q-5 -10 -17 -10q-26 0 -26 31q4 13 26 13v24l-10 -2h-10v-16q0 -17 -23 -21q-25 10 -25 31q3 9 8 17v2
q-95 70 -95 151v14q0 75 85 106q24 6 42 6q91 0 153 -118q7 4 18 4q17 -10 17 -29q0 -11 -10 -16l-25 2q-6 -27 -23 -27q-23 6 -23 23v10q0 10 15 21q-53 95 -118 95h-4q-90 -11 -90 -81q0 -67 83 -138q9 8 11 8h8q19 0 25 -31l12 2q25 -5 25 -25q0 -11 -6 -19
q93 -51 93 -124v-12q0 -77 -89 -110q-14 -2 -23 -2zM187 600q-10 0 -12 6v8q3 6 6 6q-27 78 -73 103q-6 -4 -12 -4q-10 0 -13 10q2 11 10 11q6 14 17 14q9 0 11 -6v-11h2q50 -31 77 -110h4q24 89 67 119l-2 6q0 10 12 11q10 0 15 -9q13 -4 13 -17q-1 -4 -9 -8q-6 0 -14 4
l-5 -4q-35 -23 -54 -104q8 -9 8 -11q-4 -9 -8 -10h-10q-3 0 -4 4l-7 -4l-10 2q0 -4 -9 -6z" />
    <glyph glyph-name="Ydieresis" unicode="&#x178;" horiz-adv-x="395" 
d="M117 -70q-28 0 -35 44v7q-15 -5 -20 -5h-16q-26 0 -32 39q0 36 55 46q20 0 41 -16q62 76 116 219q0 4 7 25q-49 50 -110 185q-77 234 -77 295q-6 32 -12 32q-34 13 -34 46v4q6 28 25 28q13 0 32 -16q18 16 37 16t27 -28q-12 -48 -36 -48q0 -36 54 -233q40 -110 89 -185
q21 -30 23 -30q48 215 48 476h-13q-25 0 -32 38q8 42 34 42h11q13 0 35 -21q16 18 36 18q17 0 25 -36q-7 -48 -45 -48v-60q0 -235 -58 -459l7 -5q17 12 25 12h10q24 0 27 -32q0 -34 -43 -34q0 -46 -28 -46q-23 5 -23 16h-4q-34 -114 -114 -203q13 -21 13 -35v-9
q0 -30 -45 -39zM250 960q-44 9 -44 44v6q7 42 39 42h7q35 0 39 -48q-9 -44 -41 -44zM122 961q-35 0 -44 46q0 35 37 46h9q39 -9 39 -37v-13q-8 -42 -41 -42z" />
    <glyph glyph-name="Zcaron" unicode="&#x17d;" horiz-adv-x="528" 
d="M103 -35h-5q-35 0 -35 54q-15 0 -19 -2q-44 5 -44 39q0 40 54 47q25 0 49 -23l11 16q-14 5 -14 9q-10 -2 -21 -2q-17 0 -21 23q0 10 19 21q4 31 28 31q23 -10 23 -26l-4 -19q8 -7 18 -7q90 117 131 220q38 87 80 264q30 156 30 168q-28 -5 -77 -5q-122 0 -217 51
q0 -9 -33 -9q-19 0 -26 26q0 17 24 28l-3 4v17q0 13 14 21h10q27 0 35 -54q92 -47 194 -47q88 0 88 14v28q-37 7 -37 38v9q0 28 44 37q16 0 40 -28q12 14 30 14q25 0 28 -32q0 -16 -7 -28q24 -2 24 -21l-3 -14q17 -11 17 -24q-5 -21 -21 -21h-7q-17 0 -28 10q-35 -3 -35 -17
q0 -68 -70 -327q-70 -204 -131 -287q0 -7 -42 -60v-3q70 -23 149 -23q38 0 108 7v9q8 31 28 31q25 0 25 -21q0 -18 -4 -26q11 -6 16 -23q0 -23 -35 -26q-11 0 -28 16q-50 -4 -114 -4q-91 0 -176 32q0 -2 -28 -28q10 -16 10 -28v-11q0 -30 -42 -38zM444 827l18 2v12h-14
q-4 -1 -4 -5v-9zM255 861q-10 0 -12 6v8q3 6 6 6q-27 78 -73 103q-6 -4 -12 -4q-10 0 -13 10q2 11 10 11q6 14 17 14q9 0 11 -6v-11h2q50 -31 77 -110h4q24 89 67 119l-2 6q0 10 12 11q10 0 15 -9q13 -4 13 -17q-1 -4 -9 -8q-6 0 -14 4l-5 -4q-35 -23 -54 -104q8 -9 8 -11
q-4 -9 -8 -10h-10q-3 0 -4 4l-7 -4l-10 2q0 -4 -9 -6z" />
    <glyph glyph-name="zcaron" unicode="&#x17e;" horiz-adv-x="389" 
d="M72 22q-18 0 -20 25v12q-31 0 -38 29q0 26 32 33q5 0 22 -8l13 2q4 -2 6 -2q149 158 180 240q35 81 35 108q-2 0 -10 10q-50 -29 -106 -29q-57 0 -145 31q-10 -10 -18 -10h-9q-14 9 -14 21q0 15 19 24q-7 14 -7 25t9 15q29 0 29 -21v-16q84 -32 134 -32q42 0 93 25
q-4 8 -4 17q5 31 27 31q14 0 31 -19q18 13 33 13q13 0 19 -25q0 -23 -33 -37q0 -77 -89 -224q-48 -68 -114 -141h2q49 15 85 15h17q48 0 99 -29q6 14 19 14q20 -11 20 -33q-6 -14 -14 -19l2 -20q0 -14 -11 -19h-6q-20 4 -20 21v14l2 4q-52 29 -98 29q-53 0 -134 -29
q0 -45 -38 -45zM229 583q-10 0 -12 6v8q3 6 6 6q-27 78 -73 103q-6 -4 -12 -4q-10 0 -13 10q2 11 10 11q6 14 17 14q9 0 11 -6v-11h2q50 -31 77 -110h4q24 89 67 119l-2 6q0 10 12 11q10 0 15 -9q13 -4 13 -17q-1 -4 -9 -8q-6 0 -14 4l-5 -4q-35 -23 -54 -104q8 -9 8 -11
q-4 -9 -8 -10h-10q-3 0 -4 4l-7 -4l-10 2q0 -4 -9 -6z" />
    <glyph glyph-name="circumflex" unicode="&#x2c6;" horiz-adv-x="226" 
d="M198 631q-12 2 -12 12l2 6q-43 29 -67 119h-4q-27 -79 -77 -110h-2v-11q-2 -6 -11 -6q-11 0 -17 13q-8 0 -10 12q3 10 13 10q6 0 12 -4q46 25 73 103q-3 0 -6 6v8q2 5 12 5q9 -1 9 -5l10 2l7 -4q1 4 4 4h10q4 -1 8 -10q0 -2 -8 -11q19 -81 54 -104l5 -4q8 4 14 4
q8 -4 9 -8q0 -13 -13 -17q-5 -10 -15 -10z" />
    <glyph glyph-name="caron" unicode="&#x2c7;" horiz-adv-x="226" 
d="M104 631q-10 0 -12 6v8q3 6 6 6q-27 78 -73 103q-6 -4 -12 -4q-10 0 -13 10q2 11 10 11q6 14 17 14q9 0 11 -6v-11h2q50 -31 77 -110h4q24 89 67 119l-2 6q0 10 12 11q10 0 15 -9q13 -4 13 -17q-1 -4 -9 -8q-6 0 -14 4l-5 -4q-35 -23 -54 -104q8 -9 8 -11q-4 -9 -8 -10
h-10q-3 0 -4 4l-7 -4l-10 2q0 -4 -9 -6z" />
    <glyph glyph-name="ring" unicode="&#x2da;" horiz-adv-x="148" 
d="M60 603q-22 0 -22 33q-38 30 -38 63q0 18 3 27q24 58 70 58q75 -15 75 -73v-12q0 -32 -35 -61q-14 -32 -17 -32h-8l-5 2l3 18h-3q-3 -20 -8 -20h-5l-5 2l3 20h-5v-20zM101 676q19 0 22 30q0 36 -22 36h-5q-18 -11 -18 -33q0 -24 23 -33zM40 684q20 0 23 27q-7 26 -18 26
q-20 0 -20 -23v-8q0 -16 15 -22z" />
    <glyph glyph-name="tilde" unicode="&#x2dc;" horiz-adv-x="530" 
d="M388 639q-36 0 -209 58l-39 5q-42 0 -82 -26q5 -8 5 -14q0 -14 -23 -18q-17 0 -17 16v9q-23 3 -23 21q0 15 21 19q15 0 19 -10q52 28 88 28q62 0 219 -56q23 -2 41 -2q51 0 86 42q-4 0 -4 5v11q8 14 21 14h7q3 0 9 -9v-16q17 0 23 -12v-14q-8 -14 -21 -14q-8 0 -18 9
q-41 -46 -103 -46z" />
    <glyph glyph-name="quoteleft" unicode="&#x2018;" horiz-adv-x="107" 
d="M82 682q-82 35 -82 104v8q0 41 51 51q47 0 56 -53q-9 -54 -51 -54q-13 0 -25 2q1 -10 56 -51z" />
    <glyph glyph-name="quoteright" unicode="&#x2019;" horiz-adv-x="105" 
d="M28 679h-2q-6 0 -6 8q46 32 57 51q-19 -5 -26 -5q-51 11 -51 48v16q13 43 43 43h16q46 -10 46 -46v-20q0 -55 -77 -95z" />
    <glyph glyph-name="quotesinglbase" unicode="&#x201a;" horiz-adv-x="105" 
d="M28 -53h-2q-6 0 -6 8q46 32 57 51q-19 -5 -26 -5q-51 11 -51 48v16q13 43 43 43h16q46 -10 46 -46v-20q0 -55 -77 -95z" />
    <glyph glyph-name="quotedblleft" unicode="&#x201c;" horiz-adv-x="242" 
d="M82 682q-82 35 -82 104v8q0 41 51 51q47 0 56 -53q-9 -54 -51 -54q-13 0 -25 2q1 -10 56 -51zM217 679h-3q-76 40 -76 95v20q0 36 46 46h15q30 0 43 -43v-16q0 -37 -51 -48q-6 0 -25 5q10 -19 56 -51q0 -8 -5 -8z" />
    <glyph glyph-name="quotedblright" unicode="&#x201d;" horiz-adv-x="242" 
d="M161 682l-5 7q55 41 56 51q-13 -2 -26 -2q-41 0 -51 54q10 53 56 53q51 -10 51 -51v-8q0 -69 -81 -104zM28 679h-2q-6 0 -6 8q46 32 57 51q-19 -5 -26 -5q-51 11 -51 48v16q13 43 43 43h16q46 -10 46 -46v-20q0 -55 -77 -95z" />
    <glyph glyph-name="quotedblbase" unicode="&#x201e;" horiz-adv-x="242" 
d="M161 -55l-5 7q55 41 56 51q-13 -2 -26 -2q-41 0 -51 54q10 53 56 53q51 -10 51 -51v-8q0 -69 -81 -104zM28 -58h-2q-6 0 -6 8q46 32 57 51q-19 -5 -26 -5q-51 11 -51 48v16q13 43 43 43h16q46 -10 46 -46v-20q0 -55 -77 -95z" />
    <glyph glyph-name="dagger" unicode="&#x2020;" horiz-adv-x="447" 
d="M205 33q-19 9 -19 24v16q4 10 19 20q-26 210 -26 329l1 50q-57 6 -142 23q0 -9 -14 -19h-12q-12 6 -12 19v7q0 3 17 19q-7 12 -7 24q8 14 21 14q19 -6 19 -22v-9q78 -17 132 -23q8 88 31 174q-11 0 -17 34q8 28 19 28h12q10 0 19 -26l8 5h7q24 -5 24 -24v-17
q0 -13 -17 -24q-11 0 -22 2q-23 -69 -30 -156l30 -1q70 0 146 30q-2 10 -2 19q0 13 14 22h7q18 0 21 -24l-2 -17q12 0 17 -23q-4 -24 -22 -24q-9 0 -23 17q-72 -33 -156 -33l-32 1q-1 -25 -1 -51q0 -108 26 -308h15q16 -10 16 -31q0 -25 -21 -29q-4 1 -19 12q-9 -28 -25 -28
z" />
    <glyph glyph-name="bullet" unicode="&#x2022;" horiz-adv-x="196" 
d="M80 150q-30 0 -30 43q-50 40 -50 83q0 24 3 37q32 76 93 76q100 -20 100 -96v-17q0 -41 -47 -79q-18 -43 -23 -43h-10l-6 3q3 11 3 23h-3q-4 -26 -10 -26h-7l-7 3l4 26h-7v-26zM133 247q25 0 30 39q0 47 -30 47h-7q-23 -14 -23 -43q0 -32 30 -43zM53 257q26 0 30 36
q-8 33 -23 33q-27 0 -27 -30v-10q0 -21 20 -29z" />
    <glyph glyph-name="ellipsis" unicode="&#x2026;" horiz-adv-x="148" 
d="M60 -106q-22 0 -22 33q-38 30 -38 63q0 18 3 27q24 58 70 58q75 -15 75 -73v-12q0 -32 -35 -61q-14 -32 -17 -32h-8l-5 2l3 18h-3q-3 -20 -8 -20h-5l-5 2l3 20h-5v-20zM101 -33q19 0 22 30q0 36 -22 36h-5q-18 -11 -18 -33q0 -24 23 -33zM40 -25q20 0 23 27q-7 26 -18 26
q-20 0 -20 -23v-8q0 -16 15 -22z" />
  </font>
</defs>
</svg>
