<?xml version="1.0" encoding="UTF-8" standalone="no"?>
<svg
   width="62"
   height="76"
   viewBox="36 22 62 76"
   version="1.1"
   id="svg75043"
   sodipodi:docname="corner_logo_pink.svg"
   inkscape:version="1.1 (c68e22c387, 2021-05-23)"
   xmlns:inkscape="http://www.inkscape.org/namespaces/inkscape"
   xmlns:sodipodi="http://sodipodi.sourceforge.net/DTD/sodipodi-0.dtd"
   xmlns="http://www.w3.org/2000/svg"
   xmlns:svg="http://www.w3.org/2000/svg">
  <defs
     id="defs75047" />
  <sodipodi:namedview
     id="namedview75045"
     pagecolor="#ffffff"
     bordercolor="#666666"
     borderopacity="1.0"
     inkscape:pageshadow="2"
     inkscape:pageopacity="0.0"
     inkscape:pagecheckerboard="0"
     showgrid="false"
     inkscape:zoom="10.986842"
     inkscape:cx="30.263473"
     inkscape:cy="45.281437"
     inkscape:window-width="1920"
     inkscape:window-height="1017"
     inkscape:window-x="-8"
     inkscape:window-y="32"
     inkscape:window-maximized="1"
     inkscape:current-layer="svg75043" />
  <path
     style="fill:#fe39fe;fill-opacity:1;stroke-width:0.815152"
     d="m 58.172446,89.947335 c -1.91758,-0.922594 -4.396953,-5.027891 -5.290431,-8.759792 -0.2882,-1.203758 -1.652562,-2.664838 -3.333336,-3.569632 -3.945651,-2.12402 -5.634799,-5.915508 -4.62925,-10.390881 0.674013,-2.999811 0.540199,-3.7941 -1.003863,-5.958675 -2.700622,-3.785922 -3.00165,-13.754298 -0.567221,-18.783158 1.941537,-4.010679 6.470854,-8.139669 12.168062,-11.092577 4.262047,-2.209053 14.843469,-3.075335 20.128715,-1.647901 3.82086,1.031934 10.163142,6.266501 12.959278,10.695867 2.372464,3.758226 3.257071,9.376241 2.123062,13.48328 -0.693592,2.511986 -0.625789,3.52454 0.334111,4.989534 0.699009,1.066821 1.204295,3.747425 1.204295,6.388924 0,3.845108 -0.32624,4.853287 -2.103479,6.500377 -1.695419,1.571261 -2.143978,2.817099 -2.312243,6.422064 -0.338764,7.25784 -3.050929,9.994681 -11.723651,11.830316 -5.44195,1.151823 -15.461049,1.091696 -17.954049,-0.107746 z m 6.614447,-3.86888 c -0.234484,-0.896667 -0.75037,-1.630304 -1.146414,-1.630304 -0.396044,0 -0.720079,0.733637 -0.720079,1.630304 0,0.896667 0.515886,1.630304 1.146413,1.630304 0.74509,0 0.997168,-0.570718 0.72008,-1.630304 z m 6.285026,0.438886 c 0,-0.102415 -0.687916,-0.808765 -1.528702,-1.569666 -1.4516,-1.313679 -1.547334,-1.285987 -1.898125,0.54906 -0.31656,1.655977 -0.09781,1.880592 1.528701,1.569665 1.043969,-0.199567 1.898126,-0.446643 1.898126,-0.549059 z m 3.175601,-0.369099 c 0.648725,-0.41077 0.913965,-1.3035 0.617121,-2.077064 -0.630666,-1.643489 -1.808776,-1.063396 -2.395286,1.179422 -0.465964,1.781848 0.0057,2.019954 1.778165,0.897642 z m 5.79107,-2.515243 c 0,-0.896667 -0.366819,-1.630304 -0.815152,-1.630304 -0.448334,0 -0.815152,0.733637 -0.815152,1.630304 0,0.896667 0.366818,1.630304 0.815152,1.630304 0.448333,0 0.815152,-0.733637 0.815152,-1.630304 z M 58.265678,78.742088 c 0.234483,-0.896667 1.045244,-1.630304 1.80169,-1.630304 0.756446,0 1.567207,0.733637 1.80169,1.630304 0.234483,0.896667 0.75037,1.630304 1.146413,1.630304 0.396044,0 0.72008,-0.733637 0.72008,-1.630304 0,-1.086869 0.543435,-1.630304 1.630304,-1.630304 1.086869,0 1.630304,0.543435 1.630304,1.630304 0,0.896667 0.366818,1.630304 0.815152,1.630304 0.448334,0 0.815152,-0.917046 0.815152,-2.03788 0,-2.530683 2.854584,-2.863405 3.496797,-0.407576 0.576665,2.205173 1.947024,2.074226 1.866414,-0.178349 -0.08746,-2.443889 2.738529,-3.041115 3.348731,-0.7077 0.649042,2.48194 1.987139,2.082179 1.712097,-0.511495 -0.292109,-2.754636 2.200275,-3.649439 3.015011,-1.082434 0.724304,2.282081 2.048836,1.296289 2.048836,-1.524859 0,-1.333967 0.894097,-3.243064 2.157079,-4.605844 2.580284,-2.784172 2.702048,-5.874905 0.357582,-9.07651 C 85.037661,58.066597 85.018241,57.778047 86.22898,54.29603 88.818941,46.847454 85.912121,40.056348 78.385341,35.971197 74.506533,33.865979 73.07466,33.548458 67.403735,33.536 c -5.499356,-0.01208 -7.167983,0.32541 -10.6487,2.153761 -7.669145,4.028445 -12.63069,11.740452 -11.289751,17.548289 0.28854,1.249714 1.611314,4.242897 2.939498,6.651516 1.725877,3.129824 2.164252,4.629935 1.536457,5.25773 -1.196821,1.196821 -1.109651,5.662679 0.140518,7.198953 0.560417,0.688672 2.211099,2.067624 3.668184,3.064339 1.457084,0.996716 2.649243,2.520869 2.649243,3.387007 0,2.067662 1.32155,2.028361 1.866494,-0.0555 z m 6.742243,-7.021216 c -0.687362,-2.738667 1.426545,-5.206063 4.460221,-5.206063 2.808323,0 4.240998,1.701822 3.904346,4.63783 -0.24178,2.108607 -0.563786,2.307455 -4.045431,2.498182 -3.476202,0.190428 -3.826208,0.03403 -4.319136,-1.929949 z M 56.272137,67.0949 c -4.082925,-3.11415 -5.440421,-6.068193 -4.293455,-9.342974 0.851116,-2.430079 3.745825,-3.408798 5.579944,-1.886614 0.789933,0.655585 1.337297,0.565352 2.092824,-0.345002 1.437282,-1.731819 4.679788,-1.535677 5.685725,0.343935 1.480732,2.766772 0.926424,6.216182 -1.547783,9.631724 -1.315388,1.815842 -2.75123,3.523784 -3.190761,3.795428 -0.43953,0.271646 -2.386453,-0.716779 -4.326494,-2.196497 z m 17.337979,-3.052075 c -4.191277,-3.036144 -5.570086,-5.726345 -4.494482,-8.769197 0.652349,-1.845475 1.277393,-2.218429 3.799672,-2.267205 1.660385,-0.03211 3.966253,-0.565397 5.12415,-1.185085 1.53063,-0.819168 2.480154,-0.892044 3.478717,-0.266989 1.469948,0.920121 2.199315,5.031365 1.433746,8.081638 -0.498717,1.987048 -4.274095,6.878822 -5.308943,6.878822 -0.341212,0 -2.155999,-1.112393 -4.03286,-2.471984 z M 49.062817,51.000741 c 0,-6.752131 4.828615,-12.869625 11.605212,-14.702936 7.266905,-1.965956 17.531053,0.834993 21.116628,5.762447 1.68827,2.320093 2.362609,7.409296 1.044128,7.879979 -0.482894,0.172387 -1.838481,-1.45131 -3.012416,-3.608215 -1.376901,-2.529821 -3.274468,-4.562384 -5.346637,-5.727008 -9.194985,-5.167871 -22.961459,1.797943 -22.961459,11.618461 0,1.291287 -0.457784,2.064061 -1.222728,2.064061 -0.884705,0 -1.222728,-0.908633 -1.222728,-3.286789 z m 7.336367,-0.646878 c 0,-6.565244 8.709859,-10.42604 15.863112,-7.0316 2.558974,1.214313 4.515686,4.039647 4.515686,6.520287 0,1.988648 -1.787985,1.330814 -4.535395,-1.668659 -3.475762,-3.794647 -7.518239,-3.967236 -11.015195,-0.47028 -1.310513,1.310513 -2.382752,3.144605 -2.382752,4.07576 0,0.961461 -0.528339,1.693007 -1.222728,1.693007 -0.873795,0 -1.222728,-0.889936 -1.222728,-3.118515 z"
     id="path75291" />
</svg>
