<?xml version="1.0" standalone="no"?>
<!DOCTYPE svg PUBLIC "-//W3C//DTD SVG 1.1//EN" "http://www.w3.org/Graphics/SVG/1.1/DTD/svg11.dtd" >
<svg xmlns="http://www.w3.org/2000/svg" xmlns:xlink="http://www.w3.org/1999/xlink" version="1.1">
<metadata>
Created by FontForge 20170731 at Sun Sep 20 17:34:10 2020
 By Aleksey,,,
Copyright (c) 2005-2013 Canada Type. All rights reserved.
</metadata>
<defs>
<font id="TrumpGothicPro" horiz-adv-x="563" >
  <font-face 
    font-family="Trump Gothic Pro"
    font-weight="400"
    font-stretch="normal"
    units-per-em="2048"
    panose-1="2 0 5 8 2 0 0 2 0 4"
    ascent="1638"
    descent="-410"
    x-height="1161"
    cap-height="1569"
    bbox="-166 -465 2114 1937"
    underline-thickness="102"
    underline-position="-409"
    unicode-range="U+000D-FB04"
  />
<missing-glyph horiz-adv-x="880" 
d="M102 0v1569h676v-1569h-676zM414 813l-189 500v-1043zM449 676l-179 -570h342zM604 1462h-317l162 -504zM655 1311l-155 -500l155 -545v1045z" />
    <glyph glyph-name="copyright" unicode="&#x28;C&#x29;" horiz-adv-x="1406" 
d="M700 -16q-329 0 -487 205t-158 589q0 254 67 430.5t213 273.5t367 97q326 0 488 -208t162 -591q0 -382 -161.5 -589t-490.5 -207zM707 96q272 0 400 178t128 504q0 330 -130.5 510t-404.5 180q-113 0 -202 -32t-149.5 -90.5t-100.5 -143.5t-58 -188t-18 -228
q0 -333 132 -511.5t403 -178.5zM946 567q0 -95 -17.5 -161t-51.5 -101.5t-75 -50t-97 -14.5t-97 14.5t-75.5 50t-52 101.5t-17.5 161v434q0 95 17.5 161t51.5 101.5t75.5 50.5t97.5 15t97 -15t75 -50.5t51.5 -101.5t17.5 -161v-79h-127v135q0 78 -31.5 116.5t-82.5 38.5
t-83 -38.5t-32 -116.5v-545q0 -78 32 -117t83 -39q50 0 82 39t32 117v115h127v-60z" />
    <glyph glyph-name="registered" unicode="&#x28;R&#x29;" horiz-adv-x="753" 
d="M375 782q-164 0 -248 104t-84 294q0 192 84.5 295.5t249.5 103.5q164 0 249 -104t85 -295q0 -190 -84.5 -294t-251.5 -104zM379 860q137 0 195.5 78.5t58.5 241.5q0 164 -60 243.5t-198 79.5q-137 0 -195.5 -80t-58.5 -239q0 -167 60.5 -245.5t197.5 -78.5zM436 938
l-65 184h-27v-184h-84v487h123q139 0 139 -145q0 -72 -15.5 -100t-55.5 -47l69 -195h-84zM438 1280q0 31 -14.5 49.5t-42.5 18.5h-37v-144h37q57 0 57 68v8z" />
    <glyph glyph-name="uni2117" unicode="&#x28;P&#x29;" horiz-adv-x="1406" 
d="M700 -16q-329 0 -487 205t-158 589q0 254 67 430.5t213 273.5t367 97q326 0 488 -208t162 -591q0 -382 -161.5 -589t-490.5 -207zM707 96q272 0 400 178t128 504q0 330 -130.5 510t-404.5 180q-113 0 -202 -32t-149.5 -90.5t-100.5 -143.5t-58 -188t-18 -228
q0 -333 132 -511.5t403 -178.5zM510 254v1059h205q79 0 128 -12.5t85 -48t50.5 -100t14.5 -167.5v-16q0 -103 -14.5 -167.5t-50.5 -100t-85 -48t-128 -12.5h-78v-387h-127zM866 1040q0 85 -26.5 120.5t-87.5 35.5h-115v-428h115q61 0 87.5 35.5t26.5 120.5v116z" />
    <glyph glyph-name="trademark" unicode="&#x28;TM&#x29;" horiz-adv-x="1204" 
d="M1020 848v551l-174 -551h-49l-162 547v-547h-94v721h129l157 -506l158 506h131v-721h-96zM205 848v627h-170v94h436v-94h-170v-627h-96z" />
    <glyph glyph-name="ff" unicode="ff" horiz-adv-x="698" 
d="M565 0h-123v1049h-202v-1049h-123v1049h-113v112h113v113q0 174 39 240.5t135 66.5q39 0 84 -10v-103q-18 2 -47 2q-55 0 -71.5 -28.5t-16.5 -110.5v-170h202v113q0 174 39 240.5t135 66.5q39 0 84 -10v-103q-18 2 -47 2q-55 0 -71.5 -28.5t-16.5 -110.5v-170h133v-112
h-133v-1049z" />
    <glyph glyph-name="fi" unicode="fi" horiz-adv-x="632" 
d="M240 0h-123v1049h-113v112h113v113q0 174 39 240.5t135 66.5q39 0 84 -10v-103q-18 2 -47 2q-55 0 -71.5 -28.5t-16.5 -110.5v-170h133v-112h-133v-1049zM442 0v1161h123v-1161h-123zM504 1311q-38 0 -65 27t-27 65t27 65t65 27t65 -27t27 -65t-27 -65t-65 -27z" />
    <glyph glyph-name="fl" unicode="fl" horiz-adv-x="634" 
d="M240 0h-123v1049h-113v112h113v113q0 174 39 240.5t135 66.5q39 0 84 -10v-103q-18 2 -47 2q-55 0 -71.5 -28.5t-16.5 -110.5v-170h133v-112h-133v-1049zM442 0v1569h123v-1569h-123z" />
    <glyph glyph-name="ffi" unicode="ffi" horiz-adv-x="958" 
d="M768 0v1161h123v-1161h-123zM829 1311q-38 0 -65 27t-27 65t27 65t65 27t65.5 -27t27.5 -65t-27.5 -65t-65.5 -27zM565 0h-123v1049h-202v-1049h-123v1049h-113v112h113v113q0 174 39 240.5t135 66.5q39 0 84 -10v-103q-18 2 -47 2q-55 0 -71.5 -28.5t-16.5 -110.5v-170
h202v113q0 174 39 240.5t135 66.5q39 0 84 -10v-103q-18 2 -47 2q-55 0 -71.5 -28.5t-16.5 -110.5v-170h133v-112h-133v-1049z" />
    <glyph glyph-name="ffl" unicode="ffl" horiz-adv-x="960" 
d="M768 0v1569h123v-1569h-123zM565 0h-123v1049h-202v-1049h-123v1049h-113v112h113v113q0 174 39 240.5t135 66.5q39 0 84 -10v-103q-18 2 -47 2q-55 0 -71.5 -28.5t-16.5 -110.5v-170h202v113q0 174 39 240.5t135 66.5q39 0 84 -10v-103q-18 2 -47 2q-55 0 -71.5 -28.5
t-16.5 -110.5v-170h133v-112h-133v-1049z" />
    <glyph glyph-name="f_j" unicode="fj" horiz-adv-x="632" 
d="M240 0h-123v1049h-113v112h113v113q0 174 39 240.5t135 66.5q39 0 84 -10v-103q-18 2 -47 2q-55 0 -71.5 -28.5t-16.5 -110.5v-170h133v-112h-133v-1049zM307 -309q16 -2 35 -2q29 0 48 7.5t29.5 18t15.5 34t6 42t1 55.5v1315h123v-1296q0 -149 -35.5 -218t-140.5 -69
q-30 0 -82 10v103zM504 1311q-38 0 -65 27t-27 65t27 65t65 27t65 -27t27 -65t-27 -65t-65 -27z" />
    <glyph glyph-name="f_t" unicode="ft" horiz-adv-x="706" 
d="M700 -6q-45 -10 -86 -10q-106 0 -139 66.5t-33 240.5v758h-202v-1049h-123v1049h-113v112h113v113q0 174 39 240.5t135 66.5q39 0 84 -10v-103q-18 2 -47 2q-55 0 -71.5 -28.5t-16.5 -110.5v-170h202v287h123v-287h133v-112h-133v-816q0 -82 16.5 -110.5t71.5 -28.5
q29 0 47 2v-102z" />
    <glyph glyph-name=".notdef" horiz-adv-x="880" 
d="M102 0v1569h676v-1569h-676zM414 813l-189 500v-1043zM449 676l-179 -570h342zM604 1462h-317l162 -504zM655 1311l-155 -500l155 -545v1045z" />
    <glyph glyph-name=".null" horiz-adv-x="0" 
 />
    <glyph glyph-name="nonmarkingreturn" horiz-adv-x="682" 
 />
    <glyph glyph-name="NULL" horiz-adv-x="0" 
 />
    <glyph glyph-name="NULL" horiz-adv-x="0" 
 />
    <glyph glyph-name="CR" unicode="&#xd;" horiz-adv-x="512" 
 />
    <glyph glyph-name="space" unicode=" " horiz-adv-x="249" 
 />
    <glyph glyph-name="exclam" unicode="!" horiz-adv-x="305" 
d="M111 309l-29 1260h141l-30 -1260h-82zM238 70q0 -35 -25.5 -60.5t-60.5 -25.5t-60.5 25.5t-25.5 60.5t25.5 60.5t60.5 25.5t60.5 -25.5t25.5 -60.5z" />
    <glyph glyph-name="quotedbl" unicode="&#x22;" horiz-adv-x="411" 
d="M270 1139l-30 430h122l-30 -430h-62zM80 1139l-31 430h123l-31 -430h-61z" />
    <glyph glyph-name="numbersign" unicode="#" horiz-adv-x="948" 
d="M401 102l111 435h-193l-110 -435h-117l111 435h-166l29 114h165l60 234h-193l29 114h195l110 435h117l-111 -435h193l110 435h117l-110 -435h165l-28 -114h-168l-60 -234h195l-29 -114h-194l-111 -435h-117zM600 885h-192l-60 -234h193z" />
    <glyph glyph-name="dollar" unicode="$" horiz-adv-x="616" 
d="M276 -131v106q-118 7 -164 92.5t-46 254.5v202h127v-278q0 -127 83 -152v615q-95 101 -127 145q-83 116 -83 238v204q0 70 13.5 123t34 83.5t50 51t55.5 28.5t57 11v107h68v-109q40 -4 71 -17t64 -43t51.5 -90t18.5 -145v-274h-127v301q0 121 -78 150v-648
q47 -42 74.5 -70.5t62 -73.5t51.5 -95.5t17 -106.5v-157q0 -170 -44.5 -253.5t-160.5 -93.5v-106h-68zM276 1475q-83 -25 -83 -152v-213q0 -116 83 -213v578zM422 457q0 85 -78 176v-537q35 11 56.5 48.5t21.5 101.5v211z" />
    <glyph glyph-name="percent" unicode="%" horiz-adv-x="1212" 
d="M786 698q0 172 39 240t150 68q108 0 146 -67t38 -241v-407q0 -174 -38 -240.5t-146 -66.5q-111 0 -150 67.5t-39 239.5v407zM346 0l422 1569h104l-421 -1569h-105zM53 1272q0 172 39 239.5t150 67.5q108 0 146 -66.5t38 -240.5v-408q0 -174 -38 -240.5t-146 -66.5
q-111 0 -150 67.5t-39 239.5v408zM1047 748q0 87 -16 121t-58 34t-58 -34t-16 -121v-506q0 -87 16 -121.5t58 -34.5t58 34.5t16 121.5v506zM313 1321q0 88 -15.5 122t-57.5 34t-58 -34.5t-16 -121.5v-506q0 -87 16 -121.5t58 -34.5t57.5 34t15.5 122v506z" />
    <glyph glyph-name="ampersand" unicode="&#x26;" horiz-adv-x="665" 
d="M567 756v-475q0 -308 -243 -308q-240 0 -240 308v262q0 113 36.5 180.5t135.5 97.5q-100 28 -136 88t-36 170v211q0 307 240 307q243 0 243 -307v-61h-127v96q0 80 -33 118t-81 38t-81.5 -38t-33.5 -118v-309q0 -40 18.5 -69t48.5 -42t56.5 -18.5t52.5 -5.5h53v123h127
v-123h64v-125h-64zM440 756h-53q-26 0 -52.5 -5.5t-56.5 -18.5t-48.5 -42t-18.5 -69v-375q0 -80 33.5 -118t81.5 -38t81 38t33 118v510z" />
    <glyph glyph-name="quotesingle" unicode="'" horiz-adv-x="221" 
d="M80 1139l-31 430h123l-31 -430h-61z" />
    <glyph glyph-name="parenleft" unicode="(" horiz-adv-x="342" 
d="M205 -352q-162 471 -162 960q0 490 162 961h125q-76 -195 -119 -445t-43 -516t43 -515.5t119 -444.5h-125z" />
    <glyph glyph-name="parenright" unicode=")" horiz-adv-x="342" 
d="M12 -352q76 195 119 444.5t43 515.5t-43 516t-119 445h125q162 -471 162 -961q0 -489 -162 -960h-125z" />
    <glyph glyph-name="asterisk" unicode="*" horiz-adv-x="550" 
d="M360 1085l-84 162l-83 -164l-87 52l107 159l-176 -10v100l170 -10l-105 158l86 51l88 -172l84 170l89 -49l-105 -160l170 10v-98l-172 10l107 -159z" />
    <glyph glyph-name="plus" unicode="+" horiz-adv-x="864" 
d="M375 393v295h-293v111h293v295h114v-295h293v-111h-293v-295h-114z" />
    <glyph glyph-name="comma" unicode="," horiz-adv-x="391" 
d="M6 -276l154 446h149l-233 -446h-70z" />
    <glyph glyph-name="hyphen" unicode="-" horiz-adv-x="395" 
d="M66 541v114h264v-114h-264z" />
    <glyph glyph-name="period" unicode="." horiz-adv-x="303" 
d="M238 70q0 -35 -25.5 -60.5t-60.5 -25.5t-60.5 25.5t-25.5 60.5t25.5 60.5t60.5 25.5t60.5 -25.5t25.5 -60.5z" />
    <glyph glyph-name="slash" unicode="/" horiz-adv-x="575" 
d="M29 0l401 1569h117l-402 -1569h-116z" />
    <glyph glyph-name="zero" unicode="0" horiz-adv-x="655" 
d="M86 1268q0 95 17.5 161t52 101.5t75.5 50t97 14.5t97 -14.5t75 -50t51.5 -101.5t17.5 -161v-967q0 -95 -17.5 -161t-51.5 -101.5t-75 -50.5t-97 -15t-97.5 15t-75.5 50.5t-51.5 101.5t-17.5 161v967zM442 1323q0 78 -32 117t-82 39q-51 0 -83 -39t-32 -117v-1077
q0 -78 32 -117t83 -39q50 0 82 39t32 117v1077z" />
    <glyph glyph-name="one" unicode="1" horiz-adv-x="442" 
d="M199 0v1419l-187 -76v125l211 101h103v-1569h-127z" />
    <glyph glyph-name="two" unicode="2" horiz-adv-x="593" 
d="M61 0v176q0 81 37 181.5t89.5 196.5t104.5 191.5t89 192.5t37 172v213q0 80 -33.5 118t-81.5 38t-81.5 -38t-33.5 -118v-270h-127v241q0 301 240 301q244 0 244 -301v-207q0 -77 -36.5 -178.5t-88 -202l-103 -201t-88 -201.5t-36.5 -177h315v-127h-447z" />
    <glyph glyph-name="three" unicode="3" horiz-adv-x="630" 
d="M420 621q0 40 -18.5 69t-48.5 42t-56.5 18.5t-52.5 5.5q-11 0 -39 -4v118q9 -4 39 -4q26 0 52.5 5.5t56.5 18.5t48.5 42t18.5 69v324q0 80 -33.5 118t-81.5 38t-81.5 -38t-33.5 -118v-264h-127v229q0 159 64.5 233t177.5 74q242 0 242 -307v-211q0 -110 -36 -170
t-136 -88q99 -30 135.5 -97.5t36.5 -180.5v-262q0 -308 -242 -308q-112 0 -177 74t-65 234v221h127v-256q0 -80 33.5 -118t81.5 -38t81.5 38t33.5 118v375z" />
    <glyph glyph-name="four" unicode="4" horiz-adv-x="612" 
d="M334 0v434h-316v127l269 1008h174v-1008h123v-127h-123v-434h-127zM334 1434l-184 -873h184v873z" />
    <glyph glyph-name="five" unicode="5" horiz-adv-x="624" 
d="M436 731q0 103 -30 137.5t-78 34.5q-118 0 -121 -170h-127v836h432v-127h-305v-539q23 54 69 84.5t101 30.5q78 0 132 -66.5t54 -199.5v-467q0 -163 -59.5 -237.5t-179.5 -74.5q-118 0 -181 73.5t-63 238.5v133h127v-168q0 -84 33 -122t82 -38q48 0 81 40t33 120v481z
" />
    <glyph glyph-name="six" unicode="6" horiz-adv-x="647" 
d="M571 285q0 -163 -59.5 -237.5t-179.5 -74.5q-118 0 -181 73.5t-63 238.5v1011q0 299 242 299q113 0 176 -68.5t63 -230.5v-145h-127v172q0 80 -33 118t-81 38t-81.5 -38t-33.5 -118v-440q23 54 69.5 84t102.5 30q78 0 132 -66.5t54 -199.5v-446zM444 707q0 55 -9.5 92
t-26.5 54t-34 23.5t-38 6.5q-121 0 -121 -176v-457q0 -84 33 -122t82 -38q48 0 81 40t33 120v457z" />
    <glyph glyph-name="seven" unicode="7" horiz-adv-x="591" 
d="M18 0l420 1442h-397v127h551v-37l-434 -1532h-140z" />
    <glyph glyph-name="eight" unicode="8" horiz-adv-x="645" 
d="M563 281q0 -308 -241 -308q-112 0 -177 74t-65 234v333q0 96 34 156t97 102q-59 24 -95 90.5t-36 167.5v160q0 159 64.5 233t177.5 74q241 0 241 -307v-160q0 -101 -36 -167.5t-95 -90.5q131 -88 131 -278v-313zM436 1325q0 80 -33 118t-81 38t-81.5 -38t-33.5 -118v-272
q0 -78 31.5 -106.5t83.5 -28.5q51 0 82.5 28.5t31.5 106.5v272zM436 672q0 78 -31.5 106.5t-82.5 28.5q-52 0 -83.5 -28.5t-31.5 -106.5v-426q0 -80 33.5 -118t81.5 -38t81 38t33 118v426z" />
    <glyph glyph-name="nine" unicode="9" horiz-adv-x="647" 
d="M434 686q-23 -54 -70 -84.5t-102 -30.5q-77 0 -131.5 67t-54.5 200v446q0 162 59.5 236.5t179.5 74.5q118 0 181 -73t63 -238v-1012q0 -159 -63 -229t-179 -70q-113 0 -176 68.5t-63 230.5v146h127v-172q0 -80 33 -118t81 -38t81.5 38t33.5 118v440zM432 1319
q0 84 -33 122t-82 38q-48 0 -81 -40t-33 -120v-457q0 -55 9.5 -92t26.5 -54t34 -23.5t38 -6.5q121 0 121 176v457z" />
    <glyph glyph-name="colon" unicode=":" horiz-adv-x="303" 
d="M238 70q0 -35 -25.5 -60.5t-60.5 -25.5t-60.5 25.5t-25.5 60.5t25.5 60.5t60.5 25.5t60.5 -25.5t25.5 -60.5zM238 791q0 -35 -25.5 -60.5t-60.5 -25.5t-60.5 25.5t-25.5 60.5t25.5 60.5t60.5 25.5t60.5 -25.5t25.5 -60.5z" />
    <glyph glyph-name="semicolon" unicode=";" horiz-adv-x="352" 
d="M-37 -276l154 446h149l-233 -446h-70zM279 791q0 -35 -25.5 -60.5t-60.5 -25.5t-61 25.5t-26 60.5t26 60.5t61 25.5t60.5 -25.5t25.5 -60.5z" />
    <glyph glyph-name="less" unicode="&#x3c;" horiz-adv-x="864" 
d="M651 88l-555 655l555 656l92 -80l-501 -576l501 -575z" />
    <glyph glyph-name="equal" unicode="=" horiz-adv-x="864" 
d="M82 840v110h700v-110h-700zM82 532v111h700v-111h-700z" />
    <glyph glyph-name="greater" unicode="&#x3e;" horiz-adv-x="864" 
d="M119 168l502 575l-502 576l92 80l555 -656l-555 -655z" />
    <glyph glyph-name="question" unicode="?" 
d="M201 307l-21 563q11 -4 39 -4q26 0 52.5 5.5t56.5 18.5t48.5 42t18.5 69v324q0 80 -33 118t-81 38t-81.5 -38t-33.5 -118v-264h-127v229q0 159 65.5 233t178.5 74q239 0 239 -307v-211q0 -69 -10 -121.5t-34 -95.5t-67 -68.5t-104 -31.5l-20 -455h-86zM336 70
q0 -35 -25.5 -60.5t-60.5 -25.5t-60.5 25.5t-25.5 60.5t25.5 60.5t60.5 25.5t60.5 -25.5t25.5 -60.5z" />
    <glyph glyph-name="at" unicode="@" horiz-adv-x="1374" 
d="M981 -365q-87 -53 -160.5 -76.5t-167.5 -23.5q-285 0 -448.5 207t-163.5 580q0 128 20.5 255t60 245t101.5 219.5t140 177t180.5 118.5t218.5 43q110 0 203 -39t157.5 -106.5t109.5 -158.5t66 -194t21 -214q0 -101 -17 -201t-53 -192t-86.5 -163t-121.5 -113t-154 -42
q-153 0 -168 158q-32 -59 -89 -95t-114 -36q-94 0 -94 122q0 68 24 185l74 348q17 76 28 118.5t26.5 86t32 63.5t40 32.5t55.5 12.5q50 0 77 -23.5t57 -76.5l16 82h123q-164 -764 -164 -795q0 -19 2.5 -34t10.5 -31t26 -24.5t45 -8.5q70 0 130 62t97 158t57.5 205.5
t20.5 211.5q0 94 -17.5 180t-53.5 160.5t-87.5 129.5t-124.5 86.5t-159 31.5q-114 0 -213 -55.5t-169 -150t-120.5 -217.5t-75 -258t-24.5 -272q0 -324 134 -493.5t363 -169.5q149 0 299 92zM561 252q-12 -59 -12 -92q0 -64 49 -64q77 0 111 156q104 475 104 518
q0 64 -55 64q-42 0 -65 -34t-42 -122z" />
    <glyph glyph-name="A" unicode="A" horiz-adv-x="589" 
d="M453 0l-45 389h-224l-45 -389h-127l211 1571h144l213 -1571h-127zM295 1346l-94 -840h190z" />
    <glyph glyph-name="B" unicode="B" horiz-adv-x="628" 
d="M80 0v1569h213q149 0 204.5 -69t55.5 -255v-201q0 -199 -150 -237q86 -18 128 -87.5t42 -164.5v-227q0 -81 -10 -137.5t-30 -94t-54.5 -58.5t-77.5 -29.5t-106 -8.5h-215zM426 1290q0 84 -27 118t-88 34h-104v-576h104q61 0 88 35.5t27 120.5v268zM446 584
q0 155 -135 155h-104v-612h125q61 0 87.5 35.5t26.5 120.5v301z" />
    <glyph glyph-name="C" unicode="C" horiz-adv-x="612" 
d="M430 524h127v-223q0 -95 -17.5 -161t-51.5 -101.5t-75.5 -50.5t-97.5 -15t-97 15t-75 50.5t-51.5 101.5t-17.5 161v967q0 95 17.5 161t51.5 101.5t75 50t97 14.5t97 -14.5t75.5 -50t52 -101.5t17.5 -161v-244h-127v299q0 78 -32 117t-83 39q-50 0 -82 -39t-32 -117v-1077
q0 -78 32 -117t82 -39q51 0 83 39t32 117v278z" />
    <glyph glyph-name="D" unicode="D" horiz-adv-x="626" 
d="M80 0v1569h194q80 0 128.5 -12.5t84.5 -48t51 -100t15 -167.5v-913q0 -103 -15 -167.5t-51 -100t-84.5 -48t-128.5 -12.5h-194zM426 1286q0 85 -27 120.5t-88 35.5h-104v-1315h104q61 0 88 35.5t27 120.5v1003z" />
    <glyph glyph-name="E" unicode="E" horiz-adv-x="546" 
d="M80 0v1569h418v-127h-291v-588h276v-127h-276v-600h291v-127h-418z" />
    <glyph glyph-name="F" unicode="F" horiz-adv-x="538" 
d="M80 0v1569h418v-127h-291v-588h276v-127h-276v-727h-127z" />
    <glyph glyph-name="G" unicode="G" horiz-adv-x="643" 
d="M451 647h-138v123h265v-469q0 -96 -17.5 -161.5t-52.5 -101t-78.5 -50.5t-103.5 -15t-103.5 15t-78.5 50.5t-52.5 101t-17.5 161.5v967q0 96 17.5 161.5t52.5 101t78.5 50t103.5 14.5t103.5 -14.5t78.5 -50t52.5 -101t17.5 -161.5v-246h-127v301q0 79 -33.5 117.5
t-91.5 38.5t-91.5 -38.5t-33.5 -117.5v-1077q0 -79 33.5 -117.5t91.5 -38.5t91.5 38.5t33.5 117.5v401z" />
    <glyph glyph-name="H" unicode="H" horiz-adv-x="643" 
d="M436 0v737h-229v-737h-127v1569h127v-705h229v705h127v-1569h-127z" />
    <glyph glyph-name="I" unicode="I" horiz-adv-x="286" 
d="M80 0v1569h127v-1569h-127z" />
    <glyph glyph-name="J" unicode="J" horiz-adv-x="286" 
d="M-43 -393v117h8q48 0 81.5 37.5t33.5 117.5v1690h127v-1659q0 -80 -17 -138.5t-41 -89t-59.5 -48.5t-63 -22.5t-61.5 -4.5h-8z" />
    <glyph glyph-name="K" unicode="K" horiz-adv-x="608" 
d="M498 0l-289 784l250 785h127l-238 -778l277 -791h-127zM80 0v1569h127v-1569h-127z" />
    <glyph glyph-name="L" unicode="L" horiz-adv-x="432" 
d="M80 0v1569h127v-1442h209v-127h-336z" />
    <glyph glyph-name="M" unicode="M" horiz-adv-x="897" 
d="M690 0l8 1280l-221 -1280h-82l-196 1288l8 -1288h-127v1569h194l175 -1127l174 1127h194v-1569h-127z" />
    <glyph glyph-name="N" unicode="N" horiz-adv-x="688" 
d="M477 0l-274 1098l4 -1098h-127v1569h121l284 -1114l-4 1114h127v-1569h-131z" />
    <glyph glyph-name="O" unicode="O" horiz-adv-x="630" 
d="M74 1268q0 95 17.5 161t51.5 101.5t75 50t97 14.5t97 -14.5t75.5 -50t52 -101.5t17.5 -161v-967q0 -95 -17.5 -161t-51.5 -101.5t-75.5 -50.5t-97.5 -15t-97 15t-75 50.5t-51.5 101.5t-17.5 161v967zM430 1323q0 78 -32 117t-83 39q-50 0 -82 -39t-32 -117v-1077
q0 -78 32 -117t82 -39q51 0 83 39t32 117v1077z" />
    <glyph glyph-name="P" unicode="P" horiz-adv-x="598" 
d="M80 0v1569h194q80 0 128.5 -12.5t84.5 -48t51 -100t15 -167.5v-242q0 -83 -10.5 -140t-30 -94t-55 -57.5t-78 -28t-105.5 -7.5h-67v-672h-127zM426 1286q0 85 -27 120.5t-88 35.5h-104v-643h104q61 0 88 35t27 120v332z" />
    <glyph glyph-name="Q" unicode="Q" horiz-adv-x="630" 
d="M461 -270l-111 245q-10 -2 -35 -2q-56 0 -97 15t-75 50.5t-51.5 101.5t-17.5 161v967q0 95 17.5 161t51.5 101.5t75 50t97 14.5t97 -14.5t75.5 -50t52 -101.5t17.5 -161v-967q0 -229 -106 -295l104 -225zM430 1323q0 78 -32 117t-83 39q-50 0 -82 -39t-32 -117v-1077
q0 -78 32 -117t82 -39q51 0 83 39t32 117v1077z" />
    <glyph glyph-name="R" unicode="R" horiz-adv-x="608" 
d="M467 0l-184 682h-76v-682h-127v1569h199q79 0 127 -12.5t83 -48t49.5 -99.5t14.5 -168v-235q0 -140 -34 -213.5t-118 -96.5l193 -696h-127zM426 1286q0 85 -27 120.5t-88 35.5h-104v-633h104q61 0 88 35.5t27 120.5v321z" />
    <glyph glyph-name="S" unicode="S" horiz-adv-x="604" 
d="M416 457q0 59 -37 118t-89 112t-104.5 110t-89.5 134t-37 161v200q0 303 242 303t242 -307v-266h-127v301q0 80 -33.5 118t-81.5 38t-81.5 -38t-33.5 -118v-213q0 -77 37 -143t89 -116.5t104.5 -101.5t89.5 -120t37 -150v-157q0 -180 -53 -264.5t-189 -84.5t-189 85.5
t-53 263.5v202h127v-278q0 -80 33.5 -118t81.5 -38t81.5 38t33.5 118v211z" />
    <glyph glyph-name="T" unicode="T" horiz-adv-x="548" 
d="M211 0v1442h-195v127h516v-127h-194v-1442h-127z" />
    <glyph glyph-name="U" unicode="U" horiz-adv-x="638" 
d="M434 1569h127v-1268q0 -95 -17.5 -161t-51.5 -101.5t-75.5 -50.5t-97.5 -15t-97 15t-75 50.5t-51.5 101.5t-17.5 161v1268h127v-1323q0 -78 32 -117t82 -39q51 0 83 39t32 117v1323z" />
    <glyph glyph-name="V" unicode="V" horiz-adv-x="565" 
d="M211 0l-193 1569h127l136 -1368l137 1368h127l-191 -1569h-143z" />
    <glyph glyph-name="W" unicode="W" horiz-adv-x="935" 
d="M598 0l-131 1182l-129 -1182h-143l-172 1569h127l116 -1299l135 1299h131l138 -1299l114 1299h127l-170 -1569h-143z" />
    <glyph glyph-name="X" unicode="X" horiz-adv-x="612" 
d="M483 0l-172 629l-192 -629h-127l264 807l-252 762h129l178 -576l166 576h129l-223 -764l227 -805h-127z" />
    <glyph glyph-name="Y" unicode="Y" horiz-adv-x="606" 
d="M242 0v586l-224 983h129l156 -762l156 762h129l-223 -983v-586h-123z" />
    <glyph glyph-name="Z" unicode="Z" horiz-adv-x="538" 
d="M27 0v127l329 1315h-311v127h465v-37l-352 -1405h352v-127h-483z" />
    <glyph glyph-name="bracketleft" unicode="[" horiz-adv-x="397" 
d="M92 -348v1917h279v-107h-160v-1698h160v-112h-279z" />
    <glyph glyph-name="backslash" unicode="\" horiz-adv-x="575" 
d="M430 0l-401 1569h116l402 -1569h-117z" />
    <glyph glyph-name="bracketright" unicode="]" horiz-adv-x="397" 
d="M27 -346v113h155v1695h-155v107h278v-1915h-278z" />
    <glyph glyph-name="asciicircum" unicode="^" horiz-adv-x="864" 
d="M604 879l-174 526l-174 -526h-127l236 690h135l233 -690h-129z" />
    <glyph glyph-name="underscore" unicode="_" horiz-adv-x="587" 
d="M66 -47v94h456v-94h-456z" />
    <glyph glyph-name="grave" unicode="`" horiz-adv-x="200" 
d="M217 1315h-108l-127 207h145z" />
    <glyph glyph-name="a" unicode="a" horiz-adv-x="514" 
d="M352 0l-18 94q-11 -20 -16 -28.5t-19 -27.5t-27 -28.5t-35 -17.5t-47 -8q-77 0 -106 69t-29 238v22q0 174 30.5 244t109.5 70q46 0 76 -22.5t55 -74.5v379q0 87 -16 121.5t-58 34.5t-58 -34.5t-16 -121.5v-118h-123v108q0 152 42 215.5t157 63.5q106 0 150.5 -61.5
t44.5 -217.5v-899h-97zM326 356q0 152 -78 152q-40 0 -55 -34.5t-15 -121.5v-104q0 -80 15 -117t51 -37q39 0 60.5 39t21.5 137v86z" />
    <glyph glyph-name="b" unicode="b" horiz-adv-x="524" 
d="M70 0v1569h123v-502q12 24 20.5 38t25 34t39 29.5t50.5 9.5q77 0 106 -69.5t29 -238.5v-579q0 -169 -29 -238t-106 -69q-25 0 -47 8t-35 17.5t-27 28.5t-19 27.5t-16 28.5l-18 -94h-96zM340 913q0 80 -15 117t-51 37q-39 0 -60 -39t-21 -137v-621q0 -98 21 -137t60 -39
q36 0 51 37t15 117v665z" />
    <glyph glyph-name="c" unicode="c" horiz-adv-x="507" 
d="M334 455h123v-230q0 -136 -52.5 -188.5t-144.5 -52.5t-144.5 52.5t-52.5 188.5v711q0 137 52 189.5t145 52.5t145 -52.5t52 -189.5v-201h-123v215q0 115 -74 115t-74 -115v-739q0 -115 74 -115t74 115v244z" />
    <glyph glyph-name="d" unicode="d" horiz-adv-x="524" 
d="M358 0l-18 94q-14 -26 -21 -37t-25 -32.5t-42 -31t-55 -9.5q-77 0 -106.5 69t-29.5 238v579q0 169 29.5 238.5t106.5 69.5q92 0 135 -111v502h123v-1569h-97zM332 891q0 98 -21.5 137t-60.5 39q-36 0 -51 -37t-15 -117v-665q0 -80 15 -117t51 -37q39 0 60.5 39t21.5 137
v621z" />
    <glyph glyph-name="e" unicode="e" horiz-adv-x="512" 
d="M334 383h123v-158q0 -136 -52.5 -188.5t-144.5 -52.5t-144.5 52.5t-52.5 188.5v711q0 137 52 189.5t145 52.5t145 -52.5t52 -189.5v-401h-271v-324q0 -115 74 -115t74 115v172zM334 950q0 115 -74 115t-74 -115v-305h148v305z" />
    <glyph glyph-name="f" unicode="f" horiz-adv-x="372" 
d="M240 0h-123v1049h-113v112h113v113q0 174 39 240.5t135 66.5q39 0 84 -10v-103q-18 2 -47 2q-55 0 -71.5 -28.5t-16.5 -110.5v-170h133v-112h-133v-1049z" />
    <glyph glyph-name="g" unicode="g" horiz-adv-x="516" 
d="M455 -123q0 -162 -49.5 -226.5t-157.5 -64.5q-113 0 -160 68.5t-47 239.5v143q0 51 10 90t20 57t33 52q-28 54 -28 94q0 68 63 147q-43 37 -60.5 82.5t-17.5 138.5v193q0 161 42 224t141 63q66 0 102 -27h166v-76h-98q41 -68 41 -184v-193q0 -143 -47.5 -202.5
t-143.5 -59.5q-43 0 -55 4q-33 -23 -33 -67q0 -27 19.5 -49.5t68.5 -22.5q43 0 73 -8.5t59 -34t44 -81t15 -140.5v-160zM332 909q0 87 -16 121.5t-58 34.5t-58 -34.5t-16 -121.5v-209q0 -87 16 -121t58 -34t58 34t16 121v209zM332 35q0 93 -17.5 124t-62.5 31
q-53 0 -70.5 -35.5t-17.5 -129.5v-170q0 -85 20 -120.5t64 -35.5t64 35.5t20 120.5v180z" />
    <glyph glyph-name="h" unicode="h" horiz-adv-x="526" 
d="M338 0v913q0 80 -15 117t-51 37q-39 0 -60.5 -39t-21.5 -137v-891h-122v1569h122v-502q32 60 55 80q34 31 83 31q74 0 103.5 -70.5t29.5 -237.5v-870h-123z" />
    <glyph glyph-name="i" unicode="i" horiz-adv-x="258" 
d="M68 0v1161h122v-1161h-122zM129 1311q-38 0 -65 27t-27 65t27 65t65 27t65 -27t27 -65t-27 -65t-65 -27z" />
    <glyph glyph-name="j" unicode="j" horiz-adv-x="258" 
d="M-68 -309q16 -2 35 -2q29 0 48 7.5t29.5 18t16 33.5t6.5 42.5t1 55.5v1315h122v-1296q0 -149 -35.5 -218t-140.5 -69q-30 0 -82 10v103zM129 1311q-38 0 -65 27t-27 65t27 65t65 27t65 -27t27 -65t-27 -65t-65 -27z" />
    <glyph glyph-name="k" unicode="k" horiz-adv-x="530" 
d="M401 0l-208 594l208 567h127l-200 -561l198 -600h-125zM68 0v1569h122v-1569h-122z" />
    <glyph glyph-name="l" unicode="l" horiz-adv-x="262" 
d="M70 0v1569h123v-1569h-123z" />
    <glyph glyph-name="m" unicode="m" horiz-adv-x="798" 
d="M610 0v913q0 80 -14.5 117t-50.5 37q-39 0 -60.5 -37t-21.5 -129v-901h-123v913q0 80 -15 117t-51 37q-39 0 -60 -39t-21 -137v-891h-123v1161h96l18 -94q14 26 21 37.5t25.5 33t42.5 31t55 9.5q96 0 123 -127q24 59 56 93t91 34q77 0 106 -69.5t29 -238.5v-870h-123z
" />
    <glyph glyph-name="n" unicode="n" horiz-adv-x="528" 
d="M340 0v913q0 80 -15 117t-51 37q-39 0 -60 -39t-21 -137v-891h-123v1161h96l18 -94q14 26 21 37.5t25.5 33t42.5 31t55 9.5q77 0 106 -69.5t29 -238.5v-870h-123z" />
    <glyph glyph-name="o" unicode="o" horiz-adv-x="520" 
d="M63 936q0 137 52 189.5t145 52.5t145 -52.5t52 -189.5v-711q0 -136 -52.5 -188.5t-144.5 -52.5t-144.5 52.5t-52.5 188.5v711zM334 950q0 115 -74 115t-74 -115v-739q0 -115 74 -115t74 115v739z" />
    <glyph glyph-name="p" unicode="p" horiz-adv-x="526" 
d="M193 -408h-123v1569h96l18 -94q14 26 21 37.5t25.5 33t42.5 31t55 9.5q77 0 106 -69.5t29 -238.5v-579q0 -169 -29 -238t-106 -69q-86 0 -135 92v-484zM193 270q0 -98 21 -137t60 -39q36 0 51 37t15 117v665q0 80 -15 117t-51 37q-39 0 -60 -39t-21 -137v-621z" />
    <glyph glyph-name="q" unicode="q" horiz-adv-x="526" 
d="M334 -408v484q-49 -92 -135 -92q-77 0 -106.5 69t-29.5 238v579q0 169 29.5 238.5t106.5 69.5q30 0 53.5 -9.5t40 -27.5t26 -32.5t20.5 -35.5l3 -6l18 94h97v-1569h-123zM334 891q0 98 -21.5 137t-60.5 39q-36 0 -51 -37t-15 -117v-665q0 -80 15 -117t51 -37
q39 0 60.5 39t21.5 137v621z" />
    <glyph glyph-name="r" unicode="r" horiz-adv-x="389" 
d="M70 0v1161h96l18 -94q16 40 51.5 74.5t86.5 34.5q23 0 53 -13l20 -12l-51 -133q-47 24 -80 24q-41 0 -56 -38.5t-15 -137.5v-866h-123z" />
    <glyph glyph-name="s" unicode="s" horiz-adv-x="503" 
d="M168 246q0 -85 15 -117.5t61 -32.5q49 0 70.5 34t21.5 112q0 69 -16 121.5t-41.5 86.5t-56.5 63.5t-62.5 62.5t-57 73.5t-41.5 105.5t-16 150q0 83 14.5 138.5t44 84t64.5 39.5t84 11q109 0 158 -58.5t49 -208.5v-137h-123v135q0 92 -16.5 124t-65.5 32t-67.5 -29.5
t-18.5 -113.5q0 -77 16 -133.5t41.5 -91.5t56.5 -63.5t62.5 -59t57 -68.5t41.5 -101.5t16 -148.5q0 -153 -51.5 -212.5t-161.5 -59.5q-115 0 -158 62.5t-43 223.5v113h123v-137z" />
    <glyph glyph-name="t" unicode="t" horiz-adv-x="364" 
d="M358 -6q-45 -10 -86 -10q-106 0 -139 66.5t-33 240.5v758h-92v112h92v287h123v-287h133v-112h-133v-816q0 -82 16.5 -110.5t71.5 -28.5q29 0 47 2v-102z" />
    <glyph glyph-name="u" unicode="u" horiz-adv-x="528" 
d="M362 0l-18 94q-14 -26 -21 -37t-25 -32.5t-42 -31t-55 -9.5q-77 0 -106 69t-29 238v870h122v-913q0 -80 15 -117t51 -37q39 0 60.5 39t21.5 137v891h123v-1161h-97z" />
    <glyph glyph-name="v" unicode="v" horiz-adv-x="483" 
d="M174 0l-158 1161h131l93 -977l94 977h131l-156 -1161h-135z" />
    <glyph glyph-name="w" unicode="w" horiz-adv-x="804" 
d="M496 0l-95 862l-92 -862h-135l-158 1161h131l93 -915l94 915h137l94 -915l92 915h131l-157 -1161h-135z" />
    <glyph glyph-name="x" unicode="x" horiz-adv-x="491" 
d="M362 0l-124 428l-109 -428h-119l172 594l-170 567h121l113 -393l108 393h125l-178 -569l182 -592h-121z" />
    <glyph glyph-name="y" unicode="y" horiz-adv-x="501" 
d="M123 -410l63 347l-163 1224h131l100 -964l106 964h132l-238 -1571h-131z" />
    <glyph glyph-name="z" unicode="z" horiz-adv-x="473" 
d="M16 0v98l293 951h-254v112h400v-78l-293 -970h268v-113h-414z" />
    <glyph glyph-name="braceleft" unicode="{" horiz-adv-x="471" 
d="M444 -348h-110q-74 0 -115 59t-41 160v422q0 48 -3.5 82.5t-14.5 68t-30 55t-50 36.5t-74 20v104q51 6 86 29t53 61.5t25.5 80.5t7.5 96v422q0 105 40.5 163t115.5 58h110v-107h-75q-18 0 -30.5 -5t-20 -18.5t-12 -25.5t-6.5 -37.5t-2.5 -41.5t-0.5 -50v-403
q0 -61 -13.5 -111.5t-35 -82t-40 -49t-36.5 -28.5q17 -7 36.5 -25.5t40.5 -49.5t34.5 -82t13.5 -111v-399q0 -39 0.5 -56.5t2.5 -43.5t6 -36.5t12 -22.5t20.5 -16t30.5 -4h75v-112z" />
    <glyph glyph-name="bar" unicode="|" horiz-adv-x="307" 
d="M90 -451v2048h127v-2048h-127z" />
    <glyph glyph-name="braceright" unicode="}" horiz-adv-x="471" 
d="M293 -129q0 -101 -41 -160t-115 -59h-110v112h75q18 0 30.5 4t20.5 16t12 22.5t6 36.5t2.5 43.5t0.5 56.5v399q0 60 13.5 111t34.5 82t40.5 49.5t36.5 25.5q-18 11 -36.5 28.5t-40 49t-35 82t-13.5 111.5v403q0 34 -0.5 50t-2.5 41.5t-6.5 37.5t-12 25.5t-20 18.5
t-30.5 5h-75v107h110q75 0 115.5 -58t40.5 -163v-422q0 -54 7.5 -96t25.5 -80.5t53 -61.5t86 -29v-104q-43 -5 -74 -20t-50 -36.5t-30 -55t-14.5 -68t-3.5 -82.5v-422z" />
    <glyph glyph-name="asciitilde" unicode="~" horiz-adv-x="864" 
d="M793 1163q-40 -70 -96 -107.5t-113 -37.5q-46 0 -152.5 44t-163.5 44q-81 0 -123 -80l-84 70q77 135 211 135q66 0 167.5 -41t148.5 -41q38 0 64.5 18.5t49.5 61.5z" />
    <glyph glyph-name="nbspace" unicode="&#xa0;" horiz-adv-x="249" 
 />
    <glyph glyph-name="exclamdown" unicode="&#xa1;" horiz-adv-x="286" 
d="M72 -356l30 1259h82l29 -1259h-141zM229 1143q0 -35 -25.5 -60.5t-60.5 -25.5t-60.5 25.5t-25.5 60.5t25.5 60.5t60.5 25.5t60.5 -25.5t25.5 -60.5z" />
    <glyph glyph-name="cent" unicode="&#xa2;" horiz-adv-x="528" 
d="M207 0v211q-64 14 -98.5 69t-34.5 166v711q0 206 133 236v178h123v-178q65 -13 101 -67.5t36 -168.5v-201h-123v215q0 115 -74 115q-73 0 -73 -115v-739q0 -115 73 -115q74 0 74 115v244h123v-230q0 -206 -137 -237v-209h-123z" />
    <glyph glyph-name="sterling" unicode="&#xa3;" horiz-adv-x="692" 
d="M61 0v127h93v393h-93v115h93v131h-93v115h93v411q0 303 241 303q34 0 61.5 -4.5t63 -22.5t59.5 -48.5t41 -89t17 -138.5v-129h-127v160q0 80 -33.5 118t-81.5 38t-81 -38t-33 -118v-442h297v-115h-297v-131h297v-115h-297v-393h352v-127h-572z" />
    <glyph glyph-name="currency" unicode="&#xa4;" horiz-adv-x="868" 
d="M707 307l-91 125q-74 -41 -184 -41q-108 0 -182 39l-86 -123l-96 68l94 131q-74 95 -74 274v15q0 175 72 272l-92 131l94 70l88 -123q74 39 182 39q110 0 186 -43l91 127l94 -70l-96 -135q69 -97 69 -268v-15q0 -173 -69 -270l96 -135zM649 850q0 89 -57 153t-160 64
t-160 -64t-57 -153v-125q0 -89 57 -153t160 -64t160 64t57 153v125z" />
    <glyph glyph-name="yen" unicode="&#xa5;" horiz-adv-x="651" 
d="M264 0v295h-207v115h207v131h-207v114h191l-207 914h129l156 -762l155 762h129l-209 -914h193v-114h-207v-131h207v-115h-207v-295h-123z" />
    <glyph glyph-name="brokenbar" unicode="&#xa6;" horiz-adv-x="311" 
d="M92 762v835h127v-835h-127zM92 -451v834h127v-834h-127z" />
    <glyph glyph-name="section" unicode="&#xa7;" horiz-adv-x="679" 
d="M184 246q0 -85 15 -117.5t61 -32.5q49 0 70.5 34t21.5 112q0 69 -16 121.5t-41.5 86.5t-56.5 63.5t-62.5 62.5t-57 73.5t-41.5 105.5t-16 150q0 138 39.5 199.5t114.5 69.5q-10 58 -10 133q0 83 14.5 138.5t44 84t64.5 39t84 10.5q109 0 157.5 -58t48.5 -208v-148h-122
v146q0 92 -16.5 123.5t-65.5 31.5t-67.5 -29.5t-18.5 -113.5q0 -77 16 -134.5t41.5 -93t56.5 -65t62 -61t56.5 -70t41.5 -103t16 -149.5q0 -131 -37.5 -193.5t-115.5 -74.5q10 -58 10 -123q0 -153 -51.5 -212.5t-161.5 -59.5q-115 0 -158 62.5t-43 223.5v113h123v-137z
M250 1063q-36 -5 -51 -36.5t-15 -104.5q0 -80 17 -138.5t45.5 -94t58.5 -62.5t65 -62.5t56 -75.5q70 14 70 144q0 72 -17 125.5t-46.5 89t-60 64.5t-65.5 68t-57 83z" />
    <glyph glyph-name="dieresis" unicode="&#xa8;" horiz-adv-x="522" 
d="M127 1294q-37 0 -62.5 25.5t-25.5 62.5t25.5 62.5t62.5 25.5t62.5 -25.5t25.5 -62.5t-25.5 -62.5t-62.5 -25.5zM395 1294q-37 0 -62.5 25.5t-25.5 62.5t25.5 62.5t62.5 25.5t62.5 -25.5t25.5 -62.5t-25.5 -62.5t-62.5 -25.5z" />
    <glyph glyph-name="ordfeminine" unicode="&#xaa;" horiz-adv-x="475" 
d="M336 745l-21 95q-32 -60 -57 -81q-37 -30 -86 -30q-75 0 -105 60.5t-30 187.5q0 252 139 252q47 0 76.5 -22t54.5 -74v167q0 87 -16 121.5t-58 34.5t-57.5 -33t-15.5 -120h-123v8q0 136 42.5 197t156.5 61q106 0 150 -61.5t44 -217.5v-545h-94zM63 465v115h349v-115h-349
zM225 840q82 0 82 147q0 123 -78 123q-37 0 -53 -30.5t-16 -102.5q0 -137 65 -137z" />
    <glyph glyph-name="guillemotleft" unicode="&#xab;" horiz-adv-x="600" 
d="M180 205l-149 342l149 346h127l-151 -346l151 -342h-127zM410 205l-150 342l150 346h127l-152 -346l152 -342h-127z" />
    <glyph glyph-name="logicalnot" unicode="&#xac;" horiz-adv-x="864" 
d="M649 393v295h-586v111h701v-406h-115z" />
    <glyph glyph-name="uni00AD" unicode="&#xad;" horiz-adv-x="395" 
d="M66 541v114h264v-114h-264z" />
    <glyph glyph-name="macron" unicode="&#xaf;" horiz-adv-x="491" 
d="M39 1315v102h414v-102h-414z" />
    <glyph glyph-name="degree" unicode="&#xb0;" horiz-adv-x="475" 
d="M348 1294q0 47 -31.5 79t-78.5 32t-79 -32t-32 -79t32 -78.5t79 -31.5t78.5 31.5t31.5 78.5zM238 1098q-85 0 -141 55.5t-56 140.5t56 141t141 56t140.5 -56t55.5 -141t-55.5 -140.5t-140.5 -55.5z" />
    <glyph glyph-name="plusminus" unicode="&#xb1;" horiz-adv-x="864" 
d="M375 418v295h-293v110h293v295h114v-295h293v-110h-293v-295h-114zM82 166v110h700v-110h-700z" />
    <glyph glyph-name="twosuperior" unicode="&#xb2;" horiz-adv-x="436" 
d="M63 848v108q0 43 21.5 88t52.5 83t61.5 76.5t52 81.5t21.5 83v62q0 71 -53 71t-53 -71v-89h-103v101q0 74 43.5 107.5t112.5 33.5q72 0 116 -34t44 -107v-84q0 -42 -21.5 -87.5t-52.5 -85t-62.5 -79t-53 -85t-21.5 -87.5h194v-86h-299z" />
    <glyph glyph-name="threesuperior" unicode="&#xb3;" horiz-adv-x="432" 
d="M266 1118q0 36 -25 50t-53 14q-5 0 -10.5 -1t-9.5 -1v80q6 -3 18 -3q80 0 80 62v111q0 71 -51 71q-53 0 -53 -71v-84h-105v94q0 141 158 141t158 -141v-97q0 -51 -16.5 -79t-63.5 -39q47 -16 63.5 -46.5t16.5 -82.5v-121q0 -141 -158 -141t-158 141v90h105v-80
q0 -72 53 -72q51 0 51 72v133z" />
    <glyph glyph-name="acute" unicode="&#xb4;" horiz-adv-x="200" 
d="M0 1315l90 207h146l-127 -207h-109z" />
    <glyph glyph-name="mu" unicode="&#xb5;" horiz-adv-x="606" 
d="M104 -408v1569h123v-944q0 -123 66 -123q39 0 60.5 39t21.5 137v891h123v-1161h-97l-18 94q-16 -37 -46 -70.5t-65 -33.5q-25 0 -45 14v-412h-123z" />
    <glyph glyph-name="paragraph" unicode="&#xb6;" horiz-adv-x="819" 
d="M578 -178v1626h-101v-1628h-127v684h-24q-63 0 -105.5 7.5t-78 28t-55 57.5t-30 94t-10.5 140v410q0 103 15 167.5t51 100t84.5 48t128.5 12.5h379v-1747h-127z" />
    <glyph glyph-name="periodcentered" unicode="&#xb7;" horiz-adv-x="303" 
d="M238 580q0 -35 -25.5 -60.5t-60.5 -25.5t-60.5 25.5t-25.5 60.5t25.5 60.5t60.5 25.5t60.5 -25.5t25.5 -60.5z" />
    <glyph glyph-name="cedilla" unicode="&#xb8;" horiz-adv-x="376" 
d="M72 -246q32 -18 67 -18q39 0 59.5 18t20.5 45q0 25 -21.5 44.5t-60.5 19.5q-14 0 -20 -2l35 139h84l-21 -94q45 0 78 -34t33 -81q0 -56 -46.5 -97.5t-117.5 -41.5q-53 0 -111 22z" />
    <glyph glyph-name="onesuperior" unicode="&#xb9;" horiz-adv-x="329" 
d="M154 848v610l-127 -59v96l149 76h84v-723h-106z" />
    <glyph glyph-name="ordmasculine" unicode="&#xba;" horiz-adv-x="473" 
d="M66 465v115h348v-115h-348zM432 971q0 -136 -52 -189t-144 -53t-144.5 53t-52.5 189v356q0 137 52 189.5t145 52.5q44 0 77 -10.5t61 -36t43 -75t15 -120.5v-356zM309 1341q0 115 -73 115q-74 0 -74 -115v-385q0 -114 74 -114q73 0 73 114v385z" />
    <glyph glyph-name="guillemotright" unicode="&#xbb;" horiz-adv-x="600" 
d="M63 205l152 342l-152 346h127l150 -346l-150 -342h-127zM293 205l151 342l-151 346h127l149 -346l-149 -342h-127z" />
    <glyph glyph-name="onequarter" unicode="&#xbc;" horiz-adv-x="872" 
d="M160 848v610l-127 -59v96l149 76h84v-723h-106zM672 0v199h-178v80l127 444h147v-444h68v-80h-68v-199h-96zM672 641l-88 -362h88v362zM170 0l422 1569h104l-422 -1569h-104z" />
    <glyph glyph-name="onehalf" unicode="&#xbd;" horiz-adv-x="933" 
d="M160 848v610l-127 -59v96l149 76h84v-723h-106zM575 0v109q0 43 21.5 87.5t52.5 83t61.5 76.5t52 81t21.5 83v62q0 71 -53 71t-53 -71v-88h-103v100q0 74 43.5 107.5t112.5 33.5q72 0 116 -34t44 -107v-84q0 -42 -21.5 -87.5t-52.5 -85t-62.5 -79t-53 -85t-21.5 -87.5
h194v-86h-299zM170 0l422 1569h104l-422 -1569h-104z" />
    <glyph glyph-name="threequarters" unicode="&#xbe;" horiz-adv-x="919" 
d="M256 1118q0 36 -25 50t-53 14q-5 0 -10.5 -1t-9.5 -1v80q6 -3 18 -3q80 0 80 62v111q0 71 -51 71q-53 0 -53 -71v-84h-105v94q0 141 158 141q157 0 157 -141v-97q0 -51 -16 -79t-63 -39q46 -16 62.5 -46.5t16.5 -82.5v-121q0 -141 -157 -141q-158 0 -158 141v90h105v-80
q0 -72 53 -72q51 0 51 72v133zM721 0v199h-178v80l127 444h147v-444h68v-80h-68v-199h-96zM721 641l-88 -362h88v362zM221 0l422 1569h105l-422 -1569h-105z" />
    <glyph glyph-name="questiondown" unicode="&#xbf;" horiz-adv-x="559" 
d="M395 152h127v-230q0 -307 -243 -307q-240 0 -240 307v211q0 69 10.5 121.5t34 96t66.5 69t104 31.5l20 454h86l21 -563q-11 4 -39 4q-26 0 -52.5 -5.5t-56.5 -18.5t-48.5 -42t-18.5 -69v-324q0 -80 33.5 -117.5t81.5 -37.5t81 37.5t33 117.5v265zM397 1143
q0 -35 -25.5 -60.5t-60.5 -25.5t-60.5 25.5t-25.5 60.5t25.5 60.5t60.5 25.5t60.5 -25.5t25.5 -60.5z" />
    <glyph glyph-name="Agrave" unicode="&#xc0;" horiz-adv-x="589" 
d="M453 0l-45 389h-224l-45 -389h-127l211 1571h144l213 -1571h-127zM295 1346l-94 -840h190zM373 1722h-109l-127 207h146z" />
    <glyph glyph-name="Aacute" unicode="&#xc1;" horiz-adv-x="589" 
d="M453 0l-45 389h-224l-45 -389h-127l211 1571h144l213 -1571h-127zM295 1346l-94 -840h190zM227 1722l90 207h146l-127 -207h-109z" />
    <glyph glyph-name="Acircumflex" unicode="&#xc2;" horiz-adv-x="589" 
d="M453 0l-45 389h-224l-45 -389h-127l211 1571h144l213 -1571h-127zM295 1346l-94 -840h190zM375 1722l-80 127l-74 -127h-115l117 207h144l116 -207h-108z" />
    <glyph glyph-name="Atilde" unicode="&#xc3;" horiz-adv-x="589" 
d="M453 0l-45 389h-224l-45 -389h-127l211 1571h144l213 -1571h-127zM295 1346l-94 -840h190zM496 1849q-10 -59 -45.5 -94t-83.5 -35q-29 0 -67 17.5t-56 17.5q-12 0 -19 -5.5t-9.5 -10.5t-6.5 -17h-115q0 11 6 30t19 42.5t39 40t59 16.5q31 0 74 -15t55 -15q19 0 27 14
q4 8 4 14h119z" />
    <glyph glyph-name="Adieresis" unicode="&#xc4;" horiz-adv-x="589" 
d="M453 0l-45 389h-224l-45 -389h-127l211 1571h144l213 -1571h-127zM295 1346l-94 -840h190zM162 1702q-37 0 -62.5 25.5t-25.5 62.5t25.5 62.5t62.5 25.5t62.5 -25.5t25.5 -62.5t-25.5 -62.5t-62.5 -25.5zM430 1702q-37 0 -62.5 25.5t-25.5 62.5t25.5 62.5t62.5 25.5
t62.5 -25.5t25.5 -62.5t-25.5 -62.5t-62.5 -25.5z" />
    <glyph glyph-name="Aring" unicode="&#xc5;" horiz-adv-x="589" 
d="M453 0l-45 389h-224l-45 -389h-127l211 1571h144l213 -1571h-127zM295 1346l-94 -840h190zM369 1786q0 31 -21.5 52.5t-52.5 21.5t-52.5 -21.5t-21.5 -52.5t21.5 -52.5t52.5 -21.5t52.5 21.5t21.5 52.5zM295 1655q-55 0 -93 37.5t-38 93.5t38 93.5t93 37.5t93 -37.5
t38 -93.5t-38 -93.5t-93 -37.5z" />
    <glyph glyph-name="AE" unicode="&#xc6;" horiz-adv-x="903" 
d="M436 0v389h-223l-96 -389h-125l399 1569h463v-127h-291v-588h277v-127h-277v-600h291v-127h-418zM436 1356l-190 -852h190v852z" />
    <glyph glyph-name="Ccedilla" unicode="&#xc7;" horiz-adv-x="608" 
d="M197 -246q31 -18 67 -18q39 0 59.5 18t20.5 45q0 25 -21.5 44.5t-60.5 19.5q-14 0 -20 -2l28 114q-97 8 -148.5 83t-51.5 243v967q0 95 17.5 161t51.5 101.5t75 50t97 14.5t97 -14.5t75.5 -50t52 -101.5t17.5 -161v-244h-127v299q0 78 -32 117t-83 39q-50 0 -82 -39
t-32 -117v-1077q0 -78 32 -117t82 -39q51 0 83 39t32 117v278h127v-223q0 -115 -26.5 -186.5t-68 -101t-104.5 -38.5l-14 -69q45 0 78 -34t33 -81q0 -56 -46.5 -97.5t-117.5 -41.5q-53 0 -111 22z" />
    <glyph glyph-name="Egrave" unicode="&#xc8;" horiz-adv-x="546" 
d="M80 0v1569h418v-127h-291v-588h276v-127h-276v-600h291v-127h-418zM360 1722h-108l-127 207h145z" />
    <glyph glyph-name="Eacute" unicode="&#xc9;" horiz-adv-x="546" 
d="M80 0v1569h418v-127h-291v-588h276v-127h-276v-600h291v-127h-418zM209 1722l90 207h145l-127 -207h-108z" />
    <glyph glyph-name="Ecircumflex" unicode="&#xca;" horiz-adv-x="546" 
d="M80 0v1569h418v-127h-291v-588h276v-127h-276v-600h291v-127h-418zM367 1722l-80 127l-74 -127h-115l117 207h143l117 -207h-108z" />
    <glyph glyph-name="Edieresis" unicode="&#xcb;" horiz-adv-x="546" 
d="M80 0v1569h418v-127h-291v-588h276v-127h-276v-600h291v-127h-418zM150 1702q-37 0 -63 25.5t-26 62.5t26 62.5t63 25.5t62.5 -25.5t25.5 -62.5t-25.5 -62.5t-62.5 -25.5zM418 1702q-37 0 -62.5 25.5t-25.5 62.5t25.5 62.5t62.5 25.5t62.5 -25.5t25.5 -62.5t-25.5 -62.5
t-62.5 -25.5z" />
    <glyph glyph-name="Igrave" unicode="&#xcc;" horiz-adv-x="286" 
d="M80 0v1569h127v-1569h-127zM219 1722h-108l-127 207h145z" />
    <glyph glyph-name="Iacute" unicode="&#xcd;" horiz-adv-x="286" 
d="M80 0v1569h127v-1569h-127zM78 1722l90 207h145l-127 -207h-108z" />
    <glyph glyph-name="Icircumflex" unicode="&#xce;" horiz-adv-x="286" 
d="M80 0v1569h127v-1569h-127zM223 1722l-80 127l-73 -127h-115l117 207h143l117 -207h-109z" />
    <glyph glyph-name="Idieresis" unicode="&#xcf;" horiz-adv-x="286" 
d="M80 0v1569h127v-1569h-127zM10 1702q-37 0 -62.5 25.5t-25.5 62.5t25.5 62.5t62.5 25.5t62.5 -25.5t25.5 -62.5t-25.5 -62.5t-62.5 -25.5zM279 1702q-37 0 -63 25.5t-26 62.5t26 62.5t63 25.5t62.5 -25.5t25.5 -62.5t-25.5 -62.5t-62.5 -25.5z" />
    <glyph glyph-name="Eth" unicode="&#xd0;" horiz-adv-x="626" 
d="M80 0v727h-68v127h68v715h194q80 0 128.5 -12.5t84.5 -48t51 -100t15 -167.5v-913q0 -103 -15 -167.5t-51 -100t-84.5 -48t-128.5 -12.5h-194zM426 1296q0 85 -27 120.5t-88 35.5h-104v-598h123v-127h-123v-610h104q61 0 88 35t27 120v1024z" />
    <glyph glyph-name="Ntilde" unicode="&#xd1;" horiz-adv-x="688" 
d="M477 0l-274 1098l4 -1098h-127v1569h121l284 -1114l-4 1114h127v-1569h-131zM545 1849q-10 -59 -45.5 -94t-83.5 -35q-30 0 -68 17.5t-55 17.5q-12 0 -19 -5.5t-9.5 -10.5t-6.5 -17h-115q0 11 6 30t19 42.5t39 40t59 16.5q30 0 73.5 -15t55.5 -15q19 0 27 14q4 8 4 14
h119z" />
    <glyph glyph-name="Ograve" unicode="&#xd2;" horiz-adv-x="630" 
d="M74 1268q0 95 17.5 161t51.5 101.5t75 50t97 14.5t97 -14.5t75.5 -50t52 -101.5t17.5 -161v-967q0 -95 -17.5 -161t-51.5 -101.5t-75.5 -50.5t-97.5 -15t-97 15t-75 50.5t-51.5 101.5t-17.5 161v967zM430 1323q0 78 -32 117t-83 39q-50 0 -82 -39t-32 -117v-1077
q0 -78 32 -117t82 -39q51 0 83 39t32 117v1077zM387 1722h-108l-127 207h145z" />
    <glyph glyph-name="Oacute" unicode="&#xd3;" horiz-adv-x="630" 
d="M74 1268q0 95 17.5 161t51.5 101.5t75 50t97 14.5t97 -14.5t75.5 -50t52 -101.5t17.5 -161v-967q0 -95 -17.5 -161t-51.5 -101.5t-75.5 -50.5t-97.5 -15t-97 15t-75 50.5t-51.5 101.5t-17.5 161v967zM430 1323q0 78 -32 117t-83 39q-50 0 -82 -39t-32 -117v-1077
q0 -78 32 -117t82 -39q51 0 83 39t32 117v1077zM238 1722l90 207h145l-127 -207h-108z" />
    <glyph glyph-name="Ocircumflex" unicode="&#xd4;" horiz-adv-x="630" 
d="M74 1268q0 95 17.5 161t51.5 101.5t75 50t97 14.5t97 -14.5t75.5 -50t52 -101.5t17.5 -161v-967q0 -95 -17.5 -161t-51.5 -101.5t-75.5 -50.5t-97.5 -15t-97 15t-75 50.5t-51.5 101.5t-17.5 161v967zM430 1323q0 78 -32 117t-83 39q-50 0 -82 -39t-32 -117v-1077
q0 -78 32 -117t82 -39q51 0 83 39t32 117v1077zM395 1722l-80 127l-73 -127h-115l117 207h143l117 -207h-109z" />
    <glyph glyph-name="Otilde" unicode="&#xd5;" horiz-adv-x="630" 
d="M74 1268q0 95 17.5 161t51.5 101.5t75 50t97 14.5t97 -14.5t75.5 -50t52 -101.5t17.5 -161v-967q0 -95 -17.5 -161t-51.5 -101.5t-75.5 -50.5t-97.5 -15t-97 15t-75 50.5t-51.5 101.5t-17.5 161v967zM430 1323q0 78 -32 117t-83 39q-50 0 -82 -39t-32 -117v-1077
q0 -78 32 -117t82 -39q51 0 83 39t32 117v1077zM516 1849q-10 -59 -45.5 -94t-83.5 -35q-29 0 -67 17.5t-56 17.5q-12 0 -19 -5.5t-9.5 -10.5t-6.5 -17h-114q0 11 6 30t19 42.5t39 40t59 16.5q30 0 73 -15t56 -15q18 0 26 14q4 8 4 14h119z" />
    <glyph glyph-name="Odieresis" unicode="&#xd6;" horiz-adv-x="630" 
d="M74 1268q0 95 17.5 161t51.5 101.5t75 50t97 14.5t97 -14.5t75.5 -50t52 -101.5t17.5 -161v-967q0 -95 -17.5 -161t-51.5 -101.5t-75.5 -50.5t-97.5 -15t-97 15t-75 50.5t-51.5 101.5t-17.5 161v967zM430 1323q0 78 -32 117t-83 39q-50 0 -82 -39t-32 -117v-1077
q0 -78 32 -117t82 -39q51 0 83 39t32 117v1077zM180 1702q-37 0 -62.5 25.5t-25.5 62.5t25.5 62.5t62.5 25.5t62.5 -25.5t25.5 -62.5t-25.5 -62.5t-62.5 -25.5zM449 1702q-37 0 -63 25.5t-26 62.5t26 62.5t63 25.5t62.5 -25.5t25.5 -62.5t-25.5 -62.5t-62.5 -25.5z" />
    <glyph glyph-name="multiply" unicode="&#xd7;" horiz-adv-x="864" 
d="M434 664l-209 -209l-82 82l209 208l-207 207l78 78l207 -207l209 209l82 -82l-209 -209l207 -206l-78 -78z" />
    <glyph glyph-name="Oslash" unicode="&#xd8;" horiz-adv-x="630" 
d="M141 -109l21 127q-88 75 -88 283v967q0 95 17.5 161t51.5 101.5t75 50t97 14.5q47 0 91 -12l14 92h76l-21 -131q82 -76 82 -276v-967q0 -95 -17.5 -161t-51.5 -101.5t-75.5 -50.5t-97.5 -15q-35 0 -84 11l-14 -93h-76zM385 1452q-27 27 -70 27q-50 0 -82 -39t-32 -117
v-1116zM430 1317l-180 -1206q27 -21 65 -21q51 0 83 39t32 117v1071z" />
    <glyph glyph-name="Ugrave" unicode="&#xd9;" horiz-adv-x="638" 
d="M434 1569h127v-1268q0 -95 -17.5 -161t-51.5 -101.5t-75.5 -50.5t-97.5 -15t-97 15t-75 50.5t-51.5 101.5t-17.5 161v1268h127v-1323q0 -78 32 -117t82 -39q51 0 83 39t32 117v1323zM385 1722h-109l-126 207h145z" />
    <glyph glyph-name="Uacute" unicode="&#xda;" horiz-adv-x="638" 
d="M434 1569h127v-1268q0 -95 -17.5 -161t-51.5 -101.5t-75.5 -50.5t-97.5 -15t-97 15t-75 50.5t-51.5 101.5t-17.5 161v1268h127v-1323q0 -78 32 -117t82 -39q51 0 83 39t32 117v1323zM252 1722l90 207h145l-127 -207h-108z" />
    <glyph glyph-name="Ucircumflex" unicode="&#xdb;" horiz-adv-x="638" 
d="M434 1569h127v-1268q0 -95 -17.5 -161t-51.5 -101.5t-75.5 -50.5t-97.5 -15t-97 15t-75 50.5t-51.5 101.5t-17.5 161v1268h127v-1323q0 -78 32 -117t82 -39q51 0 83 39t32 117v1323zM399 1722l-80 127l-73 -127h-115l117 207h143l117 -207h-109z" />
    <glyph glyph-name="Udieresis" unicode="&#xdc;" horiz-adv-x="638" 
d="M434 1569h127v-1268q0 -95 -17.5 -161t-51.5 -101.5t-75.5 -50.5t-97.5 -15t-97 15t-75 50.5t-51.5 101.5t-17.5 161v1268h127v-1323q0 -78 32 -117t82 -39q51 0 83 39t32 117v1323zM184 1702q-37 0 -62.5 25.5t-25.5 62.5t25.5 62.5t62.5 25.5t62.5 -25.5t25.5 -62.5
t-25.5 -62.5t-62.5 -25.5zM453 1702q-37 0 -62.5 25.5t-25.5 62.5t25.5 62.5t62.5 25.5t62.5 -25.5t25.5 -62.5t-25.5 -62.5t-62.5 -25.5z" />
    <glyph glyph-name="Yacute" unicode="&#xdd;" horiz-adv-x="606" 
d="M242 0v586l-224 983h129l156 -762l156 762h129l-223 -983v-586h-123zM240 1722l90 207h145l-127 -207h-108z" />
    <glyph glyph-name="Thorn" unicode="&#xde;" horiz-adv-x="600" 
d="M80 0v1569h127v-334h67q80 0 128.5 -12.5t84.5 -48t51 -100t15 -167.5v-241q0 -103 -15 -167.5t-51 -100t-84.5 -48t-128.5 -12.5h-67v-338h-127zM426 952q0 85 -27 120.5t-88 35.5h-104v-643h104q61 0 88 35.5t27 120.5v331z" />
    <glyph glyph-name="germandbls" unicode="&#xdf;" horiz-adv-x="559" 
d="M246 96q16 -2 35 -2q29 0 48 7.5t29.5 18.5t15.5 34.5t6 42t1 55.5v389q0 241 -115 260v109q115 27 115 264v69q0 125 -94 125t-94 -125v-1343h-123v1329q0 140 55.5 196t161.5 56t161.5 -56t55.5 -196v-100q0 -121 -44 -186t-112 -85q156 -31 156 -247v-441
q0 -149 -35.5 -217.5t-140.5 -68.5q-30 0 -82 10v102z" />
    <glyph glyph-name="agrave" unicode="&#xe0;" horiz-adv-x="514" 
d="M352 0l-18 94q-11 -20 -16 -28.5t-19 -27.5t-27 -28.5t-35 -17.5t-47 -8q-77 0 -106 69t-29 238v22q0 174 30.5 244t109.5 70q46 0 76 -22.5t55 -74.5v379q0 87 -16 121.5t-58 34.5t-58 -34.5t-16 -121.5v-118h-123v108q0 152 42 215.5t157 63.5q106 0 150.5 -61.5
t44.5 -217.5v-899h-97zM326 356q0 152 -78 152q-40 0 -55 -34.5t-15 -121.5v-104q0 -80 15 -117t51 -37q39 0 60.5 39t21.5 137v86zM336 1315h-109l-127 207h146z" />
    <glyph glyph-name="aacute" unicode="&#xe1;" horiz-adv-x="514" 
d="M352 0l-18 94q-11 -20 -16 -28.5t-19 -27.5t-27 -28.5t-35 -17.5t-47 -8q-77 0 -106 69t-29 238v22q0 174 30.5 244t109.5 70q46 0 76 -22.5t55 -74.5v379q0 87 -16 121.5t-58 34.5t-58 -34.5t-16 -121.5v-118h-123v108q0 152 42 215.5t157 63.5q106 0 150.5 -61.5
t44.5 -217.5v-899h-97zM326 356q0 152 -78 152q-40 0 -55 -34.5t-15 -121.5v-104q0 -80 15 -117t51 -37q39 0 60.5 39t21.5 137v86zM174 1315l90 207h146l-127 -207h-109z" />
    <glyph glyph-name="acircumflex" unicode="&#xe2;" horiz-adv-x="514" 
d="M352 0l-18 94q-11 -20 -16 -28.5t-19 -27.5t-27 -28.5t-35 -17.5t-47 -8q-77 0 -106 69t-29 238v22q0 174 30.5 244t109.5 70q46 0 76 -22.5t55 -74.5v379q0 87 -16 121.5t-58 34.5t-58 -34.5t-16 -121.5v-118h-123v108q0 152 42 215.5t157 63.5q106 0 150.5 -61.5
t44.5 -217.5v-899h-97zM326 356q0 152 -78 152q-40 0 -55 -34.5t-15 -121.5v-104q0 -80 15 -117t51 -37q39 0 60.5 39t21.5 137v86zM334 1315l-80 127l-74 -127h-114l116 207h144l116 -207h-108z" />
    <glyph glyph-name="atilde" unicode="&#xe3;" horiz-adv-x="514" 
d="M352 0l-18 94q-11 -20 -16 -28.5t-19 -27.5t-27 -28.5t-35 -17.5t-47 -8q-77 0 -106 69t-29 238v22q0 174 30.5 244t109.5 70q46 0 76 -22.5t55 -74.5v379q0 87 -16 121.5t-58 34.5t-58 -34.5t-16 -121.5v-118h-123v108q0 152 42 215.5t157 63.5q106 0 150.5 -61.5
t44.5 -217.5v-899h-97zM326 356q0 152 -78 152q-40 0 -55 -34.5t-15 -121.5v-104q0 -80 15 -117t51 -37q39 0 60.5 39t21.5 137v86zM455 1442q-10 -59 -45.5 -94t-83.5 -35q-29 0 -67.5 17.5t-55.5 17.5q-12 0 -19 -5.5t-9.5 -10.5t-6.5 -17h-115q0 11 6 30t19 42.5t39 40
t59 16.5q31 0 73.5 -15.5t55.5 -15.5q19 0 27 14q4 8 4 15h119z" />
    <glyph glyph-name="adieresis" unicode="&#xe4;" horiz-adv-x="514" 
d="M352 0l-18 94q-11 -20 -16 -28.5t-19 -27.5t-27 -28.5t-35 -17.5t-47 -8q-77 0 -106 69t-29 238v22q0 174 30.5 244t109.5 70q46 0 76 -22.5t55 -74.5v379q0 87 -16 121.5t-58 34.5t-58 -34.5t-16 -121.5v-118h-123v108q0 152 42 215.5t157 63.5q106 0 150.5 -61.5
t44.5 -217.5v-899h-97zM326 356q0 152 -78 152q-40 0 -55 -34.5t-15 -121.5v-104q0 -80 15 -117t51 -37q39 0 60.5 39t21.5 137v86zM121 1294q-37 0 -62.5 25.5t-25.5 62.5t25.5 62.5t62.5 25.5t62.5 -25.5t25.5 -62.5t-25.5 -62.5t-62.5 -25.5zM389 1294q-37 0 -62.5 25.5
t-25.5 62.5t25.5 62.5t62.5 25.5t62.5 -25.5t25.5 -62.5t-25.5 -62.5t-62.5 -25.5z" />
    <glyph glyph-name="aring" unicode="&#xe5;" horiz-adv-x="514" 
d="M352 0l-18 94q-11 -20 -16 -28.5t-19 -27.5t-27 -28.5t-35 -17.5t-47 -8q-77 0 -106 69t-29 238v22q0 174 30.5 244t109.5 70q46 0 76 -22.5t55 -74.5v379q0 87 -16 121.5t-58 34.5t-58 -34.5t-16 -121.5v-118h-123v108q0 152 42 215.5t157 63.5q106 0 150.5 -61.5
t44.5 -217.5v-899h-97zM326 356q0 152 -78 152q-40 0 -55 -34.5t-15 -121.5v-104q0 -80 15 -117t51 -37q39 0 60.5 39t21.5 137v86zM328 1399q0 31 -21.5 52.5t-52.5 21.5t-52.5 -21.5t-21.5 -52.5t21.5 -52.5t52.5 -21.5t52.5 21.5t21.5 52.5zM254 1268q-56 0 -93.5 38
t-37.5 93t37.5 93t93.5 38t93.5 -38t37.5 -93t-37.5 -93t-93.5 -38z" />
    <glyph glyph-name="ae" unicode="&#xe6;" horiz-adv-x="774" 
d="M596 383h123v-158q0 -136 -52.5 -188.5t-144.5 -52.5q-71 0 -116.5 28t-67.5 99q-23 -59 -56 -93t-92 -34q-77 0 -106 69t-29 238v22q0 174 30.5 244t109.5 70q46 0 76 -22.5t55 -74.5v379q0 87 -16 121.5t-58 34.5t-58 -34.5t-16 -121.5v-118h-123v108q0 152 42 215.5
t157 63.5q48 0 79.5 -14t53.5 -50q24 38 56 51t79 13q93 0 145 -52.5t52 -189.5v-401h-270v-342q6 -97 73 -97q74 0 74 115v172zM596 950q0 115 -74 115q-73 0 -73 -115v-305h147v305zM326 356q0 152 -78 152q-40 0 -55 -34.5t-15 -121.5v-104q0 -80 15 -117t51 -37
q39 0 60.5 39t21.5 137v86z" />
    <glyph glyph-name="ccedilla" unicode="&#xe7;" horiz-adv-x="501" 
d="M139 -246q32 -18 68 -18q39 0 59.5 18t20.5 45q0 25 -21.5 44.5t-60.5 19.5q-15 0 -21 -2l31 125q-75 8 -116.5 63t-41.5 176v711q0 137 52 189.5t145 52.5t145 -52.5t52 -189.5v-201h-123v215q0 115 -74 115t-74 -115v-739q0 -115 74 -115t74 115v244h123v-230
q0 -220 -152 -237l-16 -82q44 0 77 -34t33 -81q0 -56 -46.5 -97.5t-117.5 -41.5q-52 0 -110 22z" />
    <glyph glyph-name="egrave" unicode="&#xe8;" horiz-adv-x="512" 
d="M334 383h123v-158q0 -136 -52.5 -188.5t-144.5 -52.5t-144.5 52.5t-52.5 188.5v711q0 137 52 189.5t145 52.5t145 -52.5t52 -189.5v-401h-271v-324q0 -115 74 -115t74 115v172zM334 950q0 115 -74 115t-74 -115v-305h148v305zM332 1315h-109l-127 207h146z" />
    <glyph glyph-name="eacute" unicode="&#xe9;" horiz-adv-x="512" 
d="M334 383h123v-158q0 -136 -52.5 -188.5t-144.5 -52.5t-144.5 52.5t-52.5 188.5v711q0 137 52 189.5t145 52.5t145 -52.5t52 -189.5v-401h-271v-324q0 -115 74 -115t74 115v172zM334 950q0 115 -74 115t-74 -115v-305h148v305zM182 1315l90 207h146l-127 -207h-109z" />
    <glyph glyph-name="ecircumflex" unicode="&#xea;" horiz-adv-x="512" 
d="M334 383h123v-158q0 -136 -52.5 -188.5t-144.5 -52.5t-144.5 52.5t-52.5 188.5v711q0 137 52 189.5t145 52.5t145 -52.5t52 -189.5v-401h-271v-324q0 -115 74 -115t74 115v172zM334 950q0 115 -74 115t-74 -115v-305h148v305zM338 1315l-80 127l-74 -127h-114l116 207
h144l116 -207h-108z" />
    <glyph glyph-name="edieresis" unicode="&#xeb;" horiz-adv-x="509" 
d="M332 383h123v-158q0 -136 -52.5 -188.5t-144.5 -52.5t-144.5 52.5t-52.5 188.5v711q0 137 52 189.5t145 52.5t145 -52.5t52 -189.5v-401h-271v-324q0 -115 74 -115t74 115v172zM332 950q0 115 -74 115t-74 -115v-305h148v305zM123 1294q-37 0 -62.5 25.5t-25.5 62.5
t25.5 62.5t62.5 25.5t62.5 -25.5t25.5 -62.5t-25.5 -62.5t-62.5 -25.5zM391 1294q-37 0 -62.5 25.5t-25.5 62.5t25.5 62.5t62.5 25.5t62.5 -25.5t25.5 -62.5t-25.5 -62.5t-62.5 -25.5z" />
    <glyph glyph-name="igrave" unicode="&#xec;" horiz-adv-x="258" 
d="M68 0v1161h122v-1161h-122zM205 1315h-109l-127 207h146z" />
    <glyph glyph-name="iacute" unicode="&#xed;" horiz-adv-x="258" 
d="M68 0v1161h122v-1161h-122zM63 1315l91 207h145l-127 -207h-109z" />
    <glyph glyph-name="icircumflex" unicode="&#xee;" horiz-adv-x="258" 
d="M68 0v1161h122v-1161h-122zM209 1315l-80 127l-74 -127h-114l116 207h144l116 -207h-108z" />
    <glyph glyph-name="idieresis" unicode="&#xef;" horiz-adv-x="258" 
d="M68 0v1161h122v-1161h-122zM-4 1294q-37 0 -62.5 25.5t-25.5 62.5t25.5 62.5t62.5 25.5t62.5 -25.5t25.5 -62.5t-25.5 -62.5t-62.5 -25.5zM264 1294q-37 0 -62.5 25.5t-25.5 62.5t25.5 62.5t62.5 25.5t62.5 -25.5t25.5 -62.5t-25.5 -62.5t-62.5 -25.5z" />
    <glyph glyph-name="eth" unicode="&#xf0;" horiz-adv-x="522" 
d="M63 932q0 130 37.5 189t94.5 59q48 0 89 -34t54 -75q-5 120 -16.5 181t-40.5 100l-84 -82l-52 51l84 82q-54 40 -114 57l45 90q43 -15 108 -49l37 -24l74 73l51 -51l-72 -69q54 -62 76.5 -166.5t22.5 -298.5v-740q0 -136 -52.5 -188.5t-144.5 -52.5t-144.5 52.5
t-52.5 188.5v707zM334 909q0 158 -80 158q-68 0 -68 -137v-719q0 -115 74 -115t74 115v698z" />
    <glyph glyph-name="ntilde" unicode="&#xf1;" horiz-adv-x="528" 
d="M340 0v913q0 80 -15 117t-51 37q-39 0 -60 -39t-21 -137v-891h-123v1161h96l18 -94q14 26 21 37.5t25.5 33t42.5 31t55 9.5q77 0 106 -69.5t29 -238.5v-870h-123zM465 1442q-10 -59 -45.5 -94t-83.5 -35q-29 0 -67.5 17.5t-55.5 17.5q-12 0 -19 -5.5t-9.5 -10.5t-6.5 -17
h-115q0 11 6 30t19 42.5t39 40t59 16.5q30 0 73 -15.5t56 -15.5q19 0 27 14q4 8 4 15h119z" />
    <glyph glyph-name="ograve" unicode="&#xf2;" horiz-adv-x="520" 
d="M63 936q0 137 52 189.5t145 52.5t145 -52.5t52 -189.5v-711q0 -136 -52.5 -188.5t-144.5 -52.5t-144.5 52.5t-52.5 188.5v711zM334 950q0 115 -74 115t-74 -115v-739q0 -115 74 -115t74 115v739zM336 1315h-109l-127 207h146z" />
    <glyph glyph-name="oacute" unicode="&#xf3;" horiz-adv-x="520" 
d="M63 936q0 137 52 189.5t145 52.5t145 -52.5t52 -189.5v-711q0 -136 -52.5 -188.5t-144.5 -52.5t-144.5 52.5t-52.5 188.5v711zM334 950q0 115 -74 115t-74 -115v-739q0 -115 74 -115t74 115v739zM182 1315l90 207h146l-127 -207h-109z" />
    <glyph glyph-name="ocircumflex" unicode="&#xf4;" horiz-adv-x="520" 
d="M63 936q0 137 52 189.5t145 52.5t145 -52.5t52 -189.5v-711q0 -136 -52.5 -188.5t-144.5 -52.5t-144.5 52.5t-52.5 188.5v711zM334 950q0 115 -74 115t-74 -115v-739q0 -115 74 -115t74 115v739zM340 1315l-80 127l-74 -127h-114l116 207h144l117 -207h-109z" />
    <glyph glyph-name="otilde" unicode="&#xf5;" horiz-adv-x="518" 
d="M61 936q0 137 52 189.5t145 52.5t145 -52.5t52 -189.5v-711q0 -136 -52.5 -188.5t-144.5 -52.5t-144.5 52.5t-52.5 188.5v711zM332 950q0 115 -74 115t-74 -115v-739q0 -115 74 -115t74 115v739zM459 1442q-10 -59 -45.5 -94t-83.5 -35q-30 0 -68 17.5t-55 17.5
q-12 0 -19 -5.5t-9.5 -10.5t-6.5 -17h-115q0 11 6 30t19 42.5t39 40t59 16.5q30 0 73 -15.5t56 -15.5q19 0 27 14q4 8 4 15h119z" />
    <glyph glyph-name="odieresis" unicode="&#xf6;" horiz-adv-x="516" 
d="M61 936q0 137 52 189.5t145 52.5t145 -52.5t52 -189.5v-711q0 -136 -52.5 -188.5t-144.5 -52.5t-144.5 52.5t-52.5 188.5v711zM332 950q0 115 -74 115t-74 -115v-739q0 -115 74 -115t74 115v739zM125 1294q-37 0 -62.5 25.5t-25.5 62.5t25.5 62.5t62.5 25.5t62.5 -25.5
t25.5 -62.5t-25.5 -62.5t-62.5 -25.5zM393 1294q-37 0 -62.5 25.5t-25.5 62.5t25.5 62.5t62.5 25.5t62.5 -25.5t25.5 -62.5t-25.5 -62.5t-62.5 -25.5z" />
    <glyph glyph-name="divide" unicode="&#xf7;" horiz-adv-x="864" 
d="M518 444q0 -35 -25.5 -60.5t-60.5 -25.5t-60.5 25.5t-25.5 60.5t25.5 60.5t60.5 25.5t60.5 -25.5t25.5 -60.5zM518 1042q0 -35 -25.5 -60.5t-60.5 -25.5t-60.5 25.5t-25.5 60.5t25.5 60.5t60.5 25.5t60.5 -25.5t25.5 -60.5zM82 688v111h700v-111h-700z" />
    <glyph glyph-name="oslash" unicode="&#xf8;" horiz-adv-x="520" 
d="M125 -109l18 121q-80 51 -80 213v711q0 137 52 189.5t145 52.5q27 0 62 -7l14 91h63l-18 -117q76 -53 76 -209v-711q0 -136 -52.5 -188.5t-144.5 -52.5q-30 0 -57 6l-15 -99h-63zM303 1051q-20 14 -43 14q-74 0 -74 -115v-741zM334 915l-113 -809q13 -10 39 -10
q74 0 74 115v704z" />
    <glyph glyph-name="ugrave" unicode="&#xf9;" horiz-adv-x="528" 
d="M362 0l-18 94q-14 -26 -21 -37t-25 -32.5t-42 -31t-55 -9.5q-77 0 -106 69t-29 238v870h122v-913q0 -80 15 -117t51 -37q39 0 60.5 39t21.5 137v891h123v-1161h-97zM332 1315h-109l-127 207h146z" />
    <glyph glyph-name="uacute" unicode="&#xfa;" horiz-adv-x="528" 
d="M362 0l-18 94q-14 -26 -21 -37t-25 -32.5t-42 -31t-55 -9.5q-77 0 -106 69t-29 238v870h122v-913q0 -80 15 -117t51 -37q39 0 60.5 39t21.5 137v891h123v-1161h-97zM188 1315l91 207h145l-127 -207h-109z" />
    <glyph glyph-name="ucircumflex" unicode="&#xfb;" horiz-adv-x="528" 
d="M362 0l-18 94q-14 -26 -21 -37t-25 -32.5t-42 -31t-55 -9.5q-77 0 -106 69t-29 238v870h122v-913q0 -80 15 -117t51 -37q39 0 60.5 39t21.5 137v891h123v-1161h-97zM344 1315l-80 127l-74 -127h-114l117 207h143l117 -207h-109z" />
    <glyph glyph-name="udieresis" unicode="&#xfc;" horiz-adv-x="526" 
d="M362 0l-18 94q-14 -26 -21 -37t-25 -32.5t-42 -31t-55 -9.5q-77 0 -106 69t-29 238v870h122v-913q0 -80 15 -117t51 -37q39 0 60.5 39t21.5 137v891h123v-1161h-97zM131 1294q-37 0 -62.5 25.5t-25.5 62.5t25.5 62.5t62.5 25.5t62.5 -25.5t25.5 -62.5t-25.5 -62.5
t-62.5 -25.5zM399 1294q-37 0 -62.5 25.5t-25.5 62.5t25.5 62.5t62.5 25.5t62.5 -25.5t25.5 -62.5t-25.5 -62.5t-62.5 -25.5z" />
    <glyph glyph-name="yacute" unicode="&#xfd;" horiz-adv-x="501" 
d="M123 -410l63 347l-163 1224h131l100 -964l106 964h132l-238 -1571h-131zM186 1315l90 207h146l-127 -207h-109z" />
    <glyph glyph-name="thorn" unicode="&#xfe;" horiz-adv-x="524" 
d="M190 -408h-122v1977h122v-488q28 51 47 67q35 30 89 30q77 0 106 -69.5t29 -238.5v-579q0 -169 -29 -238t-106 -69q-87 0 -136 92v-484zM190 270q0 -98 21.5 -137t60.5 -39q36 0 51 37t15 117v665q0 80 -15 117t-51 37q-39 0 -60.5 -39t-21.5 -137v-621z" />
    <glyph glyph-name="ydieresis" unicode="&#xff;" horiz-adv-x="501" 
d="M123 -410l63 347l-163 1224h131l100 -964l106 964h132l-238 -1571h-131zM121 1294q-37 0 -62.5 25.5t-25.5 62.5t25.5 62.5t62.5 25.5t62.5 -25.5t25.5 -62.5t-25.5 -62.5t-62.5 -25.5zM389 1294q-37 0 -62.5 25.5t-25.5 62.5t25.5 62.5t62.5 25.5t62.5 -25.5t25.5 -62.5
t-25.5 -62.5t-62.5 -25.5z" />
    <glyph glyph-name="Amacron" unicode="&#x100;" horiz-adv-x="589" 
d="M453 0l-45 389h-224l-45 -389h-127l211 1571h144l213 -1571h-127zM295 1346l-94 -840h190zM88 1722v103h414v-103h-414z" />
    <glyph glyph-name="amacron" unicode="&#x101;" horiz-adv-x="514" 
d="M352 0l-18 94q-11 -20 -16 -28.5t-19 -27.5t-27 -28.5t-35 -17.5t-47 -8q-77 0 -106 69t-29 238v22q0 174 30.5 244t109.5 70q46 0 76 -22.5t55 -74.5v379q0 87 -16 121.5t-58 34.5t-58 -34.5t-16 -121.5v-118h-123v108q0 152 42 215.5t157 63.5q106 0 150.5 -61.5
t44.5 -217.5v-899h-97zM326 356q0 152 -78 152q-40 0 -55 -34.5t-15 -121.5v-104q0 -80 15 -117t51 -37q39 0 60.5 39t21.5 137v86zM47 1315v102h414v-102h-414z" />
    <glyph glyph-name="Abreve" unicode="&#x102;" horiz-adv-x="589" 
d="M453 0l-45 389h-224l-45 -389h-127l211 1571h144l213 -1571h-127zM295 1346l-94 -840h190zM485 1892q0 -86 -54.5 -133t-133.5 -47t-135 47t-56 133h82q0 -46 29 -71t80 -25q49 0 79 25t30 71h79z" />
    <glyph glyph-name="abreve" unicode="&#x103;" horiz-adv-x="514" 
d="M352 0l-18 94q-11 -20 -16 -28.5t-19 -27.5t-27 -28.5t-35 -17.5t-47 -8q-77 0 -106 69t-29 238v22q0 174 30.5 244t109.5 70q46 0 76 -22.5t55 -74.5v379q0 87 -16 121.5t-58 34.5t-58 -34.5t-16 -121.5v-118h-123v108q0 152 42 215.5t157 63.5q106 0 150.5 -61.5
t44.5 -217.5v-899h-97zM326 356q0 152 -78 152q-40 0 -55 -34.5t-15 -121.5v-104q0 -80 15 -117t51 -37q39 0 60.5 39t21.5 137v86zM442 1485q0 -86 -54.5 -133t-133.5 -47t-135 47t-56 133h82q0 -46 29 -71t80 -25q49 0 78.5 25t29.5 71h80z" />
    <glyph glyph-name="Aogonek" unicode="&#x104;" horiz-adv-x="587" 
d="M510 -352q-89 10 -136.5 60.5t-47.5 117.5q0 114 125 172l-45 391h-224l-45 -389h-127l211 1571h144l213 -1571q-80 -19 -116 -65t-36 -103q0 -89 127 -121zM293 1346l-94 -840h190z" />
    <glyph glyph-name="aogonek" unicode="&#x105;" horiz-adv-x="514" 
d="M416 -352q-89 10 -137 60.5t-48 117.5q0 116 129 174l-26 94q-11 -20 -16 -28.5t-19 -27.5t-27 -28.5t-35 -17.5t-47 -8q-77 0 -106 69t-29 238v22q0 174 30.5 244t109.5 70q46 0 76 -22.5t55 -74.5v379q0 87 -16 121.5t-58 34.5t-58 -34.5t-16 -121.5v-118h-123v108
q0 152 42 215.5t157 63.5q106 0 150.5 -61.5t44.5 -217.5v-899q-117 -76 -117 -168q0 -89 127 -121zM326 356q0 152 -78 152q-40 0 -55 -34.5t-15 -121.5v-104q0 -80 15 -117t51 -37q39 0 60.5 39t21.5 137v86z" />
    <glyph glyph-name="Cacute" unicode="&#x106;" horiz-adv-x="612" 
d="M430 524h127v-223q0 -95 -17.5 -161t-51.5 -101.5t-75.5 -50.5t-97.5 -15t-97 15t-75 50.5t-51.5 101.5t-17.5 161v967q0 95 17.5 161t51.5 101.5t75 50t97 14.5t97 -14.5t75.5 -50t52 -101.5t17.5 -161v-244h-127v299q0 78 -32 117t-83 39q-50 0 -82 -39t-32 -117v-1077
q0 -78 32 -117t82 -39q51 0 83 39t32 117v278zM244 1722l90 207h145l-127 -207h-108z" />
    <glyph glyph-name="cacute" unicode="&#x107;" horiz-adv-x="507" 
d="M334 455h123v-230q0 -136 -52.5 -188.5t-144.5 -52.5t-144.5 52.5t-52.5 188.5v711q0 137 52 189.5t145 52.5t145 -52.5t52 -189.5v-201h-123v215q0 115 -74 115t-74 -115v-739q0 -115 74 -115t74 115v244zM178 1315l90 207h146l-127 -207h-109z" />
    <glyph glyph-name="Ccircumflex" unicode="&#x108;" horiz-adv-x="612" 
d="M430 524h127v-223q0 -95 -17.5 -161t-51.5 -101.5t-75.5 -50.5t-97.5 -15t-97 15t-75 50.5t-51.5 101.5t-17.5 161v967q0 95 17.5 161t51.5 101.5t75 50t97 14.5t97 -14.5t75.5 -50t52 -101.5t17.5 -161v-244h-127v299q0 78 -32 117t-83 39q-50 0 -82 -39t-32 -117v-1077
q0 -78 32 -117t82 -39q51 0 83 39t32 117v278zM395 1722l-80 127l-73 -127h-115l117 207h143l117 -207h-109z" />
    <glyph glyph-name="ccircumflex" unicode="&#x109;" horiz-adv-x="507" 
d="M334 455h123v-230q0 -136 -52.5 -188.5t-144.5 -52.5t-144.5 52.5t-52.5 188.5v711q0 137 52 189.5t145 52.5t145 -52.5t52 -189.5v-201h-123v215q0 115 -74 115t-74 -115v-739q0 -115 74 -115t74 115v244zM338 1315l-80 127l-74 -127h-114l116 207h144l116 -207h-108z
" />
    <glyph glyph-name="Cdotaccent" unicode="&#x10a;" horiz-adv-x="612" 
d="M430 524h127v-223q0 -95 -17.5 -161t-51.5 -101.5t-75.5 -50.5t-97.5 -15t-97 15t-75 50.5t-51.5 101.5t-17.5 161v967q0 95 17.5 161t51.5 101.5t75 50t97 14.5t97 -14.5t75.5 -50t52 -101.5t17.5 -161v-244h-127v299q0 78 -32 117t-83 39q-50 0 -82 -39t-32 -117v-1077
q0 -78 32 -117t82 -39q51 0 83 39t32 117v278zM315 1702q-37 0 -62.5 25.5t-25.5 62.5t25.5 62.5t62.5 25.5t62.5 -25.5t25.5 -62.5t-25.5 -62.5t-62.5 -25.5z" />
    <glyph glyph-name="cdotaccent" unicode="&#x10b;" horiz-adv-x="507" 
d="M334 455h123v-230q0 -136 -52.5 -188.5t-144.5 -52.5t-144.5 52.5t-52.5 188.5v711q0 137 52 189.5t145 52.5t145 -52.5t52 -189.5v-201h-123v215q0 115 -74 115t-74 -115v-739q0 -115 74 -115t74 115v244zM258 1294q-37 0 -62.5 25.5t-25.5 62.5t25.5 62.5t62.5 25.5
t62.5 -25.5t25.5 -62.5t-25.5 -62.5t-62.5 -25.5z" />
    <glyph glyph-name="Ccaron" unicode="&#x10c;" horiz-adv-x="612" 
d="M430 524h127v-223q0 -95 -17.5 -161t-51.5 -101.5t-75.5 -50.5t-97.5 -15t-97 15t-75 50.5t-51.5 101.5t-17.5 161v967q0 95 17.5 161t51.5 101.5t75 50t97 14.5t97 -14.5t75.5 -50t52 -101.5t17.5 -161v-244h-127v299q0 78 -32 117t-83 39q-50 0 -82 -39t-32 -117v-1077
q0 -78 32 -117t82 -39q51 0 83 39t32 117v278zM244 1722l-117 207h115l73 -127l80 127h109l-117 -207h-143z" />
    <glyph glyph-name="ccaron" unicode="&#x10d;" horiz-adv-x="507" 
d="M334 455h123v-230q0 -136 -52.5 -188.5t-144.5 -52.5t-144.5 52.5t-52.5 188.5v711q0 137 52 189.5t145 52.5t145 -52.5t52 -189.5v-201h-123v215q0 115 -74 115t-74 -115v-739q0 -115 74 -115t74 115v244zM186 1315l-116 207h114l74 -127l80 127h108l-116 -207h-144z
" />
    <glyph glyph-name="Dcaron" unicode="&#x10e;" horiz-adv-x="626" 
d="M80 0v1569h194q80 0 128.5 -12.5t84.5 -48t51 -100t15 -167.5v-913q0 -103 -15 -167.5t-51 -100t-84.5 -48t-128.5 -12.5h-194zM426 1286q0 85 -27 120.5t-88 35.5h-104v-1315h104q61 0 88 35.5t27 120.5v1003zM227 1722l-116 207h114l74 -127l80 127h108l-116 -207h-144
z" />
    <glyph glyph-name="dcaron" unicode="&#x10f;" horiz-adv-x="581" 
d="M504 1102l71 467h150l-152 -467h-69zM358 0l-18 94q-14 -26 -21 -37t-25 -32.5t-42 -31t-55 -9.5q-77 0 -106.5 69t-29.5 238v579q0 169 29.5 238.5t106.5 69.5q92 0 135 -111v502h123v-1569h-97zM332 891q0 98 -21.5 137t-60.5 39q-36 0 -51 -37t-15 -117v-665
q0 -80 15 -117t51 -37q39 0 60.5 39t21.5 137v621z" />
    <glyph glyph-name="Dcroat" unicode="&#x110;" horiz-adv-x="626" 
d="M80 0v727h-68v127h68v715h194q80 0 128.5 -12.5t84.5 -48t51 -100t15 -167.5v-913q0 -103 -15 -167.5t-51 -100t-84.5 -48t-128.5 -12.5h-194zM426 1296q0 85 -27 120.5t-88 35.5h-104v-598h123v-127h-123v-610h104q61 0 88 35t27 120v1024z" />
    <glyph glyph-name="dcroat" unicode="&#x111;" horiz-adv-x="522" 
d="M358 0l-18 94q-14 -26 -21 -37t-25 -32.5t-42 -31t-55 -9.5q-77 0 -106.5 69t-29.5 238v579q0 169 29.5 238.5t106.5 69.5q92 0 135 -111v270h-193v107h193v125h123v-125h71v-107h-71v-1337h-97zM332 891q0 98 -21.5 137t-60.5 39q-36 0 -51 -37t-15 -117v-665
q0 -80 15 -117t51 -37q39 0 60.5 39t21.5 137v621z" />
    <glyph glyph-name="Emacron" unicode="&#x112;" horiz-adv-x="546" 
d="M80 0v1569h418v-127h-291v-588h276v-127h-276v-600h291v-127h-418zM78 1722v103h414v-103h-414z" />
    <glyph glyph-name="emacron" unicode="&#x113;" horiz-adv-x="509" 
d="M332 383h123v-158q0 -136 -52.5 -188.5t-144.5 -52.5t-144.5 52.5t-52.5 188.5v711q0 137 52 189.5t145 52.5t145 -52.5t52 -189.5v-401h-271v-324q0 -115 74 -115t74 115v172zM332 950q0 115 -74 115t-74 -115v-305h148v305zM49 1315v102h414v-102h-414z" />
    <glyph glyph-name="Ebreve" unicode="&#x114;" horiz-adv-x="546" 
d="M80 0v1569h418v-127h-291v-588h276v-127h-276v-600h291v-127h-418zM473 1892q0 -86 -54.5 -133t-133.5 -47t-135 47t-56 133h82q0 -46 29 -71t80 -25q49 0 78.5 25t29.5 71h80z" />
    <glyph glyph-name="ebreve" unicode="&#x115;" horiz-adv-x="512" 
d="M334 383h123v-158q0 -136 -52.5 -188.5t-144.5 -52.5t-144.5 52.5t-52.5 188.5v711q0 137 52 189.5t145 52.5t145 -52.5t52 -189.5v-401h-271v-324q0 -115 74 -115t74 115v172zM334 950q0 115 -74 115t-74 -115v-305h148v305zM449 1485q0 -86 -55 -133t-134 -47
t-134.5 47t-55.5 133h82q0 -46 29 -71t79 -25q49 0 79 25t30 71h80z" />
    <glyph glyph-name="Edotaccent" unicode="&#x116;" horiz-adv-x="546" 
d="M80 0v1569h418v-127h-291v-588h276v-127h-276v-600h291v-127h-418zM283 1702q-37 0 -62.5 25.5t-25.5 62.5t25.5 62.5t62.5 25.5t62.5 -25.5t25.5 -62.5t-25.5 -62.5t-62.5 -25.5z" />
    <glyph glyph-name="edotaccent" unicode="&#x117;" horiz-adv-x="512" 
d="M334 383h123v-158q0 -136 -52.5 -188.5t-144.5 -52.5t-144.5 52.5t-52.5 188.5v711q0 137 52 189.5t145 52.5t145 -52.5t52 -189.5v-401h-271v-324q0 -115 74 -115t74 115v172zM334 950q0 115 -74 115t-74 -115v-305h148v305zM258 1294q-37 0 -62.5 25.5t-25.5 62.5
t25.5 62.5t62.5 25.5t62.5 -25.5t25.5 -62.5t-25.5 -62.5t-62.5 -25.5z" />
    <glyph glyph-name="Eogonek" unicode="&#x118;" horiz-adv-x="546" 
d="M410 -352q-89 10 -137 60.5t-48 117.5q0 116 129 174h-274v1569h418v-127h-291v-588h276v-127h-276v-600h291v-127h-58q-114 -79 -114 -168t127 -121z" />
    <glyph glyph-name="eogonek" unicode="&#x119;" horiz-adv-x="512" 
d="M326 -350q-89 10 -137 60.5t-48 117.5q0 99 95 156q-173 11 -173 241v711q0 137 52 189.5t145 52.5t145 -52.5t52 -189.5v-401h-271v-324q0 -115 74 -115t74 115v172h123v-158q0 -180 -105 -225q-110 -76 -110 -166q0 -89 127 -121zM334 950q0 115 -74 115t-74 -115v-305
h148v305z" />
    <glyph glyph-name="Ecaron" unicode="&#x11a;" horiz-adv-x="546" 
d="M80 0v1569h418v-127h-291v-588h276v-127h-276v-600h291v-127h-418zM217 1722l-117 207h115l74 -127l80 127h108l-117 -207h-143z" />
    <glyph glyph-name="ecaron" unicode="&#x11b;" horiz-adv-x="512" 
d="M334 383h123v-158q0 -136 -52.5 -188.5t-144.5 -52.5t-144.5 52.5t-52.5 188.5v711q0 137 52 189.5t145 52.5t145 -52.5t52 -189.5v-401h-271v-324q0 -115 74 -115t74 115v172zM334 950q0 115 -74 115t-74 -115v-305h148v305zM186 1315l-116 207h114l74 -127l80 127h108
l-116 -207h-144z" />
    <glyph glyph-name="Gcircumflex" unicode="&#x11c;" horiz-adv-x="643" 
d="M451 647h-138v123h265v-469q0 -96 -17.5 -161.5t-52.5 -101t-78.5 -50.5t-103.5 -15t-103.5 15t-78.5 50.5t-52.5 101t-17.5 161.5v967q0 96 17.5 161.5t52.5 101t78.5 50t103.5 14.5t103.5 -14.5t78.5 -50t52.5 -101t17.5 -161.5v-246h-127v301q0 79 -33.5 117.5
t-91.5 38.5t-91.5 -38.5t-33.5 -117.5v-1077q0 -79 33.5 -117.5t91.5 -38.5t91.5 38.5t33.5 117.5v401zM406 1722l-80 127l-74 -127h-115l117 207h143l117 -207h-108z" />
    <glyph glyph-name="gcircumflex" unicode="&#x11d;" horiz-adv-x="516" 
d="M338 1315l-80 127l-74 -127h-114l116 207h144l116 -207h-108zM455 -123q0 -162 -49.5 -226.5t-157.5 -64.5q-113 0 -160 68.5t-47 239.5v143q0 51 10 90t20 57t33 52q-28 54 -28 94q0 68 63 147q-43 37 -60.5 82.5t-17.5 138.5v193q0 161 42 224t141 63q66 0 102 -27h166
v-76h-98q41 -68 41 -184v-193q0 -143 -47.5 -202.5t-143.5 -59.5q-43 0 -55 4q-33 -23 -33 -67q0 -27 19.5 -49.5t68.5 -22.5q43 0 73 -8.5t59 -34t44 -81t15 -140.5v-160zM332 909q0 87 -16 121.5t-58 34.5t-58 -34.5t-16 -121.5v-209q0 -87 16 -121t58 -34t58 34t16 121
v209zM332 35q0 93 -17.5 124t-62.5 31q-53 0 -70.5 -35.5t-17.5 -129.5v-170q0 -85 20 -120.5t64 -35.5t64 35.5t20 120.5v180z" />
    <glyph glyph-name="Gbreve" unicode="&#x11e;" horiz-adv-x="643" 
d="M451 647h-138v123h265v-469q0 -96 -17.5 -161.5t-52.5 -101t-78.5 -50.5t-103.5 -15t-103.5 15t-78.5 50.5t-52.5 101t-17.5 161.5v967q0 96 17.5 161.5t52.5 101t78.5 50t103.5 14.5t103.5 -14.5t78.5 -50t52.5 -101t17.5 -161.5v-246h-127v301q0 79 -33.5 117.5
t-91.5 38.5t-91.5 -38.5t-33.5 -117.5v-1077q0 -79 33.5 -117.5t91.5 -38.5t91.5 38.5t33.5 117.5v401zM520 1892q0 -86 -54.5 -133t-133.5 -47t-135 47t-56 133h82q0 -46 29 -71t80 -25q49 0 78.5 25t29.5 71h80z" />
    <glyph glyph-name="gbreve" unicode="&#x11f;" horiz-adv-x="516" 
d="M451 1485q0 -86 -55 -133t-134 -47t-134.5 47t-55.5 133h82q0 -46 29 -71t79 -25q49 0 79 25t30 71h80zM455 -123q0 -162 -49.5 -226.5t-157.5 -64.5q-113 0 -160 68.5t-47 239.5v143q0 51 10 90t20 57t33 52q-28 54 -28 94q0 68 63 147q-43 37 -60.5 82.5t-17.5 138.5
v193q0 161 42 224t141 63q66 0 102 -27h166v-76h-98q41 -68 41 -184v-193q0 -143 -47.5 -202.5t-143.5 -59.5q-43 0 -55 4q-33 -23 -33 -67q0 -27 19.5 -49.5t68.5 -22.5q43 0 73 -8.5t59 -34t44 -81t15 -140.5v-160zM332 909q0 87 -16 121.5t-58 34.5t-58 -34.5t-16 -121.5
v-209q0 -87 16 -121t58 -34t58 34t16 121v209zM332 35q0 93 -17.5 124t-62.5 31q-53 0 -70.5 -35.5t-17.5 -129.5v-170q0 -85 20 -120.5t64 -35.5t64 35.5t20 120.5v180z" />
    <glyph glyph-name="Gdotaccent" unicode="&#x120;" horiz-adv-x="643" 
d="M451 647h-138v123h265v-469q0 -96 -17.5 -161.5t-52.5 -101t-78.5 -50.5t-103.5 -15t-103.5 15t-78.5 50.5t-52.5 101t-17.5 161.5v967q0 96 17.5 161.5t52.5 101t78.5 50t103.5 14.5t103.5 -14.5t78.5 -50t52.5 -101t17.5 -161.5v-246h-127v301q0 79 -33.5 117.5
t-91.5 38.5t-91.5 -38.5t-33.5 -117.5v-1077q0 -79 33.5 -117.5t91.5 -38.5t91.5 38.5t33.5 117.5v401zM326 1702q-37 0 -62.5 25.5t-25.5 62.5t25.5 62.5t62.5 25.5t62.5 -25.5t25.5 -62.5t-25.5 -62.5t-62.5 -25.5z" />
    <glyph glyph-name="gdotaccent" unicode="&#x121;" horiz-adv-x="516" 
d="M274 1294q-37 0 -62.5 25.5t-25.5 62.5t25.5 62.5t62.5 25.5t62.5 -25.5t25.5 -62.5t-25.5 -62.5t-62.5 -25.5zM455 -123q0 -162 -49.5 -226.5t-157.5 -64.5q-113 0 -160 68.5t-47 239.5v143q0 51 10 90t20 57t33 52q-28 54 -28 94q0 68 63 147q-43 37 -60.5 82.5
t-17.5 138.5v193q0 161 42 224t141 63q66 0 102 -27h166v-76h-98q41 -68 41 -184v-193q0 -143 -47.5 -202.5t-143.5 -59.5q-43 0 -55 4q-33 -23 -33 -67q0 -27 19.5 -49.5t68.5 -22.5q43 0 73 -8.5t59 -34t44 -81t15 -140.5v-160zM332 909q0 87 -16 121.5t-58 34.5
t-58 -34.5t-16 -121.5v-209q0 -87 16 -121t58 -34t58 34t16 121v209zM332 35q0 93 -17.5 124t-62.5 31q-53 0 -70.5 -35.5t-17.5 -129.5v-170q0 -85 20 -120.5t64 -35.5t64 35.5t20 120.5v180z" />
    <glyph glyph-name="Gcommaaccent" unicode="&#x122;" horiz-adv-x="643" 
d="M451 647h-138v123h265v-469q0 -96 -17.5 -161.5t-52.5 -101t-78.5 -50.5t-103.5 -15t-103.5 15t-78.5 50.5t-52.5 101t-17.5 161.5v967q0 96 17.5 161.5t52.5 101t78.5 50t103.5 14.5t103.5 -14.5t78.5 -50t52.5 -101t17.5 -161.5v-246h-127v301q0 79 -33.5 117.5
t-91.5 38.5t-91.5 -38.5t-33.5 -117.5v-1077q0 -79 33.5 -117.5t91.5 -38.5t91.5 38.5t33.5 117.5v401zM211 -319l74 217h135l-115 -217h-94z" />
    <glyph glyph-name="gcommaaccent" unicode="&#x123;" horiz-adv-x="516" 
d="M397 1532l-73 -217h-136l115 217h94zM455 -123q0 -162 -49.5 -226.5t-157.5 -64.5q-113 0 -160 68.5t-47 239.5v143q0 51 10 90t20 57t33 52q-28 54 -28 94q0 68 63 147q-43 37 -60.5 82.5t-17.5 138.5v193q0 161 42 224t141 63q66 0 102 -27h166v-76h-98q41 -68 41 -184
v-193q0 -143 -47.5 -202.5t-143.5 -59.5q-43 0 -55 4q-33 -23 -33 -67q0 -27 19.5 -49.5t68.5 -22.5q43 0 73 -8.5t59 -34t44 -81t15 -140.5v-160zM332 909q0 87 -16 121.5t-58 34.5t-58 -34.5t-16 -121.5v-209q0 -87 16 -121t58 -34t58 34t16 121v209zM332 35
q0 93 -17.5 124t-62.5 31q-53 0 -70.5 -35.5t-17.5 -129.5v-170q0 -85 20 -120.5t64 -35.5t64 35.5t20 120.5v180z" />
    <glyph glyph-name="Hcircumflex" unicode="&#x124;" horiz-adv-x="643" 
d="M436 0v737h-229v-737h-127v1569h127v-705h229v705h127v-1569h-127zM401 1722l-79 127l-74 -127h-115l117 207h143l117 -207h-109z" />
    <glyph glyph-name="hcircumflex" unicode="&#x125;" horiz-adv-x="526" 
d="M338 0v913q0 80 -15 117t-51 37q-39 0 -60.5 -39t-21.5 -137v-891h-122v1569h122v-502q32 60 55 80q34 31 83 31q74 0 103.5 -70.5t29.5 -237.5v-870h-123zM211 1690l-80 127l-74 -127h-114l116 206h144l116 -206h-108z" />
    <glyph glyph-name="Hbar" unicode="&#x126;" horiz-adv-x="643" 
d="M436 0v737h-229v-737h-127v1206h-68v109h68v254h127v-254h229v254h127v-254h68v-109h-68v-1206h-127zM436 1206h-229v-342h229v342z" />
    <glyph glyph-name="hbar" unicode="&#x127;" horiz-adv-x="526" 
d="M338 0v913q0 80 -15 117t-51 37q-39 0 -60.5 -39t-21.5 -137v-891h-122v1337h-70v107h70v125h122v-125h195v-107h-195v-270q32 60 55 80q34 31 83 31q74 0 103.5 -70.5t29.5 -237.5v-870h-123z" />
    <glyph glyph-name="Itilde" unicode="&#x128;" horiz-adv-x="286" 
d="M80 0v1569h127v-1569h-127zM344 1849q-10 -59 -45.5 -94t-83.5 -35q-29 0 -67 17.5t-56 17.5q-12 0 -19 -5.5t-9.5 -10.5t-6.5 -17h-114q0 11 6 30t19 42.5t39 40t59 16.5q30 0 73 -15t56 -15q18 0 26 14q4 8 4 14h119z" />
    <glyph glyph-name="itilde" unicode="&#x129;" horiz-adv-x="258" 
d="M68 0v1161h122v-1161h-122zM330 1442q-10 -59 -45.5 -94t-83.5 -35q-29 0 -67 17.5t-56 17.5q-12 0 -19 -5.5t-9.5 -10.5t-6.5 -17h-115q0 11 6 30t19 42.5t39 40t59 16.5q31 0 74 -15.5t55 -15.5q19 0 27 14q4 8 4 15h119z" />
    <glyph glyph-name="Imacron" unicode="&#x12a;" horiz-adv-x="286" 
d="M80 0v1569h127v-1569h-127zM-63 1722v103h413v-103h-413z" />
    <glyph glyph-name="imacron" unicode="&#x12b;" horiz-adv-x="258" 
d="M68 0v1161h122v-1161h-122zM-78 1315v102h414v-102h-414z" />
    <glyph glyph-name="Ibreve" unicode="&#x12c;" horiz-adv-x="286" 
d="M80 0v1569h127v-1569h-127zM334 1892q0 -86 -55 -133t-134 -47t-134.5 47t-55.5 133h82q0 -46 29 -71t79 -25q49 0 79 25t30 71h80z" />
    <glyph glyph-name="ibreve" unicode="&#x12d;" horiz-adv-x="258" 
d="M68 0v1161h122v-1161h-122zM319 1485q0 -86 -54.5 -133t-133.5 -47t-134.5 47t-55.5 133h82q0 -46 29 -71t79 -25q49 0 79 25t30 71h79z" />
    <glyph glyph-name="Iogonek" unicode="&#x12e;" horiz-adv-x="286" 
d="M166 -352q-89 10 -136.5 60.5t-47.5 117.5q0 101 98 160v1583h127v-1569q-125 -75 -125 -168q0 -89 127 -121z" />
    <glyph glyph-name="iogonek" unicode="&#x12f;" horiz-adv-x="258" 
d="M152 -352q-89 10 -137 60.5t-48 117.5q0 100 101 160v1175h122v-1161q-122 -77 -122 -168q0 -89 127 -121zM129 1311q-38 0 -65 27t-27 65t27 65t65 27t65 -27t27 -65t-27 -65t-65 -27z" />
    <glyph glyph-name="Idotaccent" unicode="&#x130;" horiz-adv-x="286" 
d="M80 0v1569h127v-1569h-127zM143 1702q-37 0 -62.5 25.5t-25.5 62.5t25.5 62.5t62.5 25.5t62.5 -25.5t25.5 -62.5t-25.5 -62.5t-62.5 -25.5z" />
    <glyph glyph-name="dotlessi" unicode="&#x131;" horiz-adv-x="258" 
d="M68 0v1161h122v-1161h-122z" />
    <glyph glyph-name="IJ" unicode="&#x132;" horiz-adv-x="573" 
d="M80 0v1569h127v-1569h-127zM244 -393v117h8q48 0 81.5 37.5t33.5 117.5v1690h127v-1659q0 -80 -17 -138.5t-41 -89t-59.5 -48.5t-63 -22.5t-61.5 -4.5h-8z" />
    <glyph glyph-name="ij" unicode="&#x133;" horiz-adv-x="516" 
d="M68 0v1161h122v-1161h-122zM129 1311q-38 0 -65 27t-27 65t27 65t65 27t65 -27t27 -65t-27 -65t-65 -27zM190 -309q16 -2 35 -2q29 0 48 7.5t29.5 18t16 33.5t6.5 42.5t1 55.5v1315h123v-1296q0 -149 -36 -218t-141 -69q-30 0 -82 10v103zM387 1311q-38 0 -65 27t-27 65
t27 65t65 27t65 -27t27 -65t-27 -65t-65 -27z" />
    <glyph glyph-name="Jcircumflex" unicode="&#x134;" horiz-adv-x="286" 
d="M-43 -393v117h8q48 0 81.5 37.5t33.5 117.5v1690h127v-1659q0 -80 -17 -138.5t-41 -89t-59.5 -48.5t-63 -22.5t-61.5 -4.5h-8zM223 1722l-80 127l-73 -127h-115l117 207h143l117 -207h-109z" />
    <glyph glyph-name="jcircumflex" unicode="&#x135;" horiz-adv-x="258" 
d="M-68 -309q16 -2 35 -2q29 0 48 7.5t29.5 18t16 33.5t6.5 42.5t1 55.5v1315h122v-1296q0 -149 -35.5 -218t-140.5 -69q-30 0 -82 10v103zM209 1315l-80 127l-74 -127h-114l116 207h144l116 -207h-108z" />
    <glyph glyph-name="Kcommaaccent" unicode="&#x136;" horiz-adv-x="608" 
d="M498 0l-289 784l250 785h127l-238 -778l277 -791h-127zM80 0v1569h127v-1569h-127zM221 -319l74 217h135l-115 -217h-94z" />
    <glyph glyph-name="kcommaaccent" unicode="&#x137;" horiz-adv-x="530" 
d="M401 0l-208 594l208 567h127l-200 -561l198 -600h-125zM68 0v1569h122v-1569h-122zM164 -319l74 217h135l-115 -217h-94z" />
    <glyph glyph-name="kgreenlandic" unicode="&#x138;" horiz-adv-x="532" 
d="M403 0l-208 594l208 567h127l-200 -561l198 -600h-125zM70 0v1161h123v-1161h-123z" />
    <glyph glyph-name="Lacute" unicode="&#x139;" horiz-adv-x="432" 
d="M80 0v1569h127v-1442h209v-127h-336zM88 1722l90 207h146l-127 -207h-109z" />
    <glyph glyph-name="lacute" unicode="&#x13a;" horiz-adv-x="262" 
d="M70 0v1569h123v-1569h-123zM76 1702l90 207h145l-127 -207h-108z" />
    <glyph glyph-name="Lcommaaccent" unicode="&#x13b;" horiz-adv-x="432" 
d="M80 0v1569h127v-1442h209v-127h-336zM127 -319l74 217h135l-115 -217h-94z" />
    <glyph glyph-name="lcommaaccent" unicode="&#x13c;" horiz-adv-x="262" 
d="M70 0v1569h123v-1569h-123zM0 -319l74 217h135l-115 -217h-94z" />
    <glyph glyph-name="Lcaron" unicode="&#x13d;" horiz-adv-x="514" 
d="M301 1102l72 467h149l-151 -467h-70zM80 0v1569h127v-1442h209v-127h-336z" />
    <glyph glyph-name="lcaron" unicode="&#x13e;" horiz-adv-x="319" 
d="M242 1102l71 467h150l-152 -467h-69zM70 0v1569h123v-1569h-123z" />
    <glyph glyph-name="Ldot" unicode="&#x13f;" horiz-adv-x="528" 
d="M80 0v1569h127v-1442h209v-127h-336zM512 743q0 -35 -25.5 -60.5t-60.5 -25.5t-60.5 25.5t-25.5 60.5t25.5 60.5t60.5 25.5t60.5 -25.5t25.5 -60.5z" />
    <glyph glyph-name="ldot" unicode="&#x140;" horiz-adv-x="419" 
d="M70 0v1569h123v-1569h-123zM426 662q0 -35 -25.5 -61t-60.5 -26t-60.5 26t-25.5 61t25.5 60.5t60.5 25.5t60.5 -25.5t25.5 -60.5z" />
    <glyph glyph-name="Lslash" unicode="&#x141;" horiz-adv-x="462" 
d="M111 0v594l-76 -41l-55 100l131 72v844h127v-774l114 65l56 -100l-170 -96v-537h208v-127h-335z" />
    <glyph glyph-name="lslash" unicode="&#x142;" horiz-adv-x="395" 
d="M129 0v594l-76 -41l-55 100l131 72v846h123v-778l92 51l55 -101l-147 -81v-662h-123z" />
    <glyph glyph-name="Nacute" unicode="&#x143;" horiz-adv-x="688" 
d="M477 0l-274 1098l4 -1098h-127v1569h121l284 -1114l-4 1114h127v-1569h-131zM270 1722l90 207h146l-127 -207h-109z" />
    <glyph glyph-name="nacute" unicode="&#x144;" horiz-adv-x="528" 
d="M340 0v913q0 80 -15 117t-51 37q-39 0 -60 -39t-21 -137v-891h-123v1161h96l18 -94q14 26 21 37.5t25.5 33t42.5 31t55 9.5q77 0 106 -69.5t29 -238.5v-870h-123zM184 1315l90 207h146l-127 -207h-109z" />
    <glyph glyph-name="Ncommaaccent" unicode="&#x145;" horiz-adv-x="688" 
d="M477 0l-274 1098l4 -1098h-127v1569h121l284 -1114l-4 1114h127v-1569h-131zM240 -319l73 217h136l-115 -217h-94z" />
    <glyph glyph-name="ncommaaccent" unicode="&#x146;" horiz-adv-x="528" 
d="M340 0v913q0 80 -15 117t-51 37q-39 0 -60 -39t-21 -137v-891h-123v1161h96l18 -94q14 26 21 37.5t25.5 33t42.5 31t55 9.5q77 0 106 -69.5t29 -238.5v-870h-123zM158 -319l73 217h136l-115 -217h-94z" />
    <glyph glyph-name="Ncaron" unicode="&#x147;" horiz-adv-x="688" 
d="M477 0l-274 1098l4 -1098h-127v1569h121l284 -1114l-4 1114h127v-1569h-131zM272 1722l-116 207h114l74 -127l80 127h108l-116 -207h-144z" />
    <glyph glyph-name="ncaron" unicode="&#x148;" horiz-adv-x="528" 
d="M340 0v913q0 80 -15 117t-51 37q-39 0 -60 -39t-21 -137v-891h-123v1161h96l18 -94q14 26 21 37.5t25.5 33t42.5 31t55 9.5q77 0 106 -69.5t29 -238.5v-870h-123zM190 1315l-116 207h114l74 -127l80 127h109l-117 -207h-144z" />
    <glyph glyph-name="Eng" unicode="&#x14a;" horiz-adv-x="688" 
d="M358 -393v117h9q48 0 81 37.5t33 117.5v121l-276 1098l2 -1098h-127v1569h121l282 -1114l-2 1114h127v-1659q0 -80 -17 -138.5t-41 -89t-59.5 -48.5t-62.5 -22.5t-61 -4.5h-9z" />
    <glyph glyph-name="eng" unicode="&#x14b;" horiz-adv-x="528" 
d="M205 -309q16 -2 35 -2q29 0 48 7.5t29.5 18t15.5 34t6 42t1 55.5v1067q0 80 -15 117t-51 37q-39 0 -60 -39t-21 -137v-891h-123v1161h96l18 -94q14 26 21 37.5t25.5 33t42.5 31t55 9.5q77 0 106 -69.5t29 -238.5v-1005q0 -149 -35.5 -218t-140.5 -69q-30 0 -82 10v103z
" />
    <glyph glyph-name="Omacron" unicode="&#x14c;" horiz-adv-x="630" 
d="M74 1268q0 95 17.5 161t51.5 101.5t75 50t97 14.5t97 -14.5t75.5 -50t52 -101.5t17.5 -161v-967q0 -95 -17.5 -161t-51.5 -101.5t-75.5 -50.5t-97.5 -15t-97 15t-75 50.5t-51.5 101.5t-17.5 161v967zM430 1323q0 78 -32 117t-83 39q-50 0 -82 -39t-32 -117v-1077
q0 -78 32 -117t82 -39q51 0 83 39t32 117v1077zM109 1722v103h413v-103h-413z" />
    <glyph glyph-name="omacron" unicode="&#x14d;" horiz-adv-x="516" 
d="M61 936q0 137 52 189.5t145 52.5t145 -52.5t52 -189.5v-711q0 -136 -52.5 -188.5t-144.5 -52.5t-144.5 52.5t-52.5 188.5v711zM332 950q0 115 -74 115t-74 -115v-739q0 -115 74 -115t74 115v739zM51 1315v102h414v-102h-414z" />
    <glyph glyph-name="Obreve" unicode="&#x14e;" horiz-adv-x="630" 
d="M74 1268q0 95 17.5 161t51.5 101.5t75 50t97 14.5t97 -14.5t75.5 -50t52 -101.5t17.5 -161v-967q0 -95 -17.5 -161t-51.5 -101.5t-75.5 -50.5t-97.5 -15t-97 15t-75 50.5t-51.5 101.5t-17.5 161v967zM430 1323q0 78 -32 117t-83 39q-50 0 -82 -39t-32 -117v-1077
q0 -78 32 -117t82 -39q51 0 83 39t32 117v1077zM504 1892q0 -86 -55 -133t-134 -47t-134.5 47t-55.5 133h82q0 -46 29 -71t79 -25q49 0 79 25t30 71h80z" />
    <glyph glyph-name="obreve" unicode="&#x14f;" horiz-adv-x="520" 
d="M63 936q0 137 52 189.5t145 52.5t145 -52.5t52 -189.5v-711q0 -136 -52.5 -188.5t-144.5 -52.5t-144.5 52.5t-52.5 188.5v711zM334 950q0 115 -74 115t-74 -115v-739q0 -115 74 -115t74 115v739zM449 1485q0 -86 -55 -133t-134 -47t-134.5 47t-55.5 133h82q0 -46 29 -71
t79 -25q49 0 79 25t30 71h80z" />
    <glyph glyph-name="Ohungarumlaut" unicode="&#x150;" horiz-adv-x="630" 
d="M74 1268q0 95 17.5 161t51.5 101.5t75 50t97 14.5t97 -14.5t75.5 -50t52 -101.5t17.5 -161v-967q0 -95 -17.5 -161t-51.5 -101.5t-75.5 -50.5t-97.5 -15t-97 15t-75 50.5t-51.5 101.5t-17.5 161v967zM430 1323q0 78 -32 117t-83 39q-50 0 -82 -39t-32 -117v-1077
q0 -78 32 -117t82 -39q51 0 83 39t32 117v1077zM123 1722l90 207h145l-127 -207h-108zM332 1722l90 207h145l-127 -207h-108z" />
    <glyph glyph-name="ohungarumlaut" unicode="&#x151;" horiz-adv-x="518" 
d="M63 936q0 137 52 189.5t145 52.5t145 -52.5t52 -189.5v-711q0 -136 -52.5 -188.5t-144.5 -52.5t-144.5 52.5t-52.5 188.5v711zM334 950q0 115 -74 115t-74 -115v-739q0 -115 74 -115t74 115v739zM72 1315l90 207h145l-127 -207h-108zM281 1315l90 207h145l-127 -207h-108
z" />
    <glyph glyph-name="OE" unicode="&#x152;" horiz-adv-x="899" 
d="M440 0q-52 -27 -125 -27q-56 0 -97 15t-75 50.5t-51.5 101.5t-17.5 161v967q0 95 17.5 161t51.5 101.5t75 50t97 14.5q74 0 125 -26h408v-127h-291v-588h277v-127h-277v-600h291v-127h-408zM430 1337q0 69 -33.5 105.5t-81.5 36.5q-50 0 -82 -39t-32 -117v-1077
q0 -78 32 -117t82 -39q48 0 81.5 35.5t33.5 103.5v1108z" />
    <glyph glyph-name="oe" unicode="&#x153;" horiz-adv-x="782" 
d="M604 383h123v-158q0 -136 -52.5 -188.5t-144.5 -52.5t-135 63q-43 -63 -135 -63t-144.5 52.5t-52.5 188.5v711q0 137 52 189.5t145 52.5q47 0 79 -13t56 -51q24 38 56 51t79 13q93 0 145 -52.5t52 -189.5v-401h-270v-324q0 -115 73 -115q74 0 74 115v172zM334 950
q0 115 -74 115t-74 -115v-739q0 -115 74 -115t74 115v739zM604 950q0 115 -74 115q-73 0 -73 -115v-305h147v305z" />
    <glyph glyph-name="Racute" unicode="&#x154;" horiz-adv-x="608" 
d="M467 0l-184 682h-76v-682h-127v1569h199q79 0 127 -12.5t83 -48t49.5 -99.5t14.5 -168v-235q0 -140 -34 -213.5t-118 -96.5l193 -696h-127zM426 1286q0 85 -27 120.5t-88 35.5h-104v-633h104q61 0 88 35.5t27 120.5v321zM219 1722l90 207h146l-127 -207h-109z" />
    <glyph glyph-name="racute" unicode="&#x155;" horiz-adv-x="389" 
d="M70 0v1161h96l18 -94q16 40 51.5 74.5t86.5 34.5q23 0 53 -13l20 -12l-51 -133q-47 24 -80 24q-41 0 -56 -38.5t-15 -137.5v-866h-123zM143 1315l90 207h146l-127 -207h-109z" />
    <glyph glyph-name="Rcommaaccent" unicode="&#x156;" horiz-adv-x="608" 
d="M467 0l-184 682h-76v-682h-127v1569h199q79 0 127 -12.5t83 -48t49.5 -99.5t14.5 -168v-235q0 -140 -34 -213.5t-118 -96.5l193 -696h-127zM426 1286q0 85 -27 120.5t-88 35.5h-104v-633h104q61 0 88 35.5t27 120.5v321zM207 -319l74 217h135l-115 -217h-94z" />
    <glyph glyph-name="rcommaaccent" unicode="&#x157;" horiz-adv-x="389" 
d="M70 0v1161h96l18 -94q16 40 51.5 74.5t86.5 34.5q23 0 53 -13l20 -12l-51 -133q-47 24 -80 24q-41 0 -56 -38.5t-15 -137.5v-866h-123zM25 -319l73 217h135l-114 -217h-94z" />
    <glyph glyph-name="Rcaron" unicode="&#x158;" horiz-adv-x="608" 
d="M467 0l-184 682h-76v-682h-127v1569h199q79 0 127 -12.5t83 -48t49.5 -99.5t14.5 -168v-235q0 -140 -34 -213.5t-118 -96.5l193 -696h-127zM426 1286q0 85 -27 120.5t-88 35.5h-104v-633h104q61 0 88 35.5t27 120.5v321zM217 1722l-117 207h115l74 -127l80 127h108
l-117 -207h-143z" />
    <glyph glyph-name="rcaron" unicode="&#x159;" horiz-adv-x="387" 
d="M68 0v1161h96l18 -94q16 41 51 75t86 34q24 0 54 -13l20 -12l-51 -133q-47 24 -80 24q-41 0 -56.5 -38.5t-15.5 -137.5v-866h-122zM137 1315l-117 207h115l74 -127l80 127h108l-116 -207h-144z" />
    <glyph glyph-name="Sacute" unicode="&#x15a;" horiz-adv-x="604" 
d="M416 457q0 59 -37 118t-89 112t-104.5 110t-89.5 134t-37 161v200q0 303 242 303t242 -307v-266h-127v301q0 80 -33.5 118t-81.5 38t-81.5 -38t-33.5 -118v-213q0 -77 37 -143t89 -116.5t104.5 -101.5t89.5 -120t37 -150v-157q0 -180 -53 -264.5t-189 -84.5t-189 85.5
t-53 263.5v202h127v-278q0 -80 33.5 -118t81.5 -38t81.5 38t33.5 118v211zM223 1722l90 207h146l-127 -207h-109z" />
    <glyph glyph-name="sacute" unicode="&#x15b;" horiz-adv-x="503" 
d="M168 246q0 -85 15 -117.5t61 -32.5q49 0 70.5 34t21.5 112q0 69 -16 121.5t-41.5 86.5t-56.5 63.5t-62.5 62.5t-57 73.5t-41.5 105.5t-16 150q0 83 14.5 138.5t44 84t64.5 39.5t84 11q109 0 158 -58.5t49 -208.5v-137h-123v135q0 92 -16.5 124t-65.5 32t-67.5 -29.5
t-18.5 -113.5q0 -77 16 -133.5t41.5 -91.5t56.5 -63.5t62.5 -59t57 -68.5t41.5 -101.5t16 -148.5q0 -153 -51.5 -212.5t-161.5 -59.5q-115 0 -158 62.5t-43 223.5v113h123v-137zM170 1315l90 207h146l-127 -207h-109z" />
    <glyph glyph-name="Scircumflex" unicode="&#x15c;" horiz-adv-x="604" 
d="M416 457q0 59 -37 118t-89 112t-104.5 110t-89.5 134t-37 161v200q0 303 242 303t242 -307v-266h-127v301q0 80 -33.5 118t-81.5 38t-81.5 -38t-33.5 -118v-213q0 -77 37 -143t89 -116.5t104.5 -101.5t89.5 -120t37 -150v-157q0 -180 -53 -264.5t-189 -84.5t-189 85.5
t-53 263.5v202h127v-278q0 -80 33.5 -118t81.5 -38t81.5 38t33.5 118v211zM381 1722l-80 127l-74 -127h-114l116 207h144l116 -207h-108z" />
    <glyph glyph-name="scircumflex" unicode="&#x15d;" horiz-adv-x="503" 
d="M168 246q0 -85 15 -117.5t61 -32.5q49 0 70.5 34t21.5 112q0 69 -16 121.5t-41.5 86.5t-56.5 63.5t-62.5 62.5t-57 73.5t-41.5 105.5t-16 150q0 83 14.5 138.5t44 84t64.5 39.5t84 11q109 0 158 -58.5t49 -208.5v-137h-123v135q0 92 -16.5 124t-65.5 32t-67.5 -29.5
t-18.5 -113.5q0 -77 16 -133.5t41.5 -91.5t56.5 -63.5t62.5 -59t57 -68.5t41.5 -101.5t16 -148.5q0 -153 -51.5 -212.5t-161.5 -59.5q-115 0 -158 62.5t-43 223.5v113h123v-137zM332 1315l-80 127l-74 -127h-115l117 207h144l116 -207h-108z" />
    <glyph glyph-name="Scedilla" unicode="&#x15e;" horiz-adv-x="602" 
d="M193 -246q31 -18 67 -18q39 0 59.5 18t20.5 45q0 25 -21.5 44.5t-60.5 19.5q-14 0 -20 -2l28 114q-116 10 -161.5 95.5t-45.5 251.5v202h127v-278q0 -80 33.5 -118t81.5 -38t81.5 38t33.5 118v211q0 59 -37 118t-89 112t-104.5 110t-89.5 134t-37 161v200q0 303 242 303
t242 -307v-266h-127v301q0 80 -33.5 118t-81.5 38t-81.5 -38t-33.5 -118v-213q0 -77 37 -143t89 -116.5t104.5 -101.5t89.5 -120t37 -150v-157q0 -163 -42.5 -245.5t-150.5 -99.5l-14 -71q44 0 77 -34t33 -81q0 -56 -46 -97.5t-117 -41.5q-53 0 -111 22z" />
    <glyph glyph-name="scedilla" unicode="&#x15f;" horiz-adv-x="503" 
d="M141 -246q31 -18 68 -18q39 0 59.5 18t20.5 45q0 25 -21.5 44.5t-60.5 19.5q-15 0 -21 -2l31 125q-97 6 -134.5 69.5t-37.5 214.5v113h123v-137q0 -85 15 -117.5t61 -32.5q49 0 70.5 34t21.5 112q0 69 -16 121.5t-41.5 86.5t-56.5 63.5t-62.5 62.5t-57 73.5t-41.5 105.5
t-16 150q0 83 14.5 138.5t44 84t64.5 39.5t84 11q109 0 158 -58.5t49 -208.5v-137h-123v135q0 92 -16.5 124t-65.5 32t-67.5 -29.5t-18.5 -113.5q0 -77 16 -133.5t41.5 -91.5t56.5 -63.5t62.5 -59t57 -68.5t41.5 -101.5t16 -148.5q0 -132 -38.5 -194t-119.5 -74l-16 -82
q44 0 77 -34t33 -81q0 -56 -46.5 -97.5t-117.5 -41.5q-52 0 -110 22z" />
    <glyph glyph-name="Scaron" unicode="&#x160;" horiz-adv-x="604" 
d="M416 457q0 59 -37 118t-89 112t-104.5 110t-89.5 134t-37 161v200q0 303 242 303t242 -307v-266h-127v301q0 80 -33.5 118t-81.5 38t-81.5 -38t-33.5 -118v-213q0 -77 37 -143t89 -116.5t104.5 -101.5t89.5 -120t37 -150v-157q0 -180 -53 -264.5t-189 -84.5t-189 85.5
t-53 263.5v202h127v-278q0 -80 33.5 -118t81.5 -38t81.5 38t33.5 118v211zM229 1722l-116 207h114l74 -127l80 127h108l-116 -207h-144z" />
    <glyph glyph-name="scaron" unicode="&#x161;" horiz-adv-x="503" 
d="M168 246q0 -85 15 -117.5t61 -32.5q49 0 70.5 34t21.5 112q0 69 -16 121.5t-41.5 86.5t-56.5 63.5t-62.5 62.5t-57 73.5t-41.5 105.5t-16 150q0 83 14.5 138.5t44 84t64.5 39.5t84 11q109 0 158 -58.5t49 -208.5v-137h-123v135q0 92 -16.5 124t-65.5 32t-67.5 -29.5
t-18.5 -113.5q0 -77 16 -133.5t41.5 -91.5t56.5 -63.5t62.5 -59t57 -68.5t41.5 -101.5t16 -148.5q0 -153 -51.5 -212.5t-161.5 -59.5q-115 0 -158 62.5t-43 223.5v113h123v-137zM180 1315l-117 207h115l74 -127l80 127h108l-116 -207h-144z" />
    <glyph glyph-name="Tcommaaccent" unicode="&#x162;" horiz-adv-x="548" 
d="M211 0v1442h-195v127h516v-127h-194v-1442h-127zM160 -319l73 217h136l-115 -217h-94z" />
    <glyph glyph-name="tcommaaccent" unicode="&#x163;" horiz-adv-x="364" 
d="M358 -6q-45 -10 -86 -10q-106 0 -139 66.5t-33 240.5v758h-92v112h92v287h123v-287h133v-112h-133v-816q0 -82 16.5 -110.5t71.5 -28.5q29 0 47 2v-102zM115 -319l73 217h136l-115 -217h-94z" />
    <glyph glyph-name="Tcaron" unicode="&#x164;" horiz-adv-x="548" 
d="M211 0v1442h-195v127h516v-127h-194v-1442h-127zM203 1722l-117 207h115l73 -127l80 127h109l-117 -207h-143z" />
    <glyph glyph-name="tcaron" unicode="&#x165;" horiz-adv-x="366" 
d="M358 -6q-45 -10 -86 -10q-106 0 -139 66.5t-33 240.5v758h-92v112h92v287h123v-287h133v-112h-133v-816q0 -82 16.5 -110.5t71.5 -28.5q29 0 47 2v-102zM311 1272l72 364h149l-151 -364h-70z" />
    <glyph glyph-name="Tbar" unicode="&#x166;" horiz-adv-x="573" 
d="M223 0v739h-143v115h143v588h-194v127h516v-127h-195v-588h144v-115h-144v-739h-127z" />
    <glyph glyph-name="tbar" unicode="&#x167;" horiz-adv-x="370" 
d="M362 -6q-45 -10 -86 -10q-106 0 -139 66.5t-33 240.5v330h-86v110h86v318h-92v112h92v287h123v-287h133v-112h-133v-318h123v-110h-123v-388q0 -82 16.5 -110.5t71.5 -28.5q29 0 47 2v-102z" />
    <glyph glyph-name="Utilde" unicode="&#x168;" horiz-adv-x="638" 
d="M434 1569h127v-1268q0 -95 -17.5 -161t-51.5 -101.5t-75.5 -50.5t-97.5 -15t-97 15t-75 50.5t-51.5 101.5t-17.5 161v1268h127v-1323q0 -78 32 -117t82 -39q51 0 83 39t32 117v1323zM520 1849q-10 -59 -45.5 -94t-83.5 -35q-29 0 -67 17.5t-56 17.5q-12 0 -19 -5.5
t-9.5 -10.5t-6.5 -17h-114q0 11 6 30t19 42.5t39 40t59 16.5q30 0 73 -15t56 -15q18 0 26 14q4 8 4 14h119z" />
    <glyph glyph-name="utilde" unicode="&#x169;" horiz-adv-x="528" 
d="M362 0l-18 94q-14 -26 -21 -37t-25 -32.5t-42 -31t-55 -9.5q-77 0 -106 69t-29 238v870h122v-913q0 -80 15 -117t51 -37q39 0 60.5 39t21.5 137v891h123v-1161h-97zM465 1442q-10 -59 -45.5 -94t-83.5 -35q-29 0 -67.5 17.5t-55.5 17.5q-12 0 -19 -5.5t-9.5 -10.5
t-6.5 -17h-115q0 11 6 30t19 42.5t39 40t59 16.5q30 0 73 -15.5t56 -15.5q19 0 27 14q4 8 4 15h119z" />
    <glyph glyph-name="Umacron" unicode="&#x16a;" horiz-adv-x="638" 
d="M434 1569h127v-1268q0 -95 -17.5 -161t-51.5 -101.5t-75.5 -50.5t-97.5 -15t-97 15t-75 50.5t-51.5 101.5t-17.5 161v1268h127v-1323q0 -78 32 -117t82 -39q51 0 83 39t32 117v1323zM113 1722v103h413v-103h-413z" />
    <glyph glyph-name="umacron" unicode="&#x16b;" horiz-adv-x="528" 
d="M362 0l-18 94q-14 -26 -21 -37t-25 -32.5t-42 -31t-55 -9.5q-77 0 -106 69t-29 238v870h122v-913q0 -80 15 -117t51 -37q39 0 60.5 39t21.5 137v891h123v-1161h-97zM57 1315v102h414v-102h-414z" />
    <glyph glyph-name="Ubreve" unicode="&#x16c;" horiz-adv-x="638" 
d="M434 1569h127v-1268q0 -95 -17.5 -161t-51.5 -101.5t-75.5 -50.5t-97.5 -15t-97 15t-75 50.5t-51.5 101.5t-17.5 161v1268h127v-1323q0 -78 32 -117t82 -39q51 0 83 39t32 117v1323zM508 1892q0 -86 -55 -133t-134 -47t-134.5 47t-55.5 133h82q0 -46 29 -71t79 -25
q49 0 79 25t30 71h80z" />
    <glyph glyph-name="ubreve" unicode="&#x16d;" horiz-adv-x="528" 
d="M362 0l-18 94q-14 -26 -21 -37t-25 -32.5t-42 -31t-55 -9.5q-77 0 -106 69t-29 238v870h122v-913q0 -80 15 -117t51 -37q39 0 60.5 39t21.5 137v891h123v-1161h-97zM455 1485q0 -86 -55 -133t-134 -47t-134.5 47t-55.5 133h82q0 -46 29 -71t79 -25q49 0 79 25t30 71h80z
" />
    <glyph glyph-name="Uring" unicode="&#x16e;" horiz-adv-x="638" 
d="M434 1569h127v-1268q0 -95 -17.5 -161t-51.5 -101.5t-75.5 -50.5t-97.5 -15t-97 15t-75 50.5t-51.5 101.5t-17.5 161v1268h127v-1323q0 -78 32 -117t82 -39q51 0 83 39t32 117v1323zM393 1806q0 31 -21.5 52.5t-52.5 21.5t-52 -21.5t-21 -52.5t21 -52t52 -21t52.5 21
t21.5 52zM319 1675q-55 0 -93 37.5t-38 93.5t38 93.5t93 37.5q56 0 94 -38t38 -93t-38 -93t-94 -38z" />
    <glyph glyph-name="uring" unicode="&#x16f;" horiz-adv-x="528" 
d="M362 0l-18 94q-14 -26 -21 -37t-25 -32.5t-42 -31t-55 -9.5q-77 0 -106 69t-29 238v870h122v-913q0 -80 15 -117t51 -37q39 0 60.5 39t21.5 137v891h123v-1161h-97zM338 1399q0 31 -21.5 52.5t-52.5 21.5t-52.5 -21.5t-21.5 -52.5t21.5 -52.5t52.5 -21.5t52.5 21.5
t21.5 52.5zM264 1268q-56 0 -93.5 38t-37.5 93t37.5 93t93.5 38t93.5 -38t37.5 -93t-37.5 -93t-93.5 -38z" />
    <glyph glyph-name="Uhungarumlaut" unicode="&#x170;" horiz-adv-x="638" 
d="M434 1569h127v-1268q0 -95 -17.5 -161t-51.5 -101.5t-75.5 -50.5t-97.5 -15t-97 15t-75 50.5t-51.5 101.5t-17.5 161v1268h127v-1323q0 -78 32 -117t82 -39q51 0 83 39t32 117v1323zM137 1722l90 207h146l-127 -207h-109zM346 1722l90 207h146l-127 -207h-109z" />
    <glyph glyph-name="uhungarumlaut" unicode="&#x171;" horiz-adv-x="526" 
d="M362 0l-18 94q-14 -26 -21 -37t-25 -32.5t-42 -31t-55 -9.5q-77 0 -106 69t-29 238v870h122v-913q0 -80 15 -117t51 -37q39 0 60.5 39t21.5 137v891h123v-1161h-97zM86 1315l90 207h146l-127 -207h-109zM295 1315l90 207h145l-127 -207h-108z" />
    <glyph glyph-name="Uogonek" unicode="&#x172;" horiz-adv-x="638" 
d="M395 -352q-89 10 -136.5 60.5t-47.5 117.5q0 89 82 149q-101 5 -158 79.5t-57 246.5v1268h127v-1323q0 -78 32 -117t82 -39q51 0 83 39t32 117v1323h127v-1268q0 -80 -10.5 -135.5t-33.5 -90.5t-45 -54t-60 -41q-48 -29 -74.5 -62.5t-26.5 -83.5q0 -54 34.5 -81t92.5 -42
z" />
    <glyph glyph-name="uogonek" unicode="&#x173;" horiz-adv-x="528" 
d="M428 -352q-89 10 -136.5 60.5t-47.5 117.5q0 51 31 97.5t96 76.5l-27 94q-14 -26 -21 -37t-25 -32.5t-42 -31t-55 -9.5q-77 0 -106 69t-29 238v870h122v-913q0 -80 15 -117t51 -37q39 0 60.5 39t21.5 137v891h123v-1161q-115 -80 -115 -168q0 -89 127 -121z" />
    <glyph glyph-name="Wcircumflex" unicode="&#x174;" horiz-adv-x="935" 
d="M598 0l-131 1182l-129 -1182h-143l-172 1569h127l116 -1299l135 1299h131l138 -1299l114 1299h127l-170 -1569h-143zM547 1722l-80 127l-74 -127h-114l116 207h144l116 -207h-108z" />
    <glyph glyph-name="wcircumflex" unicode="&#x175;" horiz-adv-x="804" 
d="M496 0l-95 862l-92 -862h-135l-158 1161h131l93 -915l94 915h137l94 -915l92 915h131l-157 -1161h-135zM483 1315l-80 127l-73 -127h-115l117 207h143l117 -207h-109z" />
    <glyph glyph-name="Ycircumflex" unicode="&#x176;" horiz-adv-x="606" 
d="M242 0v586l-224 983h129l156 -762l156 762h129l-223 -983v-586h-123zM383 1722l-80 127l-74 -127h-114l116 207h144l117 -207h-109z" />
    <glyph glyph-name="ycircumflex" unicode="&#x177;" horiz-adv-x="501" 
d="M123 -410l63 347l-163 1224h131l100 -964l106 964h132l-238 -1571h-131zM334 1315l-80 127l-74 -127h-114l116 207h144l116 -207h-108z" />
    <glyph glyph-name="Ydieresis" unicode="&#x178;" horiz-adv-x="606" 
d="M242 0v586l-224 983h129l156 -762l156 762h129l-223 -983v-586h-123zM168 1702q-37 0 -62.5 25.5t-25.5 62.5t25.5 62.5t62.5 25.5t62.5 -25.5t25.5 -62.5t-25.5 -62.5t-62.5 -25.5zM436 1702q-37 0 -62.5 25.5t-25.5 62.5t25.5 62.5t62.5 25.5t62.5 -25.5t25.5 -62.5
t-25.5 -62.5t-62.5 -25.5z" />
    <glyph glyph-name="Zacute" unicode="&#x179;" horiz-adv-x="538" 
d="M27 0v127l329 1315h-311v127h465v-37l-352 -1405h352v-127h-483zM211 1722l90 207h145l-127 -207h-108z" />
    <glyph glyph-name="zacute" unicode="&#x17a;" horiz-adv-x="473" 
d="M16 0v98l293 951h-254v112h400v-78l-293 -970h268v-113h-414zM178 1315l90 207h146l-127 -207h-109z" />
    <glyph glyph-name="Zdotaccent" unicode="&#x17b;" horiz-adv-x="538" 
d="M27 0v127l329 1315h-311v127h465v-37l-352 -1405h352v-127h-483zM289 1702q-37 0 -62.5 25.5t-25.5 62.5t25.5 62.5t62.5 25.5t62.5 -25.5t25.5 -62.5t-25.5 -62.5t-62.5 -25.5z" />
    <glyph glyph-name="zdotaccent" unicode="&#x17c;" horiz-adv-x="473" 
d="M16 0v98l293 951h-254v112h400v-78l-293 -970h268v-113h-414zM256 1294q-37 0 -62.5 25.5t-25.5 62.5t25.5 62.5t62.5 25.5t62.5 -25.5t25.5 -62.5t-25.5 -62.5t-62.5 -25.5z" />
    <glyph glyph-name="Zcaron" unicode="&#x17d;" horiz-adv-x="538" 
d="M27 0v127l329 1315h-311v127h465v-37l-352 -1405h352v-127h-483zM217 1722l-117 207h115l74 -127l80 127h108l-117 -207h-143z" />
    <glyph glyph-name="zcaron" unicode="&#x17e;" horiz-adv-x="473" 
d="M16 0v98l293 951h-254v112h400v-78l-293 -970h268v-113h-414zM184 1315l-116 207h114l74 -127l80 127h108l-116 -207h-144z" />
    <glyph glyph-name="florin" unicode="&#x192;" horiz-adv-x="817" 
d="M96 94q24 -6 45 -6q56 0 79 37t44 125l111 518h-139l24 111h139l80 383q35 159 95 233t149 74q33 0 78 -10l-21 -103q-24 6 -45 6q-56 0 -80.5 -38t-44.5 -124l-88 -421h133l-24 -111h-133l-103 -479q-35 -165 -95.5 -236t-145.5 -71q-34 0 -76 10z" />
    <glyph glyph-name="AEacute" unicode="&#x1fc;" horiz-adv-x="903" 
d="M436 0v389h-223l-96 -389h-125l399 1569h463v-127h-291v-588h277v-127h-277v-600h291v-127h-418zM436 1356l-190 -852h190v852zM555 1722l90 207h146l-127 -207h-109z" />
    <glyph glyph-name="aeacute" unicode="&#x1fd;" horiz-adv-x="774" 
d="M596 383h123v-158q0 -136 -52.5 -188.5t-144.5 -52.5q-71 0 -116.5 28t-67.5 99q-23 -59 -56 -93t-92 -34q-77 0 -106 69t-29 238v22q0 174 30.5 244t109.5 70q46 0 76 -22.5t55 -74.5v379q0 87 -16 121.5t-58 34.5t-58 -34.5t-16 -121.5v-118h-123v108q0 152 42 215.5
t157 63.5q48 0 79.5 -14t53.5 -50q24 38 56 51t79 13q93 0 145 -52.5t52 -189.5v-401h-270v-342q6 -97 73 -97q74 0 74 115v172zM596 950q0 115 -74 115q-73 0 -73 -115v-305h147v305zM326 356q0 152 -78 152q-40 0 -55 -34.5t-15 -121.5v-104q0 -80 15 -117t51 -37
q39 0 60.5 39t21.5 137v86zM326 1315l90 207h145l-127 -207h-108z" />
    <glyph glyph-name="Oslashacute" unicode="&#x1fe;" horiz-adv-x="630" 
d="M141 -109l21 127q-88 75 -88 283v967q0 95 17.5 161t51.5 101.5t75 50t97 14.5q47 0 91 -12l14 92h76l-21 -131q82 -76 82 -276v-967q0 -95 -17.5 -161t-51.5 -101.5t-75.5 -50.5t-97.5 -15q-35 0 -84 11l-14 -93h-76zM385 1452q-27 27 -70 27q-50 0 -82 -39t-32 -117
v-1116zM430 1317l-180 -1206q27 -21 65 -21q51 0 83 39t32 117v1071zM217 1722l90 207h146l-127 -207h-109z" />
    <glyph glyph-name="oslashacute" unicode="&#x1ff;" horiz-adv-x="518" 
d="M125 -109l18 121q-80 51 -80 213v711q0 137 52 189.5t145 52.5q27 0 62 -7l14 91h63l-18 -117q76 -53 76 -209v-711q0 -136 -52.5 -188.5t-144.5 -52.5q-30 0 -57 6l-15 -99h-63zM303 1051q-20 14 -43 14q-74 0 -74 -115v-741zM334 915l-113 -809q13 -10 39 -10
q74 0 74 115v704zM172 1315l90 207h146l-127 -207h-109z" />
    <glyph glyph-name="Scommaaccent" unicode="&#x218;" horiz-adv-x="604" 
d="M416 457q0 59 -37 118t-89 112t-104.5 110t-89.5 134t-37 161v200q0 303 242 303t242 -307v-266h-127v301q0 80 -33.5 118t-81.5 38t-81.5 -38t-33.5 -118v-213q0 -77 37 -143t89 -116.5t104.5 -101.5t89.5 -120t37 -150v-157q0 -180 -53 -264.5t-189 -84.5t-189 85.5
t-53 263.5v202h127v-278q0 -80 33.5 -118t81.5 -38t81.5 38t33.5 118v211zM199 -319l73 217h136l-115 -217h-94z" />
    <glyph glyph-name="scommaaccent" unicode="&#x219;" horiz-adv-x="503" 
d="M168 246q0 -85 15 -117.5t61 -32.5q49 0 70.5 34t21.5 112q0 69 -16 121.5t-41.5 86.5t-56.5 63.5t-62.5 62.5t-57 73.5t-41.5 105.5t-16 150q0 83 14.5 138.5t44 84t64.5 39.5t84 11q109 0 158 -58.5t49 -208.5v-137h-123v135q0 92 -16.5 124t-65.5 32t-67.5 -29.5
t-18.5 -113.5q0 -77 16 -133.5t41.5 -91.5t56.5 -63.5t62.5 -59t57 -68.5t41.5 -101.5t16 -148.5q0 -153 -51.5 -212.5t-161.5 -59.5q-115 0 -158 62.5t-43 223.5v113h123v-137zM147 -319l74 217h135l-114 -217h-95z" />
    <glyph glyph-name="dotlessj" unicode="&#x237;" horiz-adv-x="258" 
d="M-68 -309q16 -2 35 -2q29 0 48 7.5t29.5 18t16 33.5t6.5 42.5t1 55.5v1315h122v-1296q0 -149 -35.5 -218t-140.5 -69q-30 0 -82 10v103z" />
    <glyph glyph-name="circumflex" unicode="&#x2c6;" horiz-adv-x="454" 
d="M307 1315l-80 127l-73 -127h-115l117 207h143l117 -207h-109z" />
    <glyph glyph-name="caron" unicode="&#x2c7;" horiz-adv-x="454" 
d="M156 1315l-117 207h115l73 -127l80 127h109l-117 -207h-143z" />
    <glyph glyph-name="breve" unicode="&#x2d8;" horiz-adv-x="456" 
d="M418 1485q0 -86 -55 -133t-134 -47t-134.5 47t-55.5 133h82q0 -46 29 -71t79 -25q49 0 79 25t30 71h80z" />
    <glyph glyph-name="dotaccent" unicode="&#x2d9;" horiz-adv-x="253" 
d="M127 1294q-37 0 -62.5 25.5t-25.5 62.5t25.5 62.5t62.5 25.5t62.5 -25.5t25.5 -62.5t-25.5 -62.5t-62.5 -25.5z" />
    <glyph glyph-name="ring" unicode="&#x2da;" horiz-adv-x="339" 
d="M244 1399q0 31 -21.5 52.5t-52.5 21.5t-52.5 -21.5t-21.5 -52.5t21.5 -52.5t52.5 -21.5t52.5 21.5t21.5 52.5zM170 1268q-56 0 -93.5 38t-37.5 93t37.5 93t93.5 38t93.5 -38t37.5 -93t-37.5 -93t-93.5 -38z" />
    <glyph glyph-name="ogonek" unicode="&#x2db;" horiz-adv-x="540" 
d="M471 -352q-89 10 -136.5 60.5t-47.5 117.5q0 116 129 174h86q-115 -80 -115 -168q0 -89 127 -121z" />
    <glyph glyph-name="tilde" unicode="&#x2dc;" horiz-adv-x="479" 
d="M440 1442q-10 -59 -45.5 -94t-83.5 -35q-30 0 -67.5 17.5t-55.5 17.5q-12 0 -19 -5.5t-9 -10t-6 -17.5h-115q0 11 6 30t19 42.5t39 40t59 16.5q30 0 73 -15.5t56 -15.5q18 0 26 14q5 10 5 15h118z" />
    <glyph glyph-name="hungarumlaut" unicode="&#x2dd;" horiz-adv-x="409" 
d="M0 1315l90 207h146l-127 -207h-109zM209 1315l90 207h145l-127 -207h-108z" />
    <glyph glyph-name="tonos" unicode="&#x384;" horiz-adv-x="200" 
d="M0 1315l90 207h146l-127 -207h-109z" />
    <glyph glyph-name="dieresistonos" unicode="&#x385;" horiz-adv-x="675" 
d="M127 1315q-37 0 -62.5 25.5t-25.5 62.5t25.5 62.5t62.5 25.5t62.5 -25.5t25.5 -62.5t-25.5 -62.5t-62.5 -25.5zM549 1315q-37 0 -62.5 25.5t-25.5 62.5t25.5 62.5t62.5 25.5t62.5 -25.5t25.5 -62.5t-25.5 -62.5t-62.5 -25.5zM227 1284l90 246h146l-127 -246h-109z" />
    <glyph glyph-name="Alphatonos" unicode="&#x386;" horiz-adv-x="690" 
d="M553 0l-45 389h-223l-45 -389h-127l211 1571h143l213 -1571h-127zM395 1346l-94 -840h191zM-4 1362l90 207h145l-127 -207h-108z" />
    <glyph glyph-name="Epsilontonos" unicode="&#x388;" horiz-adv-x="745" 
d="M279 0v1569h417v-127h-290v-588h276v-127h-276v-600h290v-127h-417zM-20 1362l90 207h145l-127 -207h-108z" />
    <glyph glyph-name="Etatonos" unicode="&#x389;" horiz-adv-x="841" 
d="M635 0v737h-229v-737h-127v1569h127v-705h229v705h127v-1569h-127zM-20 1362l90 207h145l-127 -207h-108z" />
    <glyph glyph-name="Iotatonos" unicode="&#x38a;" horiz-adv-x="485" 
d="M279 0v1569h127v-1569h-127zM-20 1362l90 207h145l-127 -207h-108z" />
    <glyph glyph-name="Omicrontonos" unicode="&#x38c;" horiz-adv-x="768" 
d="M211 1268q0 95 17.5 161t52 101.5t75.5 50t97 14.5t97 -14.5t75 -50t51.5 -101.5t17.5 -161v-967q0 -95 -17.5 -161t-51.5 -101.5t-75 -50.5t-97 -15t-97.5 15t-75.5 50.5t-51.5 101.5t-17.5 161v967zM567 1323q0 78 -32 117t-82 39q-51 0 -83 -39t-32 -117v-1077
q0 -78 32 -117t83 -39q50 0 82 39t32 117v1077zM-16 1362l90 207h145l-127 -207h-108z" />
    <glyph glyph-name="Upsilontonos" unicode="&#x38e;" horiz-adv-x="890" 
d="M526 0v586l-223 983h129l156 -762l155 762h129l-223 -983v-586h-123zM29 1362l90 207h145l-127 -207h-108z" />
    <glyph glyph-name="Omegatonos" unicode="&#x38f;" horiz-adv-x="770" 
d="M485 0v152q84 24 84 151v1020q0 78 -32 117t-82 39q-51 0 -83 -39t-32 -117v-1020q0 -127 84 -151v-152h-227v127l145 -12q-66 29 -97.5 102t-31.5 201v850q0 95 17.5 161t52 101.5t75.5 50t97 14.5t97 -14.5t75 -50t51.5 -101.5t17.5 -161v-850q0 -128 -31.5 -201
t-97.5 -102l146 12v-127h-228zM-14 1362l90 207h145l-127 -207h-108z" />
    <glyph glyph-name="iotadieresistonos" unicode="&#x390;" horiz-adv-x="317" 
d="M324 -6q-45 -10 -86 -10q-106 0 -139 66.5t-33 240.5v870h122v-928q0 -82 16.5 -110.5t71.5 -28.5q30 0 48 2v-102zM-78 1315q-37 0 -62.5 25.5t-25.5 62.5t25.5 62.5t62.5 25.5t62.5 -25.5t25.5 -62.5t-25.5 -62.5t-62.5 -25.5zM344 1315q-37 0 -62.5 25.5t-25.5 62.5
t25.5 62.5t62.5 25.5t62.5 -25.5t25.5 -62.5t-25.5 -62.5t-62.5 -25.5zM23 1284l90 246h145l-127 -246h-108z" />
    <glyph glyph-name="Alpha" unicode="&#x391;" horiz-adv-x="589" 
d="M453 0l-45 389h-224l-45 -389h-127l211 1571h144l213 -1571h-127zM295 1346l-94 -840h190z" />
    <glyph glyph-name="Beta" unicode="&#x392;" horiz-adv-x="628" 
d="M80 0v1569h213q149 0 204.5 -69t55.5 -255v-201q0 -199 -150 -237q86 -18 128 -87.5t42 -164.5v-227q0 -81 -10 -137.5t-30 -94t-54.5 -58.5t-77.5 -29.5t-106 -8.5h-215zM426 1290q0 84 -27 118t-88 34h-104v-576h104q61 0 88 35.5t27 120.5v268zM446 584
q0 155 -135 155h-104v-612h125q61 0 87.5 35.5t26.5 120.5v301z" />
    <glyph glyph-name="Gamma" unicode="&#x393;" horiz-adv-x="512" 
d="M80 0v1569h418v-127h-291v-1442h-127z" />
    <glyph glyph-name="uni0394" unicode="&#x394;" horiz-adv-x="589" 
d="M12 0l211 1571h144l213 -1571h-568zM295 1346l-137 -1219h276z" />
    <glyph glyph-name="Epsilon" unicode="&#x395;" horiz-adv-x="546" 
d="M80 0v1569h418v-127h-291v-588h276v-127h-276v-600h291v-127h-418z" />
    <glyph glyph-name="Zeta" unicode="&#x396;" horiz-adv-x="538" 
d="M27 0v127l329 1315h-311v127h465v-37l-352 -1405h352v-127h-483z" />
    <glyph glyph-name="Eta" unicode="&#x397;" horiz-adv-x="643" 
d="M436 0v737h-229v-737h-127v1569h127v-705h229v705h127v-1569h-127z" />
    <glyph glyph-name="Theta" unicode="&#x398;" horiz-adv-x="630" 
d="M74 1268q0 95 17.5 161t51.5 101.5t75 50t97 14.5t97 -14.5t75.5 -50t52 -101.5t17.5 -161v-967q0 -95 -17.5 -161t-51.5 -101.5t-75.5 -50.5t-97.5 -15t-97 15t-75 50.5t-51.5 101.5t-17.5 161v967zM430 1323q0 78 -32 117t-83 39q-50 0 -82 -39t-32 -117v-1077
q0 -78 32 -117t82 -39q51 0 83 39t32 117v1077zM242 727v127h149v-127h-149z" />
    <glyph glyph-name="Iota" unicode="&#x399;" horiz-adv-x="286" 
d="M80 0v1569h127v-1569h-127z" />
    <glyph glyph-name="Kappa" unicode="&#x39a;" horiz-adv-x="608" 
d="M498 0l-289 784l250 785h127l-238 -778l277 -791h-127zM80 0v1569h127v-1569h-127z" />
    <glyph glyph-name="Lambda" unicode="&#x39b;" horiz-adv-x="589" 
d="M451 0l-156 1346l-154 -1346h-129l211 1571h144l213 -1571h-129z" />
    <glyph glyph-name="Mu" unicode="&#x39c;" horiz-adv-x="897" 
d="M690 0l8 1280l-221 -1280h-82l-196 1288l8 -1288h-127v1569h194l175 -1127l174 1127h194v-1569h-127z" />
    <glyph glyph-name="Nu" unicode="&#x39d;" horiz-adv-x="688" 
d="M477 0l-274 1098l4 -1098h-127v1569h121l284 -1114l-4 1114h127v-1569h-131z" />
    <glyph glyph-name="Xi" unicode="&#x39e;" horiz-adv-x="544" 
d="M41 0v127h463v-127h-463zM41 1442v127h463v-127h-463zM82 737v127h381v-127h-381z" />
    <glyph glyph-name="Omicron" unicode="&#x39f;" horiz-adv-x="630" 
d="M74 1268q0 95 17.5 161t51.5 101.5t75 50t97 14.5t97 -14.5t75.5 -50t52 -101.5t17.5 -161v-967q0 -95 -17.5 -161t-51.5 -101.5t-75.5 -50.5t-97.5 -15t-97 15t-75 50.5t-51.5 101.5t-17.5 161v967zM430 1323q0 78 -32 117t-83 39q-50 0 -82 -39t-32 -117v-1077
q0 -78 32 -117t82 -39q51 0 83 39t32 117v1077z" />
    <glyph glyph-name="Pi" unicode="&#x3a0;" horiz-adv-x="643" 
d="M436 0v1442h-229v-1442h-127v1569h483v-1569h-127z" />
    <glyph glyph-name="Rho" unicode="&#x3a1;" horiz-adv-x="598" 
d="M80 0v1569h194q80 0 128.5 -12.5t84.5 -48t51 -100t15 -167.5v-242q0 -83 -10.5 -140t-30 -94t-55 -57.5t-78 -28t-105.5 -7.5h-67v-672h-127zM426 1286q0 85 -27 120.5t-88 35.5h-104v-643h104q61 0 88 35t27 120v332z" />
    <glyph glyph-name="Sigma" unicode="&#x3a3;" horiz-adv-x="557" 
d="M33 0v127l241 680l-249 635v127h483v-127h-346l250 -635l-242 -680h369v-127h-506z" />
    <glyph glyph-name="Tau" unicode="&#x3a4;" horiz-adv-x="548" 
d="M211 0v1442h-195v127h516v-127h-194v-1442h-127z" />
    <glyph glyph-name="Upsilon" unicode="&#x3a5;" horiz-adv-x="606" 
d="M242 0v586l-224 983h129l156 -762l156 762h129l-223 -983v-586h-123z" />
    <glyph glyph-name="Phi" unicode="&#x3a6;" horiz-adv-x="749" 
d="M311 -2v123q-135 17 -197.5 110.5t-62.5 274.5v557q0 181 62.5 274.5t197.5 110.5v123h127v-123q260 -34 260 -385v-557q0 -351 -260 -385v-123h-127zM311 1327q-69 -19 -101 -76t-32 -133v-667q0 -76 32 -133t101 -76v1085zM571 1118q0 75 -32.5 132.5t-100.5 76.5
v-1085q68 19 100.5 76.5t32.5 132.5v667z" />
    <glyph glyph-name="Chi" unicode="&#x3a7;" horiz-adv-x="612" 
d="M483 0l-172 629l-192 -629h-127l264 807l-252 762h129l178 -576l166 576h129l-223 -764l227 -805h-127z" />
    <glyph glyph-name="Psi" unicode="&#x3a8;" horiz-adv-x="765" 
d="M319 -2v348q-134 10 -197 102t-63 273v848h127v-903q0 -50 12 -91.5t43.5 -73t77.5 -34.5v1102h127v-1102q67 4 100.5 62.5t33.5 136.5v903h127v-848q0 -354 -261 -375v-348h-127z" />
    <glyph glyph-name="uni03A9" unicode="&#x3a9;" horiz-adv-x="634" 
d="M348 0v152q84 24 84 151v1020q0 78 -32 117t-83 39q-50 0 -82 -39t-32 -117v-1020q0 -127 84 -151v-152h-228v127l146 -12q-66 29 -97.5 102t-31.5 201v850q0 95 17.5 161t51.5 101.5t75 50t97 14.5t97 -14.5t75.5 -50t52 -101.5t17.5 -161v-850q0 -128 -31.5 -201
t-97.5 -102l145 12v-127h-227z" />
    <glyph glyph-name="Iotadieresis" unicode="&#x3aa;" horiz-adv-x="286" 
d="M80 0v1569h127v-1569h-127zM10 1702q-37 0 -62.5 25.5t-25.5 62.5t25.5 62.5t62.5 25.5t62.5 -25.5t25.5 -62.5t-25.5 -62.5t-62.5 -25.5zM279 1702q-37 0 -63 25.5t-26 62.5t26 62.5t63 25.5t62.5 -25.5t25.5 -62.5t-25.5 -62.5t-62.5 -25.5z" />
    <glyph glyph-name="Upsilondieresis" unicode="&#x3ab;" horiz-adv-x="606" 
d="M242 0v586l-224 983h129l156 -762l156 762h129l-223 -983v-586h-123zM168 1702q-37 0 -62.5 25.5t-25.5 62.5t25.5 62.5t62.5 25.5t62.5 -25.5t25.5 -62.5t-25.5 -62.5t-62.5 -25.5zM436 1702q-37 0 -62.5 25.5t-25.5 62.5t25.5 62.5t62.5 25.5t62.5 -25.5t25.5 -62.5
t-25.5 -62.5t-62.5 -25.5z" />
    <glyph glyph-name="alphatonos" unicode="&#x3ac;" horiz-adv-x="524" 
d="M358 0l-18 94q-14 -26 -21 -37t-25 -32.5t-42 -31t-55 -9.5q-77 0 -106.5 69t-29.5 238v579q0 169 29.5 238.5t106.5 69.5q30 0 53.5 -9.5t40 -27.5t26 -32.5t20.5 -35.5l3 -6l18 94h97v-1161h-97zM332 891q0 98 -21.5 137t-60.5 39q-36 0 -51 -37t-15 -117v-665
q0 -80 15 -117t51 -37q39 0 60.5 39t21.5 137v621zM182 1315l90 207h146l-127 -207h-109z" />
    <glyph glyph-name="epsilontonos" unicode="&#x3ad;" horiz-adv-x="489" 
d="M446 225q0 -136 -52 -188.5t-144 -52.5t-144.5 52.5t-52.5 188.5v97q0 40 1 65t5.5 55.5t14.5 49.5t26 39t41 34t60 25q-41 11 -69.5 30.5t-44 40.5t-23 55.5t-9.5 63.5t-2 78v78q0 137 52 189.5t145 52.5q44 0 77 -10.5t61 -36t43 -75t15 -120.5v-57h-122v71
q0 115 -74 115t-74 -115v-170q0 -40 15.5 -69t39 -42t43.5 -18.5t37 -5.5q37 0 70 2v-115q-49 3 -72 3q-18 0 -38 -5.5t-43 -19t-37.5 -42.5t-14.5 -69v-188q0 -115 74 -115t74 115v121h122v-107zM178 1315l90 207h146l-127 -207h-109z" />
    <glyph glyph-name="etatonos" unicode="&#x3ae;" horiz-adv-x="528" 
d="M340 0v913q0 80 -15 117t-51 37q-39 0 -60 -39t-21 -137v-891h-123v1161h96l18 -94q14 26 21 37.5t25.5 33t42.5 31t55 9.5q77 0 106 -69.5t29 -238.5v-870h-123zM184 1315l90 207h146l-127 -207h-109z" />
    <glyph glyph-name="iotatonos" unicode="&#x3af;" horiz-adv-x="317" 
d="M61 1315l91 207h145l-127 -207h-109zM324 -6q-45 -10 -86 -10q-106 0 -139 66.5t-33 240.5v870h122v-928q0 -82 16.5 -110.5t71.5 -28.5q30 0 48 2v-102z" />
    <glyph glyph-name="upsilondieresistonos" unicode="&#x3b0;" horiz-adv-x="524" 
d="M336 1161h123v-936q0 -136 -52.5 -188.5t-144.5 -52.5t-144 52.5t-52 188.5v936h122v-950q0 -115 74 -115t74 115v950zM51 1315q-37 0 -62.5 25.5t-25.5 62.5t25.5 62.5t62.5 25.5t62.5 -25.5t25.5 -62.5t-25.5 -62.5t-62.5 -25.5zM473 1315q-37 0 -62.5 25.5t-25.5 62.5
t25.5 62.5t62.5 25.5t62.5 -25.5t25.5 -62.5t-25.5 -62.5t-62.5 -25.5zM152 1284l90 246h145l-127 -246h-108z" />
    <glyph glyph-name="alpha" unicode="&#x3b1;" horiz-adv-x="524" 
d="M358 0l-18 94q-14 -26 -21 -37t-25 -32.5t-42 -31t-55 -9.5q-77 0 -106.5 69t-29.5 238v579q0 169 29.5 238.5t106.5 69.5q30 0 53.5 -9.5t40 -27.5t26 -32.5t20.5 -35.5l3 -6l18 94h97v-1161h-97zM332 891q0 98 -21.5 137t-60.5 39q-36 0 -51 -37t-15 -117v-665
q0 -80 15 -117t51 -37q39 0 60.5 39t21.5 137v621z" />
    <glyph glyph-name="beta" unicode="&#x3b2;" horiz-adv-x="538" 
d="M68 -408v1747q0 71 15 120.5t43 75t61 36t77 10.5q93 0 145 -52.5t52 -189.5v-149q0 -49 -1.5 -78t-8.5 -63.5t-20 -55.5t-37.5 -40.5t-59.5 -30.5q84 -19 115.5 -86.5t31.5 -182.5v-397q0 -152 -31.5 -212t-109.5 -60q-108 0 -150 92v-484h-122zM358 748
q0 65 -29.5 92.5t-86.5 27.5v99q44 0 70 30t26 93v264q0 114 -74 114t-74 -114v-1084q0 -95 25 -135.5t72 -40.5q39 0 55 32t16 122v500z" />
    <glyph glyph-name="gamma" unicode="&#x3b3;" horiz-adv-x="473" 
d="M174 -406l4 408l-166 1159h131l93 -915l94 915h131l-168 -1161l4 -406h-123z" />
    <glyph glyph-name="delta" unicode="&#x3b4;" horiz-adv-x="503" 
d="M59 813q0 168 91 219q-70 99 -70 234q0 85 21.5 148.5t59 99t82.5 52.5t97 17q30 0 86 -12l-29 -113q-37 12 -59 12q-60 0 -97.5 -45t-37.5 -143q0 -54 14 -96.5t36 -71.5t48.5 -57t53 -61.5t48.5 -75t36 -108t14 -150.5v-437q0 -136 -52.5 -188.5t-144.5 -52.5
t-144.5 52.5t-52.5 188.5v588zM330 670q0 65 -16.5 119.5t-35 83t-49.5 65.5q-47 -18 -47 -111v-616q0 -115 74 -115t74 115v459z" />
    <glyph glyph-name="epsilon" unicode="&#x3b5;" horiz-adv-x="489" 
d="M446 225q0 -136 -52 -188.5t-144 -52.5t-144.5 52.5t-52.5 188.5v97q0 40 1 65t5.5 55.5t14.5 49.5t26 39t41 34t60 25q-41 11 -69.5 30.5t-44 40.5t-23 55.5t-9.5 63.5t-2 78v78q0 137 52 189.5t145 52.5q44 0 77 -10.5t61 -36t43 -75t15 -120.5v-57h-122v71
q0 115 -74 115t-74 -115v-170q0 -40 15.5 -69t39 -42t43.5 -18.5t37 -5.5q37 0 70 2v-115q-49 3 -72 3q-18 0 -38 -5.5t-43 -19t-37.5 -42.5t-14.5 -69v-188q0 -115 74 -115t74 115v121h122v-107z" />
    <glyph glyph-name="zeta" unicode="&#x3b6;" horiz-adv-x="481" 
d="M258 -197q36 61 45.5 85.5t9.5 43.5q0 28 -14 42t-57 34q-46 22 -71.5 36.5t-56 40t-45.5 54t-25.5 72.5t-10.5 102q0 335 307 736h-281v112h416v-121q-317 -402 -317 -718q0 -36 4 -62t15 -47t21 -34t34 -27t41 -22.5t53 -23.5q112 -46 112 -137q0 -83 -90 -225z" />
    <glyph glyph-name="eta" unicode="&#x3b7;" horiz-adv-x="528" 
d="M340 0v913q0 80 -15 117t-51 37q-39 0 -60 -39t-21 -137v-891h-123v1161h96l18 -94q14 26 21 37.5t25.5 33t42.5 31t55 9.5q77 0 106 -69.5t29 -238.5v-870h-123z" />
    <glyph glyph-name="theta" unicode="&#x3b8;" horiz-adv-x="524" 
d="M66 1337q0 71 15 120.5t43 75t61 36t77 10.5q93 0 145 -52.5t52 -189.5v-1112q0 -136 -52.5 -188.5t-144.5 -52.5t-144 52.5t-52 188.5v1112zM336 725h-148v-514q0 -115 74 -115t74 115v514zM336 1352q0 114 -74 114t-74 -114v-514h148v514z" />
    <glyph glyph-name="iota" unicode="&#x3b9;" horiz-adv-x="317" 
d="M324 -6q-45 -10 -86 -10q-106 0 -139 66.5t-33 240.5v870h122v-928q0 -82 16.5 -110.5t71.5 -28.5q30 0 48 2v-102z" />
    <glyph glyph-name="kappa" unicode="&#x3ba;" horiz-adv-x="532" 
d="M403 0l-208 594l208 567h127l-200 -561l198 -600h-125zM70 0v1161h123v-1161h-123z" />
    <glyph glyph-name="lambda" unicode="&#x3bb;" horiz-adv-x="651" 
d="M657 -2q-33 -14 -65 -14q-27 1 -48 12.5t-35.5 28t-27 47.5t-20.5 57.5t-19 71.5l-125 536l-194 -737h-137l280 956l-84 369q-23 96 -36 116q-15 23 -44 23q-26 0 -45 -8l-14 113q54 14 100 14q64 0 95 -44.5t61 -168.5l260 -1126q1 -5 4 -16q8 -31 12.5 -47.5t14 -40
t21 -34t26.5 -10.5q4 0 16 4z" />
    <glyph glyph-name="uni03BC" unicode="&#x3bc;" horiz-adv-x="532" 
d="M70 -408v1569h123v-944q0 -123 65 -123q39 0 60.5 39t21.5 137v891h123v-1161h-96l-19 94q-16 -38 -45.5 -71t-64.5 -33q-25 0 -45 14v-412h-123z" />
    <glyph glyph-name="nu" unicode="&#x3bd;" horiz-adv-x="483" 
d="M174 0l-158 1161h131l93 -977l94 977h131l-156 -1161h-135z" />
    <glyph glyph-name="xi" unicode="&#x3be;" horiz-adv-x="452" 
d="M266 -201q58 100 58 133q0 23 -12.5 34.5t-59.5 37.5q-51 27 -75.5 41t-52 35t-37 36.5t-19.5 44t-11.5 58.5t-1.5 80v293q0 40 1 65t5.5 55.5t14.5 49.5t26 39t41 34t60 25q-41 11 -69.5 30.5t-44 40.5t-23 55.5t-9.5 63.5t-2 78v211q0 137 52 189.5t145 52.5t145 -52.5
t52 -189.5v-57h-123v72q0 114 -74 114t-74 -114v-303q0 -40 15.5 -69t39 -42.5t43.5 -19t37 -5.5q21 0 70 3v-115q-33 2 -72 2q-14 0 -29 -3t-34.5 -12t-34 -23t-25 -39t-10.5 -58v-344q0 -100 21.5 -129.5t125.5 -84.5q7 -4 11 -6q30 -16 45.5 -25.5t37.5 -27t32 -39
t10 -47.5q0 -47 -29.5 -107.5t-73.5 -115.5z" />
    <glyph glyph-name="omicron" unicode="&#x3bf;" horiz-adv-x="520" 
d="M63 936q0 137 52 189.5t145 52.5t145 -52.5t52 -189.5v-711q0 -136 -52.5 -188.5t-144.5 -52.5t-144.5 52.5t-52.5 188.5v711zM334 950q0 115 -74 115t-74 -115v-739q0 -115 74 -115t74 115v739z" />
    <glyph glyph-name="pi" unicode="&#x3c0;" horiz-adv-x="532" 
d="M340 0v1049h-147v-1049h-123v1161h393v-1161h-123z" />
    <glyph glyph-name="rho" unicode="&#x3c1;" horiz-adv-x="522" 
d="M66 -408v1344q0 71 15 120.5t43 75t61 36t77 10.5q93 0 145 -52.5t52 -189.5v-645q0 -169 -29 -238t-106 -69q-87 0 -136 92v-484h-122zM336 950q0 115 -74 115t-74 -115v-680q0 -98 21.5 -137t60.5 -39q36 0 51 37t15 117v702z" />
    <glyph glyph-name="sigma1" unicode="&#x3c2;" horiz-adv-x="495" 
d="M272 -201q58 100 58 133q0 23 -12.5 34.5t-59.5 37.5q-51 27 -75.5 41t-52 35t-37 36.5t-19.5 44t-11.5 58.5t-1.5 80v637q0 137 52 189.5t145 52.5t145 -52.5t52 -189.5v-201h-123v215q0 115 -74 115t-74 -115v-624q0 -100 21.5 -129.5t125.5 -84.5q7 -4 11 -6
q30 -16 45.5 -25.5t37.5 -27t32 -39t10 -47.5q0 -47 -29 -108t-73 -115z" />
    <glyph glyph-name="sigma" unicode="&#x3c3;" horiz-adv-x="542" 
d="M61 920q0 137 52 189t145 52h268v-112l-112 8q41 -48 41 -133v-699q0 -136 -52.5 -188.5t-144.5 -52.5t-144.5 52.5t-52.5 188.5v695zM332 934q0 115 -74 115t-74 -115v-723q0 -115 74 -115t74 115v723z" />
    <glyph glyph-name="tau" unicode="&#x3c4;" horiz-adv-x="507" 
d="M442 -6q-45 -10 -86 -10q-106 0 -139 66.5t-33 240.5v758h-186v112h498v-112h-189v-816q0 -82 16.5 -110.5t71.5 -28.5q29 0 47 2v-102z" />
    <glyph glyph-name="upsilon" unicode="&#x3c5;" horiz-adv-x="524" 
d="M336 1161h123v-936q0 -136 -52.5 -188.5t-144.5 -52.5t-144 52.5t-52 188.5v936h122v-950q0 -115 74 -115t74 115v950z" />
    <glyph glyph-name="phi" unicode="&#x3c6;" horiz-adv-x="714" 
d="M301 -406v394q-126 17 -183 91t-57 208v587q0 160 78 238l90 -86q-45 -45 -45 -137v-617q0 -149 117 -168v1070h80q144 0 211 -76t67 -228v-583q0 -134 -56.5 -208t-182.5 -91v-394h-119zM537 885q0 150 -117 168v-949q117 19 117 168v613z" />
    <glyph glyph-name="chi" unicode="&#x3c7;" horiz-adv-x="493" 
d="M365 0l-125 428l-109 -428h-119l172 594l-170 567h121l113 -393l108 393h125l-178 -569l182 -592h-120z" />
    <glyph glyph-name="psi" unicode="&#x3c8;" horiz-adv-x="724" 
d="M303 -406v394q-126 17 -183 91t-57 208v874h123v-889q0 -149 117 -168v1057h119v-1057q117 19 117 168v889h123v-874q0 -134 -57 -208t-183 -91v-394h-119z" />
    <glyph glyph-name="omega" unicode="&#x3c9;" horiz-adv-x="790" 
d="M604 950q0 112 -72 115v113q93 0 144 -53.5t51 -188.5v-711q0 -136 -51.5 -188.5t-143.5 -52.5q-47 0 -80 17t-57 67q-24 -50 -57 -67t-80 -17q-92 0 -143.5 52.5t-51.5 188.5v711q0 135 52 188.5t143 53.5v-113q-72 -3 -72 -115v-739q0 -115 74 -115t74 115v643h123
v-643q0 -115 73 -115q74 0 74 115v739z" />
    <glyph glyph-name="iotadieresis" unicode="&#x3ca;" horiz-adv-x="317" 
d="M324 -6q-45 -10 -86 -10q-106 0 -139 66.5t-33 240.5v870h122v-928q0 -82 16.5 -110.5t71.5 -28.5q30 0 48 2v-102zM-6 1294q-37 0 -62.5 25.5t-25.5 62.5t25.5 62.5t62.5 25.5t62.5 -25.5t25.5 -62.5t-25.5 -62.5t-62.5 -25.5zM262 1294q-37 0 -62.5 25.5t-25.5 62.5
t25.5 62.5t62.5 25.5t62.5 -25.5t25.5 -62.5t-25.5 -62.5t-62.5 -25.5z" />
    <glyph glyph-name="upsilondieresis" unicode="&#x3cb;" horiz-adv-x="524" 
d="M336 1161h123v-936q0 -136 -52.5 -188.5t-144.5 -52.5t-144 52.5t-52 188.5v936h122v-950q0 -115 74 -115t74 115v950zM129 1294q-37 0 -62.5 25.5t-25.5 62.5t25.5 62.5t62.5 25.5t62.5 -25.5t25.5 -62.5t-25.5 -62.5t-62.5 -25.5zM397 1294q-37 0 -62.5 25.5
t-25.5 62.5t25.5 62.5t62.5 25.5t62.5 -25.5t25.5 -62.5t-25.5 -62.5t-62.5 -25.5z" />
    <glyph glyph-name="omicrontonos" unicode="&#x3cc;" horiz-adv-x="520" 
d="M63 936q0 137 52 189.5t145 52.5t145 -52.5t52 -189.5v-711q0 -136 -52.5 -188.5t-144.5 -52.5t-144.5 52.5t-52.5 188.5v711zM334 950q0 115 -74 115t-74 -115v-739q0 -115 74 -115t74 115v739zM182 1315l90 207h146l-127 -207h-109z" />
    <glyph glyph-name="upsilontonos" unicode="&#x3cd;" horiz-adv-x="524" 
d="M336 1161h123v-936q0 -136 -52.5 -188.5t-144.5 -52.5t-144 52.5t-52 188.5v936h122v-950q0 -115 74 -115t74 115v950zM195 1315l90 207h145l-127 -207h-108z" />
    <glyph glyph-name="omegatonos" unicode="&#x3ce;" horiz-adv-x="790" 
d="M604 950q0 112 -72 115v113q93 0 144 -53.5t51 -188.5v-711q0 -136 -51.5 -188.5t-143.5 -52.5q-47 0 -80 17t-57 67q-24 -50 -57 -67t-80 -17q-92 0 -143.5 52.5t-51.5 188.5v711q0 135 52 188.5t143 53.5v-113q-72 -3 -72 -115v-739q0 -115 74 -115t74 115v643h123
v-643q0 -115 73 -115q74 0 74 115v739zM334 1315l90 207h145l-127 -207h-108z" />
    <glyph glyph-name="uni0401" unicode="&#x401;" horiz-adv-x="546" 
d="M80 0v1569h418v-127h-291v-588h276v-127h-276v-600h291v-127h-418zM150 1702q-37 0 -63 25.5t-26 62.5t26 62.5t63 25.5t62.5 -25.5t25.5 -62.5t-25.5 -62.5t-62.5 -25.5zM418 1702q-37 0 -62.5 25.5t-25.5 62.5t25.5 62.5t62.5 25.5t62.5 -25.5t25.5 -62.5t-25.5 -62.5
t-62.5 -25.5z" />
    <glyph glyph-name="uni0402" unicode="&#x402;" horiz-adv-x="724" 
d="M442 100q51 0 83 39t32 117v358q0 99 -30.5 134.5t-96.5 35.5q-58 0 -92 -24v-760h-127v1442h-195v127h537v-127h-215v-555q53 22 121 22q78 0 124.5 -26.5t73.5 -102.5t27 -211v-258q0 -95 -17.5 -161t-52 -101.5t-75.5 -50t-97 -14.5v116z" />
    <glyph glyph-name="uni0403" unicode="&#x403;" horiz-adv-x="512" 
d="M80 0v1569h418v-127h-291v-1442h-127zM209 1722l90 207h145l-127 -207h-108z" />
    <glyph glyph-name="uni0404" unicode="&#x404;" horiz-adv-x="608" 
d="M430 440h127v-139q0 -95 -17.5 -161t-51.5 -101.5t-75.5 -50.5t-97.5 -15t-97 15t-75 50.5t-51.5 101.5t-17.5 161v967q0 95 17.5 161t51.5 101.5t75 50t97 14.5t97 -14.5t75.5 -50t52 -101.5t17.5 -161v-146h-127v201q0 78 -32 117t-83 39q-50 0 -82 -39t-32 -117v-469
h274v-127h-274v-481q0 -78 32 -117t82 -39q51 0 83 39t32 117v194z" />
    <glyph glyph-name="uni0405" unicode="&#x405;" horiz-adv-x="604" 
d="M416 457q0 59 -37 118t-89 112t-104.5 110t-89.5 134t-37 161v200q0 303 242 303t242 -307v-266h-127v301q0 80 -33.5 118t-81.5 38t-81.5 -38t-33.5 -118v-213q0 -77 37 -143t89 -116.5t104.5 -101.5t89.5 -120t37 -150v-157q0 -180 -53 -264.5t-189 -84.5t-189 85.5
t-53 263.5v202h127v-278q0 -80 33.5 -118t81.5 -38t81.5 38t33.5 118v211z" />
    <glyph glyph-name="uni0406" unicode="&#x406;" horiz-adv-x="286" 
d="M80 0v1569h127v-1569h-127z" />
    <glyph glyph-name="uni0407" unicode="&#x407;" horiz-adv-x="286" 
d="M80 0v1569h127v-1569h-127zM10 1702q-37 0 -62.5 25.5t-25.5 62.5t25.5 62.5t62.5 25.5t62.5 -25.5t25.5 -62.5t-25.5 -62.5t-62.5 -25.5zM279 1702q-37 0 -63 25.5t-26 62.5t26 62.5t63 25.5t62.5 -25.5t25.5 -62.5t-25.5 -62.5t-62.5 -25.5z" />
    <glyph glyph-name="uni0408" unicode="&#x408;" horiz-adv-x="286" 
d="M-37 -393v117h2q48 0 81.5 37.5t33.5 117.5v1690h127v-1635q0 -79 -16.5 -139.5t-41.5 -95t-59 -56.5t-64 -29t-61 -7h-2z" />
    <glyph glyph-name="uni0409" unicode="&#x409;" horiz-adv-x="987" 
d="M469 0v1442h-209v-1163q0 -80 -17 -138.5t-41 -89.5t-59.5 -49t-63 -22.5t-61.5 -4.5h-8v117h8q48 0 81.5 38t33.5 118v1321h463v-672h68q79 0 128 -12.5t85 -48t50.5 -100t14.5 -167.5v-241q0 -103 -14.5 -167.5t-50.5 -100t-85 -48t-128 -12.5h-195zM815 614
q0 85 -27 120.5t-88 35.5h-104v-643h104q61 0 88 35.5t27 120.5v331z" />
    <glyph glyph-name="uni040A" unicode="&#x40a;" horiz-adv-x="954" 
d="M436 0v768h-229v-768h-127v1569h127v-674h229v674h127v-674h68q79 0 128 -12.5t85 -48t50.5 -100t14.5 -167.5v-239q0 -103 -14.5 -167.5t-50.5 -100t-85 -48t-128 -12.5h-195zM782 612q0 85 -26.5 120.5t-87.5 35.5h-105v-641h105q61 0 87.5 35.5t26.5 120.5v329z" />
    <glyph glyph-name="uni040B" unicode="&#x40b;" horiz-adv-x="731" 
d="M557 0v614q0 99 -30.5 134.5t-96.5 35.5q-58 0 -92 -24v-760h-127v1442h-195v127h537v-127h-215v-555q53 22 121 22q78 0 124.5 -26.5t73.5 -102.5t27 -211v-569h-127z" />
    <glyph glyph-name="uni040C" unicode="&#x40c;" horiz-adv-x="595" 
d="M446 0q-7 187 -68 378t-169 406q222 441 235 785h127q-8 -348 -223 -778q217 -437 225 -791h-127zM80 0v1569h127v-1569h-127zM270 1690l90 206h146l-127 -206h-109z" />
    <glyph glyph-name="uni040E" unicode="&#x40e;" horiz-adv-x="708" 
d="M57 0l203 571l-272 998h129l209 -811l278 811h129l-549 -1569h-127zM541 1833q0 -86 -55 -133t-134 -47t-134.5 47t-55.5 133h82q0 -46 29 -71t79 -25q49 0 79 25t30 71h80z" />
    <glyph glyph-name="uni040F" unicode="&#x40f;" horiz-adv-x="643" 
d="M264 -217v217h-184v1569h127v-1442h229v1442h127v-1569h-184v-217h-115z" />
    <glyph glyph-name="uni0410" unicode="&#x410;" horiz-adv-x="589" 
d="M453 0l-45 389h-224l-45 -389h-127l211 1571h144l213 -1571h-127zM295 1346l-94 -840h190z" />
    <glyph glyph-name="uni0411" unicode="&#x411;" horiz-adv-x="598" 
d="M80 0v1569h418v-127h-291v-545h67q80 0 128.5 -12.5t84.5 -48t51 -100t15 -167.5v-241q0 -103 -15 -167.5t-51 -100t-84.5 -48t-128.5 -12.5h-194zM426 614q0 85 -27 120.5t-88 35.5h-104v-643h104q61 0 88 35.5t27 120.5v331z" />
    <glyph glyph-name="uni0412" unicode="&#x412;" horiz-adv-x="628" 
d="M80 0v1569h213q149 0 204.5 -69t55.5 -255v-201q0 -199 -150 -237q86 -18 128 -87.5t42 -164.5v-227q0 -81 -10 -137.5t-30 -94t-54.5 -58.5t-77.5 -29.5t-106 -8.5h-215zM426 1290q0 84 -27 118t-88 34h-104v-576h104q61 0 88 35.5t27 120.5v268zM446 584
q0 155 -135 155h-104v-612h125q61 0 87.5 35.5t26.5 120.5v301z" />
    <glyph glyph-name="uni0413" unicode="&#x413;" horiz-adv-x="512" 
d="M80 0v1569h418v-127h-291v-1442h-127z" />
    <glyph glyph-name="uni0414" unicode="&#x414;" horiz-adv-x="763" 
d="M633 -217v217h-502v-217h-115v323q63 25 95 75.5t36 140.5l41 1247h463v-1442h97v-344h-115zM524 1442h-209l-39 -1088q-5 -82 -24.5 -134.5t-65.5 -92.5h338v1315z" />
    <glyph glyph-name="uni0415" unicode="&#x415;" horiz-adv-x="546" 
d="M80 0v1569h418v-127h-291v-588h276v-127h-276v-600h291v-127h-418z" />
    <glyph glyph-name="uni0416" unicode="&#x416;" horiz-adv-x="905" 
d="M756 0q-7 186 -68 377t-170 407q223 443 236 785h127q-8 -346 -224 -778q218 -439 226 -791h-127zM389 0v1569h127v-1569h-127zM23 0q8 354 225 791q-215 430 -223 778h127q13 -344 235 -785q-108 -215 -169 -406t-68 -378h-127z" />
    <glyph glyph-name="uni0417" unicode="&#x417;" horiz-adv-x="600" 
d="M410 616q0 41 -15.5 69t-41 41.5t-49 18.5t-48.5 5q-31 0 -113 -5v123q22 -4 111 -4q26 0 49.5 5t49.5 18t41.5 41t15.5 69v328q0 80 -33.5 118t-81.5 38t-81.5 -38t-33.5 -118v-203h-127v168q0 159 65.5 233t178.5 74q240 0 240 -307v-215q0 -46 -2.5 -77t-11 -64.5
t-24.5 -55.5t-44.5 -41t-69.5 -30q41 -13 69 -32.5t44.5 -41t25 -54.5t11 -63.5t2.5 -76.5v-258q0 -308 -240 -308q-113 0 -178.5 74.5t-65.5 233.5v159h127v-194q0 -80 33.5 -118t81.5 -38t81.5 38t33.5 118v370z" />
    <glyph glyph-name="uni0418" unicode="&#x418;" horiz-adv-x="688" 
d="M481 0l4 1098l-274 -1098h-131v1569h127l-4 -1114l284 1114h121v-1569h-127z" />
    <glyph glyph-name="uni0419" unicode="&#x419;" horiz-adv-x="688" 
d="M481 0l4 1098l-274 -1098h-131v1569h127l-4 -1114l284 1114h121v-1569h-127zM537 1833q0 -86 -55 -133t-134 -47t-134.5 47t-55.5 133h82q0 -46 29 -71t79 -25q49 0 79 25t30 71h80z" />
    <glyph glyph-name="uni041A" unicode="&#x41a;" horiz-adv-x="595" 
d="M446 0q-7 187 -68 378t-169 406q222 441 235 785h127q-8 -348 -223 -778q217 -437 225 -791h-127zM80 0v1569h127v-1569h-127z" />
    <glyph glyph-name="uni041B" unicode="&#x41b;" horiz-adv-x="696" 
d="M489 0v1442h-229v-1163q0 -80 -17 -138.5t-41 -89.5t-59.5 -49t-63 -22.5t-61.5 -4.5h-8v117h8q48 0 81.5 38t33.5 118v1321h483v-1569h-127z" />
    <glyph glyph-name="uni041C" unicode="&#x41c;" horiz-adv-x="897" 
d="M690 0l8 1280l-221 -1280h-82l-196 1288l8 -1288h-127v1569h194l175 -1127l174 1127h194v-1569h-127z" />
    <glyph glyph-name="uni041D" unicode="&#x41d;" horiz-adv-x="643" 
d="M436 0v737h-229v-737h-127v1569h127v-705h229v705h127v-1569h-127z" />
    <glyph glyph-name="uni041E" unicode="&#x41e;" horiz-adv-x="630" 
d="M74 1268q0 95 17.5 161t51.5 101.5t75 50t97 14.5t97 -14.5t75.5 -50t52 -101.5t17.5 -161v-967q0 -95 -17.5 -161t-51.5 -101.5t-75.5 -50.5t-97.5 -15t-97 15t-75 50.5t-51.5 101.5t-17.5 161v967zM430 1323q0 78 -32 117t-83 39q-50 0 -82 -39t-32 -117v-1077
q0 -78 32 -117t82 -39q51 0 83 39t32 117v1077z" />
    <glyph glyph-name="uni041F" unicode="&#x41f;" horiz-adv-x="643" 
d="M436 0v1442h-229v-1442h-127v1569h483v-1569h-127z" />
    <glyph glyph-name="uni0420" unicode="&#x420;" horiz-adv-x="598" 
d="M80 0v1569h194q80 0 128.5 -12.5t84.5 -48t51 -100t15 -167.5v-242q0 -83 -10.5 -140t-30 -94t-55 -57.5t-78 -28t-105.5 -7.5h-67v-672h-127zM426 1286q0 85 -27 120.5t-88 35.5h-104v-643h104q61 0 88 35t27 120v332z" />
    <glyph glyph-name="uni0421" unicode="&#x421;" horiz-adv-x="612" 
d="M430 524h127v-223q0 -95 -17.5 -161t-51.5 -101.5t-75.5 -50.5t-97.5 -15t-97 15t-75 50.5t-51.5 101.5t-17.5 161v967q0 95 17.5 161t51.5 101.5t75 50t97 14.5t97 -14.5t75.5 -50t52 -101.5t17.5 -161v-244h-127v299q0 78 -32 117t-83 39q-50 0 -82 -39t-32 -117v-1077
q0 -78 32 -117t82 -39q51 0 83 39t32 117v278z" />
    <glyph glyph-name="uni0422" unicode="&#x422;" horiz-adv-x="548" 
d="M211 0v1442h-195v127h516v-127h-194v-1442h-127z" />
    <glyph glyph-name="uni0423" unicode="&#x423;" horiz-adv-x="708" 
d="M57 0l203 571l-272 998h129l209 -811l278 811h129l-549 -1569h-127z" />
    <glyph glyph-name="uni0424" unicode="&#x424;" horiz-adv-x="749" 
d="M311 -2v123q-135 17 -197.5 110.5t-62.5 274.5v557q0 181 62.5 274.5t197.5 110.5v123h127v-123q260 -34 260 -385v-557q0 -351 -260 -385v-123h-127zM311 1327q-69 -19 -101 -76t-32 -133v-667q0 -76 32 -133t101 -76v1085zM571 1118q0 75 -32.5 132.5t-100.5 76.5
v-1085q68 19 100.5 76.5t32.5 132.5v667z" />
    <glyph glyph-name="uni0425" unicode="&#x425;" horiz-adv-x="612" 
d="M483 0l-172 629l-192 -629h-127l264 807l-252 762h129l178 -576l166 576h129l-223 -764l227 -805h-127z" />
    <glyph glyph-name="uni0426" unicode="&#x426;" horiz-adv-x="673" 
d="M545 -217v217h-465v1569h127v-1442h229v1442h127v-1442h96v-344h-114z" />
    <glyph glyph-name="uni0427" unicode="&#x427;" horiz-adv-x="602" 
d="M395 0v682q-55 -23 -121 -23q-78 0 -124.5 26.5t-73.5 102.5t-27 211v570h127v-615q0 -99 30.5 -134.5t96.5 -35.5q56 0 92 25v760h127v-1569h-127z" />
    <glyph glyph-name="uni0428" unicode="&#x428;" horiz-adv-x="958" 
d="M879 0h-799v1569h127v-1442h209v1442h127v-1442h209v1442h127v-1569z" />
    <glyph glyph-name="uni0429" unicode="&#x429;" horiz-adv-x="989" 
d="M860 -217v217h-780v1569h127v-1442h209v1442h127v-1442h209v1442h127v-1442h96v-344h-115z" />
    <glyph glyph-name="uni042A" unicode="&#x42a;" horiz-adv-x="823" 
d="M305 0v1442h-291v127h418v-672h68q79 0 128 -12.5t85 -48t50.5 -100t14.5 -167.5v-241q0 -103 -14.5 -167.5t-50.5 -100t-85 -48t-128 -12.5h-195zM651 614q0 85 -26.5 120.5t-87.5 35.5h-105v-643h105q61 0 87.5 35.5t26.5 120.5v331z" />
    <glyph glyph-name="uni042B" unicode="&#x42b;" horiz-adv-x="903" 
d="M553 328q0 -103 -15 -167.5t-51 -100t-84.5 -48t-128.5 -12.5h-194v1569h127v-672h67q80 0 128.5 -12.5t84.5 -48t51 -100t15 -167.5v-241zM311 127q61 0 88 35.5t27 120.5v331q0 85 -27 120.5t-88 35.5h-104v-643h104zM696 0v1569h127v-1569h-127z" />
    <glyph glyph-name="uni042C" unicode="&#x42c;" horiz-adv-x="598" 
d="M553 328q0 -103 -15 -167.5t-51 -100t-84.5 -48t-128.5 -12.5h-194v1569h127v-672h67q80 0 128.5 -12.5t84.5 -48t51 -100t15 -167.5v-241zM311 127q61 0 88 35.5t27 120.5v331q0 85 -27 120.5t-88 35.5h-104v-643h104z" />
    <glyph glyph-name="uni042D" unicode="&#x42d;" horiz-adv-x="608" 
d="M408 727h-275v127h275v469q0 78 -32 117t-83 39t-83 -39t-32 -117v-201h-127v146q0 95 17.5 161t52 101.5t75.5 50t97 14.5t97 -14.5t75.5 -50t52 -101.5t17.5 -161v-967q0 -95 -17.5 -161t-51.5 -101.5t-75.5 -50.5t-97.5 -15t-97.5 15t-75.5 50.5t-51.5 101.5
t-17.5 161v139h127v-194q0 -78 32 -117t83 -39t83 39t32 117v481z" />
    <glyph glyph-name="uni042E" unicode="&#x42e;" horiz-adv-x="937" 
d="M80 0v1569h127v-715h174v414q0 95 17.5 161t52 101.5t75.5 50t97 14.5t97 -14.5t75 -50t51.5 -101.5t17.5 -161v-967q0 -95 -17.5 -161t-51.5 -101.5t-75 -50.5t-97 -15t-97.5 15t-75.5 50.5t-51.5 101.5t-17.5 161v426h-174v-727h-127zM737 1323q0 78 -32 117t-82 39
q-51 0 -83 -39t-32 -117v-1077q0 -78 32 -117t83 -39q50 0 82 39t32 117v1077z" />
    <glyph glyph-name="uni042F" unicode="&#x42f;" horiz-adv-x="606" 
d="M526 0h-127v682h-75l-185 -682h-127l193 696q-84 23 -118 96.5t-34 213.5v235q0 104 14.5 168t50 99.5t83.5 48t127 12.5h198v-1569zM399 799v643h-104q-61 0 -88 -35.5t-27 -120.5v-332q0 -85 27 -120t88 -35h104z" />
    <glyph glyph-name="uni0430" unicode="&#x430;" horiz-adv-x="514" 
d="M352 0l-18 94q-11 -20 -16 -28.5t-19 -27.5t-27 -28.5t-35 -17.5t-47 -8q-77 0 -106 69t-29 238v22q0 174 30.5 244t109.5 70q46 0 76 -22.5t55 -74.5v379q0 87 -16 121.5t-58 34.5t-58 -34.5t-16 -121.5v-118h-123v108q0 152 42 215.5t157 63.5q106 0 150.5 -61.5
t44.5 -217.5v-899h-97zM326 356q0 152 -78 152q-40 0 -55 -34.5t-15 -121.5v-104q0 -80 15 -117t51 -37q39 0 60.5 39t21.5 137v86z" />
    <glyph glyph-name="uni0431" unicode="&#x431;" horiz-adv-x="522" 
d="M66 965q0 176 18 277t56.5 158t113.5 101q74 41 182 74l43 -88l-19.5 -6.5t-25.5 -9t-26.5 -10.5t-30.5 -13t-29 -13.5t-30.5 -16t-26.5 -17.5q-59 -42 -79.5 -113t-27.5 -217q13 41 54.5 75t89.5 34q57 0 94 -59t37 -189v-707q0 -136 -52.5 -188.5t-144.5 -52.5
t-144 52.5t-52 188.5v740zM336 930q0 137 -68 137q-80 0 -80 -158v-698q0 -115 74 -115t74 115v719z" />
    <glyph glyph-name="uni0432" unicode="&#x432;" horiz-adv-x="522" 
d="M68 0v1161h196q93 0 145 -52t52 -189v-58q0 -49 -2 -78t-9.5 -63.5t-23 -55.5t-44 -40.5t-69.5 -30.5q115 -19 145 -98q17 -54 17 -170v-84q0 -136 -52 -189t-144 -53h-211zM352 403q0 41 -14.5 69.5t-38.5 42t-46.5 19t-47.5 5.5h-15v-426h89q73 0 73 114v176zM338 934
q0 115 -74 115h-74v-400h13q17 0 37 5.5t43.5 18.5t39 42t15.5 69v150z" />
    <glyph glyph-name="uni0433" unicode="&#x433;" horiz-adv-x="473" 
d="M68 0v1161h393v-112h-271v-1049h-122z" />
    <glyph glyph-name="uni0434" unicode="&#x434;" horiz-adv-x="634" 
d="M510 -197v197h-371v-197h-125v295q50 20 76.5 58.5t30.5 107.5l31 895h391v-1046h75v-310h-108zM420 1049h-146l-28 -760q-5 -64 -20 -104.5t-50 -71.5h244v936z" />
    <glyph glyph-name="uni0435" unicode="&#x435;" horiz-adv-x="512" 
d="M334 383h123v-158q0 -136 -52.5 -188.5t-144.5 -52.5t-144.5 52.5t-52.5 188.5v711q0 137 52 189.5t145 52.5t145 -52.5t52 -189.5v-401h-271v-324q0 -115 74 -115t74 115v172zM334 950q0 115 -74 115t-74 -115v-305h148v305z" />
    <glyph glyph-name="uni0436" unicode="&#x436;" horiz-adv-x="778" 
d="M623 0q0 295 -168 594q168 282 168 567h127q0 -285 -160 -561q158 -302 158 -600h-125zM330 0v1161h123v-1161h-123zM35 0q0 298 158 600q-160 276 -160 561h127q0 -285 168 -567q-168 -299 -168 -594h-125z" />
    <glyph glyph-name="uni0437" unicode="&#x437;" horiz-adv-x="491" 
d="M438 225q0 -136 -52 -188.5t-144 -52.5t-144.5 52.5t-52.5 188.5v107h123v-121q0 -115 74 -115q73 0 73 115v192q0 40 -14.5 69t-37.5 42.5t-43 19t-38 5.5q-38 0 -71 -2v114q33 -2 69 -2q17 0 37 5.5t43.5 18.5t39 42t15.5 69v166q0 115 -73 115q-74 0 -74 -115v-92
h-123v78q0 137 52 189.5t145 52.5q44 0 77 -10.5t61 -36t43 -75t15 -120.5v-74q0 -49 -1.5 -77.5t-9.5 -63.5t-23.5 -56t-43.5 -40.5t-69 -30.5q35 -11 60 -25t41 -34t25.5 -39t14 -50t5.5 -55t1 -65v-101z" />
    <glyph glyph-name="uni0438" unicode="&#x438;" horiz-adv-x="581" 
d="M391 0l4 793l-196 -793h-131v1161h122l-4 -792l197 792h131v-1161h-123z" />
    <glyph glyph-name="uni0439" unicode="&#x439;" horiz-adv-x="581" 
d="M391 0l4 793l-196 -793h-131v1161h122l-4 -792l197 792h131v-1161h-123zM475 1444q0 -86 -54.5 -133t-133.5 -47t-135 47t-56 133h82q0 -46 29 -71t80 -25q49 0 78.5 25t29.5 71h80z" />
    <glyph glyph-name="uni043A" unicode="&#x43a;" horiz-adv-x="516" 
d="M360 0q0 297 -167 594q167 281 167 567h127q0 -287 -159 -561q157 -300 157 -600h-125zM68 0v1161h122v-1161h-122z" />
    <glyph glyph-name="uni043B" unicode="&#x43b;" horiz-adv-x="550" 
d="M358 0v1049h-147v-758q0 -64 -3.5 -108.5t-13 -84t-26.5 -63t-44.5 -36.5t-66.5 -13q-27 0 -41 2v102h4q4 -2 11 -2q33 0 45 37t12 108v928h393v-1161h-123z" />
    <glyph glyph-name="uni043C" unicode="&#x43c;" horiz-adv-x="753" 
d="M563 0l8 772l-155 -772h-78l-156 772l8 -772h-122v1161h133l176 -811l176 811h133v-1161h-123z" />
    <glyph glyph-name="uni043D" unicode="&#x43d;" horiz-adv-x="528" 
d="M338 0v535h-148v-535h-122v1161h122v-514h148v514h123v-1161h-123z" />
    <glyph glyph-name="uni043E" unicode="&#x43e;" horiz-adv-x="520" 
d="M63 936q0 137 52 189.5t145 52.5t145 -52.5t52 -189.5v-711q0 -136 -52.5 -188.5t-144.5 -52.5t-144.5 52.5t-52.5 188.5v711zM334 950q0 115 -74 115t-74 -115v-739q0 -115 74 -115t74 115v739z" />
    <glyph glyph-name="uni043F" unicode="&#x43f;" horiz-adv-x="528" 
d="M338 0v1049h-148v-1049h-122v1161h393v-1161h-123z" />
    <glyph glyph-name="uni0440" unicode="&#x440;" horiz-adv-x="524" 
d="M193 -408h-123v1569h96l18 -94q14 26 21 37.5t25.5 33t42.5 31t55 9.5q77 0 106 -69.5t29 -238.5v-579q0 -169 -29 -238t-106 -69q-86 0 -135 92v-484zM193 270q0 -98 21 -137t60 -39q36 0 51 37t15 117v665q0 80 -15 117t-51 37q-39 0 -60 -39t-21 -137v-621z" />
    <glyph glyph-name="uni0441" unicode="&#x441;" horiz-adv-x="507" 
d="M334 455h123v-230q0 -136 -52.5 -188.5t-144.5 -52.5t-144.5 52.5t-52.5 188.5v711q0 137 52 189.5t145 52.5t145 -52.5t52 -189.5v-201h-123v215q0 115 -74 115t-74 -115v-739q0 -115 74 -115t74 115v244z" />
    <glyph glyph-name="uni0442" unicode="&#x442;" horiz-adv-x="522" 
d="M199 0v1049h-187v112h498v-112h-188v-1049h-123z" />
    <glyph glyph-name="uni0443" unicode="&#x443;" horiz-adv-x="499" 
d="M119 -410l63 347l-164 1224h132l100 -964l106 964h131l-237 -1571h-131z" />
    <glyph glyph-name="uni0444" unicode="&#x444;" horiz-adv-x="708" 
d="M295 -406v394q-126 17 -183 91t-57 208v587q0 134 57 208.5t183 91.5v395h119v-395q126 -17 182.5 -91.5t56.5 -208.5v-587q0 -134 -56.5 -208t-182.5 -91v-394h-119zM295 1057q-117 -32 -117 -168v-617q0 -138 117 -168v953zM530 889q0 136 -116 168v-953
q116 30 116 168v617z" />
    <glyph glyph-name="uni0445" unicode="&#x445;" horiz-adv-x="499" 
d="M367 0l-125 428l-109 -428h-119l172 594l-170 567h121l113 -393l108 393h125l-178 -569l182 -592h-120z" />
    <glyph glyph-name="uni0446" unicode="&#x446;" horiz-adv-x="552" 
d="M426 -197v197h-356v1161h123v-1048h147v1048h123v-1048h72v-310h-109z" />
    <glyph glyph-name="uni0447" unicode="&#x447;" horiz-adv-x="507" 
d="M317 0v582q-31 -58 -52 -78q-35 -33 -85 -33q-74 0 -103.5 70t-29.5 237v383h123v-426q0 -80 15 -116.5t51 -36.5q39 0 60 39t21 137v403h123v-1161h-123z" />
    <glyph glyph-name="uni0448" unicode="&#x448;" horiz-adv-x="778" 
d="M711 0h-643v1161h122v-1048h138v1048h123v-1048h137v1048h123v-1161z" />
    <glyph glyph-name="uni0449" unicode="&#x449;" horiz-adv-x="802" 
d="M676 -197v197h-606v1161h123v-1048h137v1048h123v-1048h137v1048h123v-1048h71v-310h-108z" />
    <glyph glyph-name="uni044A" unicode="&#x44a;" horiz-adv-x="669" 
d="M242 0v1049h-230v112h353v-489h73q92 0 144.5 -53t52.5 -189v-188q0 -137 -52 -189.5t-145 -52.5h-196zM512 444q0 115 -74 115h-73v-446h73q74 0 74 114v217z" />
    <glyph glyph-name="uni044B" unicode="&#x44b;" horiz-adv-x="784" 
d="M594 0v1161h123v-1161h-123zM338 444q0 115 -74 115h-74v-446h74q74 0 74 114v217zM68 0v1161h122v-489h74q92 0 144.5 -53t52.5 -189v-188q0 -137 -52 -189.5t-145 -52.5h-196z" />
    <glyph glyph-name="uni044C" unicode="&#x44c;" horiz-adv-x="495" 
d="M338 444q0 115 -74 115h-74v-446h74q74 0 74 114v217zM68 0v1161h122v-489h74q92 0 144.5 -53t52.5 -189v-188q0 -137 -52 -189.5t-145 -52.5h-196z" />
    <glyph glyph-name="uni044D" unicode="&#x44d;" horiz-adv-x="499" 
d="M313 535h-225v112h225v303q0 115 -73 115q-74 0 -74 -115v-92h-123v78q0 137 52 189.5t145 52.5q44 0 77 -10.5t61 -36t43 -75t15 -120.5v-711q0 -136 -52 -188.5t-144 -52.5t-144.5 52.5t-52.5 188.5v107h123v-121q0 -115 74 -115q73 0 73 115v324z" />
    <glyph glyph-name="uni044E" unicode="&#x44e;" horiz-adv-x="792" 
d="M70 0v1161h123v-514h143v289q0 71 15 120.5t43 75t61 36t77 10.5q93 0 145 -52.5t52 -189.5v-711q0 -136 -52.5 -188.5t-144.5 -52.5t-144 52.5t-52 188.5v310h-143v-535h-123zM606 950q0 115 -74 115q-73 0 -73 -115v-739q0 -115 73 -115q74 0 74 115v739z" />
    <glyph glyph-name="uni044F" unicode="&#x44f;" horiz-adv-x="512" 
d="M322 0v496h-62l-131 -496h-113l136 512q-101 43 -101 225v183q0 137 52 189t145 52h196v-1161h-122zM322 1049h-74q-74 0 -74 -115v-211q0 -115 74 -115h74v441z" />
    <glyph glyph-name="uni0451" unicode="&#x451;" horiz-adv-x="509" 
d="M332 383h123v-158q0 -136 -52.5 -188.5t-144.5 -52.5t-144.5 52.5t-52.5 188.5v711q0 137 52 189.5t145 52.5t145 -52.5t52 -189.5v-401h-271v-324q0 -115 74 -115t74 115v172zM332 950q0 115 -74 115t-74 -115v-305h148v305zM123 1294q-37 0 -62.5 25.5t-25.5 62.5
t25.5 62.5t62.5 25.5t62.5 -25.5t25.5 -62.5t-25.5 -62.5t-62.5 -25.5zM391 1294q-37 0 -62.5 25.5t-25.5 62.5t25.5 62.5t62.5 25.5t62.5 -25.5t25.5 -62.5t-25.5 -62.5t-62.5 -25.5z" />
    <glyph glyph-name="uni0452" unicode="&#x452;" horiz-adv-x="526" 
d="M203 -309q16 -2 35 -2q29 0 48 7.5t29.5 18t15.5 34t6 42t1 55.5v1067q0 80 -15 117t-51 37q-39 0 -60.5 -39t-21.5 -137v-891h-122v1337h-70v107h70v125h122v-125h195v-107h-195v-270q32 60 55 80q34 31 83 31q74 0 103.5 -70.5t29.5 -237.5v-1005q0 -149 -35.5 -218
t-140.5 -69q-30 0 -82 10v103z" />
    <glyph glyph-name="uni0453" unicode="&#x453;" horiz-adv-x="473" 
d="M68 0v1161h393v-112h-271v-1049h-122zM195 1315l90 207h145l-127 -207h-108z" />
    <glyph glyph-name="uni0454" unicode="&#x454;" horiz-adv-x="499" 
d="M457 225q0 -136 -52.5 -188.5t-144.5 -52.5t-144.5 52.5t-52.5 188.5v711q0 137 52 189.5t145 52.5t145 -52.5t52 -189.5v-78h-123v92q0 115 -74 115t-74 -115v-303h226v-112h-226v-324q0 -115 74 -115t74 115v121h123v-107z" />
    <glyph glyph-name="uni0455" unicode="&#x455;" horiz-adv-x="512" 
d="M172 246q0 -85 15 -117.5t61 -32.5q49 0 70.5 34t21.5 112q0 69 -16 121.5t-41.5 86.5t-56.5 63.5t-62.5 62.5t-57 73.5t-41.5 105.5t-16 150q0 83 14.5 138.5t44 84t64.5 39.5t84 11q109 0 158 -58.5t49 -208.5v-137h-123v135q0 92 -16.5 124t-65.5 32t-67.5 -29.5
t-18.5 -113.5q0 -77 16 -133.5t41.5 -91.5t56.5 -63.5t62.5 -59t57 -68.5t41.5 -101.5t16 -148.5q0 -153 -51.5 -212.5t-161.5 -59.5q-115 0 -158 62.5t-43 223.5v113h123v-137z" />
    <glyph glyph-name="uni0456" unicode="&#x456;" horiz-adv-x="258" 
d="M68 0v1161h122v-1161h-122zM129 1311q-38 0 -65 27t-27 65t27 65t65 27t65 -27t27 -65t-27 -65t-65 -27z" />
    <glyph glyph-name="uni0457" unicode="&#x457;" horiz-adv-x="258" 
d="M68 0v1161h122v-1161h-122zM-4 1294q-37 0 -62.5 25.5t-25.5 62.5t25.5 62.5t62.5 25.5t62.5 -25.5t25.5 -62.5t-25.5 -62.5t-62.5 -25.5zM264 1294q-37 0 -62.5 25.5t-25.5 62.5t25.5 62.5t62.5 25.5t62.5 -25.5t25.5 -62.5t-25.5 -62.5t-62.5 -25.5z" />
    <glyph glyph-name="uni0458" unicode="&#x458;" horiz-adv-x="258" 
d="M-68 -309q16 -2 35 -2q29 0 48 7.5t29.5 18t16 33.5t6.5 42.5t1 55.5v1315h122v-1296q0 -149 -35.5 -218t-140.5 -69q-30 0 -82 10v103zM129 1311q-38 0 -65 27t-27 65t27 65t65 27t65 -27t27 -65t-27 -65t-65 -27z" />
    <glyph glyph-name="uni0459" unicode="&#x459;" horiz-adv-x="788" 
d="M358 0v1049h-147v-758q0 -64 -3.5 -108.5t-13 -84t-26.5 -63t-44.5 -36.5t-66.5 -13q-27 0 -41 2v102h4q4 -2 11 -2q33 0 45 37t12 108v928h393v-489h74q92 0 144.5 -53t52.5 -189v-188q0 -137 -52 -189.5t-145 -52.5h-197zM629 444q0 115 -74 115h-74v-446h74
q74 0 74 114v217z" />
    <glyph glyph-name="uni045A" unicode="&#x45a;" horiz-adv-x="765" 
d="M338 0v557h-148v-557h-122v1161h122v-491h148v491h123v-489h74q92 0 144 -53t52 -189v-188q0 -71 -15 -120.5t-43 -75t-61 -36t-77 -10.5h-197zM608 444q0 115 -73 115h-74v-446h74q73 0 73 114v217z" />
    <glyph glyph-name="uni045B" unicode="&#x45b;" horiz-adv-x="526" 
d="M338 0v913q0 80 -15 117t-51 37q-39 0 -60.5 -39t-21.5 -137v-891h-122v1337h-70v107h70v125h122v-125h195v-107h-195v-270q32 60 55 80q34 31 83 31q74 0 103.5 -70.5t29.5 -237.5v-870h-123z" />
    <glyph glyph-name="uni045C" unicode="&#x45c;" horiz-adv-x="516" 
d="M360 0q0 297 -167 594q167 281 167 567h127q0 -287 -159 -561q157 -300 157 -600h-125zM68 0v1161h122v-1161h-122zM219 1315l90 207h146l-127 -207h-109z" />
    <glyph glyph-name="uni045E" unicode="&#x45e;" horiz-adv-x="499" 
d="M119 -410l63 347l-164 1224h132l100 -964l106 964h131l-237 -1571h-131zM440 1485q0 -86 -54.5 -133t-133.5 -47t-135 47t-56 133h82q0 -46 29 -71t80 -25q49 0 78.5 25t29.5 71h80z" />
    <glyph glyph-name="uni045F" unicode="&#x45f;" horiz-adv-x="528" 
d="M211 -197v197h-143v1161h122v-1048h148v1048h123v-1161h-142v-197h-108z" />
    <glyph glyph-name="uni0490" unicode="&#x490;" horiz-adv-x="512" 
d="M80 0v1569h303v217h115v-344h-291v-1442h-127z" />
    <glyph glyph-name="uni0491" unicode="&#x491;" horiz-adv-x="475" 
d="M70 0v1161h284v197h109v-309h-270v-1049h-123z" />
    <glyph glyph-name="uni1E02" unicode="&#x1e02;" horiz-adv-x="628" 
d="M80 0v1569h213q149 0 204.5 -69t55.5 -255v-201q0 -199 -150 -237q86 -18 128 -87.5t42 -164.5v-227q0 -81 -10 -137.5t-30 -94t-54.5 -58.5t-77.5 -29.5t-106 -8.5h-215zM426 1290q0 84 -27 118t-88 34h-104v-576h104q61 0 88 35.5t27 120.5v268zM446 584
q0 155 -135 155h-104v-612h125q61 0 87.5 35.5t26.5 120.5v301zM293 1702q-37 0 -62.5 25.5t-25.5 62.5t25.5 62.5t62.5 25.5t62.5 -25.5t25.5 -62.5t-25.5 -62.5t-62.5 -25.5z" />
    <glyph glyph-name="uni1E03" unicode="&#x1e03;" horiz-adv-x="524" 
d="M70 0v1569h123v-502q12 24 20.5 38t25 34t39 29.5t50.5 9.5q77 0 106 -69.5t29 -238.5v-579q0 -169 -29 -238t-106 -69q-25 0 -47 8t-35 17.5t-27 28.5t-19 27.5t-16 28.5l-18 -94h-96zM340 913q0 80 -15 117t-51 37q-39 0 -60 -39t-21 -137v-621q0 -98 21 -137t60 -39
q36 0 51 37t15 117v665zM362 1393q-37 0 -62.5 25.5t-25.5 62.5t25.5 62.5t62.5 25.5t63 -25.5t26 -62.5t-26 -62.5t-63 -25.5z" />
    <glyph glyph-name="uni1E0A" unicode="&#x1e0a;" horiz-adv-x="626" 
d="M80 0v1569h194q80 0 128.5 -12.5t84.5 -48t51 -100t15 -167.5v-913q0 -103 -15 -167.5t-51 -100t-84.5 -48t-128.5 -12.5h-194zM426 1286q0 85 -27 120.5t-88 35.5h-104v-1315h104q61 0 88 35.5t27 120.5v1003zM299 1702q-37 0 -62.5 25.5t-25.5 62.5t25.5 62.5
t62.5 25.5t62.5 -25.5t25.5 -62.5t-25.5 -62.5t-62.5 -25.5z" />
    <glyph glyph-name="uni1E0B" unicode="&#x1e0b;" horiz-adv-x="524" 
d="M358 0l-18 94q-14 -26 -21 -37t-25 -32.5t-42 -31t-55 -9.5q-77 0 -106.5 69t-29.5 238v579q0 169 29.5 238.5t106.5 69.5q92 0 135 -111v502h123v-1569h-97zM332 891q0 98 -21.5 137t-60.5 39q-36 0 -51 -37t-15 -117v-665q0 -80 15 -117t51 -37q39 0 60.5 39t21.5 137
v621zM145 1393q-37 0 -62.5 25.5t-25.5 62.5t25.5 62.5t62.5 25.5t62.5 -25.5t25.5 -62.5t-25.5 -62.5t-62.5 -25.5z" />
    <glyph glyph-name="uni1E1E" unicode="&#x1e1e;" horiz-adv-x="538" 
d="M80 0v1569h418v-127h-291v-588h276v-127h-276v-727h-127zM293 1702q-37 0 -62.5 25.5t-25.5 62.5t25.5 62.5t62.5 25.5t62.5 -25.5t25.5 -62.5t-25.5 -62.5t-62.5 -25.5z" />
    <glyph glyph-name="uni1E1F" unicode="&#x1e1f;" horiz-adv-x="372" 
d="M240 0h-123v1049h-113v112h113v113q0 174 39 240.5t135 66.5q39 0 84 -10v-103q-18 2 -47 2q-55 0 -71.5 -28.5t-16.5 -110.5v-170h133v-112h-133v-1049zM240 1698q-37 0 -62.5 25.5t-25.5 62.5t25.5 62.5t62.5 25.5t62.5 -25.5t25.5 -62.5t-25.5 -62.5t-62.5 -25.5z" />
    <glyph glyph-name="uni1E22" unicode="&#x1e22;" horiz-adv-x="643" 
d="M436 0v737h-229v-737h-127v1569h127v-705h229v705h127v-1569h-127zM322 1702q-37 0 -63 25.5t-26 62.5t26 62.5t63 25.5t62.5 -25.5t25.5 -62.5t-25.5 -62.5t-62.5 -25.5z" />
    <glyph glyph-name="uni1E23" unicode="&#x1e23;" horiz-adv-x="526" 
d="M338 0v913q0 80 -15 117t-51 37q-39 0 -60.5 -39t-21.5 -137v-891h-122v1569h122v-502q32 60 55 80q34 31 83 31q74 0 103.5 -70.5t29.5 -237.5v-870h-123zM369 1393q-37 0 -62.5 25.5t-25.5 62.5t25.5 62.5t62.5 25.5t62.5 -25.5t25.5 -62.5t-25.5 -62.5t-62.5 -25.5z
" />
    <glyph glyph-name="uni1E40" unicode="&#x1e40;" horiz-adv-x="897" 
d="M690 0l8 1280l-221 -1280h-82l-196 1288l8 -1288h-127v1569h194l175 -1127l174 1127h194v-1569h-127zM449 1702q-37 0 -63 25.5t-26 62.5t26 62.5t63 25.5t62.5 -25.5t25.5 -62.5t-25.5 -62.5t-62.5 -25.5z" />
    <glyph glyph-name="uni1E41" unicode="&#x1e41;" horiz-adv-x="798" 
d="M610 0v913q0 80 -14.5 117t-50.5 37q-39 0 -60.5 -37t-21.5 -129v-901h-123v913q0 80 -15 117t-51 37q-39 0 -60 -39t-21 -137v-891h-123v1161h96l18 -94q14 26 21 37.5t25.5 33t42.5 31t55 9.5q96 0 123 -127q24 59 56 93t91 34q77 0 106 -69.5t29 -238.5v-870h-123z
M397 1294q-37 0 -62.5 25.5t-25.5 62.5t25.5 62.5t62.5 25.5t62.5 -25.5t25.5 -62.5t-25.5 -62.5t-62.5 -25.5z" />
    <glyph glyph-name="uni1E56" unicode="&#x1e56;" horiz-adv-x="598" 
d="M80 0v1569h194q80 0 128.5 -12.5t84.5 -48t51 -100t15 -167.5v-242q0 -83 -10.5 -140t-30 -94t-55 -57.5t-78 -28t-105.5 -7.5h-67v-672h-127zM426 1286q0 85 -27 120.5t-88 35.5h-104v-643h104q61 0 88 35t27 120v332zM295 1702q-37 0 -62.5 25.5t-25.5 62.5t25.5 62.5
t62.5 25.5t62.5 -25.5t25.5 -62.5t-25.5 -62.5t-62.5 -25.5z" />
    <glyph glyph-name="uni1E57" unicode="&#x1e57;" horiz-adv-x="524" 
d="M193 -408h-123v1569h96l18 -94q14 26 21 37.5t25.5 33t42.5 31t55 9.5q77 0 106 -69.5t29 -238.5v-579q0 -169 -29 -238t-106 -69q-86 0 -135 92v-484zM193 270q0 -98 21 -137t60 -39q36 0 51 37t15 117v665q0 80 -15 117t-51 37q-39 0 -60 -39t-21 -137v-621zM260 1294
q-37 0 -62.5 25.5t-25.5 62.5t25.5 62.5t62.5 25.5t62.5 -25.5t25.5 -62.5t-25.5 -62.5t-62.5 -25.5z" />
    <glyph glyph-name="uni1E60" unicode="&#x1e60;" horiz-adv-x="604" 
d="M416 457q0 59 -37 118t-89 112t-104.5 110t-89.5 134t-37 161v200q0 303 242 303t242 -307v-266h-127v301q0 80 -33.5 118t-81.5 38t-81.5 -38t-33.5 -118v-213q0 -77 37 -143t89 -116.5t104.5 -101.5t89.5 -120t37 -150v-157q0 -180 -53 -264.5t-189 -84.5t-189 85.5
t-53 263.5v202h127v-278q0 -80 33.5 -118t81.5 -38t81.5 38t33.5 118v211zM301 1702q-37 0 -62.5 25.5t-25.5 62.5t25.5 62.5t62.5 25.5t62.5 -25.5t25.5 -62.5t-25.5 -62.5t-62.5 -25.5z" />
    <glyph glyph-name="uni1E61" unicode="&#x1e61;" horiz-adv-x="503" 
d="M168 246q0 -85 15 -117.5t61 -32.5q49 0 70.5 34t21.5 112q0 69 -16 121.5t-41.5 86.5t-56.5 63.5t-62.5 62.5t-57 73.5t-41.5 105.5t-16 150q0 83 14.5 138.5t44 84t64.5 39.5t84 11q109 0 158 -58.5t49 -208.5v-137h-123v135q0 92 -16.5 124t-65.5 32t-67.5 -29.5
t-18.5 -113.5q0 -77 16 -133.5t41.5 -91.5t56.5 -63.5t62.5 -59t57 -68.5t41.5 -101.5t16 -148.5q0 -153 -51.5 -212.5t-161.5 -59.5q-115 0 -158 62.5t-43 223.5v113h123v-137zM252 1294q-37 0 -62.5 25.5t-25.5 62.5t25.5 62.5t62.5 25.5t62.5 -25.5t25.5 -62.5
t-25.5 -62.5t-62.5 -25.5z" />
    <glyph glyph-name="uni1E6A" unicode="&#x1e6a;" horiz-adv-x="548" 
d="M211 0v1442h-195v127h516v-127h-194v-1442h-127zM274 1702q-37 0 -62.5 25.5t-25.5 62.5t25.5 62.5t62.5 25.5t62.5 -25.5t25.5 -62.5t-25.5 -62.5t-62.5 -25.5z" />
    <glyph glyph-name="uni1E6B" unicode="&#x1e6b;" horiz-adv-x="364" 
d="M358 -6q-45 -10 -86 -10q-106 0 -139 66.5t-33 240.5v758h-92v112h92v287h123v-287h133v-112h-133v-816q0 -82 16.5 -110.5t71.5 -28.5q29 0 47 2v-102zM162 1561q-37 0 -62.5 25.5t-25.5 62.5t25.5 62.5t62.5 25.5t62.5 -25.5t25.5 -62.5t-25.5 -62.5t-62.5 -25.5z" />
    <glyph glyph-name="Wgrave" unicode="&#x1e80;" horiz-adv-x="935" 
d="M598 0l-131 1182l-129 -1182h-143l-172 1569h127l116 -1299l135 1299h131l138 -1299l114 1299h127l-170 -1569h-143zM543 1722h-109l-127 207h146z" />
    <glyph glyph-name="wgrave" unicode="&#x1e81;" horiz-adv-x="804" 
d="M496 0l-95 862l-92 -862h-135l-158 1161h131l93 -915l94 915h137l94 -915l92 915h131l-157 -1161h-135zM473 1315h-108l-127 207h145z" />
    <glyph glyph-name="Wacute" unicode="&#x1e82;" horiz-adv-x="935" 
d="M598 0l-131 1182l-129 -1182h-143l-172 1569h127l116 -1299l135 1299h131l138 -1299l114 1299h127l-170 -1569h-143zM410 1722l90 207h145l-127 -207h-108z" />
    <glyph glyph-name="wacute" unicode="&#x1e83;" horiz-adv-x="804" 
d="M496 0l-95 862l-92 -862h-135l-158 1161h131l93 -915l94 915h137l94 -915l92 915h131l-157 -1161h-135zM336 1315l90 207h145l-127 -207h-108z" />
    <glyph glyph-name="Wdieresis" unicode="&#x1e84;" horiz-adv-x="935" 
d="M598 0l-131 1182l-129 -1182h-143l-172 1569h127l116 -1299l135 1299h131l138 -1299l114 1299h127l-170 -1569h-143zM332 1702q-37 0 -62.5 25.5t-25.5 62.5t25.5 62.5t62.5 25.5t62.5 -25.5t25.5 -62.5t-25.5 -62.5t-62.5 -25.5zM600 1702q-37 0 -62.5 25.5t-25.5 62.5
t25.5 62.5t62.5 25.5t62.5 -25.5t25.5 -62.5t-25.5 -62.5t-62.5 -25.5z" />
    <glyph glyph-name="wdieresis" unicode="&#x1e85;" horiz-adv-x="804" 
d="M496 0l-95 862l-92 -862h-135l-158 1161h131l93 -915l94 915h137l94 -915l92 915h131l-157 -1161h-135zM268 1294q-37 0 -62.5 25.5t-25.5 62.5t25.5 62.5t62.5 25.5t62.5 -25.5t25.5 -62.5t-25.5 -62.5t-62.5 -25.5zM537 1294q-37 0 -62.5 25.5t-25.5 62.5t25.5 62.5
t62.5 25.5t62.5 -25.5t25.5 -62.5t-25.5 -62.5t-62.5 -25.5z" />
    <glyph glyph-name="Ygrave" unicode="&#x1ef2;" horiz-adv-x="606" 
d="M242 0v586l-224 983h129l156 -762l156 762h129l-223 -983v-586h-123zM379 1722h-109l-127 207h146z" />
    <glyph glyph-name="ygrave" unicode="&#x1ef3;" horiz-adv-x="501" 
d="M123 -410l63 347l-163 1224h131l100 -964l106 964h132l-238 -1571h-131zM342 1315h-109l-127 207h146z" />
    <glyph glyph-name="endash" unicode="&#x2013;" horiz-adv-x="524" 
d="M66 541v114h393v-114h-393z" />
    <glyph glyph-name="emdash" unicode="&#x2014;" horiz-adv-x="794" 
d="M66 541v114h663v-114h-663z" />
    <glyph glyph-name="uni2015" unicode="&#x2015;" horiz-adv-x="2179" 
d="M66 541v114h2048v-114h-2048z" />
    <glyph glyph-name="quoteleft" unicode="&#x2018;" horiz-adv-x="321" 
d="M37 1122l192 447h70l-113 -447h-149z" />
    <glyph glyph-name="quoteright" unicode="&#x2019;" horiz-adv-x="315" 
d="M41 1122l113 447h149l-192 -447h-70z" />
    <glyph glyph-name="quotesinglbase" unicode="&#x201a;" horiz-adv-x="382" 
d="M37 -276l113 446h149l-193 -446h-69z" />
    <glyph glyph-name="quotedblleft" unicode="&#x201c;" horiz-adv-x="577" 
d="M293 1122l192 447h70l-113 -447h-149zM37 1122l192 447h70l-113 -447h-149z" />
    <glyph glyph-name="quotedblright" unicode="&#x201d;" horiz-adv-x="571" 
d="M41 1122l113 447h149l-192 -447h-70zM297 1122l113 447h149l-192 -447h-70z" />
    <glyph glyph-name="quotedblbase" unicode="&#x201e;" horiz-adv-x="638" 
d="M37 -276l113 446h149l-193 -446h-69zM293 -276l113 446h149l-193 -446h-69z" />
    <glyph glyph-name="dagger" unicode="&#x2020;" horiz-adv-x="598" 
d="M258 -123l-20 1182l-205 -10v112l215 -10l-21 418h144l-23 -418l217 10v-112l-205 10l-20 -1182h-82z" />
    <glyph glyph-name="daggerdbl" unicode="&#x2021;" horiz-adv-x="610" 
d="M264 -123l-14 770l-211 -8v113l211 -11q-6 71 -6 140q0 99 8 178l-213 -10v112l215 -10l-21 418h144l-23 -418l217 10v-112l-213 10q7 -100 7 -170q0 -62 -7 -148l213 11v-113l-213 8l-12 -770h-82z" />
    <glyph glyph-name="bullet" unicode="&#x2022;" horiz-adv-x="550" 
d="M279 594q-83 0 -140 53.5t-57 138.5q0 79 56.5 136t137.5 57q30 0 60.5 -9.5t61.5 -29.5t50 -60t19 -94q0 -86 -57 -139t-131 -53z" />
    <glyph glyph-name="onedotenleader" unicode="&#x2024;" horiz-adv-x="303" 
d="M238 70q0 -35 -25.5 -60.5t-60.5 -25.5t-60.5 25.5t-25.5 60.5t25.5 60.5t60.5 25.5t60.5 -25.5t25.5 -60.5z" />
    <glyph glyph-name="twodotenleader" unicode="&#x2025;" horiz-adv-x="606" 
d="M238 70q0 -35 -25.5 -60.5t-60.5 -25.5t-60.5 25.5t-25.5 60.5t25.5 60.5t60.5 25.5t60.5 -25.5t25.5 -60.5zM541 70q0 -35 -25.5 -60.5t-60.5 -25.5t-60.5 25.5t-25.5 60.5t25.5 60.5t60.5 25.5t60.5 -25.5t25.5 -60.5z" />
    <glyph glyph-name="ellipsis" unicode="&#x2026;" horiz-adv-x="909" 
d="M238 70q0 -35 -25.5 -60.5t-60.5 -25.5t-60.5 25.5t-25.5 60.5t25.5 60.5t60.5 25.5t60.5 -25.5t25.5 -60.5zM541 70q0 -35 -25.5 -60.5t-60.5 -25.5t-60.5 25.5t-25.5 60.5t25.5 60.5t60.5 25.5t60.5 -25.5t25.5 -60.5zM844 70q0 -35 -25.5 -60.5t-60.5 -25.5
t-60.5 25.5t-25.5 60.5t25.5 60.5t60.5 25.5t60.5 -25.5t25.5 -60.5z" />
    <glyph glyph-name="perthousand" unicode="&#x2030;" horiz-adv-x="1675" 
d="M786 698q0 172 39 240t150 68q108 0 146 -67t38 -241v-407q0 -174 -38 -240.5t-146 -66.5q-111 0 -150 67.5t-39 239.5v407zM346 0l422 1569h104l-421 -1569h-105zM53 1272q0 172 39 239.5t150 67.5q108 0 146 -66.5t38 -240.5v-408q0 -174 -38 -240.5t-146 -66.5
q-111 0 -150 67.5t-39 239.5v408zM1047 748q0 87 -16 121t-58 34t-58 -34t-16 -121v-506q0 -87 16 -121.5t58 -34.5t58 34.5t16 121.5v506zM313 1321q0 88 -15.5 122t-57.5 34t-58 -34.5t-16 -121.5v-506q0 -87 16 -121.5t58 -34.5t57.5 34t15.5 122v506zM1251 698
q0 172 39 240t150 68q108 0 146 -67t38 -241v-407q0 -174 -38 -240.5t-146 -66.5q-111 0 -150 67.5t-39 239.5v407zM1511 748q0 87 -15.5 121t-57.5 34t-58 -34t-16 -121v-506q0 -87 16 -121.5t58 -34.5t57.5 34t15.5 122v506z" />
    <glyph glyph-name="guilsinglleft" unicode="&#x2039;" horiz-adv-x="370" 
d="M180 205l-149 342l149 346h127l-151 -346l151 -342h-127z" />
    <glyph glyph-name="guilsinglright" unicode="&#x203a;" horiz-adv-x="370" 
d="M63 205l152 342l-152 346h127l150 -346l-150 -342h-127z" />
    <glyph glyph-name="fraction" unicode="&#x2044;" horiz-adv-x="514" 
d="M-6 0l422 1569h104l-422 -1569h-104z" />
    <glyph glyph-name="foursuperior" unicode="&#x2074;" horiz-adv-x="407" 
d="M209 848v199h-178v79l127 445h147v-445h68v-79h-68v-199h-96zM209 1489l-88 -363h88v363z" />
    <glyph glyph-name="Euro" unicode="&#x20ac;" horiz-adv-x="675" 
d="M487 381h127v-80q0 -95 -17.5 -161t-51.5 -101.5t-75 -50.5t-97 -15t-97.5 15t-75.5 50.5t-51.5 101.5t-17.5 161v301h-78v115h78v131h-80v115h80v305q0 95 17.5 161t52 101.5t75.5 50t97 14.5t97 -14.5t75 -50t51.5 -101.5t17.5 -161v-103h-127v158q0 78 -32 117t-82 39
q-51 0 -83 -39t-32 -117v-360h309v-115h-309v-131h311v-115h-311v-356q0 -78 32 -117t83 -39q50 0 82 39t32 117v135z" />
    <glyph glyph-name="uni2116" unicode="&#x2116;" horiz-adv-x="1210" 
d="M514 0l-274 1098l4 -1098h-127v1569h121l284 -1114l-4 1114h127v-1569h-131zM786 231v115h349v-115h-349zM1153 737q0 -136 -52.5 -188.5t-144.5 -52.5t-144 52.5t-52 188.5v357q0 137 51.5 189t144.5 52t145 -52t52 -189v-357zM1030 1108q0 115 -74 115q-73 0 -73 -115
v-385q0 -115 73 -115q74 0 74 115v385z" />
    <glyph glyph-name="Omega" unicode="&#x2126;" horiz-adv-x="684" 
d="M373 0v152q84 24 84 151v1020q0 78 -32 117t-83 39t-83 -39t-32 -117v-1020q0 -127 84 -151v-152h-227v127l145 -12q-66 29 -97.5 102t-31.5 201v850q0 95 17.5 161t52 101.5t75.5 50t97 14.5t97 -14.5t75.5 -50t52 -101.5t17.5 -161v-850q0 -128 -31.5 -201t-97.5 -102
l145 12v-127h-227z" />
    <glyph glyph-name="angstrom" unicode="&#x212b;" horiz-adv-x="643" 
d="M479 0l-45 389h-223l-45 -389h-127l209 1561q-58 41 -58 110q0 55 38 93t94 38t93.5 -38t37.5 -93q0 -67 -60 -110l213 -1561h-127zM322 1346l-95 -840h191zM385 1671q0 26 -18.5 45t-44.5 19t-45 -19t-19 -45t19 -44.5t45 -18.5t44.5 18.5t18.5 44.5z" />
    <glyph glyph-name="onethird" unicode="&#x2153;" horiz-adv-x="944" 
d="M160 848v610l-127 -59v96l149 76h84v-723h-106zM784 270q0 36 -24.5 50t-52.5 14q-5 0 -11 -1t-10 -1v80q4 -2 19 -2q79 0 79 61v111q0 71 -51 71q-53 0 -53 -71v-84h-105v94q0 141 158 141t158 -141v-96q0 -51 -16.5 -79.5t-63.5 -39.5q47 -16 63.5 -46.5t16.5 -82.5
v-121q0 -141 -158 -141t-158 141v90h105v-80q0 -71 53 -71q51 0 51 71v133zM170 0l422 1569h104l-422 -1569h-104z" />
    <glyph glyph-name="twothirds" unicode="&#x2154;" horiz-adv-x="995" 
d="M39 848v108q0 43 21.5 88t52.5 83t61.5 76.5t52 81.5t21.5 83v62q0 71 -53 71q-54 0 -54 -71v-89h-102v101q0 74 43.5 107.5t112.5 33.5q72 0 115.5 -33.5t43.5 -107.5v-84q0 -42 -21.5 -87.5t-52.5 -85t-62.5 -79t-53 -85t-21.5 -87.5h195v-86h-299zM848 270
q0 36 -25 50t-53 14q-5 0 -10.5 -1t-9.5 -1v80q4 -2 18 -2q80 0 80 61v111q0 71 -51 71q-54 0 -54 -71v-84h-104v94q0 141 158 141q157 0 157 -141v-96q0 -51 -16.5 -79.5t-63.5 -39.5q47 -16 63.5 -46.5t16.5 -82.5v-121q0 -141 -157 -141q-158 0 -158 141v90h104v-80
q0 -71 54 -71q51 0 51 71v133zM233 0l422 1569h105l-422 -1569h-105z" />
    <glyph glyph-name="Delta" unicode="&#x2206;" horiz-adv-x="645" 
d="M39 0l211 1571h143l213 -1571h-567zM322 1346l-138 -1219h277z" />
    <glyph glyph-name="product" unicode="&#x220f;" horiz-adv-x="716" 
d="M473 -205v1647h-229v-1647h-127v1774h483v-1774h-127z" />
    <glyph glyph-name="summation" unicode="&#x2211;" horiz-adv-x="591" 
d="M51 -205v127l262 783l-270 737v127h483v-127h-346l271 -737l-263 -783h369v-127h-506z" />
    <glyph glyph-name="minus" unicode="&#x2212;" horiz-adv-x="864" 
d="M82 688v111h700v-111h-700z" />
    <glyph glyph-name="notequal" unicode="&#x2260;" horiz-adv-x="864" 
d="M434 532l-74 -301h-112l74 301h-240v111h268l49 197h-317v110h344l78 305h112l-77 -305h243v-110h-270l-49 -197h319v-111h-348z" />
    <glyph glyph-name="commaaccent" unicode="&#xf6c3;" horiz-adv-x="333" 
d="M76 -319l74 217h135l-115 -217h-94z" />
    <glyph glyph-name="apple" unicode="&#xf8ff;" horiz-adv-x="2060" 
d="M823 0l-205 1030l412 406l414 -406l-207 -1030h-414zM371 0l-269 350l177 334l339 -168l105 -516h-352zM1339 0l105 516l338 168l176 -334l-266 -350h-353z" />
    <glyph glyph-name="A.uni" horiz-adv-x="622" 
d="M440 0l-12 106q-54 -133 -176 -133q-80 0 -135.5 66t-55.5 215v276q0 92 13 155t37.5 95.5t52.5 46t65 13.5q62 0 112 -31.5t77 -77.5v592q0 78 -32 117t-83 39t-83 -39t-32 -117v-299h-127v244q0 95 17.5 161t52 101.5t75.5 50t97 14.5t97 -14.5t75.5 -50t52 -101.5
t17.5 -161v-1268h-105zM418 539q0 86 -41 136t-96 50q-93 0 -93 -158v-313q0 -166 109 -166q121 0 121 174v277z" />
    <glyph glyph-name="AE.uni" horiz-adv-x="987" 
d="M795 524h127v-223q0 -96 -17.5 -161.5t-52.5 -101t-78.5 -50.5t-103.5 -15q-91 0 -147.5 34.5t-84.5 121.5q-62 -156 -186 -156q-37 0 -68.5 13t-60.5 43.5t-45.5 91t-16.5 145.5v264q0 92 13 155t37.5 95.5t52.5 46t65 13.5q62 0 112 -31.5t77 -77.5v592q0 78 -32 117
t-83 39t-83 -39t-32 -117v-299h-127v244q0 95 17.5 161t51.5 101.5t75 50t96 14.5q127 0 180 -92q53 92 191 92q59 0 102 -14.5t77.5 -50t52.5 -101t18 -161.5v-492h-377v-530q0 -79 33.5 -117.5t91.5 -38.5t91.5 38.5t33.5 117.5v278zM795 1323q0 79 -33.5 117.5
t-91.5 38.5t-91.5 -38.5t-33.5 -117.5v-424h250v424zM418 539q0 86 -41 136t-96 50q-93 0 -93 -158v-321q0 -82 30 -120t79 -38q52 0 86.5 40.5t34.5 125.5v285z" />
    <glyph glyph-name="AEacute.uni" horiz-adv-x="987" 
d="M795 524h127v-223q0 -96 -17.5 -161.5t-52.5 -101t-78.5 -50.5t-103.5 -15q-91 0 -147.5 34.5t-84.5 121.5q-62 -156 -186 -156q-37 0 -68.5 13t-60.5 43.5t-45.5 91t-16.5 145.5v264q0 92 13 155t37.5 95.5t52.5 46t65 13.5q62 0 112 -31.5t77 -77.5v592q0 78 -32 117
t-83 39t-83 -39t-32 -117v-299h-127v244q0 95 17.5 161t51.5 101.5t75 50t96 14.5q127 0 180 -92q53 92 191 92q59 0 102 -14.5t77.5 -50t52.5 -101t18 -161.5v-492h-377v-530q0 -79 33.5 -117.5t91.5 -38.5t91.5 38.5t33.5 117.5v278zM795 1323q0 79 -33.5 117.5
t-91.5 38.5t-91.5 -38.5t-33.5 -117.5v-424h250v424zM418 539q0 86 -41 136t-96 50q-93 0 -93 -158v-321q0 -82 30 -120t79 -38q52 0 86.5 40.5t34.5 125.5v285zM440 1722l90 207h146l-127 -207h-109z" />
    <glyph glyph-name="Aacute.uni" horiz-adv-x="622" 
d="M440 0l-12 106q-54 -133 -176 -133q-80 0 -135.5 66t-55.5 215v276q0 92 13 155t37.5 95.5t52.5 46t65 13.5q62 0 112 -31.5t77 -77.5v592q0 78 -32 117t-83 39t-83 -39t-32 -117v-299h-127v244q0 95 17.5 161t52 101.5t75.5 50t97 14.5t97 -14.5t75.5 -50t52 -101.5
t17.5 -161v-1268h-105zM418 539q0 86 -41 136t-96 50q-93 0 -93 -158v-313q0 -166 109 -166q121 0 121 174v277zM240 1722l90 207h145l-127 -207h-108z" />
    <glyph glyph-name="Abreve.uni" horiz-adv-x="622" 
d="M440 0l-12 106q-54 -133 -176 -133q-80 0 -135.5 66t-55.5 215v276q0 92 13 155t37.5 95.5t52.5 46t65 13.5q62 0 112 -31.5t77 -77.5v592q0 78 -32 117t-83 39t-83 -39t-32 -117v-299h-127v244q0 95 17.5 161t52 101.5t75.5 50t97 14.5t97 -14.5t75.5 -50t52 -101.5
t17.5 -161v-1268h-105zM418 539q0 86 -41 136t-96 50q-93 0 -93 -158v-313q0 -166 109 -166q121 0 121 174v277zM496 1892q0 -86 -55 -133t-134 -47t-134.5 47t-55.5 133h82q0 -46 29 -71t79 -25q49 0 79 25t30 71h80z" />
    <glyph glyph-name="Acircumflex.uni" horiz-adv-x="622" 
d="M440 0l-12 106q-54 -133 -176 -133q-80 0 -135.5 66t-55.5 215v276q0 92 13 155t37.5 95.5t52.5 46t65 13.5q62 0 112 -31.5t77 -77.5v592q0 78 -32 117t-83 39t-83 -39t-32 -117v-299h-127v244q0 95 17.5 161t52 101.5t75.5 50t97 14.5t97 -14.5t75.5 -50t52 -101.5
t17.5 -161v-1268h-105zM418 539q0 86 -41 136t-96 50q-93 0 -93 -158v-313q0 -166 109 -166q121 0 121 174v277zM387 1722l-80 127l-74 -127h-114l117 207h143l117 -207h-109z" />
    <glyph glyph-name="Adieresis.uni" horiz-adv-x="622" 
d="M440 0l-12 106q-54 -133 -176 -133q-80 0 -135.5 66t-55.5 215v276q0 92 13 155t37.5 95.5t52.5 46t65 13.5q62 0 112 -31.5t77 -77.5v592q0 78 -32 117t-83 39t-83 -39t-32 -117v-299h-127v244q0 95 17.5 161t52 101.5t75.5 50t97 14.5t97 -14.5t75.5 -50t52 -101.5
t17.5 -161v-1268h-105zM418 539q0 86 -41 136t-96 50q-93 0 -93 -158v-313q0 -166 109 -166q121 0 121 174v277zM172 1702q-37 0 -62.5 25.5t-25.5 62.5t25.5 62.5t62.5 25.5t62.5 -25.5t25.5 -62.5t-25.5 -62.5t-62.5 -25.5zM440 1702q-37 0 -62.5 25.5t-25.5 62.5
t25.5 62.5t62.5 25.5t62.5 -25.5t25.5 -62.5t-25.5 -62.5t-62.5 -25.5z" />
    <glyph glyph-name="Agrave.uni" horiz-adv-x="622" 
d="M440 0l-12 106q-54 -133 -176 -133q-80 0 -135.5 66t-55.5 215v276q0 92 13 155t37.5 95.5t52.5 46t65 13.5q62 0 112 -31.5t77 -77.5v592q0 78 -32 117t-83 39t-83 -39t-32 -117v-299h-127v244q0 95 17.5 161t52 101.5t75.5 50t97 14.5t97 -14.5t75.5 -50t52 -101.5
t17.5 -161v-1268h-105zM418 539q0 86 -41 136t-96 50q-93 0 -93 -158v-313q0 -166 109 -166q121 0 121 174v277zM373 1722h-109l-127 207h146z" />
    <glyph glyph-name="Amacron.uni" horiz-adv-x="622" 
d="M440 0l-12 106q-54 -133 -176 -133q-80 0 -135.5 66t-55.5 215v276q0 92 13 155t37.5 95.5t52.5 46t65 13.5q62 0 112 -31.5t77 -77.5v592q0 78 -32 117t-83 39t-83 -39t-32 -117v-299h-127v244q0 95 17.5 161t52 101.5t75.5 50t97 14.5t97 -14.5t75.5 -50t52 -101.5
t17.5 -161v-1268h-105zM418 539q0 86 -41 136t-96 50q-93 0 -93 -158v-313q0 -166 109 -166q121 0 121 174v277zM100 1722v103h414v-103h-414z" />
    <glyph glyph-name="Aogonek.uni" horiz-adv-x="622" 
d="M514 -352q-89 10 -136.5 60.5t-47.5 117.5q0 107 110 166l-12 114q-54 -133 -176 -133q-80 0 -135.5 66t-55.5 215v276q0 92 13 155t37.5 95.5t52.5 46t65 13.5q62 0 112 -31.5t77 -77.5v592q0 78 -32 117t-83 39t-83 -39t-32 -117v-299h-127v244q0 95 17.5 161t52 101.5
t75.5 50t97 14.5t97 -14.5t75.5 -50t52 -101.5t17.5 -161v-1268q-115 -80 -115 -168q0 -89 127 -121zM418 539q0 86 -41 136t-96 50q-93 0 -93 -158v-313q0 -166 109 -166q121 0 121 174v277z" />
    <glyph glyph-name="Aring.uni" horiz-adv-x="622" 
d="M440 0l-12 106q-54 -133 -176 -133q-80 0 -135.5 66t-55.5 215v276q0 92 13 155t37.5 95.5t52.5 46t65 13.5q62 0 112 -31.5t77 -77.5v592q0 78 -32 117t-83 39t-83 -39t-32 -117v-299h-127v244q0 95 17.5 161t52 101.5t75.5 50t97 14.5t97 -14.5t75.5 -50t52 -101.5
t17.5 -161v-1268h-105zM418 539q0 86 -41 136t-96 50q-93 0 -93 -158v-313q0 -166 109 -166q121 0 121 174v277zM379 1806q0 31 -21.5 52.5t-52.5 21.5t-52.5 -21.5t-21.5 -52.5t21.5 -52t52.5 -21t52.5 21t21.5 52zM305 1675q-55 0 -93 37.5t-38 93.5t38 93.5t93 37.5
t93 -37.5t38 -93.5t-38 -93.5t-93 -37.5z" />
    <glyph glyph-name="Atilde.uni" horiz-adv-x="622" 
d="M440 0l-12 106q-54 -133 -176 -133q-80 0 -135.5 66t-55.5 215v276q0 92 13 155t37.5 95.5t52.5 46t65 13.5q62 0 112 -31.5t77 -77.5v592q0 78 -32 117t-83 39t-83 -39t-32 -117v-299h-127v244q0 95 17.5 161t52 101.5t75.5 50t97 14.5t97 -14.5t75.5 -50t52 -101.5
t17.5 -161v-1268h-105zM418 539q0 86 -41 136t-96 50q-93 0 -93 -158v-313q0 -166 109 -166q121 0 121 174v277zM508 1849q-10 -59 -45.5 -94t-83.5 -35q-29 0 -67 17.5t-56 17.5q-12 0 -19 -5.5t-9.5 -10.5t-6.5 -17h-115q0 11 6 30t19 42.5t39 40t59 16.5q31 0 74 -15
t55 -15q19 0 27 14q4 8 4 14h119z" />
    <glyph glyph-name="Delta.sc" horiz-adv-x="522" 
d="M14 0l164 1225h164l166 -1225h-494zM260 1051l-104 -930h211z" />
    <glyph glyph-name="E.uni" horiz-adv-x="643" 
d="M578 301q0 -96 -17.5 -161.5t-52.5 -101t-78.5 -50.5t-103.5 -15t-103.5 15t-78.5 50.5t-52.5 101t-17.5 161.5v967q0 96 17.5 161.5t52.5 101t78.5 50t103.5 14.5t103.5 -14.5t78.5 -50t52.5 -101t17.5 -161.5v-492h-377v-530q0 -79 33.5 -117.5t91.5 -38.5t91.5 38.5
t33.5 117.5v278h127v-223zM451 899v424q0 79 -33.5 117.5t-91.5 38.5t-91.5 -38.5t-33.5 -117.5v-424h250z" />
    <glyph glyph-name="Eacute.uni" horiz-adv-x="643" 
d="M578 301q0 -96 -17.5 -161.5t-52.5 -101t-78.5 -50.5t-103.5 -15t-103.5 15t-78.5 50.5t-52.5 101t-17.5 161.5v967q0 96 17.5 161.5t52.5 101t78.5 50t103.5 14.5t103.5 -14.5t78.5 -50t52.5 -101t17.5 -161.5v-492h-377v-530q0 -79 33.5 -117.5t91.5 -38.5t91.5 38.5
t33.5 117.5v278h127v-223zM451 899v424q0 79 -33.5 117.5t-91.5 38.5t-91.5 -38.5t-33.5 -117.5v-424h250zM252 1722l90 207h145l-127 -207h-108z" />
    <glyph glyph-name="Ebreve.uni" horiz-adv-x="643" 
d="M578 301q0 -96 -17.5 -161.5t-52.5 -101t-78.5 -50.5t-103.5 -15t-103.5 15t-78.5 50.5t-52.5 101t-17.5 161.5v967q0 96 17.5 161.5t52.5 101t78.5 50t103.5 14.5t103.5 -14.5t78.5 -50t52.5 -101t17.5 -161.5v-492h-377v-530q0 -79 33.5 -117.5t91.5 -38.5t91.5 38.5
t33.5 117.5v278h127v-223zM451 899v424q0 79 -33.5 117.5t-91.5 38.5t-91.5 -38.5t-33.5 -117.5v-424h250zM514 1892q0 -86 -54.5 -133t-133.5 -47t-135 47t-56 133h82q0 -46 29 -71t80 -25q49 0 78.5 25t29.5 71h80z" />
    <glyph glyph-name="Ecaron.uni" horiz-adv-x="643" 
d="M578 301q0 -96 -17.5 -161.5t-52.5 -101t-78.5 -50.5t-103.5 -15t-103.5 15t-78.5 50.5t-52.5 101t-17.5 161.5v967q0 96 17.5 161.5t52.5 101t78.5 50t103.5 14.5t103.5 -14.5t78.5 -50t52.5 -101t17.5 -161.5v-492h-377v-530q0 -79 33.5 -117.5t91.5 -38.5t91.5 38.5
t33.5 117.5v278h127v-223zM451 899v424q0 79 -33.5 117.5t-91.5 38.5t-91.5 -38.5t-33.5 -117.5v-424h250zM254 1722l-117 207h115l74 -127l80 127h108l-117 -207h-143z" />
    <glyph glyph-name="Ecircumflex.uni" horiz-adv-x="643" 
d="M578 301q0 -96 -17.5 -161.5t-52.5 -101t-78.5 -50.5t-103.5 -15t-103.5 15t-78.5 50.5t-52.5 101t-17.5 161.5v967q0 96 17.5 161.5t52.5 101t78.5 50t103.5 14.5t103.5 -14.5t78.5 -50t52.5 -101t17.5 -161.5v-492h-377v-530q0 -79 33.5 -117.5t91.5 -38.5t91.5 38.5
t33.5 117.5v278h127v-223zM451 899v424q0 79 -33.5 117.5t-91.5 38.5t-91.5 -38.5t-33.5 -117.5v-424h250zM406 1722l-80 127l-74 -127h-115l117 207h143l117 -207h-108z" />
    <glyph glyph-name="Edieresis.uni" horiz-adv-x="643" 
d="M578 301q0 -96 -17.5 -161.5t-52.5 -101t-78.5 -50.5t-103.5 -15t-103.5 15t-78.5 50.5t-52.5 101t-17.5 161.5v967q0 96 17.5 161.5t52.5 101t78.5 50t103.5 14.5t103.5 -14.5t78.5 -50t52.5 -101t17.5 -161.5v-492h-377v-530q0 -79 33.5 -117.5t91.5 -38.5t91.5 38.5
t33.5 117.5v278h127v-223zM451 899v424q0 79 -33.5 117.5t-91.5 38.5t-91.5 -38.5t-33.5 -117.5v-424h250zM190 1702q-37 0 -62.5 25.5t-25.5 62.5t25.5 62.5t62.5 25.5t63 -25.5t26 -62.5t-26 -62.5t-63 -25.5zM459 1702q-37 0 -62.5 25.5t-25.5 62.5t25.5 62.5t62.5 25.5
t62.5 -25.5t25.5 -62.5t-25.5 -62.5t-62.5 -25.5z" />
    <glyph glyph-name="Edotaccent.uni" horiz-adv-x="643" 
d="M578 301q0 -96 -17.5 -161.5t-52.5 -101t-78.5 -50.5t-103.5 -15t-103.5 15t-78.5 50.5t-52.5 101t-17.5 161.5v967q0 96 17.5 161.5t52.5 101t78.5 50t103.5 14.5t103.5 -14.5t78.5 -50t52.5 -101t17.5 -161.5v-492h-377v-530q0 -79 33.5 -117.5t91.5 -38.5t91.5 38.5
t33.5 117.5v278h127v-223zM451 899v424q0 79 -33.5 117.5t-91.5 38.5t-91.5 -38.5t-33.5 -117.5v-424h250zM326 1702q-37 0 -62.5 25.5t-25.5 62.5t25.5 62.5t62.5 25.5t62.5 -25.5t25.5 -62.5t-25.5 -62.5t-62.5 -25.5z" />
    <glyph glyph-name="Egrave.uni" horiz-adv-x="643" 
d="M578 301q0 -96 -17.5 -161.5t-52.5 -101t-78.5 -50.5t-103.5 -15t-103.5 15t-78.5 50.5t-52.5 101t-17.5 161.5v967q0 96 17.5 161.5t52.5 101t78.5 50t103.5 14.5t103.5 -14.5t78.5 -50t52.5 -101t17.5 -161.5v-492h-377v-530q0 -79 33.5 -117.5t91.5 -38.5t91.5 38.5
t33.5 117.5v278h127v-223zM451 899v424q0 79 -33.5 117.5t-91.5 38.5t-91.5 -38.5t-33.5 -117.5v-424h250zM385 1722h-109l-126 207h145z" />
    <glyph glyph-name="Emacron.uni" horiz-adv-x="643" 
d="M578 301q0 -96 -17.5 -161.5t-52.5 -101t-78.5 -50.5t-103.5 -15t-103.5 15t-78.5 50.5t-52.5 101t-17.5 161.5v967q0 96 17.5 161.5t52.5 101t78.5 50t103.5 14.5t103.5 -14.5t78.5 -50t52.5 -101t17.5 -161.5v-492h-377v-530q0 -79 33.5 -117.5t91.5 -38.5t91.5 38.5
t33.5 117.5v278h127v-223zM451 899v424q0 79 -33.5 117.5t-91.5 38.5t-91.5 -38.5t-33.5 -117.5v-424h250zM119 1722v103h413v-103h-413z" />
    <glyph glyph-name="Eng.uni" horiz-adv-x="641" 
d="M313 -393v117h9q48 0 81 37.5t33 117.5v1436q0 86 -28 126t-84 40q-54 0 -85.5 -43.5t-31.5 -130.5v-1307h-127v1569h104l13 -107q20 55 65.5 94t112.5 39q23 0 46 -5.5t49.5 -24t46 -47.5t33 -81t13.5 -120v-1407q0 -80 -17 -138.5t-41 -89t-59.5 -48.5t-62.5 -22.5
t-61 -4.5h-9z" />
    <glyph glyph-name="Eogonek.uni" horiz-adv-x="643" 
d="M442 -344q-89 10 -136.5 60.5t-47.5 117.5q0 81 72 139q-61 0 -105.5 15t-79.5 50.5t-53 101t-18 161.5v967q0 96 17.5 161.5t52.5 101t78.5 50t103.5 14.5t103.5 -14.5t78.5 -50t52.5 -101t17.5 -161.5v-492h-377v-530q0 -79 33.5 -117.5t91.5 -38.5t91.5 38.5
t33.5 117.5v278h127v-223q0 -225 -105 -293q-115 -76 -115 -168q0 -89 127 -121zM451 1323q0 79 -33.5 117.5t-91.5 38.5t-91.5 -38.5t-33.5 -117.5v-424h250v424z" />
    <glyph glyph-name="Euro.sc" horiz-adv-x="587" 
d="M539 236q0 -140 -57.5 -198t-157.5 -58q-213 0 -213 256v208h-68v115h68v103h-70v114h70v213q0 256 213 256q100 0 157.5 -57t57.5 -195v-84h-125v97q0 62 -25.5 92t-64.5 30q-45 0 -66.5 -36t-21.5 -119v-197h239v-114h-239v-103h241v-115h-241v-227q0 -62 24.5 -91.5
t63.5 -29.5t64.5 29.5t25.5 91.5v80h125v-61z" />
    <glyph glyph-name="G.alt" horiz-adv-x="643" 
d="M451 731h-138v123h265v-553q0 -96 -17.5 -161.5t-52.5 -101t-78.5 -50.5t-103.5 -15t-103.5 15t-78.5 50.5t-52.5 101t-17.5 161.5v967q0 96 17.5 161.5t52.5 101t78.5 50t103.5 14.5t103.5 -14.5t78.5 -50t52.5 -101t17.5 -161.5v-246h-127v301q0 79 -33.5 117.5
t-91.5 38.5t-91.5 -38.5t-33.5 -117.5v-1077q0 -79 33.5 -117.5t91.5 -38.5t91.5 38.5t33.5 117.5v485z" />
    <glyph glyph-name="Gbreve.alt" horiz-adv-x="643" 
d="M451 731h-138v123h265v-553q0 -96 -17.5 -161.5t-52.5 -101t-78.5 -50.5t-103.5 -15t-103.5 15t-78.5 50.5t-52.5 101t-17.5 161.5v967q0 96 17.5 161.5t52.5 101t78.5 50t103.5 14.5t103.5 -14.5t78.5 -50t52.5 -101t17.5 -161.5v-246h-127v301q0 79 -33.5 117.5
t-91.5 38.5t-91.5 -38.5t-33.5 -117.5v-1077q0 -79 33.5 -117.5t91.5 -38.5t91.5 38.5t33.5 117.5v485zM520 1892q0 -86 -54.5 -133t-133.5 -47t-135 47t-56 133h82q0 -46 29 -71t80 -25q49 0 78.5 25t29.5 71h80z" />
    <glyph glyph-name="Gcircumflex.alt" horiz-adv-x="643" 
d="M451 731h-138v123h265v-553q0 -96 -17.5 -161.5t-52.5 -101t-78.5 -50.5t-103.5 -15t-103.5 15t-78.5 50.5t-52.5 101t-17.5 161.5v967q0 96 17.5 161.5t52.5 101t78.5 50t103.5 14.5t103.5 -14.5t78.5 -50t52.5 -101t17.5 -161.5v-246h-127v301q0 79 -33.5 117.5
t-91.5 38.5t-91.5 -38.5t-33.5 -117.5v-1077q0 -79 33.5 -117.5t91.5 -38.5t91.5 38.5t33.5 117.5v485zM406 1722l-80 127l-74 -127h-115l117 207h143l117 -207h-108z" />
    <glyph glyph-name="Gcommaaccent.alt" horiz-adv-x="643" 
d="M451 731h-138v123h265v-553q0 -96 -17.5 -161.5t-52.5 -101t-78.5 -50.5t-103.5 -15t-103.5 15t-78.5 50.5t-52.5 101t-17.5 161.5v967q0 96 17.5 161.5t52.5 101t78.5 50t103.5 14.5t103.5 -14.5t78.5 -50t52.5 -101t17.5 -161.5v-246h-127v301q0 79 -33.5 117.5
t-91.5 38.5t-91.5 -38.5t-33.5 -117.5v-1077q0 -79 33.5 -117.5t91.5 -38.5t91.5 38.5t33.5 117.5v485zM211 -319l74 217h135l-115 -217h-94z" />
    <glyph glyph-name="Gdotaccent.alt" horiz-adv-x="643" 
d="M451 731h-138v123h265v-553q0 -96 -17.5 -161.5t-52.5 -101t-78.5 -50.5t-103.5 -15t-103.5 15t-78.5 50.5t-52.5 101t-17.5 161.5v967q0 96 17.5 161.5t52.5 101t78.5 50t103.5 14.5t103.5 -14.5t78.5 -50t52.5 -101t17.5 -161.5v-246h-127v301q0 79 -33.5 117.5
t-91.5 38.5t-91.5 -38.5t-33.5 -117.5v-1077q0 -79 33.5 -117.5t91.5 -38.5t91.5 38.5t33.5 117.5v485zM326 1702q-37 0 -62.5 25.5t-25.5 62.5t25.5 62.5t62.5 25.5t62.5 -25.5t25.5 -62.5t-25.5 -62.5t-62.5 -25.5z" />
    <glyph glyph-name="IJ.alt" horiz-adv-x="624" 
d="M80 0v1569h127v-1569h-127zM297 -25v117h8q48 0 81.5 38t33.5 118v1321h127v-1290q0 -80 -17 -138.5t-41 -89.5t-59.5 -49t-63 -22.5t-61.5 -4.5h-8z" />
    <glyph glyph-name="J.alt" horiz-adv-x="337" 
d="M10 -25v117h8q48 0 81.5 38t33.5 118v1321h127v-1290q0 -80 -17 -138.5t-41 -89.5t-59.5 -49t-63 -22.5t-61.5 -4.5h-8z" />
    <glyph glyph-name="Jcircumflex.alt" horiz-adv-x="337" 
d="M276 1722l-79 127l-74 -127h-115l117 207h143l117 -207h-109zM10 -25v117h8q48 0 81.5 38t33.5 118v1321h127v-1290q0 -80 -17 -138.5t-41 -89.5t-59.5 -49t-63 -22.5t-61.5 -4.5h-8z" />
    <glyph glyph-name="Kappa.alt" horiz-adv-x="595" 
d="M446 0q-7 187 -68 378t-169 406q222 441 235 785h127q-8 -348 -223 -778q217 -437 225 -791h-127zM80 0v1569h127v-1569h-127z" />
    <glyph glyph-name="M.uni" horiz-adv-x="997" 
d="M793 0v1315q0 166 -107 166q-56 0 -89.5 -44t-33.5 -122v-1315h-127v1315q0 166 -108 166q-121 0 -121 -174v-1307h-127v1569h104l13 -107q20 55 65.5 94t112.5 39q22 0 43.5 -5.5t46.5 -19.5t46.5 -43.5t35.5 -72.5q23 58 71.5 99.5t112.5 41.5q23 0 46 -5.5t50 -24
t46.5 -47.5t33 -81t13.5 -120v-1317h-127z" />
    <glyph glyph-name="N.uni" horiz-adv-x="641" 
d="M436 0v1315q0 86 -28 126t-84 40q-54 0 -85.5 -43.5t-31.5 -130.5v-1307h-127v1569h104l13 -107q20 55 65.5 94t112.5 39q23 0 46 -5.5t49.5 -24t46 -47.5t33 -81t13.5 -120v-1317h-127z" />
    <glyph glyph-name="Nacute.uni" horiz-adv-x="641" 
d="M436 0v1315q0 86 -28 126t-84 40q-54 0 -85.5 -43.5t-31.5 -130.5v-1307h-127v1569h104l13 -107q20 55 65.5 94t112.5 39q23 0 46 -5.5t49.5 -24t46 -47.5t33 -81t13.5 -120v-1317h-127zM258 1722l90 207h146l-127 -207h-109z" />
    <glyph glyph-name="Ncaron.uni" horiz-adv-x="641" 
d="M436 0v1315q0 86 -28 126t-84 40q-54 0 -85.5 -43.5t-31.5 -130.5v-1307h-127v1569h104l13 -107q20 55 65.5 94t112.5 39q23 0 46 -5.5t49.5 -24t46 -47.5t33 -81t13.5 -120v-1317h-127zM256 1722l-117 207h115l74 -127l80 127h108l-117 -207h-143z" />
    <glyph glyph-name="Ncommaaccent.uni" horiz-adv-x="641" 
d="M205 -319l74 217h135l-115 -217h-94zM436 0v1315q0 86 -28 126t-84 40q-54 0 -85.5 -43.5t-31.5 -130.5v-1307h-127v1569h104l13 -107q20 55 65.5 94t112.5 39q23 0 46 -5.5t49.5 -24t46 -47.5t33 -81t13.5 -120v-1317h-127z" />
    <glyph glyph-name="Ntilde.uni" horiz-adv-x="641" 
d="M436 0v1315q0 86 -28 126t-84 40q-54 0 -85.5 -43.5t-31.5 -130.5v-1307h-127v1569h104l13 -107q20 55 65.5 94t112.5 39q23 0 46 -5.5t49.5 -24t46 -47.5t33 -81t13.5 -120v-1317h-127zM522 1849q-10 -59 -45.5 -94t-83.5 -35q-29 0 -67 17.5t-56 17.5q-12 0 -19 -5.5
t-9 -10t-6 -17.5h-115q0 11 6 30t19 42.5t39 40t59 16.5q30 0 73 -15t56 -15q18 0 26 14q4 8 4 14h119z" />
    <glyph glyph-name="OE.uni" horiz-adv-x="999" 
d="M807 524h127v-223q0 -96 -17.5 -161.5t-52.5 -101t-78.5 -50.5t-103.5 -15q-66 0 -112 20.5t-76 72.5q-54 -93 -179 -93q-56 0 -97 15t-75 50.5t-51.5 101.5t-17.5 161v967q0 95 17.5 161t51.5 101.5t75 50t97 14.5q126 0 179 -92q30 52 76 72t112 20q60 0 103.5 -14.5
t78.5 -50t52.5 -101t17.5 -161.5v-492h-377v-530q0 -79 33.5 -117.5t91.5 -38.5t91.5 38.5t33.5 117.5v278zM430 1323q0 78 -32 117t-83 39q-50 0 -82 -39t-32 -117v-1077q0 -78 32 -117t82 -39q51 0 83 39t32 117v1077zM807 1323q0 79 -33.5 117.5t-91.5 38.5t-91.5 -38.5
t-33.5 -117.5v-424h250v424z" />
    <glyph glyph-name="Omega.sc" horiz-adv-x="561" 
d="M305 0v139q66 17 66 119v748q0 62 -25 92t-65 30t-65.5 -30t-25.5 -92v-748q0 -102 66 -119v-139h-203v123l127 -10q-114 47 -114 235v641q0 256 215 256q47 0 83.5 -11.5t67.5 -39t47.5 -79.5t16.5 -126v-641q0 -188 -115 -235l127 10v-123h-203z" />
    <glyph glyph-name="R.alt" horiz-adv-x="620" 
d="M426 0v526q0 85 -27 120.5t-88 35.5h-104v-682h-127v1569h213q149 0 204.5 -69t55.5 -255v-254q0 -199 -150 -237q150 -29 150 -252v-502h-127zM426 1290q0 84 -27 118t-88 34h-104v-633h104q61 0 88 35.5t27 120.5v325z" />
    <glyph glyph-name="Racute.alt" horiz-adv-x="620" 
d="M426 0v526q0 85 -27 120.5t-88 35.5h-104v-682h-127v1569h213q149 0 204.5 -69t55.5 -255v-254q0 -199 -150 -237q150 -29 150 -252v-502h-127zM426 1290q0 84 -27 118t-88 34h-104v-633h104q61 0 88 35.5t27 120.5v325zM219 1722l90 207h146l-127 -207h-109z" />
    <glyph glyph-name="Rcaron.alt" horiz-adv-x="620" 
d="M426 0v526q0 85 -27 120.5t-88 35.5h-104v-682h-127v1569h213q149 0 204.5 -69t55.5 -255v-254q0 -199 -150 -237q150 -29 150 -252v-502h-127zM426 1290q0 84 -27 118t-88 34h-104v-633h104q61 0 88 35.5t27 120.5v325zM217 1722l-117 207h115l74 -127l80 127h108
l-117 -207h-143z" />
    <glyph glyph-name="Rcommaaccent.alt" horiz-adv-x="620" 
d="M426 0v526q0 85 -27 120.5t-88 35.5h-104v-682h-127v1569h213q149 0 204.5 -69t55.5 -255v-254q0 -199 -150 -237q150 -29 150 -252v-502h-127zM426 1290q0 84 -27 118t-88 34h-104v-633h104q61 0 88 35.5t27 120.5v325zM190 -319l74 217h135l-114 -217h-95z" />
    <glyph glyph-name="U.uni" horiz-adv-x="641" 
d="M457 0l-13 106q-20 -55 -65.5 -94t-112.5 -39q-23 0 -46 6t-49.5 24t-46 47.5t-33 81.5t-13.5 120v1317h127v-1315q0 -86 28 -126t84 -40q54 0 85.5 43.5t31.5 130.5v1307h127v-1569h-104z" />
    <glyph glyph-name="Uacute.uni" horiz-adv-x="641" 
d="M457 0l-13 106q-20 -55 -65.5 -94t-112.5 -39q-23 0 -46 6t-49.5 24t-46 47.5t-33 81.5t-13.5 120v1317h127v-1315q0 -86 28 -126t84 -40q54 0 85.5 43.5t31.5 130.5v1307h127v-1569h-104zM252 1722l90 207h145l-127 -207h-108z" />
    <glyph glyph-name="Ubreve.uni" horiz-adv-x="641" 
d="M457 0l-13 106q-20 -55 -65.5 -94t-112.5 -39q-23 0 -46 6t-49.5 24t-46 47.5t-33 81.5t-13.5 120v1317h127v-1315q0 -86 28 -126t84 -40q54 0 85.5 43.5t31.5 130.5v1307h127v-1569h-104zM508 1892q0 -86 -55 -133t-134 -47t-134.5 47t-55.5 133h82q0 -46 29 -71t79 -25
q49 0 79 25t30 71h80z" />
    <glyph glyph-name="Ucircumflex.uni" horiz-adv-x="641" 
d="M457 0l-13 106q-20 -55 -65.5 -94t-112.5 -39q-23 0 -46 6t-49.5 24t-46 47.5t-33 81.5t-13.5 120v1317h127v-1315q0 -86 28 -126t84 -40q54 0 85.5 43.5t31.5 130.5v1307h127v-1569h-104zM399 1722l-80 127l-73 -127h-115l117 207h143l117 -207h-109z" />
    <glyph glyph-name="Udieresis.uni" horiz-adv-x="641" 
d="M457 0l-13 106q-20 -55 -65.5 -94t-112.5 -39q-23 0 -46 6t-49.5 24t-46 47.5t-33 81.5t-13.5 120v1317h127v-1315q0 -86 28 -126t84 -40q54 0 85.5 43.5t31.5 130.5v1307h127v-1569h-104zM184 1702q-37 0 -62.5 25.5t-25.5 62.5t25.5 62.5t62.5 25.5t62.5 -25.5
t25.5 -62.5t-25.5 -62.5t-62.5 -25.5zM453 1702q-37 0 -62.5 25.5t-25.5 62.5t25.5 62.5t62.5 25.5t62.5 -25.5t25.5 -62.5t-25.5 -62.5t-62.5 -25.5z" />
    <glyph glyph-name="Ugrave.uni" horiz-adv-x="641" 
d="M457 0l-13 106q-20 -55 -65.5 -94t-112.5 -39q-23 0 -46 6t-49.5 24t-46 47.5t-33 81.5t-13.5 120v1317h127v-1315q0 -86 28 -126t84 -40q54 0 85.5 43.5t31.5 130.5v1307h127v-1569h-104zM385 1722h-109l-126 207h145z" />
    <glyph glyph-name="Uhungarumlaut.uni" horiz-adv-x="641" 
d="M457 0l-13 106q-20 -55 -65.5 -94t-112.5 -39q-23 0 -46 6t-49.5 24t-46 47.5t-33 81.5t-13.5 120v1317h127v-1315q0 -86 28 -126t84 -40q54 0 85.5 43.5t31.5 130.5v1307h127v-1569h-104zM137 1722l90 207h146l-127 -207h-109zM346 1722l90 207h146l-127 -207h-109z" />
    <glyph glyph-name="Umacron.uni" horiz-adv-x="641" 
d="M457 0l-13 106q-20 -55 -65.5 -94t-112.5 -39q-23 0 -46 6t-49.5 24t-46 47.5t-33 81.5t-13.5 120v1317h127v-1315q0 -86 28 -126t84 -40q54 0 85.5 43.5t31.5 130.5v1307h127v-1569h-104zM113 1722v103h413v-103h-413z" />
    <glyph glyph-name="Uogonek.uni" horiz-adv-x="641" 
d="M530 -352q-89 10 -136.5 60.5t-47.5 117.5q0 106 111 166l-11 114q-22 -52 -75 -92.5t-125 -40.5q-37 0 -65 13.5t-52.5 46t-37.5 95.5t-13 155v1286h127v-1323q0 -158 92 -158q55 0 96 50t41 136v1295h127v-1569q-115 -80 -115 -168q0 -89 127 -121z" />
    <glyph glyph-name="Uring.uni" horiz-adv-x="641" 
d="M457 0l-13 106q-20 -55 -65.5 -94t-112.5 -39q-23 0 -46 6t-49.5 24t-46 47.5t-33 81.5t-13.5 120v1317h127v-1315q0 -86 28 -126t84 -40q54 0 85.5 43.5t31.5 130.5v1307h127v-1569h-104zM393 1806q0 31 -21.5 52.5t-52.5 21.5t-52 -21.5t-21 -52.5t21 -52t52 -21
t52.5 21t21.5 52zM319 1675q-55 0 -93 37.5t-38 93.5t38 93.5t93 37.5q56 0 94 -38t38 -93t-38 -93t-94 -38z" />
    <glyph glyph-name="Utilde.uni" horiz-adv-x="641" 
d="M457 0l-13 106q-20 -55 -65.5 -94t-112.5 -39q-23 0 -46 6t-49.5 24t-46 47.5t-33 81.5t-13.5 120v1317h127v-1315q0 -86 28 -126t84 -40q54 0 85.5 43.5t31.5 130.5v1307h127v-1569h-104zM520 1849q-10 -59 -45.5 -94t-83.5 -35q-29 0 -67 17.5t-56 17.5q-12 0 -19 -5.5
t-9.5 -10.5t-6.5 -17h-114q0 11 6 30t19 42.5t39 40t59 16.5q30 0 73 -15t56 -15q18 0 26 14q4 8 4 14h119z" />
    <glyph glyph-name="a.alt" horiz-adv-x="514" 
d="M352 0l-18 94q-11 -20 -16 -28.5t-19 -27.5t-27 -28.5t-35 -17.5t-47 -8q-77 0 -106 69t-29 238v76q0 162 43.5 228.5t128.5 66.5h99v247q0 87 -16 121.5t-58 34.5t-58 -34.5t-16 -121.5v-118h-123v108q0 152 42 215.5t157 63.5q106 0 150.5 -61.5t44.5 -217.5v-899h-97z
M326 561h-70q-41 0 -59.5 -39t-18.5 -129v-145q0 -80 15 -117t51 -37q39 0 60.5 39t21.5 137v291z" />
    <glyph glyph-name="a.sc" horiz-adv-x="516" 
d="M381 0l-33 291h-176l-35 -291h-125l164 1225h164l166 -1225h-125zM258 1044l-72 -636h146z" />
    <glyph glyph-name="a.sc.uni" horiz-adv-x="569" 
d="M383 0l-8 80q-54 -100 -152 -100q-73 0 -117.5 50.5t-44.5 164.5v239q0 228 152 228q99 0 154 -84v428q0 62 -26 92t-65 30t-64.5 -30t-25.5 -92v-207h-125v194q0 252 213 252q218 0 218 -256v-989h-109zM365 406q0 68 -29.5 104.5t-71.5 36.5q-78 0 -78 -129v-191
q0 -133 84 -133q43 0 69 34t26 103v175z" />
    <glyph glyph-name="aacute.alt" horiz-adv-x="514" 
d="M352 0l-18 94q-11 -20 -16 -28.5t-19 -27.5t-27 -28.5t-35 -17.5t-47 -8q-77 0 -106 69t-29 238v76q0 162 43.5 228.5t128.5 66.5h99v247q0 87 -16 121.5t-58 34.5t-58 -34.5t-16 -121.5v-118h-123v108q0 152 42 215.5t157 63.5q106 0 150.5 -61.5t44.5 -217.5v-899h-97z
M326 561h-70q-41 0 -59.5 -39t-18.5 -129v-145q0 -80 15 -117t51 -37q39 0 60.5 39t21.5 137v291zM174 1315l90 207h146l-127 -207h-109z" />
    <glyph glyph-name="aacute.sc" horiz-adv-x="516" 
d="M381 0l-33 291h-176l-35 -291h-125l164 1225h164l166 -1225h-125zM258 1044l-72 -636h146zM195 1339l77 181h140l-119 -181h-98z" />
    <glyph glyph-name="aacute.sc.uni" horiz-adv-x="569" 
d="M383 0l-8 80q-54 -100 -152 -100q-73 0 -117.5 50.5t-44.5 164.5v239q0 228 152 228q99 0 154 -84v428q0 62 -26 92t-65 30t-64.5 -30t-25.5 -92v-207h-125v194q0 252 213 252q218 0 218 -256v-989h-109zM365 406q0 68 -29.5 104.5t-71.5 36.5q-78 0 -78 -129v-191
q0 -133 84 -133q43 0 69 34t26 103v175zM219 1339l78 181h139l-119 -181h-98z" />
    <glyph glyph-name="abreve.alt" horiz-adv-x="514" 
d="M352 0l-18 94q-11 -20 -16 -28.5t-19 -27.5t-27 -28.5t-35 -17.5t-47 -8q-77 0 -106 69t-29 238v76q0 162 43.5 228.5t128.5 66.5h99v247q0 87 -16 121.5t-58 34.5t-58 -34.5t-16 -121.5v-118h-123v108q0 152 42 215.5t157 63.5q106 0 150.5 -61.5t44.5 -217.5v-899h-97z
M326 561h-70q-41 0 -59.5 -39t-18.5 -129v-145q0 -80 15 -117t51 -37q39 0 60.5 39t21.5 137v291zM442 1485q0 -86 -54.5 -133t-133.5 -47t-135 47t-56 133h82q0 -46 29 -71t80 -25q49 0 78.5 25t29.5 71h80z" />
    <glyph glyph-name="abreve.sc" horiz-adv-x="516" 
d="M381 0l-33 291h-176l-35 -291h-125l164 1225h164l166 -1225h-125zM258 1044l-72 -636h146zM424 1493q-1 -77 -46 -120.5t-118 -43.5t-118.5 43.5t-45.5 120.5h74q3 -78 90 -78q43 0 65.5 21t24.5 57h74z" />
    <glyph glyph-name="abreve.sc.uni" horiz-adv-x="569" 
d="M383 0l-8 80q-54 -100 -152 -100q-73 0 -117.5 50.5t-44.5 164.5v239q0 228 152 228q99 0 154 -84v428q0 62 -26 92t-65 30t-64.5 -30t-25.5 -92v-207h-125v194q0 252 213 252q218 0 218 -256v-989h-109zM365 406q0 68 -29.5 104.5t-71.5 36.5q-78 0 -78 -129v-191
q0 -133 84 -133q43 0 69 34t26 103v175zM442 1493q-1 -77 -45.5 -120.5t-117.5 -43.5t-118.5 43.5t-45.5 120.5h73q3 -78 91 -78q43 0 65.5 21t24.5 57h73z" />
    <glyph glyph-name="acircumflex.alt" horiz-adv-x="514" 
d="M352 0l-18 94q-11 -20 -16 -28.5t-19 -27.5t-27 -28.5t-35 -17.5t-47 -8q-77 0 -106 69t-29 238v76q0 162 43.5 228.5t128.5 66.5h99v247q0 87 -16 121.5t-58 34.5t-58 -34.5t-16 -121.5v-118h-123v108q0 152 42 215.5t157 63.5q106 0 150.5 -61.5t44.5 -217.5v-899h-97z
M326 561h-70q-41 0 -59.5 -39t-18.5 -129v-145q0 -80 15 -117t51 -37q39 0 60.5 39t21.5 137v291zM334 1315l-80 127l-74 -127h-114l116 207h144l116 -207h-108z" />
    <glyph glyph-name="acircumflex.sc" horiz-adv-x="516" 
d="M381 0l-33 291h-176l-35 -291h-125l164 1225h164l166 -1225h-125zM258 1044l-72 -636h146zM324 1339l-66 109l-59 -109h-107l103 189h124l105 -189h-100z" />
    <glyph glyph-name="acircumflex.sc.uni" horiz-adv-x="569" 
d="M383 0l-8 80q-54 -100 -152 -100q-73 0 -117.5 50.5t-44.5 164.5v239q0 228 152 228q99 0 154 -84v428q0 62 -26 92t-65 30t-64.5 -30t-25.5 -92v-207h-125v194q0 252 213 252q218 0 218 -256v-989h-109zM365 406q0 68 -29.5 104.5t-71.5 36.5q-78 0 -78 -129v-191
q0 -133 84 -133q43 0 69 34t26 103v175zM344 1339l-65 109l-60 -109h-106l102 189h125l104 -189h-100z" />
    <glyph glyph-name="acute.sc" horiz-adv-x="190" 
d="M0 1022l78 180h139l-119 -180h-98z" />
    <glyph glyph-name="adieresis.alt" horiz-adv-x="514" 
d="M352 0l-18 94q-11 -20 -16 -28.5t-19 -27.5t-27 -28.5t-35 -17.5t-47 -8q-77 0 -106 69t-29 238v76q0 162 43.5 228.5t128.5 66.5h99v247q0 87 -16 121.5t-58 34.5t-58 -34.5t-16 -121.5v-118h-123v108q0 152 42 215.5t157 63.5q106 0 150.5 -61.5t44.5 -217.5v-899h-97z
M326 561h-70q-41 0 -59.5 -39t-18.5 -129v-145q0 -80 15 -117t51 -37q39 0 60.5 39t21.5 137v291zM121 1294q-37 0 -62.5 25.5t-25.5 62.5t25.5 62.5t62.5 25.5t62.5 -25.5t25.5 -62.5t-25.5 -62.5t-62.5 -25.5zM389 1294q-37 0 -62.5 25.5t-25.5 62.5t25.5 62.5t62.5 25.5
t62.5 -25.5t25.5 -62.5t-25.5 -62.5t-62.5 -25.5z" />
    <glyph glyph-name="adieresis.sc" horiz-adv-x="516" 
d="M381 0l-33 291h-176l-35 -291h-125l164 1225h164l166 -1225h-125zM258 1044l-72 -636h146zM141 1323q-33 0 -56.5 22.5t-23.5 57.5t23.5 57.5t56.5 22.5t56.5 -22.5t23.5 -57.5t-23.5 -57.5t-56.5 -22.5zM375 1323q-33 0 -55.5 22.5t-22.5 57.5t22.5 57.5t55.5 22.5
q35 0 57.5 -22.5t22.5 -57.5t-22.5 -57.5t-57.5 -22.5z" />
    <glyph glyph-name="adieresis.sc.uni" horiz-adv-x="569" 
d="M383 0l-8 80q-54 -100 -152 -100q-73 0 -117.5 50.5t-44.5 164.5v239q0 228 152 228q99 0 154 -84v428q0 62 -26 92t-65 30t-64.5 -30t-25.5 -92v-207h-125v194q0 252 213 252q218 0 218 -256v-989h-109zM365 406q0 68 -29.5 104.5t-71.5 36.5q-78 0 -78 -129v-191
q0 -133 84 -133q43 0 69 34t26 103v175zM162 1323q-33 0 -56.5 22.5t-23.5 57.5t23.5 57.5t56.5 22.5t56.5 -22.5t23.5 -57.5t-23.5 -57.5t-56.5 -22.5zM395 1323q-33 0 -55.5 22.5t-22.5 57.5t22.5 57.5t55.5 22.5q35 0 57.5 -22.5t22.5 -57.5t-22.5 -57.5t-57.5 -22.5z
" />
    <glyph glyph-name="ae.sc" horiz-adv-x="788" 
d="M371 0v291h-176l-74 -291h-123l313 1223h430v-121h-245v-424h235v-121h-235v-436h245v-121h-370zM371 1032l-146 -622h146v622z" />
    <glyph glyph-name="ae.sc.uni" horiz-adv-x="872" 
d="M811 236q0 -139 -58 -197.5t-163 -58.5q-159 0 -203 120q-30 -61 -69 -90.5t-95 -29.5q-162 0 -162 219v235q0 228 152 228q99 0 154 -84v428q0 62 -26 92t-65 30q-48 0 -69 -38.5t-21 -128.5v-162h-125v194q0 252 211 252q106 0 156 -71q50 71 162 71q104 0 162.5 -58.5
t58.5 -197.5v-397h-319v-375q0 -121 96 -121q54 0 76 38t22 126v150h125v-174zM686 1006q0 63 -27 92.5t-71 29.5t-70 -28.5t-26 -87.5v-299h194v293zM365 406q0 68 -29.5 104.5t-71.5 36.5q-78 0 -78 -129v-158q0 -94 20 -130t64 -36q42 0 68.5 32.5t26.5 100.5v179z" />
    <glyph glyph-name="aeacute.sc" horiz-adv-x="788" 
d="M371 0v291h-176l-74 -291h-123l313 1223h430v-121h-245v-424h235v-121h-235v-436h245v-121h-370zM371 1032l-146 -622h146v622zM457 1339l78 181h139l-119 -181h-98z" />
    <glyph glyph-name="aeacute.sc.uni" horiz-adv-x="872" 
d="M381 1339l78 181h139l-119 -181h-98zM811 236q0 -139 -58 -197.5t-163 -58.5q-159 0 -203 120q-30 -61 -69 -90.5t-95 -29.5q-162 0 -162 219v235q0 228 152 228q99 0 154 -84v428q0 62 -26 92t-65 30q-48 0 -69 -38.5t-21 -128.5v-162h-125v194q0 252 211 252
q106 0 156 -71q50 71 162 71q104 0 162.5 -58.5t58.5 -197.5v-397h-319v-375q0 -121 96 -121q54 0 76 38t22 126v150h125v-174zM686 1006q0 63 -27 92.5t-71 29.5t-70 -28.5t-26 -87.5v-299h194v293zM365 406q0 68 -29.5 104.5t-71.5 36.5q-78 0 -78 -129v-158
q0 -94 20 -130t64 -36q42 0 68.5 32.5t26.5 100.5v179z" />
    <glyph glyph-name="agrave.alt" horiz-adv-x="514" 
d="M352 0l-18 94q-11 -20 -16 -28.5t-19 -27.5t-27 -28.5t-35 -17.5t-47 -8q-77 0 -106 69t-29 238v76q0 162 43.5 228.5t128.5 66.5h99v247q0 87 -16 121.5t-58 34.5t-58 -34.5t-16 -121.5v-118h-123v108q0 152 42 215.5t157 63.5q106 0 150.5 -61.5t44.5 -217.5v-899h-97z
M326 561h-70q-41 0 -59.5 -39t-18.5 -129v-145q0 -80 15 -117t51 -37q39 0 60.5 39t21.5 137v291zM336 1315h-109l-127 207h146z" />
    <glyph glyph-name="agrave.sc" horiz-adv-x="516" 
d="M381 0l-33 291h-176l-35 -291h-125l164 1225h164l166 -1225h-125zM258 1044l-72 -636h146zM225 1339l-121 181h140l78 -181h-97z" />
    <glyph glyph-name="agrave.sc.uni" horiz-adv-x="569" 
d="M383 0l-8 80q-54 -100 -152 -100q-73 0 -117.5 50.5t-44.5 164.5v239q0 228 152 228q99 0 154 -84v428q0 62 -26 92t-65 30t-64.5 -30t-25.5 -92v-207h-125v194q0 252 213 252q218 0 218 -256v-989h-109zM365 406q0 68 -29.5 104.5t-71.5 36.5q-78 0 -78 -129v-191
q0 -133 84 -133q43 0 69 34t26 103v175zM244 1339l-121 181h139l78 -181h-96z" />
    <glyph glyph-name="alpha.alt" horiz-adv-x="520" 
d="M455 0h-97l-18 90q-54 -106 -143 -106q-77 0 -106.5 69t-29.5 238v645q0 137 52 189.5t145 52.5t145 -52.5t52 -189.5v-936zM184 248q0 -80 15 -117t51 -37q39 0 60.5 39t21.5 137v680q0 115 -74 115t-74 -115v-702z" />
    <glyph glyph-name="alpha.sc" horiz-adv-x="516" 
d="M381 0l-33 291h-176l-35 -291h-125l164 1225h164l166 -1225h-125zM258 1044l-72 -636h146z" />
    <glyph glyph-name="alphatonos.alt" horiz-adv-x="520" 
d="M455 0h-97l-18 90q-54 -106 -143 -106q-77 0 -106.5 69t-29.5 238v645q0 137 52 189.5t145 52.5t145 -52.5t52 -189.5v-936zM184 248q0 -80 15 -117t51 -37q39 0 60.5 39t21.5 137v680q0 115 -74 115t-74 -115v-702zM178 1315l90 207h146l-127 -207h-109z" />
    <glyph glyph-name="alphatonos.sc" horiz-adv-x="516" 
d="M381 0l-33 291h-176l-35 -291h-125l164 1225h164l166 -1225h-125zM258 1044l-72 -636h146zM195 1339l77 181h140l-119 -181h-98z" />
    <glyph glyph-name="amacron.alt" horiz-adv-x="514" 
d="M352 0l-18 94q-11 -20 -16 -28.5t-19 -27.5t-27 -28.5t-35 -17.5t-47 -8q-77 0 -106 69t-29 238v76q0 162 43.5 228.5t128.5 66.5h99v247q0 87 -16 121.5t-58 34.5t-58 -34.5t-16 -121.5v-118h-123v108q0 152 42 215.5t157 63.5q106 0 150.5 -61.5t44.5 -217.5v-899h-97z
M326 561h-70q-41 0 -59.5 -39t-18.5 -129v-145q0 -80 15 -117t51 -37q39 0 60.5 39t21.5 137v291zM47 1315v102h414v-102h-414z" />
    <glyph glyph-name="amacron.sc" horiz-adv-x="516" 
d="M381 0l-33 291h-176l-35 -291h-125l164 1225h164l166 -1225h-125zM258 1044l-72 -636h146zM78 1339v101h362v-101h-362z" />
    <glyph glyph-name="amacron.sc.uni" horiz-adv-x="569" 
d="M383 0l-8 80q-54 -100 -152 -100q-73 0 -117.5 50.5t-44.5 164.5v239q0 228 152 228q99 0 154 -84v428q0 62 -26 92t-65 30t-64.5 -30t-25.5 -92v-207h-125v194q0 252 213 252q218 0 218 -256v-989h-109zM365 406q0 68 -29.5 104.5t-71.5 36.5q-78 0 -78 -129v-191
q0 -133 84 -133q43 0 69 34t26 103v175zM98 1339v101h363v-101h-363z" />
    <glyph glyph-name="ampersand.sc" horiz-adv-x="573" 
d="M487 580v-349q0 -251 -213 -251q-107 0 -161 62t-54 194v186q0 90 28 141t108 76q-80 22 -108 68.5t-28 134.5v153q0 250 217 250q211 0 211 -246v-41h-125v50q0 63 -24.5 91.5t-63.5 28.5t-64.5 -29t-25.5 -91v-205q0 -31 15 -53t38.5 -32.5t44.5 -15t40 -4.5h40v97h125
v-97h58v-118h-58zM362 580h-40q-19 0 -40 -4.5t-44.5 -15t-38.5 -33t-15 -54.5v-256q0 -62 25.5 -91.5t64.5 -29.5t63.5 29.5t24.5 91.5v363z" />
    <glyph glyph-name="angstrom.sc" horiz-adv-x="552" 
d="M399 0l-32 291h-177l-34 -291h-125l168 1212q-39 33 -39 88q0 50 33.5 83.5t82.5 33.5q50 0 83.5 -33.5t33.5 -83.5q0 -53 -41 -88l172 -1212h-125zM276 1051l-71 -643h145zM326 1300q0 23 -13.5 36.5t-36.5 13.5q-21 0 -35 -13.5t-14 -36.5q0 -20 14.5 -34.5t34.5 -14.5
q23 0 36.5 14t13.5 35z" />
    <glyph glyph-name="aogonek.alt" horiz-adv-x="514" 
d="M416 -352q-89 10 -137 60.5t-48 117.5q0 116 129 174l-26 94q-11 -20 -16 -28.5t-19 -27.5t-27 -28.5t-35 -17.5t-47 -8q-77 0 -106 69t-29 238v76q0 162 43.5 228.5t128.5 66.5h99v247q0 87 -16 121.5t-58 34.5t-58 -34.5t-16 -121.5v-118h-123v108q0 152 42 215.5
t157 63.5q106 0 150.5 -61.5t44.5 -217.5v-899q-117 -76 -117 -168q0 -89 127 -121zM326 561h-70q-41 0 -59.5 -39t-18.5 -129v-145q0 -80 15 -117t51 -37q39 0 60.5 39t21.5 137v291z" />
    <glyph glyph-name="aogonek.sc" horiz-adv-x="514" 
d="M461 -299q-79 7 -123.5 51.5t-44.5 104.5q0 87 90 135l-37 299h-174l-35 -291h-125l164 1225h164l166 -1225q-56 -22 -82.5 -57.5t-26.5 -75.5t29 -66t78 -37zM258 1044l-72 -636h146z" />
    <glyph glyph-name="aogonek.sc.uni" horiz-adv-x="569" 
d="M463 -299q-77 7 -121.5 52t-44.5 104q0 84 86 137l-8 86q-54 -100 -152 -100q-73 0 -117.5 50.5t-44.5 164.5v239q0 228 152 228q99 0 154 -84v428q0 62 -26 92t-65 30t-64.5 -30t-25.5 -92v-207h-125v194q0 252 213 252q218 0 218 -256v-989q-93 -59 -93 -133
q0 -40 29 -66t78 -37zM365 406q0 68 -29.5 104.5t-71.5 36.5q-78 0 -78 -129v-191q0 -133 84 -133q43 0 69 34t26 103v175z" />
    <glyph glyph-name="aring.alt" horiz-adv-x="514" 
d="M352 0l-18 94q-11 -20 -16 -28.5t-19 -27.5t-27 -28.5t-35 -17.5t-47 -8q-77 0 -106 69t-29 238v76q0 162 43.5 228.5t128.5 66.5h99v247q0 87 -16 121.5t-58 34.5t-58 -34.5t-16 -121.5v-118h-123v108q0 152 42 215.5t157 63.5q106 0 150.5 -61.5t44.5 -217.5v-899h-97z
M326 561h-70q-41 0 -59.5 -39t-18.5 -129v-145q0 -80 15 -117t51 -37q39 0 60.5 39t21.5 137v291zM328 1399q0 31 -21.5 52.5t-52.5 21.5t-52.5 -21.5t-21.5 -52.5t21.5 -52.5t52.5 -21.5t52.5 21.5t21.5 52.5zM254 1268q-56 0 -93.5 38t-37.5 93t37.5 93t93.5 38t93.5 -38
t37.5 -93t-37.5 -93t-93.5 -38z" />
    <glyph glyph-name="aring.sc" horiz-adv-x="516" 
d="M381 0l-33 291h-176l-35 -291h-125l164 1225h164l166 -1225h-125zM258 1044l-72 -636h146zM313 1411q0 23 -16 39t-39 16t-38 -16t-15 -39t15 -38t38 -15t39 15t16 38zM258 1294q-50 0 -83.5 34t-33.5 83t33.5 83t83.5 34t83.5 -34t33.5 -83t-33.5 -83t-83.5 -34z" />
    <glyph glyph-name="aring.sc.uni" horiz-adv-x="569" 
d="M332 1421q0 23 -16.5 39.5t-39.5 16.5t-38 -16t-15 -40q0 -23 15 -38t38 -15q24 0 40 15t16 38zM276 1305q-50 0 -83 33.5t-33 82.5q0 50 33.5 83.5t82.5 33.5q50 0 83.5 -34t33.5 -83t-33.5 -82.5t-83.5 -33.5zM383 0l-8 80q-54 -100 -152 -100q-73 0 -117.5 50.5
t-44.5 164.5v239q0 228 152 228q99 0 154 -84v428q0 62 -26 92t-65 30t-64.5 -30t-25.5 -92v-207h-125v194q0 252 213 252q218 0 218 -256v-989h-109zM365 406q0 68 -29.5 104.5t-71.5 36.5q-78 0 -78 -129v-191q0 -133 84 -133q43 0 69 34t26 103v175z" />
    <glyph glyph-name="asterisk.sc" horiz-adv-x="481" 
d="M303 823l-61 138l-62 -140l-84 49l94 129l-145 -16v96l139 -14l-92 125l84 49l66 -145l61 143l86 -47l-92 -127l139 14v-94l-141 16l94 -129z" />
    <glyph glyph-name="atilde.alt" horiz-adv-x="514" 
d="M352 0l-18 94q-11 -20 -16 -28.5t-19 -27.5t-27 -28.5t-35 -17.5t-47 -8q-77 0 -106 69t-29 238v76q0 162 43.5 228.5t128.5 66.5h99v247q0 87 -16 121.5t-58 34.5t-58 -34.5t-16 -121.5v-118h-123v108q0 152 42 215.5t157 63.5q106 0 150.5 -61.5t44.5 -217.5v-899h-97z
M326 561h-70q-41 0 -59.5 -39t-18.5 -129v-145q0 -80 15 -117t51 -37q39 0 60.5 39t21.5 137v291zM455 1442q-10 -59 -45.5 -94t-83.5 -35q-29 0 -67.5 17.5t-55.5 17.5q-12 0 -19 -5.5t-9.5 -10.5t-6.5 -17h-115q0 11 6 30t19 42.5t39 40t59 16.5q31 0 73.5 -15.5
t55.5 -15.5q19 0 27 14q4 8 4 15h119z" />
    <glyph glyph-name="atilde.sc" horiz-adv-x="516" 
d="M381 0l-33 291h-176l-35 -291h-125l164 1225h164l166 -1225h-125zM258 1044l-72 -636h146zM432 1460q-6 -55 -34 -88t-72 -33q-24 0 -58 14.5t-53 14.5q-30 0 -33 -29h-96q0 42 27 81.5t77 39.5q25 0 61.5 -13t51.5 -13q13 0 22 7.5t9 18.5h98z" />
    <glyph glyph-name="atilde.sc.uni" horiz-adv-x="569" 
d="M383 0l-8 80q-54 -100 -152 -100q-73 0 -117.5 50.5t-44.5 164.5v239q0 228 152 228q99 0 154 -84v428q0 62 -26 92t-65 30t-64.5 -30t-25.5 -92v-207h-125v194q0 252 213 252q218 0 218 -256v-989h-109zM365 406q0 68 -29.5 104.5t-71.5 36.5q-78 0 -78 -129v-191
q0 -133 84 -133q43 0 69 34t26 103v175zM453 1460q-6 -55 -34.5 -88t-72.5 -33q-24 0 -58 14.5t-52 14.5q-30 0 -33 -29h-97q0 42 27.5 81.5t77.5 39.5q25 0 61.5 -13t51.5 -13q13 0 21.5 7.5t8.5 18.5h99z" />
    <glyph glyph-name="b.sc" horiz-adv-x="552" 
d="M68 0v1223h211q109 0 158.5 -57t49.5 -195v-158q0 -149 -114 -184q131 -37 131 -197v-176q0 -144 -52.5 -200t-166.5 -56h-217zM362 983q0 64 -21.5 91.5t-66.5 27.5h-81v-416h81q45 0 66.5 28.5t21.5 94.5v174zM379 444q0 63 -28.5 92t-76.5 29h-81v-444h98
q45 0 66.5 28.5t21.5 94.5v200z" />
    <glyph glyph-name="beta.sc" horiz-adv-x="552" 
d="M68 0v1223h211q109 0 158.5 -57t49.5 -195v-158q0 -149 -114 -184q131 -37 131 -197v-176q0 -144 -52.5 -200t-166.5 -56h-217zM362 983q0 64 -21.5 91.5t-66.5 27.5h-81v-416h81q45 0 66.5 28.5t21.5 94.5v174zM379 444q0 63 -28.5 92t-76.5 29h-81v-444h98
q45 0 66.5 28.5t21.5 94.5v200z" />
    <glyph glyph-name="braceleft.sc" horiz-adv-x="419" 
d="M389 -272h-106q-66 0 -99.5 46t-33.5 126v321q0 97 -28 147.5t-108 57.5v94q78 10 107 64.5t29 144.5v322q0 172 133 172h106v-103h-65q-20 0 -32 -9t-17.5 -30.5t-7 -41.5t-1.5 -56v-297q0 -90 -32.5 -142.5t-69.5 -68.5q35 -10 68.5 -65t33.5 -144v-291q0 -81 10 -110
t48 -29h65v-108z" />
    <glyph glyph-name="braceright.sc" horiz-adv-x="421" 
d="M272 -100q0 -80 -33.5 -126t-99.5 -46h-106v108h65q38 0 47 28.5t9 110.5v291q0 89 34 144t70 65q-38 16 -71 68.5t-33 142.5v297q0 37 -1 56t-6 41t-17 31t-32 9h-65v103h106q133 0 133 -172v-322q0 -90 29 -144.5t107 -64.5v-94q-80 -7 -108 -57.5t-28 -147.5v-321z
" />
    <glyph glyph-name="bracketleft.sc" horiz-adv-x="370" 
d="M88 -272v1495h250v-103h-131v-1284h131v-108h-250z" />
    <glyph glyph-name="bracketright.sc" horiz-adv-x="370" 
d="M33 -270v106h129v1284h-129v103h250v-1493h-250z" />
    <glyph glyph-name="breve.sc" horiz-adv-x="389" 
d="M358 1174q-1 -77 -45.5 -120.5t-117.5 -43.5t-118.5 43.5t-45.5 120.5h73q3 -78 91 -78q43 0 65.5 21t24.5 57h73z" />
    <glyph glyph-name="c.sc" horiz-adv-x="540" 
d="M492 236q0 -140 -56.5 -198t-156.5 -58q-216 0 -216 256v753q0 256 218 256q211 0 211 -252v-194h-125v207q0 62 -25 92t-63 30q-49 0 -70 -41.5t-21 -136.5v-733q0 -62 25.5 -91.5t65.5 -29.5q47 0 67.5 38t20.5 126v150h125v-174z" />
    <glyph glyph-name="cacute.sc" horiz-adv-x="540" 
d="M492 236q0 -140 -56.5 -198t-156.5 -58q-216 0 -216 256v753q0 256 218 256q211 0 211 -252v-194h-125v207q0 62 -25 92t-63 30q-49 0 -70 -41.5t-21 -136.5v-733q0 -62 25.5 -91.5t65.5 -29.5q47 0 67.5 38t20.5 126v150h125v-174zM209 1339l78 181h139l-119 -181h-98z
" />
    <glyph glyph-name="caron.sc" horiz-adv-x="393" 
d="M135 1022l-104 188h104l64 -108l61 108h102l-102 -188h-125z" />
    <glyph glyph-name="ccaron.sc" horiz-adv-x="540" 
d="M492 236q0 -140 -56.5 -198t-156.5 -58q-216 0 -216 256v753q0 256 218 256q211 0 211 -252v-194h-125v207q0 62 -25 92t-63 30q-49 0 -70 -41.5t-21 -136.5v-733q0 -62 25.5 -91.5t65.5 -29.5q47 0 67.5 38t20.5 126v150h125v-174zM215 1339l-104 189h104l64 -109
l61 109h102l-102 -189h-125z" />
    </font>
</defs>
</svg>
